<svg width="393" height="234" viewBox="0 0 393 234" fill="none" xmlns="http://www.w3.org/2000/svg">
<path d="M39.9402 214.967C61.06 184.896 82.9202 155.37 105.708 126.607C124.808 102.495 144.029 78.3093 166.502 57.3466C190.718 34.761 211.239 52.979 231.38 71.0924C250.166 87.9868 267.576 106.504 284.575 125.261C310.317 153.672 335.131 183.026 359.048 213.06C359.392 213.494 359.736 213.928 360.08 214.362L39.9477 214.975L39.9402 214.967Z" fill="#98DD4E"/>
<path d="M255.686 217.301C256.852 217.742 278.982 185.12 281.502 181.814C290.895 169.475 300.603 157.367 310.714 145.603C330.33 122.763 351.54 97.6941 377.513 81.9066C402.978 66.4258 415.625 90.2902 430.567 107.215C440.701 118.687 450.625 130.354 460.467 142.073C477.915 162.856 495.093 183.864 512.107 205.006C513.192 206.352 519.668 216.702 521.478 216.695C521.426 216.695 255.686 217.308 255.686 217.308V217.301Z" fill="#98DD4E"/>
<path d="M-1.95532 220.951C0.295762 217.705 2.62913 214.511 4.97743 211.333C10.5042 203.854 16.2105 196.495 22.1186 189.316C29.0289 180.925 36.2085 172.72 43.9938 165.13C50.2385 159.042 57.0964 152.678 65.1211 149.013C68.7108 147.375 72.7194 146.53 76.4663 148.168C79.2259 149.372 81.5517 151.713 83.7803 153.702C88.0656 157.546 92.1041 161.682 96.0379 165.885C104.975 175.42 113.441 185.412 121.72 195.523C127.329 202.366 132.848 209.276 138.263 216.276C138.689 216.822 139.108 217.376 139.534 217.922L-1.95532 220.951Z" fill="#B4E573"/>
<path d="M499 215H-1059V234H499V215Z" fill="#5695A8"/>
<mask id="mask0_288_7660" style="mask-type:luminance" maskUnits="userSpaceOnUse" x="183" y="38" width="183" height="196">
<path d="M365.985 38.1414H183.796V233.619H365.985V38.1414Z" fill="white"/>
</mask>
<g mask="url(#mask0_288_7660)">
<path d="M349.853 103.64L353.951 365.401C353.951 365.603 353.794 365.775 353.585 365.775C353.383 365.775 353.218 365.618 353.211 365.416L345.448 103.744C345.411 102.525 346.368 101.508 347.587 101.478C348.806 101.441 349.823 102.398 349.853 103.617C349.853 103.617 349.853 103.64 349.853 103.647V103.64Z" fill="#220909"/>
<path d="M227.868 158.578L238.877 135.521L235.721 104.574C235.721 104.574 228.773 107.73 221.826 121.626C217.353 130.57 208.162 149.476 202.187 161.801C199.584 167.171 205.096 174.814 211.064 174.814L246.004 180.169L250.394 161.098L227.861 158.586L227.868 158.578Z" fill="#FFF227"/>
<path d="M320.402 161.068C325.338 160.148 332.361 152.849 346.465 137.376C348.417 135.237 337.364 122.546 335.173 124.752C332.421 127.526 322.25 138.767 321.591 139.664C316.087 147.203 317.052 161.689 320.402 161.068Z" fill="#FDA6BA"/>
<path d="M353.473 113.205C354.423 113.803 354.595 114.955 354.378 115.972C354.729 116.002 355.073 116.069 355.402 116.182C355.874 116.339 356.42 116.78 356.614 117.236C357.115 118.403 357.055 119.233 356.569 120.302C357.556 120.594 358.618 121.2 359.045 122.179C359.486 123.197 359.261 124.386 358.865 125.38C358.865 125.395 359.179 125.717 359.202 125.747C359.478 126.091 359.71 126.48 359.875 126.891C361.243 130.361 356.42 131.969 354.296 133.48C352.209 134.968 345.456 138.161 344.11 138.73L334.447 125.425C336.257 123.039 338.164 120.706 340.213 118.522C341.342 117.318 342.494 116.219 343.96 115.426C345.441 114.626 347.049 114.088 348.649 113.579C349.995 113.153 351.401 112.689 352.83 112.958C353.069 113.003 353.286 113.093 353.473 113.213V113.205Z" fill="#FDA6BA"/>
<path d="M354.318 115.942C354.318 115.942 348.47 118.036 346.824 119.45L354.318 115.942Z" fill="#FB1024"/>
<path d="M354.318 115.942C354.318 115.942 348.47 118.036 346.824 119.45" stroke="#0D0D0D" stroke-width="0.72" stroke-miterlimit="10"/>
<path d="M356.547 120.265C356.547 120.265 351.282 123.189 349.801 124.572L356.547 120.265Z" fill="#FB1024"/>
<path d="M356.547 120.265C356.547 120.265 351.282 123.189 349.801 124.572" stroke="#0D0D0D" stroke-width="0.72" stroke-miterlimit="10"/>
<path d="M358.828 125.41C358.828 125.41 353.667 128.723 352.718 129.381L358.828 125.41Z" fill="#FB1024"/>
<path d="M358.828 125.41C358.828 125.41 353.667 128.723 352.718 129.381" stroke="#0D0D0D" stroke-width="0.72" stroke-miterlimit="10"/>
<path d="M347.37 138.027C346.188 138.774 306.462 187.797 310.231 171.755C311.824 164.995 306.462 151.309 306.462 151.309L303.306 102.675C312.145 102.675 315.309 108.359 316.565 112.779C317.829 117.198 319.931 140.622 319.931 140.622C319.931 140.622 328.098 131.52 334.462 124.49C345.53 135.873 338.934 129.179 347.363 138.019L347.37 138.027Z" fill="#FFF227"/>
<path d="M274.88 193.623L266.189 283.008L255.936 330.042H247.096L244.95 283.621L240.777 193.623H274.88Z" fill="#0D0D0D"/>
<path d="M272.359 193.623L280.189 283.621L291.303 330.042H300.142L302.296 283.621L306.462 193.623H272.359Z" fill="#0D0D0D"/>
<path d="M319.325 134.781L320.268 144.795" stroke="#0D0D0D" stroke-width="0.52" stroke-miterlimit="10"/>
<path d="M273.444 88.1887C283.604 88.1887 291.841 79.9518 291.841 69.7911C291.841 59.6304 283.604 51.3936 273.444 51.3936C263.283 51.3936 255.046 59.6304 255.046 69.7911C255.046 79.9518 263.283 88.1887 273.444 88.1887Z" fill="#0D0D0D"/>
<path d="M242.078 68.8415C252.174 76.7539 280.578 80.6429 302.737 72.5285C303.328 72.3116 303.53 71.5862 303.134 71.1075L295.348 61.5498L250.491 58.147L241.951 66.2464C241.188 66.9643 241.24 68.1983 242.07 68.8415H242.078Z" fill="#FB1024"/>
<path d="M269.435 37.6256C272.733 37.491 276.031 37.7229 279.337 38.3735C279.337 38.3735 298.557 39.8318 295.348 61.55C277.714 66.9047 262.786 65.7006 250.491 58.1472C250.491 58.1472 247.5 38.3735 269.427 37.6256H269.435Z" fill="#FB1024"/>
<path d="M293.269 62.1554C277.916 66.4182 264.663 65.5956 253.46 59.822L293.269 62.1554Z" fill="#FB1024"/>
<path d="M293.269 62.1554C280.496 66.5902 265.366 66.9567 253.46 59.822C266.002 65.5058 280.04 65.087 293.269 62.1554Z" fill="#0D0D0D"/>
<path d="M314.105 72.678H230.606C227.854 72.678 225.625 74.5028 225.625 76.7539V89.7668C225.625 92.0179 227.854 93.8427 230.606 93.8427H314.105C316.857 93.8427 319.086 92.0179 319.086 89.7668V76.7539C319.086 74.5028 316.857 72.678 314.105 72.678Z" fill="#EFEFEF"/>
<path d="M314.801 155.827L318.705 155.786L318.658 151.299L314.754 151.34L314.801 155.827Z" fill="#DCDCDC"/>
<path d="M313.618 159.527L319.974 159.46L319.921 154.338L313.564 154.404L313.618 159.527Z" fill="#C8C8C8"/>
<path d="M309.296 165.959C309.348 170.596 309.543 189.398 309.543 189.398L324.657 189.241C324.657 189.241 324.463 170.439 324.41 165.802C324.358 161.166 321.404 157.613 316.767 157.658C312.123 157.71 309.244 161.315 309.289 165.959H309.296Z" fill="#FFC800"/>
<path d="M309.296 165.959C309.348 170.596 309.543 189.398 309.543 189.398L324.657 189.241C324.657 189.241 324.463 170.439 324.41 165.802C324.358 161.166 321.404 157.613 316.767 157.658C312.123 157.71 309.244 161.315 309.289 165.959H309.296Z" fill="#FDFFFB"/>
<path d="M324.74 190.183C322.309 193.519 314.562 194.027 310 193.377C311.346 191.634 312.146 189.443 312.146 187.079V172.429C316.154 172.518 321.554 172.324 325.189 171.023C325.189 171.023 325.802 188.725 324.74 190.183Z" fill="#375A64"/>
<mask id="mask1_288_7660" style="mask-type:luminance" maskUnits="userSpaceOnUse" x="309" y="171" width="17" height="23">
<path d="M324.74 190.183C322.309 193.519 314.562 194.027 310 193.377C311.346 191.634 312.146 189.443 312.146 187.079V172.429C316.154 172.518 321.554 172.324 325.189 171.023C325.189 171.023 325.802 188.725 324.74 190.183Z" fill="white"/>
</mask>
<g mask="url(#mask1_288_7660)">
<path d="M308.832 172.436H314.561V190.422C314.561 192.187 313.125 193.623 311.36 193.623H308.832V172.436Z" fill="#2B454E"/>
</g>
<path d="M312.146 99.0326V187.079C312.146 189.442 311.346 191.634 309.999 193.376C308.115 195.829 305.146 197.415 301.81 197.415H242.901C237.194 197.415 232.565 192.785 232.565 187.079V99.0326C232.565 96.1608 234.891 93.835 237.763 93.835H306.948C309.82 93.835 312.146 96.1608 312.146 99.0326Z" fill="#375A64"/>
<path d="M312.146 99.5412C312.146 96.3927 309.596 93.835 306.44 93.835H238.271C235.123 93.835 232.565 96.3852 232.565 99.5412V119.711C232.565 119.891 232.565 120.055 232.588 120.227C232.565 120.482 232.565 120.736 232.565 120.99C232.565 133.195 250.379 143.097 272.352 143.097C294.324 143.097 312.138 133.203 312.138 120.99C312.138 120.728 312.138 120.482 312.116 120.227C312.138 120.055 312.138 119.883 312.138 119.711V99.5412H312.146Z" fill="#375A64"/>
<path d="M310.77 129.927C310.77 133.203 308.197 135.888 305.048 135.888H239.864C236.716 135.888 234.143 133.211 234.143 129.927" stroke="#0D0D0D" stroke-width="1.5" stroke-miterlimit="10"/>
<path d="M280.571 130.742H264.342V139.036H280.571V130.742Z" fill="#FDFFFB"/>
</g>
<path d="M151.896 41.5516C150.954 42.5986 149.982 43.6083 149.024 44.6328L146.108 47.6767C145.143 48.6938 144.141 49.681 143.161 50.6831L140.2 53.6821L139.766 54.1233L139.332 53.6821L136.445 50.7579C135.488 49.7782 134.516 48.8134 133.573 47.8262L130.732 44.8647C129.797 43.8625 128.854 42.8679 127.935 41.8508L128.368 41.417C129.266 41.4918 130.066 41.6563 130.844 41.8433C131.629 42.0303 132.362 42.2696 133.08 42.5164C134.501 43.0249 135.84 43.6307 137.081 44.3262C138.001 44.8348 138.883 45.3882 139.721 45.9865C140.626 45.3284 141.568 44.7076 142.57 44.1542C143.834 43.4362 145.195 42.808 146.646 42.2771C147.02 42.1499 147.379 42.0228 147.76 41.9031C148.149 41.7909 148.516 41.6713 148.927 41.5815C149.72 41.3796 150.543 41.2151 151.455 41.1328L151.889 41.5666L151.896 41.5516Z" fill="#9FA0A0"/>
<path d="M356.887 0.358978C356.117 1.21155 355.324 2.04168 354.539 2.87929L352.153 5.3697C351.361 6.19983 350.545 7.00753 349.738 7.83018L347.315 10.2832L346.956 10.6422L346.597 10.2832L344.233 7.89001C343.448 7.0898 342.655 6.30453 341.885 5.48936L339.559 3.06626C338.796 2.24361 338.019 1.43591 337.271 0.605775L337.63 0.246797C338.363 0.306626 339.021 0.441243 339.656 0.598296C340.3 0.755348 340.898 0.942315 341.489 1.14424C342.655 1.56305 343.747 2.05664 344.764 2.62502C345.52 3.04383 346.238 3.49255 346.926 3.97866C347.666 3.4402 348.436 2.93164 349.259 2.47544C350.291 1.88463 351.405 1.37608 352.595 0.934837C352.901 0.830136 353.193 0.725433 353.507 0.62821C353.821 0.538465 354.128 0.441242 354.457 0.366455C355.107 0.201924 355.781 0.0673082 356.528 0L356.887 0.358978Z" fill="#9FA0A0"/>
<path d="M67.4995 229.327C67.4995 230.792 67.4696 232.206 67.4172 233.552H23.8165C23.6296 230.86 23.5323 227.958 23.5323 224.832C23.5323 222.177 23.5997 219.447 23.7343 216.688C23.7642 216.119 23.7941 215.543 23.8315 214.967C24.0035 211.939 24.2578 208.887 24.5869 205.836C27.2268 180.924 34.6382 156.626 43.9342 156.626C48.227 156.626 52.5496 162.43 56.2964 171.247C60.1031 180.199 63.319 192.255 65.3158 204.505C65.8841 207.997 66.3553 211.505 66.7068 214.967C66.7666 215.536 66.8264 216.112 66.8788 216.68C66.8788 216.71 66.8863 216.732 66.8863 216.762C67.2826 221.1 67.4995 225.333 67.4995 229.327Z" fill="#139926"/>
<path d="M140.147 231.578C140.147 232.258 140.14 232.916 140.117 233.552H114.376C114.286 232.109 114.241 230.568 114.241 228.93C114.241 225.026 114.495 220.868 114.966 216.762C114.966 216.732 114.974 216.703 114.981 216.673C115.041 216.104 115.109 215.536 115.183 214.968C116.537 204.669 119.229 194.984 122.684 190.849C123.799 189.503 124.995 188.74 126.259 188.74C130.021 188.74 133.813 196.278 136.475 205.971C137.268 208.828 137.956 211.871 138.517 214.968C138.622 215.528 138.719 216.097 138.809 216.665C138.809 216.695 138.823 216.732 138.823 216.762C139.661 221.84 140.147 226.978 140.147 231.578Z" fill="#139926"/>
<path d="M7.76717 233.552H-17.9669C-17.8398 227.472 -17.1369 220.906 -15.9777 214.968C-13.8687 204.101 -10.2564 195.306 -5.96368 195.306C-1.89528 195.306 2.21052 204.124 4.88041 214.968C6.36119 220.928 7.40072 227.502 7.76717 233.552Z" fill="#139926"/>
<path d="M113.905 77.3861C115.124 77.3861 116.462 77.3412 117.375 76.5335C119.14 74.963 117.689 71.7397 115.438 71.0292C113.187 70.3187 110.779 71.2535 108.602 72.1734C111.414 66.7888 110.427 59.6616 106.232 55.2716C102.036 50.8816 94.9313 49.5728 89.4643 52.2128C83.9974 54.8528 80.5946 61.2471 81.4995 67.2524C79.6672 55.1145 56.2814 68.8753 70.3339 75.6809C75.726 78.291 83.6983 77.1168 89.4569 77.1991C97.6086 77.3188 105.76 77.3786 113.912 77.3786L113.905 77.3861Z" fill="white"/>
</svg>
