<svg width="1920" height="313" viewBox="0 0 1920 313" fill="none" xmlns="http://www.w3.org/2000/svg">
<path d="M342.17 287.916C342.17 287.916 206.24 149.686 160.07 116.776C113.9 83.8659 97.6 71.2959 78.55 80.7559C53.48 93.1959 -71.95 239.186 -109 290.336C35.36 291.116 259.42 289.296 342.17 287.916Z" fill="#B4E573"/>
<path d="M50.06 287.676C50.06 287.676 169.09 90.5558 205.32 55.4858C241.55 20.4158 274.61 35.4358 292.1 55.4858C309.59 75.5358 445.29 290.526 445.29 290.526L50.06 287.686V287.676Z" fill="#B4E573"/>
<path d="M1360.43 287.916C1388.67 247.706 1417.9 208.226 1448.37 169.766C1473.91 137.526 1499.61 105.186 1529.66 77.1557C1562.04 46.9557 1589.48 71.3157 1616.41 95.5357C1641.53 118.126 1664.81 142.886 1687.54 167.966C1721.96 205.956 1755.14 245.206 1787.12 285.366C1787.58 285.946 1788.04 286.526 1788.5 287.106L1360.44 287.926L1360.43 287.916Z" fill="#98DD4E"/>
<path d="M253.57 290.516C253.57 290.516 543.41 290.256 543.43 290.256C541.48 290.256 532.24 272.066 531.07 270.276C521.09 254.936 510.41 240.016 498.85 225.816C480.37 203.126 459.29 177.716 431.25 166.806C396.6 153.326 370.71 178.656 348.25 202.116C343.46 207.116 338.39 211.926 333.31 216.636C314.67 233.906 296.03 251.186 277.39 268.456C269.45 275.816 261.51 283.166 253.58 290.526L253.57 290.516Z" fill="#98DD4E"/>
<path d="M1648.91 291.036C1650.47 291.626 1680.06 248.006 1683.43 243.586C1695.99 227.086 1708.97 210.896 1722.49 195.166C1748.72 164.626 1777.08 131.106 1811.81 109.996C1845.86 89.2959 1862.77 121.206 1882.75 143.836C1896.3 159.176 1909.57 174.776 1922.73 190.446C1946.06 218.236 1969.03 246.326 1991.78 274.596C1993.23 276.396 2001.89 290.236 2004.31 290.226C2004.24 290.226 1648.91 291.046 1648.91 291.046V291.036Z" fill="#98DD4E"/>
<path d="M1304.41 295.916C1307.42 291.576 1310.54 287.306 1313.68 283.056C1321.07 273.056 1328.7 263.216 1336.6 253.616C1345.84 242.396 1355.44 231.426 1365.85 221.276C1374.2 213.136 1383.37 204.626 1394.1 199.726C1398.9 197.536 1404.26 196.406 1409.27 198.596C1412.96 200.206 1416.07 203.336 1419.05 205.996C1424.78 211.136 1430.18 216.666 1435.44 222.286C1447.39 235.036 1458.71 248.396 1469.78 261.916C1477.28 271.066 1484.66 280.306 1491.9 289.666C1492.47 290.396 1493.03 291.136 1493.6 291.866L1304.41 295.916Z" fill="#B4E573"/>
<path d="M1974 287.476H-109V312.476H1974V287.476Z" fill="#5695A8"/>
<mask id="mask0_263_21" style="mask-type:luminance" maskUnits="userSpaceOnUse" x="1527" y="51" width="244" height="262">
<path d="M1770.7 51.4756H1527.09V312.856H1770.7V51.4756Z" fill="white"/>
</mask>
<g mask="url(#mask0_263_21)">
<path d="M1749.13 139.056L1754.61 489.066C1754.61 489.336 1754.4 489.566 1754.12 489.566C1753.85 489.566 1753.63 489.356 1753.62 489.086L1743.24 139.196C1743.19 137.566 1744.47 136.206 1746.1 136.166C1747.73 136.116 1749.09 137.396 1749.13 139.026C1749.13 139.026 1749.13 139.056 1749.13 139.066V139.056Z" fill="#220909"/>
<path d="M1586.02 212.516L1600.74 181.686L1596.52 140.306C1596.52 140.306 1587.23 144.526 1577.94 163.106C1571.96 175.066 1559.67 200.346 1551.68 216.826C1548.2 224.006 1555.57 234.226 1563.55 234.226L1610.27 241.386L1616.14 215.886L1586.01 212.526L1586.02 212.516Z" fill="#FFF227"/>
<path d="M1709.75 215.846C1716.35 214.616 1725.74 204.856 1744.6 184.166C1747.21 181.306 1732.43 164.336 1729.5 167.286C1725.82 170.996 1712.22 186.026 1711.34 187.226C1703.98 197.306 1705.27 216.676 1709.75 215.846Z" fill="#FDA6BA"/>
<path d="M1753.97 151.846C1755.24 152.646 1755.47 154.186 1755.18 155.546C1755.65 155.586 1756.11 155.676 1756.55 155.826C1757.18 156.036 1757.91 156.626 1758.17 157.236C1758.84 158.796 1758.76 159.906 1758.11 161.336C1759.43 161.726 1760.85 162.536 1761.42 163.846C1762.01 165.206 1761.71 166.796 1761.18 168.126C1761.18 168.146 1761.6 168.576 1761.63 168.616C1762 169.076 1762.31 169.596 1762.53 170.146C1764.36 174.786 1757.91 176.936 1755.07 178.956C1752.28 180.946 1743.25 185.216 1741.45 185.976L1728.53 168.186C1730.95 164.996 1733.5 161.876 1736.24 158.956C1737.75 157.346 1739.29 155.876 1741.25 154.816C1743.23 153.746 1745.38 153.026 1747.52 152.346C1749.32 151.776 1751.2 151.156 1753.11 151.516C1753.43 151.576 1753.72 151.696 1753.97 151.856V151.846Z" fill="#FDA6BA"/>
<path d="M1755.1 155.506C1755.1 155.506 1747.28 158.306 1745.08 160.196L1755.1 155.506Z" fill="#FB1024"/>
<path d="M1755.1 155.506C1755.1 155.506 1747.28 158.306 1745.08 160.196" stroke="#0D0D0D" stroke-width="0.72" stroke-miterlimit="10"/>
<path d="M1758.08 161.286C1758.08 161.286 1751.04 165.196 1749.06 167.046L1758.08 161.286Z" fill="#FB1024"/>
<path d="M1758.08 161.286C1758.08 161.286 1751.04 165.196 1749.06 167.046" stroke="#0D0D0D" stroke-width="0.72" stroke-miterlimit="10"/>
<path d="M1761.13 168.166C1761.13 168.166 1754.23 172.596 1752.96 173.476L1761.13 168.166Z" fill="#FB1024"/>
<path d="M1761.13 168.166C1761.13 168.166 1754.23 172.596 1752.96 173.476" stroke="#0D0D0D" stroke-width="0.72" stroke-miterlimit="10"/>
<path d="M1745.81 185.036C1744.23 186.036 1691.11 251.586 1696.15 230.136C1698.28 221.096 1691.11 202.796 1691.11 202.796L1686.89 137.766C1698.71 137.766 1702.94 145.366 1704.62 151.276C1706.31 157.186 1709.12 188.506 1709.12 188.506C1709.12 188.506 1720.04 176.336 1728.55 166.936C1743.35 182.156 1734.53 173.206 1745.8 185.026L1745.81 185.036Z" fill="#FFF227"/>
<path d="M1648.88 259.375L1637.26 378.895L1623.55 441.785H1611.73L1608.86 379.715L1603.28 259.375H1648.88Z" fill="#0D0D0D"/>
<path d="M1645.51 259.375L1655.98 379.715L1670.84 441.785H1682.66L1685.54 379.715L1691.11 259.375H1645.51Z" fill="#0D0D0D"/>
<path d="M1708.31 180.696L1709.57 194.086" stroke="#0D0D0D" stroke-width="0.52" stroke-miterlimit="10"/>
<path d="M1646.96 118.396C1660.55 118.396 1671.56 107.382 1671.56 93.7956C1671.56 80.2094 1660.55 69.1956 1646.96 69.1956C1633.37 69.1956 1622.36 80.2094 1622.36 93.7956C1622.36 107.382 1633.37 118.396 1646.96 118.396Z" fill="#0D0D0D"/>
<path d="M1605.02 92.5256C1618.52 103.106 1656.5 108.306 1686.13 97.4556C1686.92 97.1656 1687.19 96.1956 1686.66 95.5556L1676.25 82.7756L1616.27 78.2256L1604.85 89.0556C1603.83 90.0156 1603.9 91.6656 1605.01 92.5256H1605.02Z" fill="#FB1024"/>
<path d="M1641.6 50.7856C1646.01 50.6056 1650.42 50.9156 1654.84 51.7856C1654.84 51.7856 1680.54 53.7356 1676.25 82.7756C1652.67 89.9356 1632.71 88.3256 1616.27 78.2256C1616.27 78.2256 1612.27 51.7856 1641.59 50.7856H1641.6Z" fill="#FB1024"/>
<path d="M1673.47 83.5856C1652.94 89.2856 1635.22 88.1856 1620.24 80.4656L1673.47 83.5856Z" fill="#FB1024"/>
<path d="M1673.47 83.5856C1656.39 89.5156 1636.16 90.0056 1620.24 80.4656C1637.01 88.0656 1655.78 87.5056 1673.47 83.5856Z" fill="#0D0D0D"/>
<path d="M1701.33 97.6556H1589.68C1586 97.6556 1583.02 100.096 1583.02 103.106V120.506C1583.02 123.516 1586 125.956 1589.68 125.956H1701.33C1705.01 125.956 1707.99 123.516 1707.99 120.506V103.106C1707.99 100.096 1705.01 97.6556 1701.33 97.6556Z" fill="#EFEFEF"/>
<path d="M1702.26 208.837L1707.48 208.782L1707.42 202.782L1702.2 202.837L1702.26 208.837Z" fill="#DCDCDC"/>
<path d="M1700.68 213.785L1709.18 213.696L1709.11 206.846L1700.61 206.935L1700.68 213.785Z" fill="#C8C8C8"/>
<path d="M1694.9 222.386C1694.97 228.586 1695.23 253.726 1695.23 253.726L1715.44 253.516C1715.44 253.516 1715.18 228.376 1715.11 222.176C1715.04 215.976 1711.09 211.226 1704.89 211.286C1698.68 211.356 1694.83 216.176 1694.89 222.386H1694.9Z" fill="#FFC800"/>
<path d="M1694.9 222.386C1694.97 228.586 1695.23 253.726 1695.23 253.726L1715.44 253.516C1715.44 253.516 1715.18 228.376 1715.11 222.176C1715.04 215.976 1711.09 211.226 1704.89 211.286C1698.68 211.356 1694.83 216.176 1694.89 222.386H1694.9Z" fill="#FDFFFB"/>
<path d="M1715.55 254.776C1712.3 259.236 1701.94 259.916 1695.84 259.046C1697.64 256.716 1698.71 253.786 1698.71 250.626V231.036C1704.07 231.156 1711.29 230.896 1716.15 229.156C1716.15 229.156 1716.97 252.826 1715.55 254.776Z" fill="#375A64"/>
<mask id="mask1_263_21" style="mask-type:luminance" maskUnits="userSpaceOnUse" x="1695" y="229" width="22" height="31">
<path d="M1715.55 254.776C1712.3 259.236 1701.94 259.916 1695.84 259.046C1697.64 256.716 1698.71 253.786 1698.71 250.626V231.036C1704.07 231.156 1711.29 230.896 1716.15 229.156C1716.15 229.156 1716.97 252.826 1715.55 254.776Z" fill="white"/>
</mask>
<g mask="url(#mask1_263_21)">
<path d="M1694.28 231.046H1701.94V255.096C1701.94 257.456 1700.02 259.376 1697.66 259.376H1694.28V231.046Z" fill="#2B454E"/>
</g>
<path d="M1698.71 132.896V250.626C1698.71 253.786 1697.64 256.716 1695.84 259.046C1693.32 262.326 1689.35 264.446 1684.89 264.446H1606.12C1598.49 264.446 1592.3 258.256 1592.3 250.626V132.896C1592.3 129.056 1595.41 125.946 1599.25 125.946H1691.76C1695.6 125.946 1698.71 129.056 1698.71 132.896Z" fill="#375A64"/>
<path d="M1698.71 133.576C1698.71 129.366 1695.3 125.946 1691.08 125.946H1599.93C1595.72 125.946 1592.3 129.356 1592.3 133.576V160.546C1592.3 160.786 1592.3 161.006 1592.33 161.236C1592.3 161.576 1592.3 161.916 1592.3 162.256C1592.3 178.576 1616.12 191.816 1645.5 191.816C1674.88 191.816 1698.7 178.586 1698.7 162.256C1698.7 161.906 1698.7 161.576 1698.67 161.236C1698.7 161.006 1698.7 160.776 1698.7 160.546V133.576H1698.71Z" fill="#375A64"/>
<path d="M1696.87 174.206C1696.87 178.586 1693.43 182.176 1689.22 182.176H1602.06C1597.85 182.176 1594.41 178.596 1594.41 174.206" stroke="#0D0D0D" stroke-width="1.5" stroke-miterlimit="10"/>
<path d="M1656.49 175.296H1634.79V186.386H1656.49V175.296Z" fill="#FDFFFB"/>
</g>
<path d="M511.93 129.506C510.67 130.906 509.37 132.256 508.09 133.626L504.19 137.696C502.9 139.056 501.56 140.376 500.25 141.716L496.29 145.726L495.71 146.316L495.13 145.726L491.27 141.816C489.99 140.506 488.69 139.216 487.43 137.896L483.63 133.936C482.38 132.596 481.12 131.266 479.89 129.906L480.47 129.326C481.67 129.426 482.74 129.646 483.78 129.896C484.83 130.146 485.81 130.466 486.77 130.796C488.67 131.476 490.46 132.286 492.12 133.216C493.35 133.896 494.53 134.636 495.65 135.436C496.86 134.556 498.12 133.726 499.46 132.986C501.15 132.026 502.97 131.186 504.91 130.476C505.41 130.306 505.89 130.136 506.4 129.976C506.92 129.826 507.41 129.666 507.96 129.546C509.02 129.276 510.12 129.056 511.34 128.946L511.92 129.526L511.93 129.506Z" fill="#9FA0A0"/>
<path d="M1510.13 56.0356C1508.87 57.4356 1507.57 58.7856 1506.29 60.1556L1502.39 64.2256C1501.1 65.5856 1499.76 66.9056 1498.45 68.2456L1494.49 72.2556L1493.91 72.8456L1493.33 72.2556L1489.47 68.3456C1488.19 67.0356 1486.89 65.7456 1485.63 64.4256L1481.83 60.4656C1480.58 59.1256 1479.32 57.7956 1478.09 56.4356L1478.67 55.8556C1479.87 55.9556 1480.94 56.1756 1481.98 56.4256C1483.03 56.6756 1484.01 56.9956 1484.97 57.3256C1486.87 58.0056 1488.66 58.8156 1490.32 59.7456C1491.55 60.4256 1492.73 61.1656 1493.85 61.9656C1495.06 61.0856 1496.32 60.2556 1497.66 59.5156C1499.35 58.5556 1501.17 57.7156 1503.11 57.0056C1503.61 56.8356 1504.09 56.6656 1504.6 56.5056C1505.12 56.3556 1505.61 56.1956 1506.16 56.0756C1507.22 55.8056 1508.32 55.5856 1509.54 55.4756L1510.12 56.0556L1510.13 56.0356Z" fill="#9FA0A0"/>
<path d="M352.23 61.9556C351.2 63.0956 350.14 64.2056 349.09 65.3256L345.9 68.6556C344.84 69.7656 343.75 70.8456 342.67 71.9456L339.43 75.2256L338.95 75.7056L338.47 75.2256L335.31 72.0256C334.26 70.9556 333.2 69.9056 332.17 68.8156L329.06 65.5756C328.04 64.4756 327 63.3956 326 62.2856L326.48 61.8056C327.46 61.8856 328.34 62.0656 329.19 62.2756C330.05 62.4856 330.85 62.7356 331.64 63.0056C333.2 63.5656 334.66 64.2256 336.02 64.9856C337.03 65.5456 337.99 66.1456 338.91 66.7956C339.9 66.0756 340.93 65.3956 342.03 64.7856C343.41 63.9956 344.9 63.3156 346.49 62.7256C346.9 62.5856 347.29 62.4456 347.71 62.3156C348.13 62.1956 348.54 62.0656 348.98 61.9656C349.85 61.7456 350.75 61.5656 351.75 61.4756L352.23 61.9556Z" fill="#9FA0A0"/>
<path d="M212.15 62.2956C210.38 64.2656 208.54 66.1656 206.74 68.1056L201.25 73.8356C199.43 75.7556 197.54 77.6056 195.69 79.4956L190.12 85.1456L189.3 85.9756L188.48 85.1456L183.04 79.6356C181.23 77.7956 179.4 75.9756 177.63 74.1056L172.27 68.5156C170.51 66.6256 168.73 64.7556 167 62.8456L167.82 62.0256C169.5 62.1656 171.02 62.4756 172.49 62.8256C173.96 63.1756 175.34 63.6256 176.7 64.0856C179.38 65.0456 181.9 66.1856 184.24 67.4956C185.98 68.4556 187.64 69.5056 189.22 70.6256C190.92 69.3856 192.7 68.2256 194.59 67.1656C196.97 65.8056 199.53 64.6256 202.27 63.6256C202.97 63.3956 203.66 63.1456 204.38 62.9256C205.11 62.7156 205.81 62.4956 206.57 62.3156C208.06 61.9356 209.61 61.6256 211.34 61.4756L212.16 62.2956H212.15Z" fill="#9FA0A0"/>
<path d="M1784.23 0.955587C1783.2 2.09559 1782.14 3.20559 1781.09 4.32559L1777.9 7.65559C1776.84 8.76559 1775.75 9.84558 1774.67 10.9456L1771.43 14.2256L1770.95 14.7056L1770.47 14.2256L1767.31 11.0256C1766.26 9.95559 1765.2 8.90559 1764.17 7.81559L1761.06 4.57559C1760.04 3.47559 1759 2.39559 1758 1.28559L1758.48 0.805586C1759.46 0.885586 1760.34 1.06559 1761.19 1.27559C1762.05 1.48559 1762.85 1.73559 1763.64 2.00559C1765.2 2.56559 1766.66 3.22559 1768.02 3.98559C1769.03 4.54559 1769.99 5.14559 1770.91 5.79559C1771.9 5.07559 1772.93 4.39559 1774.03 3.78559C1775.41 2.99559 1776.9 2.31559 1778.49 1.72559C1778.9 1.58559 1779.29 1.44559 1779.71 1.31559C1780.13 1.19559 1780.54 1.06559 1780.98 0.965586C1781.85 0.745586 1782.75 0.565586 1783.75 0.475586L1784.23 0.955587Z" fill="#9FA0A0"/>
<path d="M1397.28 307.116C1397.28 309.076 1397.24 310.966 1397.17 312.766H1338.87C1338.62 309.166 1338.49 305.286 1338.49 301.106C1338.49 297.556 1338.58 293.906 1338.76 290.216C1338.8 289.456 1338.84 288.686 1338.89 287.916C1339.12 283.866 1339.46 279.786 1339.9 275.706C1343.43 242.396 1353.34 209.906 1365.77 209.906C1371.51 209.906 1377.29 217.666 1382.3 229.456C1387.39 241.426 1391.69 257.546 1394.36 273.926C1395.12 278.596 1395.75 283.286 1396.22 287.916C1396.3 288.676 1396.38 289.446 1396.45 290.206C1396.45 290.246 1396.46 290.276 1396.46 290.316C1396.99 296.116 1397.28 301.776 1397.28 307.116Z" fill="#139926"/>
<path d="M1494.42 310.126C1494.42 311.036 1494.41 311.916 1494.38 312.766H1459.96C1459.84 310.836 1459.78 308.776 1459.78 306.586C1459.78 301.366 1460.12 295.806 1460.75 290.316C1460.75 290.276 1460.76 290.236 1460.77 290.196C1460.85 289.436 1460.94 288.676 1461.04 287.916C1462.85 274.146 1466.45 261.196 1471.07 255.666C1472.56 253.866 1474.16 252.846 1475.85 252.846C1480.88 252.846 1485.95 262.926 1489.51 275.886C1490.57 279.706 1491.49 283.776 1492.24 287.916C1492.38 288.666 1492.51 289.426 1492.63 290.186C1492.63 290.226 1492.65 290.276 1492.65 290.316C1493.77 297.106 1494.42 303.976 1494.42 310.126Z" fill="#139926"/>
<path d="M1317.41 312.766H1283C1283.17 304.636 1284.11 295.855 1285.66 287.915C1288.48 273.385 1293.31 261.625 1299.05 261.625C1304.49 261.625 1309.98 273.415 1313.55 287.915C1315.53 295.885 1316.92 304.676 1317.41 312.766Z" fill="#139926"/>
<path d="M628.74 312.766H570.05V312.356C570.05 304.496 570.5 296.196 571.36 287.916C574.81 254.266 584.79 221.166 597.33 221.166C609.87 221.166 621.28 254.456 626.35 287.916C627.63 296.366 628.47 304.826 628.74 312.766Z" fill="#139926"/>
<path d="M520.75 303.206C520.75 306.586 520.65 309.766 520.47 312.766H450.95C450.51 307.676 450.28 302.106 450.28 296.006C450.28 294.136 450.3 292.256 450.35 290.346C450.35 289.546 450.38 288.736 450.41 287.916C451.52 252.316 459.73 211.596 471.51 194.696C475.05 189.626 478.9 186.706 482.98 186.706C494.64 186.706 506.42 213.366 513.65 245.006C516.84 258.966 519.15 273.886 520.16 287.916C520.22 288.716 520.28 289.506 520.32 290.296C520.6 294.716 520.75 299.046 520.75 303.206Z" fill="#139926"/>
<path d="M431.74 310.126C431.74 311.036 431.74 311.916 431.7 312.766H397.27C397.15 310.836 397.09 308.776 397.09 306.586C397.09 301.386 397.43 295.856 398.06 290.386C398.06 290.316 398.07 290.246 398.08 290.176C398.17 289.426 398.26 288.666 398.36 287.916C400.75 269.646 406.31 252.846 413.17 252.846C420.03 252.846 426.26 269.736 429.56 287.916C429.71 288.726 429.85 289.546 429.98 290.366C429.98 290.366 429.98 290.396 429.98 290.406C431.1 297.166 431.74 303.996 431.74 310.126Z" fill="#139926"/>
<path d="M373.78 312.766H339.47C339.69 305.426 340.53 297.636 341.86 290.446C341.9 290.216 341.94 289.996 341.98 289.776C342.1 289.146 342.22 288.526 342.35 287.916C345.2 273.966 349.92 262.876 355.49 262.876C360.77 262.876 366.1 274.006 369.68 287.916C369.87 288.596 370.04 289.286 370.2 289.976C370.24 290.126 370.27 290.266 370.3 290.416C372.02 297.636 373.26 305.446 373.78 312.766Z" fill="#139926"/>
<path d="M332.66 312.766H298.35C298.57 305.436 299.41 297.656 300.73 290.476C300.79 290.136 300.86 289.806 300.92 289.476C301.02 288.956 301.12 288.436 301.23 287.916C304.08 273.966 308.8 262.876 314.37 262.876C319.65 262.876 324.98 274.006 328.56 287.916C328.72 288.496 328.87 289.086 329.01 289.676C329.07 289.936 329.14 290.196 329.19 290.456C330.91 297.666 332.14 305.466 332.66 312.766Z" fill="#139926"/>
<path d="M207.36 312.766H173.05C173.29 304.786 174.26 296.266 175.8 288.576C175.84 288.356 175.88 288.136 175.93 287.916C178.78 273.966 183.5 262.876 189.07 262.876C194.35 262.876 199.68 274.006 203.26 287.916C203.34 288.196 203.42 288.486 203.48 288.776C205.41 296.446 206.8 304.896 207.36 312.766Z" fill="#139926"/>
<path d="M285.58 306.936C285.58 308.996 285.52 310.936 285.41 312.766H241.16C240.9 309.606 240.76 306.136 240.76 302.356C240.76 298.056 240.94 293.566 241.28 289.046C241.31 288.666 241.34 288.296 241.37 287.916C243.56 260.906 251.48 232.836 261.56 232.836C268.48 232.836 275.47 247.606 280.1 265.936C281.89 272.946 283.32 280.486 284.27 287.916L284.45 289.356C284.5 289.736 284.54 290.116 284.58 290.496C285.23 296.176 285.58 301.756 285.58 306.936Z" fill="#139926"/>
<path d="M560.76 306.476C560.76 308.756 560.67 310.846 560.5 312.766H526.6C526.28 309.856 526.11 306.586 526.11 302.936C526.11 298.856 526.32 294.576 526.72 290.286C526.78 289.496 526.86 288.706 526.95 287.916C527.65 281.316 528.78 274.786 530.25 269.016C533.13 257.616 537.33 249.196 542.19 249.196C549.13 249.196 556.16 268.416 559.19 287.916C560.19 294.296 560.76 300.696 560.76 306.476Z" fill="#139926"/>
<path d="M511.63 88.1352C514.47 87.9552 517.59 87.6452 519.59 85.6152C523.46 81.6852 519.59 74.3852 514.24 73.0852C508.88 71.7752 503.41 74.3152 498.48 76.7852C504.23 63.8052 500.84 47.3352 490.39 37.7252C479.94 28.1152 463.18 26.1552 450.83 33.1352C438.47 40.1152 431.51 55.5452 434.53 69.4152C428.43 41.3852 375.97 77.0052 409.77 90.7552C422.74 96.0352 441.15 92.0852 454.58 91.4152C473.6 90.4552 492.62 89.3652 511.63 88.1352Z" fill="white"/>
<path d="M368.67 150.385C370.12 150.295 371.72 150.135 372.74 149.095C374.72 147.085 372.74 143.355 370 142.685C367.26 142.015 364.46 143.315 361.94 144.575C364.88 137.935 363.15 129.505 357.8 124.595C352.45 119.685 343.88 118.675 337.56 122.245C331.24 125.815 327.68 133.715 329.22 140.805C326.1 126.465 299.26 144.695 316.55 151.725C323.19 154.425 332.6 152.405 339.48 152.065C349.21 151.575 358.94 151.015 368.67 150.385Z" fill="white"/>
<path d="M1459.33 103.952C1460.96 103.952 1462.75 103.892 1463.97 102.812C1466.33 100.712 1464.39 96.4015 1461.38 95.4515C1458.37 94.5015 1455.15 95.7515 1452.24 96.9815C1456 89.7815 1454.68 80.2515 1449.07 74.3815C1443.46 68.5115 1433.96 66.7615 1426.65 70.2915C1419.34 73.8215 1414.79 82.3715 1416 90.4015C1413.55 74.1715 1382.28 92.5715 1401.07 101.672C1408.28 105.162 1418.94 103.592 1426.64 103.702C1437.54 103.862 1448.44 103.942 1459.34 103.942L1459.33 103.952Z" fill="white"/>
</svg>
