<svg width="1920" height="1135" viewBox="0 0 1920 1135" fill="none" xmlns="http://www.w3.org/2000/svg">
<path d="M1920 3.34998H0V1088.75H1920V3.34998Z" fill="#F5F1DF"/>
<path opacity="0.53" d="M0 0V226.1C358.74 197.28 716.33 170.54 1077.76 168.84C824.32 139.39 565.76 123.68 309.76 117.79C670.72 107.97 1029.12 84.41 1390.08 90.3C1566.42 93.1 1743.33 106.08 1920 117.69V0H0Z" fill="white"/>
<path opacity="0.53" d="M668.65 351.2C747.22 345.95 1763.47 312.92 1920 304.53V366.55C1837.32 366.6 844.13 353.74 668.65 351.2Z" fill="white"/>
<mask id="mask0_263_2394" style="mask-type:luminance" maskUnits="userSpaceOnUse" x="0" y="0" width="1920" height="1086">
<path d="M1920 0H0V1085.4H1920V0Z" fill="white"/>
</mask>
<g mask="url(#mask0_263_2394)">
<path d="M1372.48 783H270.5C270.5 783 489.32 220.11 641.45 202.59C742 191.01 835.76 399.46 1372.48 783Z" fill="#B4E573"/>
<path d="M1220.34 757.38C1220.34 757.38 733.49 401.05 527.97 254.55C322.44 108.06 249.88 52.1199 165.12 94.1999C53.4799 149.63 -245.94 529.72 -410.87 757.38C231.71 760.84 851.96 763.52 1220.34 757.38Z" fill="#98DD4E"/>
<mask id="mask1_263_2394" style="mask-type:luminance" maskUnits="userSpaceOnUse" x="-411" y="80" width="1632" height="682">
<path d="M1220.34 757.38C1220.34 757.38 733.49 401.05 527.97 254.55C322.44 108.06 249.88 52.1199 165.12 94.1999C53.4799 149.63 -245.94 529.72 -410.87 757.38C231.71 760.84 851.96 763.52 1220.34 757.38Z" fill="white"/>
</mask>
<g mask="url(#mask1_263_2394)">
<path d="M217 193.46L218.22 200.58" stroke="#139926" stroke-width="5" stroke-linecap="round" stroke-linejoin="round"/>
<path d="M227.91 197V204.15" stroke="#139926" stroke-width="5" stroke-linecap="round" stroke-linejoin="round"/>
<path d="M238.88 193.3C238.88 194.66 238.88 199.73 238.88 201.09" stroke="#139926" stroke-width="5" stroke-linecap="round" stroke-linejoin="round"/>
<path d="M404 567.16L405.22 574.28" stroke="#139926" stroke-width="5" stroke-linecap="round" stroke-linejoin="round"/>
<path d="M414.91 570.7V577.85" stroke="#139926" stroke-width="5" stroke-linecap="round" stroke-linejoin="round"/>
<path d="M425.88 567C425.88 568.36 425.88 573.43 425.88 574.79" stroke="#139926" stroke-width="5" stroke-linecap="round" stroke-linejoin="round"/>
<path d="M372.85 320.079C372.85 319.209 374.66 325.599 374.66 331.879" stroke="#139926" stroke-width="5" stroke-linecap="round" stroke-linejoin="round"/>
<path d="M356 328.249C357.15 331.889 358.01 333.149 358.42 335.519" stroke="#139926" stroke-width="5" stroke-linecap="round" stroke-linejoin="round"/>
<path d="M383.82 324.609C383.82 325.969 383.82 331.039 383.82 332.399" stroke="#139926" stroke-width="5" stroke-linecap="round" stroke-linejoin="round"/>
<path d="M67.8501 581.079C67.8501 580.209 69.6601 586.599 69.6601 592.879" stroke="#139926" stroke-width="5" stroke-linecap="round" stroke-linejoin="round"/>
<path d="M51 589.249C52.15 592.889 53.01 594.149 53.42 596.519" stroke="#139926" stroke-width="5" stroke-linecap="round" stroke-linejoin="round"/>
<path d="M78.8201 585.609C78.8201 586.969 78.8201 592.039 78.8201 593.399" stroke="#139926" stroke-width="5" stroke-linecap="round" stroke-linejoin="round"/>
<path d="M226 383L227.22 390.12" stroke="#139926" stroke-width="5" stroke-linecap="round" stroke-linejoin="round"/>
<path d="M236.9 384.5V393.69" stroke="#139926" stroke-width="5" stroke-linecap="round" stroke-linejoin="round"/>
<path d="M246.78 383C246.78 384.36 247.87 389.27 247.87 390.63" stroke="#139926" stroke-width="5" stroke-linecap="round" stroke-linejoin="round"/>
</g>
<path d="M2101.58 895.31L2087.13 839.63C2087.13 839.63 1087.7 743.64 744.66 743.64C951.32 543.74 1167.97 297.41 1321.48 174.13C1573.98 -28.6101 1758.67 -110.94 1862.8 -52.7001C1999.96 24.0199 2320.46 553.4 2523.06 868.48L2101.58 895.31Z" fill="#98DD4E"/>
<mask id="mask2_263_2394" style="mask-type:luminance" maskUnits="userSpaceOnUse" x="744" y="-71" width="1780" height="967">
<path d="M2101.58 895.31L2087.13 839.63C2087.13 839.63 1087.7 743.64 744.66 743.64C951.32 543.74 1167.97 297.41 1321.48 174.13C1573.98 -28.6101 1758.67 -110.94 1862.8 -52.7001C1999.96 24.0199 2320.46 553.4 2523.06 868.48L2101.58 895.31Z" fill="white"/>
</mask>
<g mask="url(#mask2_263_2394)">
<path d="M1619.44 125.75C1619.85 128.12 1620.25 130.49 1620.66 132.87" stroke="#139926" stroke-width="5" stroke-linecap="round" stroke-linejoin="round"/>
<path d="M1632.01 122.01V129.16" stroke="#139926" stroke-width="5" stroke-linecap="round" stroke-linejoin="round"/>
<path d="M1641.31 125.59V133.38" stroke="#139926" stroke-width="5" stroke-linecap="round" stroke-linejoin="round"/>
<path d="M1433 464.74C1433.41 467.11 1433.81 469.48 1434.22 471.86" stroke="#139926" stroke-width="5" stroke-linecap="round" stroke-linejoin="round"/>
<path d="M1445.57 461V468.15" stroke="#139926" stroke-width="5" stroke-linecap="round" stroke-linejoin="round"/>
<path d="M1454.87 464.58V472.37" stroke="#139926" stroke-width="5" stroke-linecap="round" stroke-linejoin="round"/>
<path d="M1854.51 622.38C1854.92 624.75 1855.32 627.12 1855.73 629.5" stroke="#139926" stroke-width="5" stroke-linecap="round" stroke-linejoin="round"/>
<path d="M1866.7 617.23V630.01" stroke="#139926" stroke-width="5" stroke-linecap="round" stroke-linejoin="round"/>
</g>
</g>
<path d="M1920 760.972L989.38 766.932C953.6 766.082 951.17 750.152 893.83 746.972C856.93 742.372 806.78 745.342 734.51 760.972H0V1080.02H1920V760.972Z" fill="#ACEBFE"/>
<path d="M1035.3 946.762C1017.77 946.722 1000.25 946.062 982.71 946.022C981.06 946.022 981.06 943.462 982.71 943.462C1000.24 943.502 1017.76 944.162 1035.3 944.202C1036.95 944.202 1036.95 946.762 1035.3 946.762Z" fill="#DDEEE4"/>
<path d="M962.72 956.392C950.87 957.682 939.04 956.482 927.17 956.392C925.52 956.382 925.52 953.822 927.17 953.832C939.04 953.922 950.88 955.122 962.72 953.832C964.36 953.652 964.34 956.212 962.72 956.392Z" fill="#DDEEE4"/>
<path d="M1010.12 958.612C1002.23 959.332 994.34 960.032 986.42 960.092C984.77 960.102 984.77 957.552 986.42 957.532C994.35 957.472 1002.23 956.772 1010.12 956.052C1011.76 955.902 1011.75 958.462 1010.12 958.612Z" fill="#DDEEE4"/>
<path d="M1002.71 973.432C993.82 973.432 984.94 973.432 976.05 973.432C974.4 973.432 974.4 970.872 976.05 970.872C984.94 970.872 993.82 970.872 1002.71 970.872C1004.36 970.872 1004.36 973.432 1002.71 973.432Z" fill="#DDEEE4"/>
<path d="M1075.3 964.542C1062.71 965.832 1050.14 964.632 1037.53 964.542C1035.88 964.532 1035.88 961.972 1037.53 961.982C1050.14 962.072 1062.72 963.272 1075.3 961.982C1076.94 961.812 1076.92 964.372 1075.3 964.542Z" fill="#DDEEE4"/>
<path d="M1090.11 955.652C1086.9 955.652 1083.69 955.652 1080.48 955.652C1078.83 955.652 1078.83 953.092 1080.48 953.092C1083.69 953.092 1086.9 953.092 1090.11 953.092C1091.76 953.092 1091.76 955.652 1090.11 955.652Z" fill="#DDEEE4"/>
<path d="M907.17 924.542C898.29 925.222 889.41 925.282 880.51 925.282C878.86 925.282 878.86 922.722 880.51 922.722C889.41 922.722 898.3 922.662 907.17 921.982C908.82 921.852 908.8 924.412 907.17 924.542Z" fill="#DDEEE4"/>
<path d="M853.84 898.622C843.27 897.212 832.64 897.142 821.99 897.142C820.34 897.142 820.34 894.582 821.99 894.582C832.64 894.582 843.26 894.652 853.84 896.062C855.45 896.272 855.47 898.832 853.84 898.622Z" fill="#DDEEE4"/>
<path d="M745.71 864.552C738.79 864.552 731.86 864.582 724.97 865.292C723.33 865.462 723.35 862.902 724.97 862.732C731.86 862.022 738.79 861.992 745.71 861.992C747.36 861.992 747.36 864.552 745.71 864.552Z" fill="#DDEEE4"/>
<path d="M785.37 871.912C781.81 871.252 778.21 871.222 774.6 871.222C772.95 871.222 772.95 868.662 774.6 868.662C778.45 868.662 782.26 868.742 786.05 869.442C787.67 869.742 786.98 872.202 785.37 871.912Z" fill="#DDEEE4"/>
<path d="M756.82 819.372C752.38 819.372 747.93 819.372 743.49 819.372C741.84 819.372 741.84 816.812 743.49 816.812C747.93 816.812 752.38 816.812 756.82 816.812C758.47 816.812 758.47 819.372 756.82 819.372Z" fill="#DDEEE4"/>
<path d="M759.78 835.672H751.63C749.98 835.672 749.98 833.112 751.63 833.112C754.34 833.112 757.06 833.112 759.78 833.112C761.43 833.112 761.43 835.672 759.78 835.672Z" fill="#DDEEE4"/>
<path d="M790.89 797.152C785.48 796.432 780.02 796.312 774.6 795.672C772.98 795.482 772.96 792.922 774.6 793.112C780.02 793.752 785.48 793.872 790.89 794.592C792.5 794.802 792.52 797.362 790.89 797.152Z" fill="#DDEEE4"/>
<path d="M724.63 791.922C721.58 791.212 718.46 791.222 715.34 791.222C713.69 791.222 713.69 788.662 715.34 788.662C718.69 788.662 722.03 788.682 725.31 789.452C726.92 789.832 726.23 792.292 724.63 791.922Z" fill="#DDEEE4"/>
<path d="M1244.9 966.022C1211.08 966.022 1177.26 966.022 1143.43 966.022C1141.78 966.022 1141.78 963.462 1143.43 963.462C1177.25 963.462 1211.07 963.462 1244.9 963.462C1246.55 963.462 1246.55 966.022 1244.9 966.022Z" fill="#DDEEE4"/>
<path d="M1170.1 990.462C1147.14 990.492 1124.18 991.172 1101.22 991.202C1099.57 991.202 1099.57 988.652 1101.22 988.642C1124.18 988.612 1147.14 987.932 1170.1 987.902C1171.75 987.902 1171.75 990.452 1170.1 990.462Z" fill="#DDEEE4"/>
<path d="M1049.37 1006.02C1032.32 1006.02 1015.27 1006.09 998.27 1007.5C996.63 1007.64 996.64 1005.08 998.27 1004.94C1015.27 1003.53 1032.32 1003.46 1049.37 1003.46C1051.02 1003.46 1051.02 1006.02 1049.37 1006.02Z" fill="#DDEEE4"/>
<path d="M1431.54 1023.79C1372.37 1029.92 1312.82 1029.48 1253.42 1030.83C1193.55 1032.2 1133.63 1035.12 1073.81 1037.86C1072.16 1037.93 1072.17 1035.38 1073.81 1035.3C1133.63 1032.55 1193.55 1029.69 1253.42 1028.27C1312.83 1026.86 1372.36 1027.36 1431.54 1021.23C1433.18 1021.06 1433.16 1023.62 1431.54 1023.79Z" fill="#DDEEE4"/>
<path d="M1187.87 1068.23C1165.14 1068.2 1142.4 1067.62 1119.73 1069.71C1118.09 1069.86 1118.1 1067.3 1119.73 1067.15C1142.4 1065.06 1165.14 1065.64 1187.87 1065.67C1189.52 1065.67 1189.52 1068.23 1187.87 1068.23Z" fill="#DDEEE4"/>
<path d="M908.38 911.402C900.97 911.402 893.64 911.232 886.31 910.082C884.68 909.832 885.38 907.362 886.99 907.612C894.1 908.732 901.21 908.842 908.38 908.842C910.03 908.842 910.03 911.402 908.38 911.402Z" fill="#DDEEE4"/>
<path d="M857.25 911.402H848.3C846.65 911.402 846.65 908.842 848.3 908.842C851.28 908.842 854.27 908.842 857.25 908.842C858.9 908.842 858.9 911.402 857.25 911.402Z" fill="#DDEEE4"/>
<path d="M809.94 905.012C805.92 905.012 801.96 904.892 798.09 903.692C796.52 903.202 797.19 900.732 798.77 901.222C802.43 902.352 806.14 902.452 809.94 902.452C811.59 902.452 811.59 905.012 809.94 905.012Z" fill="#DDEEE4"/>
<path d="M692.66 873.002C653.05 880.772 613.14 868.172 573.42 867.932C571.77 867.932 571.77 865.362 573.42 865.372C612.87 865.612 652.64 878.252 691.98 870.532C693.59 870.222 694.28 872.682 692.66 873.002Z" fill="#DDEEE4"/>
<path d="M558.09 853.872C522.22 858.682 486.57 850.232 450.7 850.032C449.05 850.032 449.05 847.462 450.7 847.472C486.57 847.672 522.22 856.112 558.09 851.312C559.72 851.092 559.7 853.652 558.09 853.872Z" fill="#DDEEE4"/>
<path d="M618.51 847.432C603.12 849.802 587.65 848.822 572.15 848.752C570.5 848.752 570.5 846.192 572.15 846.192C587.41 846.252 602.68 847.292 617.83 844.962C619.44 844.712 620.13 847.182 618.51 847.432Z" fill="#DDEEE4"/>
<path d="M700 850.032C691.05 850.032 682.1 850.032 673.15 850.032C671.5 850.032 671.5 847.472 673.15 847.472C682.1 847.472 691.05 847.472 700 847.472C701.65 847.472 701.65 850.032 700 850.032Z" fill="#DDEEE4"/>
<path d="M722.07 837.202C717.83 838.502 713.34 838.522 708.95 838.522C707.3 838.522 707.3 835.962 708.95 835.962C713.13 835.962 717.36 835.962 721.4 834.732C722.98 834.252 723.65 836.712 722.08 837.202H722.07Z" fill="#DDEEE4"/>
<path d="M734.51 828.302C732.86 828.302 732.86 825.742 734.51 825.742C736.16 825.742 736.16 828.302 734.51 828.302Z" fill="#DDEEE4"/>
<path d="M821.45 777.162C786.06 779.602 750.73 774.722 715.34 774.602C713.69 774.602 713.69 772.042 715.34 772.042C750.73 772.152 786.06 777.042 821.45 774.602C823.1 774.492 823.09 777.042 821.45 777.162Z" fill="#DDEEE4"/>
<path d="M763.92 783.552H748.58C746.93 783.552 746.93 780.992 748.58 780.992C753.69 780.992 758.81 780.992 763.92 780.992C765.57 780.992 765.57 783.552 763.92 783.552Z" fill="#DDEEE4"/>
<path d="M855.97 769.492H827.84C826.19 769.492 826.19 766.932 827.84 766.932C837.22 766.932 846.59 766.932 855.97 766.932C857.62 766.932 857.62 769.492 855.97 769.492Z" fill="#DDEEE4"/>
<path d="M795.88 769.492C789.91 769.492 783.95 769.492 777.98 769.492C776.33 769.492 776.33 766.932 777.98 766.932C783.95 766.932 789.91 766.932 795.88 766.932C797.53 766.932 797.53 769.492 795.88 769.492Z" fill="#DDEEE4"/>
<path d="M822.73 788.672C818.47 788.672 814.21 788.672 809.95 788.672C808.3 788.672 808.3 786.112 809.95 786.112C814.21 786.112 818.47 786.112 822.73 786.112C824.38 786.112 824.38 788.672 822.73 788.672Z" fill="#DDEEE4"/>
<path d="M942.9 991.942C931.82 991.942 920.74 991.942 909.66 991.942C908.01 991.942 908.01 989.382 909.66 989.382C920.74 989.382 931.82 989.382 942.9 989.382C944.55 989.382 944.55 991.942 942.9 991.942Z" fill="#DDEEE4"/>
<path d="M884.09 993.222C882.28 993.222 881.54 992.472 881.53 990.662C881.53 989.012 884.08 989.012 884.09 990.662C884.09 990.852 884.09 991.042 884.09 991.242C883.9 991.042 883.7 990.852 883.5 990.652C883.69 990.652 883.89 990.652 884.08 990.652C885.73 990.652 885.73 993.212 884.08 993.212L884.09 993.222Z" fill="#DDEEE4"/>
<path d="M854.69 991.942V993.222C854.69 994.872 852.13 994.872 852.13 993.222V991.942C852.13 990.292 854.69 990.292 854.69 991.942Z" fill="#DDEEE4"/>
<path d="M931.4 1004.73V1006.01C931.4 1007.66 928.84 1007.66 928.84 1006.01V1004.73C928.84 1003.08 931.4 1003.08 931.4 1004.73Z" fill="#DDEEE4"/>
<path d="M871.31 957.422H870.03C868.38 957.422 868.38 954.862 870.03 954.862H871.31C872.96 954.862 872.96 957.422 871.31 957.422Z" fill="#DDEEE4"/>
<path d="M841.53 942.992L840.25 944.272C839.08 945.442 837.28 943.632 838.44 942.462L839.72 941.182C840.89 940.012 842.69 941.822 841.53 942.992Z" fill="#DDEEE4"/>
<path d="M885.37 943.362C883.72 943.362 883.72 940.802 885.37 940.802C887.02 940.802 887.02 943.362 885.37 943.362Z" fill="#DDEEE4"/>
<path d="M1020.89 912.682H1019.61C1017.96 912.682 1017.96 910.122 1019.61 910.122H1020.89C1022.54 910.122 1022.54 912.682 1020.89 912.682Z" fill="#DDEEE4"/>
<path d="M1051.57 916.512V917.792C1051.57 919.442 1049.01 919.442 1049.01 917.792V916.512C1049.01 914.862 1051.57 914.862 1051.57 916.512Z" fill="#DDEEE4"/>
<path d="M1031.12 919.072C1029.47 919.072 1029.47 916.512 1031.12 916.512C1032.77 916.512 1032.77 919.072 1031.12 919.072Z" fill="#DDEEE4"/>
<path d="M1036.23 912.682C1034.58 912.682 1034.58 910.122 1036.23 910.122C1037.88 910.122 1037.88 912.682 1036.23 912.682Z" fill="#DDEEE4"/>
<path d="M1063.98 916.142C1063.55 916.572 1063.13 916.992 1062.7 917.422C1061.53 918.592 1059.72 916.782 1060.89 915.612C1061.32 915.182 1061.74 914.762 1062.17 914.332C1063.34 913.162 1065.15 914.972 1063.98 916.142Z" fill="#DDEEE4"/>
<path d="M1095.04 916.512C1093.39 916.512 1093.39 913.952 1095.04 913.952C1096.69 913.952 1096.69 916.512 1095.04 916.512Z" fill="#DDEEE4"/>
<path d="M1068.19 924.182H1066.91C1065.26 924.182 1065.26 921.622 1066.91 921.622H1068.19C1069.84 921.622 1069.84 924.182 1068.19 924.182Z" fill="#DDEEE4"/>
<path d="M997.88 915.242C988.93 915.242 979.98 915.242 971.03 915.242C969.38 915.242 969.38 912.682 971.03 912.682C979.98 912.682 988.93 912.682 997.88 912.682C999.53 912.682 999.53 915.242 997.88 915.242Z" fill="#DDEEE4"/>
<path d="M1035.3 946.762C1017.77 946.722 1000.25 946.062 982.71 946.022C981.06 946.022 981.06 943.462 982.71 943.462C1000.24 943.502 1017.76 944.162 1035.3 944.202C1036.95 944.202 1036.95 946.762 1035.3 946.762Z" stroke="#DDEEE4" stroke-width="0.75" stroke-miterlimit="10"/>
<path d="M962.72 956.392C950.87 957.682 939.04 956.482 927.17 956.392C925.52 956.382 925.52 953.822 927.17 953.832C939.04 953.922 950.88 955.122 962.72 953.832C964.36 953.652 964.34 956.212 962.72 956.392Z" stroke="#DDEEE4" stroke-width="0.75" stroke-miterlimit="10"/>
<path d="M1010.12 958.612C1002.23 959.332 994.34 960.032 986.42 960.092C984.77 960.102 984.77 957.552 986.42 957.532C994.35 957.472 1002.23 956.772 1010.12 956.052C1011.76 955.902 1011.75 958.462 1010.12 958.612Z" stroke="#DDEEE4" stroke-width="0.75" stroke-miterlimit="10"/>
<path d="M1002.71 973.432C993.82 973.432 984.94 973.432 976.05 973.432C974.4 973.432 974.4 970.872 976.05 970.872C984.94 970.872 993.82 970.872 1002.71 970.872C1004.36 970.872 1004.36 973.432 1002.71 973.432Z" stroke="#DDEEE4" stroke-width="0.75" stroke-miterlimit="10"/>
<path d="M1075.3 964.542C1062.71 965.832 1050.14 964.632 1037.53 964.542C1035.88 964.532 1035.88 961.972 1037.53 961.982C1050.14 962.072 1062.72 963.272 1075.3 961.982C1076.94 961.812 1076.92 964.372 1075.3 964.542Z" stroke="#DDEEE4" stroke-width="0.75" stroke-miterlimit="10"/>
<path d="M1090.11 955.652C1086.9 955.652 1083.69 955.652 1080.48 955.652C1078.83 955.652 1078.83 953.092 1080.48 953.092C1083.69 953.092 1086.9 953.092 1090.11 953.092C1091.76 953.092 1091.76 955.652 1090.11 955.652Z" stroke="#DDEEE4" stroke-width="0.75" stroke-miterlimit="10"/>
<path d="M907.17 924.542C898.29 925.222 889.41 925.282 880.51 925.282C878.86 925.282 878.86 922.722 880.51 922.722C889.41 922.722 898.3 922.662 907.17 921.982C908.82 921.852 908.8 924.412 907.17 924.542Z" stroke="#DDEEE4" stroke-width="0.75" stroke-miterlimit="10"/>
<path d="M853.84 898.622C843.27 897.212 832.64 897.142 821.99 897.142C820.34 897.142 820.34 894.582 821.99 894.582C832.64 894.582 843.26 894.652 853.84 896.062C855.45 896.272 855.47 898.832 853.84 898.622Z" stroke="#DDEEE4" stroke-width="0.75" stroke-miterlimit="10"/>
<path d="M745.71 864.552C738.79 864.552 731.86 864.582 724.97 865.292C723.33 865.462 723.35 862.902 724.97 862.732C731.86 862.022 738.79 861.992 745.71 861.992C747.36 861.992 747.36 864.552 745.71 864.552Z" stroke="#DDEEE4" stroke-width="0.75" stroke-miterlimit="10"/>
<path d="M785.37 871.912C781.81 871.252 778.21 871.222 774.6 871.222C772.95 871.222 772.95 868.662 774.6 868.662C778.45 868.662 782.26 868.742 786.05 869.442C787.67 869.742 786.98 872.202 785.37 871.912Z" stroke="#DDEEE4" stroke-width="0.75" stroke-miterlimit="10"/>
<path d="M756.82 819.372C752.38 819.372 747.93 819.372 743.49 819.372C741.84 819.372 741.84 816.812 743.49 816.812C747.93 816.812 752.38 816.812 756.82 816.812C758.47 816.812 758.47 819.372 756.82 819.372Z" stroke="#DDEEE4" stroke-width="0.75" stroke-miterlimit="10"/>
<path d="M759.78 835.672H751.63C749.98 835.672 749.98 833.112 751.63 833.112C754.34 833.112 757.06 833.112 759.78 833.112C761.43 833.112 761.43 835.672 759.78 835.672Z" stroke="#DDEEE4" stroke-width="0.75" stroke-miterlimit="10"/>
<path d="M790.89 797.152C785.48 796.432 780.02 796.312 774.6 795.672C772.98 795.482 772.96 792.922 774.6 793.112C780.02 793.752 785.48 793.872 790.89 794.592C792.5 794.802 792.52 797.362 790.89 797.152Z" stroke="#DDEEE4" stroke-width="0.75" stroke-miterlimit="10"/>
<path d="M724.63 791.922C721.58 791.212 718.46 791.222 715.34 791.222C713.69 791.222 713.69 788.662 715.34 788.662C718.69 788.662 722.03 788.682 725.31 789.452C726.92 789.832 726.23 792.292 724.63 791.922Z" stroke="#DDEEE4" stroke-width="0.75" stroke-miterlimit="10"/>
<path d="M1244.9 966.022C1211.08 966.022 1177.26 966.022 1143.43 966.022C1141.78 966.022 1141.78 963.462 1143.43 963.462C1177.25 963.462 1211.07 963.462 1244.9 963.462C1246.55 963.462 1246.55 966.022 1244.9 966.022Z" stroke="#DDEEE4" stroke-width="0.75" stroke-miterlimit="10"/>
<path d="M1170.1 990.462C1147.14 990.492 1124.18 991.172 1101.22 991.202C1099.57 991.202 1099.57 988.652 1101.22 988.642C1124.18 988.612 1147.14 987.932 1170.1 987.902C1171.75 987.902 1171.75 990.452 1170.1 990.462Z" stroke="#DDEEE4" stroke-width="0.75" stroke-miterlimit="10"/>
<path d="M1049.37 1006.02C1032.32 1006.02 1015.27 1006.09 998.27 1007.5C996.63 1007.64 996.64 1005.08 998.27 1004.94C1015.27 1003.53 1032.32 1003.46 1049.37 1003.46C1051.02 1003.46 1051.02 1006.02 1049.37 1006.02Z" stroke="#DDEEE4" stroke-width="0.75" stroke-miterlimit="10"/>
<path d="M1431.54 1023.79C1372.37 1029.92 1312.82 1029.48 1253.42 1030.83C1193.55 1032.2 1133.63 1035.12 1073.81 1037.86C1072.16 1037.93 1072.17 1035.38 1073.81 1035.3C1133.63 1032.55 1193.55 1029.69 1253.42 1028.27C1312.83 1026.86 1372.36 1027.36 1431.54 1021.23C1433.18 1021.06 1433.16 1023.62 1431.54 1023.79Z" stroke="#DDEEE4" stroke-width="0.75" stroke-miterlimit="10"/>
<path d="M1187.87 1068.23C1165.14 1068.2 1142.4 1067.62 1119.73 1069.71C1118.09 1069.86 1118.1 1067.3 1119.73 1067.15C1142.4 1065.06 1165.14 1065.64 1187.87 1065.67C1189.52 1065.67 1189.52 1068.23 1187.87 1068.23Z" stroke="#DDEEE4" stroke-width="0.75" stroke-miterlimit="10"/>
<path d="M908.38 911.402C900.97 911.402 893.64 911.232 886.31 910.082C884.68 909.832 885.38 907.362 886.99 907.612C894.1 908.732 901.21 908.842 908.38 908.842C910.03 908.842 910.03 911.402 908.38 911.402Z" stroke="#DDEEE4" stroke-width="0.75" stroke-miterlimit="10"/>
<path d="M857.25 911.402H848.3C846.65 911.402 846.65 908.842 848.3 908.842C851.28 908.842 854.27 908.842 857.25 908.842C858.9 908.842 858.9 911.402 857.25 911.402Z" stroke="#DDEEE4" stroke-width="0.75" stroke-miterlimit="10"/>
<path d="M809.94 905.012C805.92 905.012 801.96 904.892 798.09 903.692C796.52 903.202 797.19 900.732 798.77 901.222C802.43 902.352 806.14 902.452 809.94 902.452C811.59 902.452 811.59 905.012 809.94 905.012Z" stroke="#DDEEE4" stroke-width="0.75" stroke-miterlimit="10"/>
<path d="M692.66 873.002C653.05 880.772 613.14 868.172 573.42 867.932C571.77 867.932 571.77 865.362 573.42 865.372C612.87 865.612 652.64 878.252 691.98 870.532C693.59 870.222 694.28 872.682 692.66 873.002Z" stroke="#DDEEE4" stroke-width="0.75" stroke-miterlimit="10"/>
<path d="M558.09 853.872C522.22 858.682 486.57 850.232 450.7 850.032C449.05 850.032 449.05 847.462 450.7 847.472C486.57 847.672 522.22 856.112 558.09 851.312C559.72 851.092 559.7 853.652 558.09 853.872Z" stroke="#DDEEE4" stroke-width="0.75" stroke-miterlimit="10"/>
<path d="M618.51 847.432C603.12 849.802 587.65 848.822 572.15 848.752C570.5 848.752 570.5 846.192 572.15 846.192C587.41 846.252 602.68 847.292 617.83 844.962C619.44 844.712 620.13 847.182 618.51 847.432Z" stroke="#DDEEE4" stroke-width="0.75" stroke-miterlimit="10"/>
<path d="M700 850.032C691.05 850.032 682.1 850.032 673.15 850.032C671.5 850.032 671.5 847.472 673.15 847.472C682.1 847.472 691.05 847.472 700 847.472C701.65 847.472 701.65 850.032 700 850.032Z" stroke="#DDEEE4" stroke-width="0.75" stroke-miterlimit="10"/>
<path d="M722.07 837.202C717.83 838.502 713.34 838.522 708.95 838.522C707.3 838.522 707.3 835.962 708.95 835.962C713.13 835.962 717.36 835.962 721.4 834.732C722.98 834.252 723.65 836.712 722.08 837.202H722.07Z" stroke="#DDEEE4" stroke-width="0.75" stroke-miterlimit="10"/>
<path d="M734.51 828.302C732.86 828.302 732.86 825.742 734.51 825.742C736.16 825.742 736.16 828.302 734.51 828.302Z" stroke="#DDEEE4" stroke-width="0.75" stroke-miterlimit="10"/>
<path d="M821.45 777.162C786.06 779.602 750.73 774.722 715.34 774.602C713.69 774.602 713.69 772.042 715.34 772.042C750.73 772.152 786.06 777.042 821.45 774.602C823.1 774.492 823.09 777.042 821.45 777.162Z" stroke="#DDEEE4" stroke-width="0.75" stroke-miterlimit="10"/>
<path d="M763.92 783.552H748.58C746.93 783.552 746.93 780.992 748.58 780.992C753.69 780.992 758.81 780.992 763.92 780.992C765.57 780.992 765.57 783.552 763.92 783.552Z" stroke="#DDEEE4" stroke-width="0.75" stroke-miterlimit="10"/>
<path d="M855.97 769.492H827.84C826.19 769.492 826.19 766.932 827.84 766.932C837.22 766.932 846.59 766.932 855.97 766.932C857.62 766.932 857.62 769.492 855.97 769.492Z" stroke="#DDEEE4" stroke-width="0.75" stroke-miterlimit="10"/>
<path d="M795.88 769.492C789.91 769.492 783.95 769.492 777.98 769.492C776.33 769.492 776.33 766.932 777.98 766.932C783.95 766.932 789.91 766.932 795.88 766.932C797.53 766.932 797.53 769.492 795.88 769.492Z" stroke="#DDEEE4" stroke-width="0.75" stroke-miterlimit="10"/>
<path d="M822.73 788.672C818.47 788.672 814.21 788.672 809.95 788.672C808.3 788.672 808.3 786.112 809.95 786.112C814.21 786.112 818.47 786.112 822.73 786.112C824.38 786.112 824.38 788.672 822.73 788.672Z" stroke="#DDEEE4" stroke-width="0.75" stroke-miterlimit="10"/>
<path d="M942.9 991.942C931.82 991.942 920.74 991.942 909.66 991.942C908.01 991.942 908.01 989.382 909.66 989.382C920.74 989.382 931.82 989.382 942.9 989.382C944.55 989.382 944.55 991.942 942.9 991.942Z" stroke="#DDEEE4" stroke-width="0.75" stroke-miterlimit="10"/>
<path d="M884.09 993.222C882.28 993.222 881.54 992.472 881.53 990.662C881.53 989.012 884.08 989.012 884.09 990.662C884.09 990.852 884.09 991.042 884.09 991.242C883.9 991.042 883.7 990.852 883.5 990.652C883.69 990.652 883.89 990.652 884.08 990.652C885.73 990.652 885.73 993.212 884.08 993.212L884.09 993.222Z" stroke="#DDEEE4" stroke-width="0.75" stroke-miterlimit="10"/>
<path d="M854.69 991.942V993.222C854.69 994.872 852.13 994.872 852.13 993.222V991.942C852.13 990.292 854.69 990.292 854.69 991.942Z" stroke="#DDEEE4" stroke-width="0.75" stroke-miterlimit="10"/>
<path d="M931.4 1004.73V1006.01C931.4 1007.66 928.84 1007.66 928.84 1006.01V1004.73C928.84 1003.08 931.4 1003.08 931.4 1004.73Z" stroke="#DDEEE4" stroke-width="0.75" stroke-miterlimit="10"/>
<path d="M871.31 957.422H870.03C868.38 957.422 868.38 954.862 870.03 954.862H871.31C872.96 954.862 872.96 957.422 871.31 957.422Z" stroke="#DDEEE4" stroke-width="0.75" stroke-miterlimit="10"/>
<path d="M841.53 942.992L840.25 944.272C839.08 945.442 837.28 943.632 838.44 942.462L839.72 941.182C840.89 940.012 842.69 941.822 841.53 942.992Z" stroke="#DDEEE4" stroke-width="0.75" stroke-miterlimit="10"/>
<path d="M885.37 943.362C883.72 943.362 883.72 940.802 885.37 940.802C887.02 940.802 887.02 943.362 885.37 943.362Z" stroke="#DDEEE4" stroke-width="0.75" stroke-miterlimit="10"/>
<path d="M1020.89 912.682H1019.61C1017.96 912.682 1017.96 910.122 1019.61 910.122H1020.89C1022.54 910.122 1022.54 912.682 1020.89 912.682Z" stroke="#DDEEE4" stroke-width="0.75" stroke-miterlimit="10"/>
<path d="M1051.57 916.512V917.792C1051.57 919.442 1049.01 919.442 1049.01 917.792V916.512C1049.01 914.862 1051.57 914.862 1051.57 916.512Z" stroke="#DDEEE4" stroke-width="0.75" stroke-miterlimit="10"/>
<path d="M1031.12 919.072C1029.47 919.072 1029.47 916.512 1031.12 916.512C1032.77 916.512 1032.77 919.072 1031.12 919.072Z" stroke="#DDEEE4" stroke-width="0.75" stroke-miterlimit="10"/>
<path d="M1036.23 912.682C1034.58 912.682 1034.58 910.122 1036.23 910.122C1037.88 910.122 1037.88 912.682 1036.23 912.682Z" stroke="#DDEEE4" stroke-width="0.75" stroke-miterlimit="10"/>
<path d="M1063.98 916.142C1063.55 916.572 1063.13 916.992 1062.7 917.422C1061.53 918.592 1059.72 916.782 1060.89 915.612C1061.32 915.182 1061.74 914.762 1062.17 914.332C1063.34 913.162 1065.15 914.972 1063.98 916.142Z" stroke="#DDEEE4" stroke-width="0.75" stroke-miterlimit="10"/>
<path d="M1095.04 916.512C1093.39 916.512 1093.39 913.952 1095.04 913.952C1096.69 913.952 1096.69 916.512 1095.04 916.512Z" stroke="#DDEEE4" stroke-width="0.75" stroke-miterlimit="10"/>
<path d="M1068.19 924.182H1066.91C1065.26 924.182 1065.26 921.622 1066.91 921.622H1068.19C1069.84 921.622 1069.84 924.182 1068.19 924.182Z" stroke="#DDEEE4" stroke-width="0.75" stroke-miterlimit="10"/>
<path d="M997.88 915.242C988.93 915.242 979.98 915.242 971.03 915.242C969.38 915.242 969.38 912.682 971.03 912.682C979.98 912.682 988.93 912.682 997.88 912.682C999.53 912.682 999.53 915.242 997.88 915.242Z" stroke="#DDEEE4" stroke-width="0.75" stroke-miterlimit="10"/>
<g style="mix-blend-mode:multiply" opacity="0.3">
<path d="M1920.29 766.72V1079.56H1158.78C1227.08 1048.42 1333.84 993.68 1299.28 951.43C1274.74 922.3 1217.11 913.86 1179.72 908.73C1175.54 908.16 1171.62 907.62 1168.02 907.11C1136.36 901.7 1104.37 897.35 1072.33 893.25C1033.63 888.3 994.89 883.73 956.65 878.13C920.85 873.02 849.26 874.73 820.28 847.45C803.28 833.06 815.38 821.69 830.4 812.55C834.96 809.78 839.78 807.22 844.14 804.84C881.1 786.02 921.24 771.99 962.57 760.52L1113.28 761.5H1114.67L1920.29 766.72Z" fill="#99C2B4"/>
</g>
<path d="M1023.88 754.89H974.949C925.529 754.89 811.319 804.31 828.029 826.47C834.589 835.17 893.819 845.18 951.869 852.42C994.469 857.73 1036.43 861.54 1056.47 862.27C1089.39 863.46 1050.8 873.84 1067.1 884.88C1072.45 888.51 1083.72 892.2 1105.37 895.67H1105.43L1105.46 895.68L1920.28 846.63V762.93C1920.28 762.93 1197.42 754.9 1023.87 754.9L1023.88 754.89Z" fill="#8ECE45"/>
<g style="mix-blend-mode:multiply" opacity="0.5">
<path d="M1413.05 899.88C1344.42 872.25 1272.3 895.87 1144.51 884.04C1016.73 872.22 1117.05 849.5 1069.67 848.73C1022.29 847.96 837.98 841.62 826.4 826.76C826.28 828.67 826.79 830.46 828.02 832.1C839.4 847.19 1009.1 866.19 1056.45 867.9C1103.81 869.61 1003.2 890.33 1130.81 904.69C1258.42 919.05 1330.85 896.87 1399.1 925.86C1467.35 954.85 1577.28 990.35 1749.36 990.35V957.61C1585.72 958.9 1479.68 926.71 1413.04 899.88H1413.05Z" fill="#6DAE84"/>
</g>
<path d="M1779.71 738.76H1777.79V761.74H1779.71V738.76Z" fill="#139926"/>
<path d="M1790.14 734.14C1790.14 748.52 1784.4 751.09 1778.75 751.09C1773.1 751.09 1768.89 746.35 1768.89 731.97C1768.89 717.59 1773.1 699.01 1778.75 699.01C1784.4 699.01 1790.14 719.76 1790.14 734.15V734.14Z" fill="#139926"/>
<path d="M1495.82 738.76H1493.9V761.74H1495.82V738.76Z" fill="#139926"/>
<path d="M1506.25 734.14C1506.25 748.52 1500.51 751.09 1494.86 751.09C1489.21 751.09 1485 746.35 1485 731.97C1485 717.59 1489.21 699.01 1494.86 699.01C1500.51 699.01 1506.25 719.76 1506.25 734.15V734.14Z" fill="#139926"/>
<path d="M1823.41 746.83H1822.28V760.37H1823.41V746.83Z" fill="#139926"/>
<path d="M1829.55 744.11C1829.55 752.59 1826.17 754.1 1822.84 754.1C1819.51 754.1 1817.03 751.31 1817.03 742.83C1817.03 734.35 1819.51 723.41 1822.84 723.41C1826.17 723.41 1829.55 735.64 1829.55 744.11Z" fill="#139926"/>
<path d="M1388.38 746.83H1387.25V760.37H1388.38V746.83Z" fill="#139926"/>
<path d="M1394.52 744.11C1394.52 752.59 1391.14 754.1 1387.81 754.1C1384.48 754.1 1382 751.31 1382 742.83C1382 734.35 1384.48 723.41 1387.81 723.41C1391.14 723.41 1394.52 735.64 1394.52 744.11Z" fill="#139926"/>
<path d="M1757.7 749.97H1756.57V763.51H1757.7V749.97Z" fill="#139926"/>
<path d="M1763.84 747.24C1763.84 755.72 1760.46 757.23 1757.13 757.23C1753.8 757.23 1751.32 754.44 1751.32 745.96C1751.32 737.48 1753.8 726.54 1757.13 726.54C1760.46 726.54 1763.84 738.77 1763.84 747.24Z" fill="#139926"/>
<path d="M1467.38 750.43H1466.25V763.97H1467.38V750.43Z" fill="#139926"/>
<path d="M1473.52 747.7C1473.52 756.18 1470.14 757.69 1466.81 757.69C1463.48 757.69 1461 754.9 1461 746.42C1461 737.94 1463.48 727 1466.81 727C1470.14 727 1473.52 739.23 1473.52 747.7Z" fill="#139926"/>
<path d="M1114.67 746.24H1113.28V762.88H1114.67V746.24Z" fill="#139926"/>
<path d="M1122.22 742.89C1122.22 753.3 1118.06 755.16 1113.97 755.16C1109.88 755.16 1106.83 751.73 1106.83 741.31C1106.83 730.89 1109.88 717.44 1113.97 717.44C1118.06 717.44 1122.22 732.47 1122.22 742.88V742.89Z" fill="#139926"/>
<path d="M1088.44 747.99H1087.34V761.13H1088.44V747.99Z" fill="#139926"/>
<path d="M1094.4 745.35C1094.4 753.57 1091.12 755.04 1087.89 755.04C1084.66 755.04 1082.25 752.33 1082.25 744.11C1082.25 735.89 1084.66 725.27 1087.89 725.27C1091.12 725.27 1094.4 737.13 1094.4 745.36V745.35Z" fill="#139926"/>
<g style="mix-blend-mode:multiply" opacity="0.3">
<path d="M513.02 835.3C401.9 930.65 180.41 870.1 0 921.35V760.61H734.51C739.63 772.54 551.29 802.46 513.02 835.3Z" fill="#99C2B4"/>
</g>
<path d="M728.77 760.61C724.36 762.28 716.97 764.23 707.71 766.36H707.7C674.9 773.92 618.64 783.77 588.36 791.36C535.54 804.6 240.9 867.09 121.01 869.72C76.27 870.7 34.63 872.38 0 874.11V745.02C185.05 746.48 635.96 750.45 721.55 755.16C735.21 755.91 735.98 757.88 728.77 760.61Z" fill="#8ECE45"/>
<g style="mix-blend-mode:multiply" opacity="0.5">
<path d="M711.39 764.73C710.52 765.24 709.28 765.78 707.71 766.36H707.7C687 773.99 609.61 787.21 572.49 796.8C521.31 810.04 235.84 872.53 119.69 875.16C75.28 876.17 34.03 877.92 0 879.68V869.21C29.74 867.92 63.75 866.76 99.84 866.09C216 863.93 501.73 802.62 552.96 789.59C591.07 779.9 685.83 770.28 711.39 764.73Z" fill="#6DAE84"/>
</g>
<path d="M285.265 740.595H283.357V763.479H285.265V740.595Z" fill="#139926"/>
<path d="M295.649 735.987C295.649 750.309 289.933 752.862 284.311 752.862C278.689 752.862 274.494 748.143 274.494 733.821C274.494 719.499 278.689 701 284.311 701C289.933 701 295.649 721.666 295.649 735.987Z" fill="#139926"/>
<path d="M502.771 740.595H500.863V763.479H502.771V740.595Z" fill="#139926"/>
<path d="M513.156 735.987C513.156 750.309 507.439 752.862 501.817 752.862C496.195 752.862 492 748.143 492 733.821C492 719.499 496.195 701 501.817 701C507.439 701 513.156 721.666 513.156 735.987Z" fill="#139926"/>
<path d="M310.344 755.331H309.218V768.818H310.344V755.331Z" fill="#139926"/>
<path d="M316.465 752.614C316.465 761.056 313.095 762.56 309.785 762.56C306.476 762.56 304 759.775 304 751.342C304 742.909 306.476 732 309.785 732C313.095 732 316.465 744.181 316.465 752.614Z" fill="#139926"/>
<path d="M464.344 747.331H463.218V760.818H464.344V747.331Z" fill="#139926"/>
<path d="M470.465 744.614C470.465 753.056 467.095 754.56 463.785 754.56C460.476 754.56 458 751.775 458 743.342C458 734.909 460.476 724 463.785 724C467.095 724 470.465 736.181 470.465 744.614Z" fill="#139926"/>
<path d="M554.344 747.331H553.218V760.818H554.344V747.331Z" fill="#139926"/>
<path d="M560.465 744.614C560.465 753.056 557.095 754.56 553.785 754.56C550.476 754.56 548 751.775 548 743.342C548 734.909 550.476 724 553.785 724C557.095 724 560.465 736.181 560.465 744.614Z" fill="#139926"/>
<path d="M575.344 747.331H574.218V760.818H575.344V747.331Z" fill="#139926"/>
<path d="M581.465 744.614C581.465 753.056 578.095 754.56 574.785 754.56C571.476 754.56 569 751.775 569 743.342C569 734.909 571.476 724 574.785 724C578.095 724 581.465 736.181 581.465 744.614Z" fill="#139926"/>
<path d="M263.353 751.753H262.227V765.241H263.353V751.753Z" fill="#139926"/>
<path d="M269.465 749.045C269.465 757.487 266.095 758.991 262.785 758.991C259.476 758.991 257 756.206 257 747.773C257 739.34 259.476 728.431 262.785 728.431C266.095 728.431 269.465 740.612 269.465 749.045Z" fill="#139926"/>
<path d="M192.29 771.47L190.67 786.08H188.2L188.49 771.47H192.29Z" fill="#A0826D"/>
<path d="M182.72 771.47L184.34 786.08H186.81L186.52 771.47H182.72Z" fill="#BA9E8A"/>
<path d="M177.52 771.47L175.9 786.08H173.43L173.72 771.47H177.52Z" fill="#A0826D"/>
<path d="M167.96 771.47L169.58 786.08H172.05L171.76 771.47H167.96Z" fill="#BA9E8A"/>
<path d="M167.29 773.98C166.16 773.43 165.38 772.27 165.38 770.93C165.38 769.06 166.9 767.55 168.76 767.55C169.25 767.55 169.71 767.65 170.12 767.84C170.15 766 171.65 764.52 173.5 764.52C174.85 764.52 176.01 765.31 176.56 766.45C177.1 765.31 178.27 764.52 179.62 764.52C180.8 764.52 181.84 765.13 182.45 766.04C183.06 765.12 184.1 764.52 185.28 764.52C187.15 764.52 188.66 766.04 188.66 767.9C188.66 768.02 188.66 768.15 188.64 768.27C189.26 767.6 190.14 767.18 191.12 767.18C192.99 767.18 194.5 768.7 194.5 770.56C194.5 771.76 193.88 772.81 192.94 773.41C193.9 774.01 194.54 775.07 194.54 776.29C194.54 778.16 193.02 779.67 191.16 779.67C190.66 779.67 190.19 779.56 189.76 779.37C189.76 779.42 189.76 779.46 189.76 779.51C189.76 781.38 188.24 782.89 186.38 782.89C185.16 782.89 184.09 782.25 183.5 781.28C182.9 782.25 181.84 782.89 180.62 782.89C179.14 782.89 177.88 781.94 177.42 780.61C176.88 781.77 175.71 782.58 174.34 782.58C172.62 782.58 171.2 781.29 170.98 779.63C170.44 779.99 169.8 780.2 169.11 780.2C167.24 780.2 165.73 778.68 165.73 776.82C165.73 775.63 166.35 774.58 167.28 773.97L167.29 773.98Z" fill="#F9F7ED"/>
<path d="M187.32 766.03C187.33 765.91 187.34 765.79 187.34 765.66C187.34 765.5 187.33 765.34 187.31 765.18C187.48 765.31 187.64 765.46 187.79 765.61C187.62 765.73 187.47 765.87 187.33 766.03H187.32Z" fill="#E0DBC6"/>
<path d="M192.43 763.16L198.17 764.37C197.21 767.25 192.7 767.06 192.43 763.16Z" fill="#8E6E59"/>
<path d="M190.42 763.01H191.11C191.97 763.01 192.81 763.28 193.5 763.79L197.06 766.4C198.06 767.13 198.29 768.53 197.58 769.54C197.09 770.24 196.24 770.6 195.4 770.48L189.95 769.7C188.29 769.46 187.06 768.04 187.06 766.37C187.06 764.51 188.57 763 190.43 763L190.42 763.01Z" fill="#A0826D"/>
<path d="M196.35 768.04L192.79 765.43C192.1 764.92 191.26 764.65 190.4 764.65H189.71C188.65 764.65 187.7 765.14 187.08 765.91C187.31 764.27 188.71 763.01 190.41 763.01H191.1C191.96 763.01 192.8 763.28 193.49 763.79L197.05 766.4C198.05 767.13 198.28 768.53 197.57 769.54C197.48 769.66 197.38 769.78 197.28 769.88C197.28 769.17 196.96 768.48 196.35 768.03V768.04Z" fill="#A0826D"/>
<path d="M189.71 763.16L183.97 764.37C184.93 767.25 189.44 767.06 189.71 763.16Z" fill="#BA9E8A"/>
<path d="M96.9 788.23L95.28 802.84H92.81L93.1 788.23H96.9Z" fill="#A0826D"/>
<path d="M87.33 788.23L88.95 802.84H91.42L91.13 788.23H87.33Z" fill="#BA9E8A"/>
<path d="M82.13 788.23L80.51 802.84H78.04L78.33 788.23H82.13Z" fill="#A0826D"/>
<path d="M72.57 788.23L74.19 802.84H76.66L76.37 788.23H72.57Z" fill="#BA9E8A"/>
<path d="M71.91 790.74C70.78 790.19 70 789.03 70 787.69C70 785.82 71.52 784.31 73.38 784.31C73.87 784.31 74.33 784.41 74.74 784.6C74.77 782.76 76.27 781.28 78.12 781.28C79.47 781.28 80.63 782.07 81.18 783.21C81.72 782.07 82.89 781.28 84.24 781.28C85.42 781.28 86.46 781.89 87.07 782.8C87.68 781.88 88.72 781.28 89.9 781.28C91.77 781.28 93.28 782.8 93.28 784.66C93.28 784.78 93.28 784.91 93.26 785.03C93.88 784.36 94.76 783.94 95.74 783.94C97.61 783.94 99.12 785.46 99.12 787.32C99.12 788.52 98.5 789.57 97.56 790.17C98.52 790.77 99.16 791.83 99.16 793.05C99.16 794.92 97.64 796.43 95.78 796.43C95.28 796.43 94.81 796.32 94.38 796.13C94.38 796.18 94.38 796.22 94.38 796.27C94.38 798.14 92.86 799.65 91 799.65C89.78 799.65 88.71 799.01 88.12 798.04C87.52 799.01 86.46 799.65 85.24 799.65C83.76 799.65 82.5 798.7 82.04 797.37C81.5 798.53 80.33 799.34 78.96 799.34C77.24 799.34 75.82 798.05 75.6 796.39C75.06 796.75 74.42 796.96 73.73 796.96C71.86 796.96 70.35 795.44 70.35 793.58C70.35 792.39 70.97 791.34 71.9 790.73L71.91 790.74Z" fill="#F9F7ED"/>
<path d="M91.94 782.79C91.95 782.67 91.96 782.55 91.96 782.42C91.96 782.26 91.95 782.1 91.93 781.94C92.1 782.07 92.26 782.22 92.41 782.37C92.24 782.49 92.09 782.63 91.95 782.79H91.94Z" fill="#E0DBC6"/>
<path d="M97.04 779.92L102.78 781.13C101.82 784.01 97.31 783.82 97.04 779.92Z" fill="#8E6E59"/>
<path d="M95.03 779.77H95.72C96.58 779.77 97.42 780.04 98.11 780.55L101.67 783.16C102.67 783.89 102.9 785.29 102.19 786.3C101.7 787 100.85 787.36 100.01 787.24L94.56 786.46C92.9 786.22 91.67 784.8 91.67 783.13C91.67 781.27 93.18 779.76 95.04 779.76L95.03 779.77Z" fill="#A0826D"/>
<path d="M100.97 784.8L97.41 782.19C96.72 781.68 95.88 781.41 95.02 781.41H94.33C93.27 781.41 92.32 781.9 91.7 782.67C91.93 781.03 93.33 779.77 95.03 779.77H95.72C96.58 779.77 97.42 780.04 98.11 780.55L101.67 783.16C102.67 783.89 102.9 785.29 102.19 786.3C102.1 786.42 102 786.54 101.9 786.64C101.9 785.93 101.58 785.24 100.97 784.79V784.8Z" fill="#A0826D"/>
<path d="M94.32 779.92L88.58 781.13C89.54 784.01 94.05 783.82 94.32 779.92Z" fill="#BA9E8A"/>
<path d="M256.54 800.83L254.69 817.58H251.86L252.19 800.83H256.54Z" fill="#A0826D"/>
<path d="M245.57 800.83L247.42 817.58H250.25L249.92 800.83H245.57Z" fill="#BA9E8A"/>
<path d="M239.6 800.83L237.75 817.58H234.92L235.25 800.83H239.6Z" fill="#A0826D"/>
<path d="M228.64 800.83L230.49 817.58H233.32L232.99 800.83H228.64Z" fill="#BA9E8A"/>
<path d="M227.88 803.7C226.58 803.07 225.69 801.74 225.69 800.21C225.69 798.07 227.43 796.33 229.57 796.33C230.13 796.33 230.65 796.45 231.13 796.66C231.17 794.55 232.89 792.85 235.01 792.85C236.56 792.85 237.89 793.75 238.51 795.06C239.13 793.75 240.47 792.85 242.01 792.85C243.36 792.85 244.56 793.54 245.25 794.6C245.94 793.55 247.14 792.85 248.49 792.85C250.63 792.85 252.37 794.59 252.37 796.73C252.37 796.87 252.37 797.01 252.35 797.15C253.06 796.38 254.07 795.91 255.2 795.91C257.34 795.91 259.08 797.65 259.08 799.79C259.08 801.16 258.37 802.37 257.29 803.06C258.39 803.74 259.13 804.97 259.13 806.36C259.13 807.75 257.39 810.24 255.25 810.24C254.68 810.24 254.14 810.12 253.65 809.89C253.65 809.94 253.65 810 253.65 810.05C253.65 812.19 251.91 813.93 249.77 813.93C248.37 813.93 247.15 813.19 246.46 812.08C245.78 813.19 244.55 813.93 243.15 813.93C241.45 813.93 240.01 812.84 239.48 811.32C238.87 812.65 237.52 813.58 235.95 813.58C233.98 813.58 232.35 812.11 232.1 810.2C231.48 810.61 230.75 810.85 229.95 810.85C227.81 810.85 226.07 809.11 226.07 806.97C226.07 805.6 226.78 804.4 227.85 803.71L227.88 803.7Z" fill="#F9F7ED"/>
<path d="M250.85 794.59C250.87 794.45 250.87 794.31 250.87 794.17C250.87 793.98 250.86 793.8 250.83 793.62C251.03 793.77 251.21 793.94 251.38 794.12C251.19 794.26 251.01 794.42 250.85 794.6V794.59Z" fill="#E0DBC6"/>
<path d="M260.16 801.54L265.78 805.24C263.55 807.91 258.82 805.82 260.16 801.54Z" fill="#8E6E59"/>
<path d="M258.08 800.55L258.81 800.84C259.73 801.2 260.51 801.84 261.04 802.68L263.75 806.96C264.51 808.16 264.17 809.75 262.98 810.53C262.16 811.07 261.11 811.11 260.25 810.62L254.76 807.5C253.09 806.55 252.37 804.52 253.07 802.73C253.85 800.75 256.09 799.77 258.07 800.55H258.08Z" fill="#A0826D"/>
<path d="M257.26 800.41L250.62 799.3C250.44 802.78 255.33 804.46 257.26 800.41Z" fill="#BA9E8A"/>
<path d="M1920 761C1920 855 1920 1080.3 1920 1080.3H0V929.462C121.15 952.772 252.51 957.172 377.79 956.552C618.47 955.372 860.28 943.192 1088.84 891.852C1203.52 866.092 1312.95 831.672 1428.83 807.892C1677.8 756.792 1811 755.5 1920 761Z" fill="#5695A8"/>
<path d="M1920 790.36V1214.49H0V1067.75C130.01 1037.33 360.06 1050.29 691.33 1068.78C875.51 1079.06 1303.56 966.59 1443.41 907.86C1682.79 807.32 1830.67 785.5 1920 790.36Z" fill="#C1DD4B"/>
<path d="M1216.2 1002.79C1209.6 1004.31 1203.36 1005.7 1197.68 1006.94C1195.85 1007.34 1194.08 1007.72 1192.37 1008.09C1192.08 1008.16 1191.78 1008.22 1191.48 1008.3C1181.99 1010.31 1174.62 1011.74 1170.63 1012.27C1161.87 1013.43 1148.25 1015.92 1134.3 1018C1127.91 1018.95 1121.42 1019.81 1115.3 1020.42C1115.22 1020.25 1115.17 1020.08 1115.12 1019.91C1114.63 1017.99 1115.7 1016.04 1116.99 1014.53C1119.24 1011.91 1122.31 1009.96 1125.62 1008.99C1121.64 1009.19 1117.53 1006.55 1115.92 1002.79C1113.97 998.211 1115.32 992.681 1118.48 988.861C1121.64 985.021 1126.36 982.751 1131.2 981.631C1134.83 980.791 1138.76 980.561 1142.15 982.101C1143.1 982.531 1143.99 983.151 1144.76 983.871C1144.55 982.931 1144.4 981.971 1144.34 980.991C1144.14 977.471 1145.57 973.631 1148.66 971.971C1150.87 970.781 1153.52 970.841 1156.02 971.071C1161.51 971.601 1166.96 972.741 1172.19 974.481C1175.82 975.701 1180.04 978.381 1179.3 982.131C1180.12 975.991 1182.21 970.001 1185.41 964.691C1187.26 961.621 1190.24 958.451 1193.76 959.081C1195.76 959.441 1197.34 960.991 1198.59 962.591C1205.75 971.691 1206.46 985.341 1200.29 995.141C1202.73 991.511 1206.32 988.651 1210.42 987.111C1221.11 983.081 1219.75 995.691 1216.16 1002.8L1216.2 1002.79Z" fill="#C1DD4B"/>
<path d="M1556.73 847.61C1556.32 847.83 1555.94 848.07 1555.57 848.33L1553.5 845.68H1553.47C1549.67 841.29 1543.5 839.47 1539.37 841.64C1535.6 843.63 1534.8 848.28 1537.18 852.63C1534.14 850.17 1530.55 849.18 1528.2 850.42C1527.55 850.76 1527.06 851.26 1526.7 851.85C1523.45 850.19 1519.81 849.87 1517.08 851.31C1513.31 853.3 1512.51 857.95 1514.89 862.3C1511.85 859.84 1508.26 858.85 1505.91 860.09C1502.87 861.69 1503.08 866.43 1506.38 870.67L1508.57 873.48C1506.05 873.21 1503.48 873.6 1501.26 874.77C1495.88 877.61 1494.62 883.87 1498.43 888.76C1499.27 889.83 1500.29 890.74 1501.41 891.49C1501.41 891.49 1523.14 881.44 1523.7 881.82L1538.72 873.9L1549.22 868.37L1564.77 860.17L1575.12 854.71C1574.76 853.55 1574.18 852.41 1573.35 851.34C1569.54 846.45 1562.08 844.78 1556.71 847.61H1556.73Z" fill="#C1DD4B"/>
<path d="M1618.76 829.575C1618.32 829.726 1617.91 829.909 1617.53 830.104L1615.64 827.32L1615.61 827.318C1612.11 822.652 1606 820.134 1601.64 821.665C1597.66 823.069 1596.48 827.38 1598.54 831.819C1595.66 829.088 1592.09 827.685 1589.61 828.56C1588.92 828.804 1588.38 829.209 1587.98 829.723C1584.82 827.725 1581.15 826.956 1578.25 827.974C1574.27 829.379 1573.09 833.689 1575.15 838.128C1572.27 835.397 1568.71 833.994 1566.22 834.869C1563.01 836.005 1562.84 840.524 1565.85 844.977L1567.85 847.928C1565.31 847.346 1562.67 847.388 1560.33 848.212C1554.64 850.214 1552.86 855.997 1556.33 861.132C1557.1 862.256 1558.05 863.253 1559.14 864.108C1559.14 864.108 1581.98 857.372 1582.52 857.799L1598.41 852.216L1609.51 848.315L1625.94 842.529L1636.88 838.676C1636.6 837.535 1636.11 836.369 1635.34 835.245C1631.87 830.11 1624.45 827.564 1618.76 829.565L1618.76 829.575Z" fill="#C1DD4B"/>
<path d="M1716.96 949.77C1712.89 943.09 1710.24 935.54 1709.24 927.78C1708.64 923.14 1708.89 917.8 1712.38 914.7C1713.17 914 1714.28 913.43 1715.26 913.81C1716.38 914.24 1716.75 915.61 1716.95 916.79C1718.62 926.66 1719 936.74 1718.06 946.7C1717.95 940.09 1718.11 933.39 1719.98 927.05C1721.85 920.71 1725.61 914.71 1731.32 911.37C1731.65 911.17 1732.02 910.98 1732.41 911.02C1733.21 911.1 1733.57 912.07 1733.67 912.87C1734.12 916.53 1733 920.18 1731.81 923.66C1729.46 930.5 1726.75 937.23 1723.7 943.79C1726.77 935.26 1733.11 927.95 1741.13 923.72C1742.73 922.88 1745.02 922.3 1746.08 923.76C1746.45 924.27 1746.55 924.92 1746.57 925.55C1746.63 928.52 1744.87 931.19 1743.02 933.52C1738.57 939.13 1733.22 944.02 1727.24 947.96C1731.13 943.44 1736.52 940.24 1742.34 938.97C1743.07 938.81 1743.87 938.7 1744.51 939.08C1745.8 939.85 1745.35 941.84 1744.56 943.11C1741.79 947.54 1736.96 950.18 1732.34 952.64C1728.22 954.83 1723.53 957.09 1719.06 955.74C1715.4 954.63 1713.8 951.58 1711.01 949.34C1708.52 947.34 1706.59 945.86 1705.12 942.82C1704.7 941.94 1704.36 940.85 1704.92 940.05C1705.38 939.4 1706.3 939.22 1707.07 939.41C1710.86 940.36 1714.49 945.46 1716.17 948.69" fill="#1D9526"/>
<path d="M118.37 325.84C124.61 325.91 131.46 325.75 136.16 321.65C145.26 313.71 138.02 297.14 126.54 293.41C115.06 289.68 102.71 294.32 91.5299 298.9C106.21 271.52 101.53 235 80.2999 212.32C59.0699 189.64 22.8199 182.58 -5.31009 195.79C-33.4301 209 -51.1601 241.53 -46.8501 272.3C-55.5501 210.11 -175.93 279.24 -104.41 314.81C-76.9601 328.46 -36.1401 322.88 -6.70009 323.62C34.9799 324.66 76.6799 325.4 118.37 325.85V325.84Z" fill="white"/>
<path d="M549.494 509.995C552.202 510.026 555.175 509.957 557.215 508.187C561.164 504.76 558.022 497.607 553.039 495.997C548.057 494.387 542.697 496.39 537.845 498.367C544.216 486.549 542.185 470.785 532.971 460.996C523.757 451.206 508.024 448.159 495.815 453.861C483.611 459.563 475.916 473.604 477.786 486.885C474.01 460.042 421.764 489.881 452.805 505.234C464.718 511.126 482.435 508.718 495.212 509.037C513.301 509.486 531.4 509.806 549.494 510V509.995Z" fill="white"/>
<path d="M497.494 218.995C500.202 219.026 503.175 218.957 505.215 217.187C509.164 213.76 506.022 206.607 501.039 204.997C496.057 203.387 490.697 205.39 485.845 207.367C492.216 195.549 490.185 179.785 480.971 169.996C471.757 160.206 456.024 157.159 443.815 162.861C431.611 168.563 423.916 182.604 425.786 195.885C422.01 169.042 369.764 198.881 400.805 214.234C412.718 220.126 430.435 217.718 443.212 218.037C461.301 218.486 479.4 218.806 497.494 219V218.995Z" fill="white"/>
<path d="M1832.62 495.073C1837.42 495.123 1842.68 495.003 1846.3 491.853C1853.3 485.753 1847.73 473.013 1838.91 470.143C1830.08 467.273 1820.59 470.843 1812 474.363C1823.29 453.313 1819.69 425.243 1803.37 407.803C1787.05 390.363 1759.18 384.943 1737.56 395.093C1715.94 405.253 1702.31 430.253 1705.62 453.913C1698.93 406.103 1606.39 459.253 1661.37 486.593C1682.47 497.083 1713.85 492.803 1736.48 493.363C1768.52 494.163 1800.58 494.733 1832.63 495.083L1832.62 495.073Z" fill="white"/>
<path d="M1570.54 295.398C1573.94 295.438 1577.66 295.348 1580.22 293.118C1585.17 288.798 1581.23 279.778 1574.98 277.748C1568.73 275.718 1562.01 278.238 1555.93 280.738C1563.92 265.838 1561.37 245.958 1549.82 233.608C1538.26 221.258 1518.53 217.418 1503.23 224.608C1487.92 231.798 1478.28 249.508 1480.62 266.248C1475.88 232.398 1410.37 270.028 1449.29 289.378C1464.23 296.808 1486.44 293.768 1502.47 294.168C1525.16 294.728 1547.85 295.138 1570.54 295.378V295.398Z" fill="white"/>
</svg>
