<svg width="1920" height="1215" viewBox="0 0 1920 1215" fill="none" xmlns="http://www.w3.org/2000/svg">
<path d="M1920 3.3501H0V1088.75H1920V3.3501Z" fill="#F9F4DC"/>
<path opacity="0.53" d="M0 0V226.1C358.74 197.28 716.33 170.54 1077.76 168.84C824.32 139.39 565.76 123.68 309.76 117.79C670.72 107.97 1029.12 84.41 1390.08 90.3C1566.42 93.1 1743.33 106.08 1920 117.69V0H0Z" fill="white"/>
<path opacity="0.53" d="M668.65 351.2C747.22 345.95 1763.47 312.92 1920 304.53V366.55C1837.32 366.6 844.13 353.74 668.65 351.2Z" fill="white"/>
<g opacity="0.64">
<path opacity="0.6" d="M595.417 349.419C654.992 289.845 654.992 193.255 595.417 133.681C535.843 74.1064 439.254 74.1064 379.679 133.681C320.105 193.255 320.105 289.845 379.679 349.419C439.254 408.994 535.843 408.994 595.417 349.419Z" fill="#FFC800"/>
<path d="M595.349 286.56C620.203 227.027 592.091 158.619 532.558 133.764C473.026 108.91 404.617 137.023 379.763 196.555C354.909 256.088 383.021 324.496 442.553 349.351C502.086 374.205 570.495 346.092 595.349 286.56Z" fill="#FFC800"/>
</g>
<mask id="mask0_287_9" style="mask-type:luminance" maskUnits="userSpaceOnUse" x="0" y="0" width="1921" height="1086">
<path d="M1920 0H0V1085.4H1920V0Z" fill="white"/>
</mask>
<g mask="url(#mask0_287_9)">
<path d="M1372.48 783H270.5C270.5 783 489.32 220.11 641.45 202.59C742 191.01 835.76 399.46 1372.48 783Z" fill="#B4E573"/>
<path d="M1220.34 757.38C1220.34 757.38 733.49 401.05 527.97 254.55C322.44 108.06 249.88 52.1202 165.12 94.2002C53.48 149.63 -245.94 529.72 -410.87 757.38C231.71 760.84 851.96 763.52 1220.34 757.38Z" fill="#98DD4E"/>
<mask id="mask1_287_9" style="mask-type:luminance" maskUnits="userSpaceOnUse" x="-411" y="80" width="1632" height="682">
<path d="M1220.34 757.38C1220.34 757.38 733.49 401.05 527.97 254.55C322.44 108.06 249.88 52.1202 165.12 94.2002C53.48 149.63 -245.94 529.72 -410.87 757.38C231.71 760.84 851.96 763.52 1220.34 757.38Z" fill="white"/>
</mask>
<g mask="url(#mask1_287_9)">
<path d="M217 193.46L218.22 200.58" stroke="#139926" stroke-width="5" stroke-linecap="round" stroke-linejoin="round"/>
<path d="M227.91 197V204.15" stroke="#139926" stroke-width="5" stroke-linecap="round" stroke-linejoin="round"/>
<path d="M238.88 193.3C238.88 194.66 238.88 199.73 238.88 201.09" stroke="#139926" stroke-width="5" stroke-linecap="round" stroke-linejoin="round"/>
<path d="M372.85 320.08C372.85 319.21 374.66 325.6 374.66 331.88" stroke="#139926" stroke-width="5" stroke-linecap="round" stroke-linejoin="round"/>
<path d="M356 328.25C357.15 331.89 358.01 333.15 358.42 335.52" stroke="#139926" stroke-width="5" stroke-linecap="round" stroke-linejoin="round"/>
<path d="M383.82 324.61C383.82 325.97 383.82 331.04 383.82 332.4" stroke="#139926" stroke-width="5" stroke-linecap="round" stroke-linejoin="round"/>
<path d="M226 383L227.22 390.12" stroke="#139926" stroke-width="5" stroke-linecap="round" stroke-linejoin="round"/>
<path d="M236.9 384.5V393.69" stroke="#139926" stroke-width="5" stroke-linecap="round" stroke-linejoin="round"/>
<path d="M246.78 383C246.78 384.36 247.87 389.27 247.87 390.63" stroke="#139926" stroke-width="5" stroke-linecap="round" stroke-linejoin="round"/>
</g>
<path d="M2101.58 895.31L2087.13 839.63C2087.13 839.63 1087.7 743.64 744.66 743.64C951.32 543.74 1167.97 297.41 1321.48 174.13C1573.98 -28.6099 1758.67 -110.94 1862.8 -52.6999C1999.96 24.0201 2320.46 553.4 2523.06 868.48L2101.58 895.31Z" fill="#98DD4E"/>
<mask id="mask2_287_9" style="mask-type:luminance" maskUnits="userSpaceOnUse" x="744" y="-71" width="1780" height="967">
<path d="M2101.58 895.31L2087.13 839.63C2087.13 839.63 1087.7 743.64 744.66 743.64C951.32 543.74 1167.97 297.41 1321.48 174.13C1573.98 -28.6099 1758.67 -110.94 1862.8 -52.6999C1999.96 24.0201 2320.46 553.4 2523.06 868.48L2101.58 895.31Z" fill="white"/>
</mask>
<g mask="url(#mask2_287_9)">
<path d="M1619.44 125.75C1619.85 128.12 1620.25 130.49 1620.66 132.87" stroke="#139926" stroke-width="5" stroke-linecap="round" stroke-linejoin="round"/>
<path d="M1632.01 122.01V129.16" stroke="#139926" stroke-width="5" stroke-linecap="round" stroke-linejoin="round"/>
<path d="M1641.31 125.59V133.38" stroke="#139926" stroke-width="5" stroke-linecap="round" stroke-linejoin="round"/>
<path d="M1854.51 622.38C1854.92 624.75 1855.32 627.12 1855.73 629.5" stroke="#139926" stroke-width="5" stroke-linecap="round" stroke-linejoin="round"/>
<path d="M1866.7 617.23V630.01" stroke="#139926" stroke-width="5" stroke-linecap="round" stroke-linejoin="round"/>
</g>
<path d="M1260.6 196.194C1260.51 196.114 1260.42 196.044 1260.32 195.974C1257.91 194.334 1255.36 192.904 1252.72 191.684C1251.01 190.904 1249.21 190.194 1247.33 190.224C1244.65 190.254 1242.3 191.754 1240.28 193.394C1238.25 195.044 1236.4 196.914 1234.37 198.564C1234.27 198.644 1234.16 198.734 1234.02 198.754C1233.87 198.774 1233.72 198.714 1233.58 198.644C1231.28 197.564 1228.94 196.474 1226.51 195.714C1223.73 194.844 1220.64 193.654 1217.69 194.254C1213.05 195.194 1209.44 199.654 1206.48 203.034C1206.28 203.264 1206.07 203.504 1206.01 203.804C1205.95 204.104 1206.09 204.464 1206.39 204.534C1206.64 204.594 1206.88 204.434 1207.09 204.284C1210.2 202.024 1213.51 198.324 1217.48 197.684C1220.12 197.264 1222.77 198.454 1225.17 199.394C1226.88 200.064 1228.55 200.814 1230.21 201.584C1231.64 202.254 1233.35 203.784 1235.04 203.334C1236.48 202.954 1237.25 201.224 1238.24 200.234C1239.67 198.804 1241.24 197.474 1242.84 196.244C1245.79 193.984 1248.19 193.054 1251.87 194.264C1254.46 195.114 1257.01 196.064 1259.52 197.114C1260.01 197.324 1260.76 197.414 1260.91 196.904C1260.99 196.634 1260.83 196.394 1260.61 196.194H1260.6Z" fill="#9FA0A0"/>
<path d="M1331.98 180.614C1331.2 179.664 1330.4 178.734 1329.58 177.814C1327.63 175.634 1325.59 173.184 1322.9 171.804C1319.57 170.094 1316.01 171.044 1312.7 172.234C1310.28 173.104 1307.96 174.114 1305.65 175.184C1303.7 173.364 1301.7 171.654 1299.52 170.064C1297.02 168.224 1294.19 166.524 1291.02 166.304C1287.52 166.054 1284.12 167.744 1281.14 169.374C1279.99 170.044 1278.85 170.724 1277.74 171.454C1277.08 171.884 1277.61 172.884 1278.33 172.604C1279.55 172.124 1280.76 171.664 1281.98 171.244C1285.95 169.864 1290.73 168.464 1294.55 171.164C1298.4 173.884 1301.09 180.444 1306.72 179.104C1310.59 178.184 1313.74 175.364 1317.74 174.474C1322.18 173.494 1325.01 176.804 1328.21 179.274C1329.16 180.014 1330.11 180.764 1331.05 181.534C1331.65 182.024 1332.46 181.224 1331.96 180.624L1331.98 180.614Z" fill="#9FA0A0"/>
<path d="M1283.92 140.574C1282.06 139.574 1280.06 138.814 1278 138.324C1276.78 138.034 1275.49 137.844 1274.27 138.174C1272.82 138.564 1271.65 139.644 1270.7 140.814C1269.75 141.984 1268.93 143.264 1267.84 144.304C1267.63 144.504 1267.4 144.694 1267.13 144.774C1266.78 144.874 1266.41 144.764 1266.06 144.654C1264.16 144.094 1262.21 143.684 1260.24 143.454C1257.37 143.104 1255.08 143.794 1253.11 146.004C1251.9 147.354 1250.89 149.014 1250.03 150.604C1249.89 150.864 1249.76 151.194 1249.93 151.424C1250.15 151.264 1250.38 151.114 1250.59 150.944C1251.55 150.204 1252.34 149.274 1253.16 148.394C1253.98 147.514 1254.87 146.654 1255.96 146.124C1257.62 145.304 1259.41 145.804 1261.12 146.134C1263.02 146.504 1265.01 147.714 1266.99 147.524C1269.61 147.274 1270.51 144.864 1271.99 143.034C1272.97 141.824 1274.03 140.554 1275.51 140.084C1276.91 139.634 1278.44 139.984 1279.87 140.334C1280.99 140.604 1282.11 140.884 1283.24 141.154C1283.66 141.254 1284.27 141.234 1284.31 140.804C1284.18 140.734 1284.05 140.664 1283.92 140.594V140.574Z" fill="#9FA0A0"/>
</g>
<path d="M1920 760.972L989.38 766.932C953.6 766.082 951.17 750.152 893.83 746.972C856.93 742.372 806.78 745.342 734.51 760.972H0V1080.02H1920V760.972Z" fill="#ACEBFE"/>
<path d="M1035.3 946.762C1017.77 946.722 1000.25 946.062 982.71 946.022C981.06 946.022 981.06 943.462 982.71 943.462C1000.24 943.502 1017.76 944.162 1035.3 944.202C1036.95 944.202 1036.95 946.762 1035.3 946.762Z" fill="#DDEEE4"/>
<path d="M962.72 956.392C950.87 957.682 939.04 956.482 927.17 956.392C925.52 956.382 925.52 953.822 927.17 953.832C939.04 953.922 950.88 955.122 962.72 953.832C964.36 953.652 964.34 956.212 962.72 956.392Z" fill="#DDEEE4"/>
<path d="M1010.12 958.612C1002.23 959.332 994.34 960.032 986.42 960.092C984.77 960.102 984.77 957.552 986.42 957.532C994.35 957.472 1002.23 956.772 1010.12 956.052C1011.76 955.902 1011.75 958.462 1010.12 958.612Z" fill="#DDEEE4"/>
<path d="M1002.71 973.432C993.82 973.432 984.94 973.432 976.05 973.432C974.4 973.432 974.4 970.872 976.05 970.872C984.94 970.872 993.82 970.872 1002.71 970.872C1004.36 970.872 1004.36 973.432 1002.71 973.432Z" fill="#DDEEE4"/>
<path d="M1075.3 964.542C1062.71 965.832 1050.14 964.632 1037.53 964.542C1035.88 964.532 1035.88 961.972 1037.53 961.982C1050.14 962.072 1062.72 963.272 1075.3 961.982C1076.94 961.812 1076.92 964.372 1075.3 964.542Z" fill="#DDEEE4"/>
<path d="M1090.11 955.652C1086.9 955.652 1083.69 955.652 1080.48 955.652C1078.83 955.652 1078.83 953.092 1080.48 953.092C1083.69 953.092 1086.9 953.092 1090.11 953.092C1091.76 953.092 1091.76 955.652 1090.11 955.652Z" fill="#DDEEE4"/>
<path d="M907.17 924.542C898.29 925.222 889.41 925.282 880.51 925.282C878.86 925.282 878.86 922.722 880.51 922.722C889.41 922.722 898.3 922.662 907.17 921.982C908.82 921.852 908.8 924.412 907.17 924.542Z" fill="#DDEEE4"/>
<path d="M853.84 898.622C843.27 897.212 832.64 897.142 821.99 897.142C820.34 897.142 820.34 894.582 821.99 894.582C832.64 894.582 843.26 894.652 853.84 896.062C855.45 896.272 855.47 898.832 853.84 898.622Z" fill="#DDEEE4"/>
<path d="M745.71 864.552C738.79 864.552 731.86 864.582 724.97 865.292C723.33 865.462 723.35 862.902 724.97 862.732C731.86 862.022 738.79 861.992 745.71 861.992C747.36 861.992 747.36 864.552 745.71 864.552Z" fill="#DDEEE4"/>
<path d="M785.37 871.912C781.81 871.252 778.21 871.222 774.6 871.222C772.95 871.222 772.95 868.662 774.6 868.662C778.45 868.662 782.26 868.742 786.05 869.442C787.67 869.742 786.98 872.202 785.37 871.912Z" fill="#DDEEE4"/>
<path d="M756.82 819.372C752.38 819.372 747.93 819.372 743.49 819.372C741.84 819.372 741.84 816.812 743.49 816.812C747.93 816.812 752.38 816.812 756.82 816.812C758.47 816.812 758.47 819.372 756.82 819.372Z" fill="#DDEEE4"/>
<path d="M759.78 835.672H751.63C749.98 835.672 749.98 833.112 751.63 833.112C754.34 833.112 757.06 833.112 759.78 833.112C761.43 833.112 761.43 835.672 759.78 835.672Z" fill="#DDEEE4"/>
<path d="M790.89 797.152C785.48 796.432 780.02 796.312 774.6 795.672C772.98 795.482 772.96 792.922 774.6 793.112C780.02 793.752 785.48 793.872 790.89 794.592C792.5 794.802 792.52 797.362 790.89 797.152Z" fill="#DDEEE4"/>
<path d="M724.63 791.922C721.58 791.212 718.46 791.222 715.34 791.222C713.69 791.222 713.69 788.662 715.34 788.662C718.69 788.662 722.03 788.682 725.31 789.452C726.92 789.832 726.23 792.292 724.63 791.922Z" fill="#DDEEE4"/>
<path d="M1244.9 966.022C1211.08 966.022 1177.26 966.022 1143.43 966.022C1141.78 966.022 1141.78 963.462 1143.43 963.462C1177.25 963.462 1211.07 963.462 1244.9 963.462C1246.55 963.462 1246.55 966.022 1244.9 966.022Z" fill="#DDEEE4"/>
<path d="M1170.1 990.462C1147.14 990.492 1124.18 991.172 1101.22 991.202C1099.57 991.202 1099.57 988.652 1101.22 988.642C1124.18 988.612 1147.14 987.932 1170.1 987.902C1171.75 987.902 1171.75 990.452 1170.1 990.462Z" fill="#DDEEE4"/>
<path d="M1049.37 1006.02C1032.32 1006.02 1015.27 1006.09 998.27 1007.5C996.63 1007.64 996.64 1005.08 998.27 1004.94C1015.27 1003.53 1032.32 1003.46 1049.37 1003.46C1051.02 1003.46 1051.02 1006.02 1049.37 1006.02Z" fill="#DDEEE4"/>
<path d="M1431.54 1023.79C1372.37 1029.92 1312.82 1029.48 1253.42 1030.83C1193.55 1032.2 1133.63 1035.12 1073.81 1037.86C1072.16 1037.93 1072.17 1035.38 1073.81 1035.3C1133.63 1032.55 1193.55 1029.69 1253.42 1028.27C1312.83 1026.86 1372.36 1027.36 1431.54 1021.23C1433.18 1021.06 1433.16 1023.62 1431.54 1023.79Z" fill="#DDEEE4"/>
<path d="M1187.87 1068.23C1165.14 1068.2 1142.4 1067.62 1119.73 1069.71C1118.09 1069.86 1118.1 1067.3 1119.73 1067.15C1142.4 1065.06 1165.14 1065.64 1187.87 1065.67C1189.52 1065.67 1189.52 1068.23 1187.87 1068.23Z" fill="#DDEEE4"/>
<path d="M908.38 911.402C900.97 911.402 893.64 911.232 886.31 910.082C884.68 909.832 885.38 907.362 886.99 907.612C894.1 908.732 901.21 908.842 908.38 908.842C910.03 908.842 910.03 911.402 908.38 911.402Z" fill="#DDEEE4"/>
<path d="M857.25 911.402H848.3C846.65 911.402 846.65 908.842 848.3 908.842C851.28 908.842 854.27 908.842 857.25 908.842C858.9 908.842 858.9 911.402 857.25 911.402Z" fill="#DDEEE4"/>
<path d="M809.94 905.012C805.92 905.012 801.96 904.892 798.09 903.692C796.52 903.202 797.19 900.732 798.77 901.222C802.43 902.352 806.14 902.452 809.94 902.452C811.59 902.452 811.59 905.012 809.94 905.012Z" fill="#DDEEE4"/>
<path d="M692.66 873.002C653.05 880.772 613.14 868.172 573.42 867.932C571.77 867.932 571.77 865.362 573.42 865.372C612.87 865.612 652.64 878.252 691.98 870.532C693.59 870.222 694.28 872.682 692.66 873.002Z" fill="#DDEEE4"/>
<path d="M558.09 853.872C522.22 858.682 486.57 850.232 450.7 850.032C449.05 850.032 449.05 847.462 450.7 847.472C486.57 847.672 522.22 856.112 558.09 851.312C559.72 851.092 559.7 853.652 558.09 853.872Z" fill="#DDEEE4"/>
<path d="M618.51 847.432C603.12 849.802 587.65 848.822 572.15 848.752C570.5 848.752 570.5 846.192 572.15 846.192C587.41 846.252 602.68 847.292 617.83 844.962C619.44 844.712 620.13 847.182 618.51 847.432Z" fill="#DDEEE4"/>
<path d="M700 850.032C691.05 850.032 682.1 850.032 673.15 850.032C671.5 850.032 671.5 847.472 673.15 847.472C682.1 847.472 691.05 847.472 700 847.472C701.65 847.472 701.65 850.032 700 850.032Z" fill="#DDEEE4"/>
<path d="M722.07 837.202C717.83 838.502 713.34 838.522 708.95 838.522C707.3 838.522 707.3 835.962 708.95 835.962C713.13 835.962 717.36 835.962 721.4 834.732C722.98 834.252 723.65 836.712 722.08 837.202H722.07Z" fill="#DDEEE4"/>
<path d="M734.51 828.302C732.86 828.302 732.86 825.742 734.51 825.742C736.16 825.742 736.16 828.302 734.51 828.302Z" fill="#DDEEE4"/>
<path d="M821.45 777.162C786.06 779.602 750.73 774.722 715.34 774.602C713.69 774.602 713.69 772.042 715.34 772.042C750.73 772.152 786.06 777.042 821.45 774.602C823.1 774.492 823.09 777.042 821.45 777.162Z" fill="#DDEEE4"/>
<path d="M763.92 783.552H748.58C746.93 783.552 746.93 780.992 748.58 780.992C753.69 780.992 758.81 780.992 763.92 780.992C765.57 780.992 765.57 783.552 763.92 783.552Z" fill="#DDEEE4"/>
<path d="M855.97 769.492H827.84C826.19 769.492 826.19 766.932 827.84 766.932C837.22 766.932 846.59 766.932 855.97 766.932C857.62 766.932 857.62 769.492 855.97 769.492Z" fill="#DDEEE4"/>
<path d="M795.88 769.492C789.91 769.492 783.95 769.492 777.98 769.492C776.33 769.492 776.33 766.932 777.98 766.932C783.95 766.932 789.91 766.932 795.88 766.932C797.53 766.932 797.53 769.492 795.88 769.492Z" fill="#DDEEE4"/>
<path d="M822.73 788.672C818.47 788.672 814.21 788.672 809.95 788.672C808.3 788.672 808.3 786.112 809.95 786.112C814.21 786.112 818.47 786.112 822.73 786.112C824.38 786.112 824.38 788.672 822.73 788.672Z" fill="#DDEEE4"/>
<path d="M942.9 991.942C931.82 991.942 920.74 991.942 909.66 991.942C908.01 991.942 908.01 989.382 909.66 989.382C920.74 989.382 931.82 989.382 942.9 989.382C944.55 989.382 944.55 991.942 942.9 991.942Z" fill="#DDEEE4"/>
<path d="M884.09 993.222C882.28 993.222 881.54 992.472 881.53 990.662C881.53 989.012 884.08 989.012 884.09 990.662C884.09 990.852 884.09 991.042 884.09 991.242C883.9 991.042 883.7 990.852 883.5 990.652C883.69 990.652 883.89 990.652 884.08 990.652C885.73 990.652 885.73 993.212 884.08 993.212L884.09 993.222Z" fill="#DDEEE4"/>
<path d="M854.69 991.942V993.222C854.69 994.872 852.13 994.872 852.13 993.222V991.942C852.13 990.292 854.69 990.292 854.69 991.942Z" fill="#DDEEE4"/>
<path d="M931.4 1004.73V1006.01C931.4 1007.66 928.84 1007.66 928.84 1006.01V1004.73C928.84 1003.08 931.4 1003.08 931.4 1004.73Z" fill="#DDEEE4"/>
<path d="M871.31 957.422H870.03C868.38 957.422 868.38 954.862 870.03 954.862H871.31C872.96 954.862 872.96 957.422 871.31 957.422Z" fill="#DDEEE4"/>
<path d="M841.53 942.992L840.25 944.272C839.08 945.442 837.28 943.632 838.44 942.462L839.72 941.182C840.89 940.012 842.69 941.822 841.53 942.992Z" fill="#DDEEE4"/>
<path d="M885.37 943.362C883.72 943.362 883.72 940.802 885.37 940.802C887.02 940.802 887.02 943.362 885.37 943.362Z" fill="#DDEEE4"/>
<path d="M1020.89 912.682H1019.61C1017.96 912.682 1017.96 910.122 1019.61 910.122H1020.89C1022.54 910.122 1022.54 912.682 1020.89 912.682Z" fill="#DDEEE4"/>
<path d="M1051.57 916.512V917.792C1051.57 919.442 1049.01 919.442 1049.01 917.792V916.512C1049.01 914.862 1051.57 914.862 1051.57 916.512Z" fill="#DDEEE4"/>
<path d="M1031.12 919.072C1029.47 919.072 1029.47 916.512 1031.12 916.512C1032.77 916.512 1032.77 919.072 1031.12 919.072Z" fill="#DDEEE4"/>
<path d="M1036.23 912.682C1034.58 912.682 1034.58 910.122 1036.23 910.122C1037.88 910.122 1037.88 912.682 1036.23 912.682Z" fill="#DDEEE4"/>
<path d="M1063.98 916.142C1063.55 916.572 1063.13 916.992 1062.7 917.422C1061.53 918.592 1059.72 916.782 1060.89 915.612C1061.32 915.182 1061.74 914.762 1062.17 914.332C1063.34 913.162 1065.15 914.972 1063.98 916.142Z" fill="#DDEEE4"/>
<path d="M1095.04 916.512C1093.39 916.512 1093.39 913.952 1095.04 913.952C1096.69 913.952 1096.69 916.512 1095.04 916.512Z" fill="#DDEEE4"/>
<path d="M1068.19 924.182H1066.91C1065.26 924.182 1065.26 921.622 1066.91 921.622H1068.19C1069.84 921.622 1069.84 924.182 1068.19 924.182Z" fill="#DDEEE4"/>
<path d="M997.88 915.242C988.93 915.242 979.98 915.242 971.03 915.242C969.38 915.242 969.38 912.682 971.03 912.682C979.98 912.682 988.93 912.682 997.88 912.682C999.53 912.682 999.53 915.242 997.88 915.242Z" fill="#DDEEE4"/>
<path d="M1035.3 946.762C1017.77 946.722 1000.25 946.062 982.71 946.022C981.06 946.022 981.06 943.462 982.71 943.462C1000.24 943.502 1017.76 944.162 1035.3 944.202C1036.95 944.202 1036.95 946.762 1035.3 946.762Z" stroke="#DDEEE4" stroke-width="0.75" stroke-miterlimit="10"/>
<path d="M962.72 956.392C950.87 957.682 939.04 956.482 927.17 956.392C925.52 956.382 925.52 953.822 927.17 953.832C939.04 953.922 950.88 955.122 962.72 953.832C964.36 953.652 964.34 956.212 962.72 956.392Z" stroke="#DDEEE4" stroke-width="0.75" stroke-miterlimit="10"/>
<path d="M1010.12 958.612C1002.23 959.332 994.34 960.032 986.42 960.092C984.77 960.102 984.77 957.552 986.42 957.532C994.35 957.472 1002.23 956.772 1010.12 956.052C1011.76 955.902 1011.75 958.462 1010.12 958.612Z" stroke="#DDEEE4" stroke-width="0.75" stroke-miterlimit="10"/>
<path d="M1002.71 973.432C993.82 973.432 984.94 973.432 976.05 973.432C974.4 973.432 974.4 970.872 976.05 970.872C984.94 970.872 993.82 970.872 1002.71 970.872C1004.36 970.872 1004.36 973.432 1002.71 973.432Z" stroke="#DDEEE4" stroke-width="0.75" stroke-miterlimit="10"/>
<path d="M1075.3 964.542C1062.71 965.832 1050.14 964.632 1037.53 964.542C1035.88 964.532 1035.88 961.972 1037.53 961.982C1050.14 962.072 1062.72 963.272 1075.3 961.982C1076.94 961.812 1076.92 964.372 1075.3 964.542Z" stroke="#DDEEE4" stroke-width="0.75" stroke-miterlimit="10"/>
<path d="M1090.11 955.652C1086.9 955.652 1083.69 955.652 1080.48 955.652C1078.83 955.652 1078.83 953.092 1080.48 953.092C1083.69 953.092 1086.9 953.092 1090.11 953.092C1091.76 953.092 1091.76 955.652 1090.11 955.652Z" stroke="#DDEEE4" stroke-width="0.75" stroke-miterlimit="10"/>
<path d="M907.17 924.542C898.29 925.222 889.41 925.282 880.51 925.282C878.86 925.282 878.86 922.722 880.51 922.722C889.41 922.722 898.3 922.662 907.17 921.982C908.82 921.852 908.8 924.412 907.17 924.542Z" stroke="#DDEEE4" stroke-width="0.75" stroke-miterlimit="10"/>
<path d="M853.84 898.622C843.27 897.212 832.64 897.142 821.99 897.142C820.34 897.142 820.34 894.582 821.99 894.582C832.64 894.582 843.26 894.652 853.84 896.062C855.45 896.272 855.47 898.832 853.84 898.622Z" stroke="#DDEEE4" stroke-width="0.75" stroke-miterlimit="10"/>
<path d="M745.71 864.552C738.79 864.552 731.86 864.582 724.97 865.292C723.33 865.462 723.35 862.902 724.97 862.732C731.86 862.022 738.79 861.992 745.71 861.992C747.36 861.992 747.36 864.552 745.71 864.552Z" stroke="#DDEEE4" stroke-width="0.75" stroke-miterlimit="10"/>
<path d="M785.37 871.912C781.81 871.252 778.21 871.222 774.6 871.222C772.95 871.222 772.95 868.662 774.6 868.662C778.45 868.662 782.26 868.742 786.05 869.442C787.67 869.742 786.98 872.202 785.37 871.912Z" stroke="#DDEEE4" stroke-width="0.75" stroke-miterlimit="10"/>
<path d="M756.82 819.372C752.38 819.372 747.93 819.372 743.49 819.372C741.84 819.372 741.84 816.812 743.49 816.812C747.93 816.812 752.38 816.812 756.82 816.812C758.47 816.812 758.47 819.372 756.82 819.372Z" stroke="#DDEEE4" stroke-width="0.75" stroke-miterlimit="10"/>
<path d="M759.78 835.672H751.63C749.98 835.672 749.98 833.112 751.63 833.112C754.34 833.112 757.06 833.112 759.78 833.112C761.43 833.112 761.43 835.672 759.78 835.672Z" stroke="#DDEEE4" stroke-width="0.75" stroke-miterlimit="10"/>
<path d="M790.89 797.152C785.48 796.432 780.02 796.312 774.6 795.672C772.98 795.482 772.96 792.922 774.6 793.112C780.02 793.752 785.48 793.872 790.89 794.592C792.5 794.802 792.52 797.362 790.89 797.152Z" stroke="#DDEEE4" stroke-width="0.75" stroke-miterlimit="10"/>
<path d="M724.63 791.922C721.58 791.212 718.46 791.222 715.34 791.222C713.69 791.222 713.69 788.662 715.34 788.662C718.69 788.662 722.03 788.682 725.31 789.452C726.92 789.832 726.23 792.292 724.63 791.922Z" stroke="#DDEEE4" stroke-width="0.75" stroke-miterlimit="10"/>
<path d="M1244.9 966.022C1211.08 966.022 1177.26 966.022 1143.43 966.022C1141.78 966.022 1141.78 963.462 1143.43 963.462C1177.25 963.462 1211.07 963.462 1244.9 963.462C1246.55 963.462 1246.55 966.022 1244.9 966.022Z" stroke="#DDEEE4" stroke-width="0.75" stroke-miterlimit="10"/>
<path d="M1170.1 990.462C1147.14 990.492 1124.18 991.172 1101.22 991.202C1099.57 991.202 1099.57 988.652 1101.22 988.642C1124.18 988.612 1147.14 987.932 1170.1 987.902C1171.75 987.902 1171.75 990.452 1170.1 990.462Z" stroke="#DDEEE4" stroke-width="0.75" stroke-miterlimit="10"/>
<path d="M1049.37 1006.02C1032.32 1006.02 1015.27 1006.09 998.27 1007.5C996.63 1007.64 996.64 1005.08 998.27 1004.94C1015.27 1003.53 1032.32 1003.46 1049.37 1003.46C1051.02 1003.46 1051.02 1006.02 1049.37 1006.02Z" stroke="#DDEEE4" stroke-width="0.75" stroke-miterlimit="10"/>
<path d="M1431.54 1023.79C1372.37 1029.92 1312.82 1029.48 1253.42 1030.83C1193.55 1032.2 1133.63 1035.12 1073.81 1037.86C1072.16 1037.93 1072.17 1035.38 1073.81 1035.3C1133.63 1032.55 1193.55 1029.69 1253.42 1028.27C1312.83 1026.86 1372.36 1027.36 1431.54 1021.23C1433.18 1021.06 1433.16 1023.62 1431.54 1023.79Z" stroke="#DDEEE4" stroke-width="0.75" stroke-miterlimit="10"/>
<path d="M1187.87 1068.23C1165.14 1068.2 1142.4 1067.62 1119.73 1069.71C1118.09 1069.86 1118.1 1067.3 1119.73 1067.15C1142.4 1065.06 1165.14 1065.64 1187.87 1065.67C1189.52 1065.67 1189.52 1068.23 1187.87 1068.23Z" stroke="#DDEEE4" stroke-width="0.75" stroke-miterlimit="10"/>
<path d="M908.38 911.402C900.97 911.402 893.64 911.232 886.31 910.082C884.68 909.832 885.38 907.362 886.99 907.612C894.1 908.732 901.21 908.842 908.38 908.842C910.03 908.842 910.03 911.402 908.38 911.402Z" stroke="#DDEEE4" stroke-width="0.75" stroke-miterlimit="10"/>
<path d="M857.25 911.402H848.3C846.65 911.402 846.65 908.842 848.3 908.842C851.28 908.842 854.27 908.842 857.25 908.842C858.9 908.842 858.9 911.402 857.25 911.402Z" stroke="#DDEEE4" stroke-width="0.75" stroke-miterlimit="10"/>
<path d="M809.94 905.012C805.92 905.012 801.96 904.892 798.09 903.692C796.52 903.202 797.19 900.732 798.77 901.222C802.43 902.352 806.14 902.452 809.94 902.452C811.59 902.452 811.59 905.012 809.94 905.012Z" stroke="#DDEEE4" stroke-width="0.75" stroke-miterlimit="10"/>
<path d="M692.66 873.002C653.05 880.772 613.14 868.172 573.42 867.932C571.77 867.932 571.77 865.362 573.42 865.372C612.87 865.612 652.64 878.252 691.98 870.532C693.59 870.222 694.28 872.682 692.66 873.002Z" stroke="#DDEEE4" stroke-width="0.75" stroke-miterlimit="10"/>
<path d="M558.09 853.872C522.22 858.682 486.57 850.232 450.7 850.032C449.05 850.032 449.05 847.462 450.7 847.472C486.57 847.672 522.22 856.112 558.09 851.312C559.72 851.092 559.7 853.652 558.09 853.872Z" stroke="#DDEEE4" stroke-width="0.75" stroke-miterlimit="10"/>
<path d="M618.51 847.432C603.12 849.802 587.65 848.822 572.15 848.752C570.5 848.752 570.5 846.192 572.15 846.192C587.41 846.252 602.68 847.292 617.83 844.962C619.44 844.712 620.13 847.182 618.51 847.432Z" stroke="#DDEEE4" stroke-width="0.75" stroke-miterlimit="10"/>
<path d="M700 850.032C691.05 850.032 682.1 850.032 673.15 850.032C671.5 850.032 671.5 847.472 673.15 847.472C682.1 847.472 691.05 847.472 700 847.472C701.65 847.472 701.65 850.032 700 850.032Z" stroke="#DDEEE4" stroke-width="0.75" stroke-miterlimit="10"/>
<path d="M722.07 837.202C717.83 838.502 713.34 838.522 708.95 838.522C707.3 838.522 707.3 835.962 708.95 835.962C713.13 835.962 717.36 835.962 721.4 834.732C722.98 834.252 723.65 836.712 722.08 837.202H722.07Z" stroke="#DDEEE4" stroke-width="0.75" stroke-miterlimit="10"/>
<path d="M734.51 828.302C732.86 828.302 732.86 825.742 734.51 825.742C736.16 825.742 736.16 828.302 734.51 828.302Z" stroke="#DDEEE4" stroke-width="0.75" stroke-miterlimit="10"/>
<path d="M821.45 777.162C786.06 779.602 750.73 774.722 715.34 774.602C713.69 774.602 713.69 772.042 715.34 772.042C750.73 772.152 786.06 777.042 821.45 774.602C823.1 774.492 823.09 777.042 821.45 777.162Z" stroke="#DDEEE4" stroke-width="0.75" stroke-miterlimit="10"/>
<path d="M763.92 783.552H748.58C746.93 783.552 746.93 780.992 748.58 780.992C753.69 780.992 758.81 780.992 763.92 780.992C765.57 780.992 765.57 783.552 763.92 783.552Z" stroke="#DDEEE4" stroke-width="0.75" stroke-miterlimit="10"/>
<path d="M855.97 769.492H827.84C826.19 769.492 826.19 766.932 827.84 766.932C837.22 766.932 846.59 766.932 855.97 766.932C857.62 766.932 857.62 769.492 855.97 769.492Z" stroke="#DDEEE4" stroke-width="0.75" stroke-miterlimit="10"/>
<path d="M795.88 769.492C789.91 769.492 783.95 769.492 777.98 769.492C776.33 769.492 776.33 766.932 777.98 766.932C783.95 766.932 789.91 766.932 795.88 766.932C797.53 766.932 797.53 769.492 795.88 769.492Z" stroke="#DDEEE4" stroke-width="0.75" stroke-miterlimit="10"/>
<path d="M822.73 788.672C818.47 788.672 814.21 788.672 809.95 788.672C808.3 788.672 808.3 786.112 809.95 786.112C814.21 786.112 818.47 786.112 822.73 786.112C824.38 786.112 824.38 788.672 822.73 788.672Z" stroke="#DDEEE4" stroke-width="0.75" stroke-miterlimit="10"/>
<path d="M942.9 991.942C931.82 991.942 920.74 991.942 909.66 991.942C908.01 991.942 908.01 989.382 909.66 989.382C920.74 989.382 931.82 989.382 942.9 989.382C944.55 989.382 944.55 991.942 942.9 991.942Z" stroke="#DDEEE4" stroke-width="0.75" stroke-miterlimit="10"/>
<path d="M884.09 993.222C882.28 993.222 881.54 992.472 881.53 990.662C881.53 989.012 884.08 989.012 884.09 990.662C884.09 990.852 884.09 991.042 884.09 991.242C883.9 991.042 883.7 990.852 883.5 990.652C883.69 990.652 883.89 990.652 884.08 990.652C885.73 990.652 885.73 993.212 884.08 993.212L884.09 993.222Z" stroke="#DDEEE4" stroke-width="0.75" stroke-miterlimit="10"/>
<path d="M854.69 991.942V993.222C854.69 994.872 852.13 994.872 852.13 993.222V991.942C852.13 990.292 854.69 990.292 854.69 991.942Z" stroke="#DDEEE4" stroke-width="0.75" stroke-miterlimit="10"/>
<path d="M931.4 1004.73V1006.01C931.4 1007.66 928.84 1007.66 928.84 1006.01V1004.73C928.84 1003.08 931.4 1003.08 931.4 1004.73Z" stroke="#DDEEE4" stroke-width="0.75" stroke-miterlimit="10"/>
<path d="M871.31 957.422H870.03C868.38 957.422 868.38 954.862 870.03 954.862H871.31C872.96 954.862 872.96 957.422 871.31 957.422Z" stroke="#DDEEE4" stroke-width="0.75" stroke-miterlimit="10"/>
<path d="M841.53 942.992L840.25 944.272C839.08 945.442 837.28 943.632 838.44 942.462L839.72 941.182C840.89 940.012 842.69 941.822 841.53 942.992Z" stroke="#DDEEE4" stroke-width="0.75" stroke-miterlimit="10"/>
<path d="M885.37 943.362C883.72 943.362 883.72 940.802 885.37 940.802C887.02 940.802 887.02 943.362 885.37 943.362Z" stroke="#DDEEE4" stroke-width="0.75" stroke-miterlimit="10"/>
<path d="M1020.89 912.682H1019.61C1017.96 912.682 1017.96 910.122 1019.61 910.122H1020.89C1022.54 910.122 1022.54 912.682 1020.89 912.682Z" stroke="#DDEEE4" stroke-width="0.75" stroke-miterlimit="10"/>
<path d="M1051.57 916.512V917.792C1051.57 919.442 1049.01 919.442 1049.01 917.792V916.512C1049.01 914.862 1051.57 914.862 1051.57 916.512Z" stroke="#DDEEE4" stroke-width="0.75" stroke-miterlimit="10"/>
<path d="M1031.12 919.072C1029.47 919.072 1029.47 916.512 1031.12 916.512C1032.77 916.512 1032.77 919.072 1031.12 919.072Z" stroke="#DDEEE4" stroke-width="0.75" stroke-miterlimit="10"/>
<path d="M1036.23 912.682C1034.58 912.682 1034.58 910.122 1036.23 910.122C1037.88 910.122 1037.88 912.682 1036.23 912.682Z" stroke="#DDEEE4" stroke-width="0.75" stroke-miterlimit="10"/>
<path d="M1063.98 916.142C1063.55 916.572 1063.13 916.992 1062.7 917.422C1061.53 918.592 1059.72 916.782 1060.89 915.612C1061.32 915.182 1061.74 914.762 1062.17 914.332C1063.34 913.162 1065.15 914.972 1063.98 916.142Z" stroke="#DDEEE4" stroke-width="0.75" stroke-miterlimit="10"/>
<path d="M1095.04 916.512C1093.39 916.512 1093.39 913.952 1095.04 913.952C1096.69 913.952 1096.69 916.512 1095.04 916.512Z" stroke="#DDEEE4" stroke-width="0.75" stroke-miterlimit="10"/>
<path d="M1068.19 924.182H1066.91C1065.26 924.182 1065.26 921.622 1066.91 921.622H1068.19C1069.84 921.622 1069.84 924.182 1068.19 924.182Z" stroke="#DDEEE4" stroke-width="0.75" stroke-miterlimit="10"/>
<path d="M997.88 915.242C988.93 915.242 979.98 915.242 971.03 915.242C969.38 915.242 969.38 912.682 971.03 912.682C979.98 912.682 988.93 912.682 997.88 912.682C999.53 912.682 999.53 915.242 997.88 915.242Z" stroke="#DDEEE4" stroke-width="0.75" stroke-miterlimit="10"/>
<g style="mix-blend-mode:multiply" opacity="0.3">
<path d="M1920.29 766.72V1079.56H1158.78C1227.08 1048.42 1333.84 993.68 1299.28 951.43C1274.74 922.3 1217.11 913.86 1179.72 908.73C1175.54 908.16 1171.62 907.62 1168.02 907.11C1136.36 901.7 1104.37 897.35 1072.33 893.25C1033.63 888.3 994.89 883.73 956.65 878.13C920.85 873.02 849.26 874.73 820.28 847.45C803.28 833.06 815.38 821.69 830.4 812.55C834.96 809.78 839.78 807.22 844.14 804.84C881.1 786.02 921.24 771.99 962.57 760.52L1113.28 761.5H1114.67L1920.29 766.72Z" fill="#99C2B4"/>
</g>
<path d="M1023.88 754.89H974.95C925.53 754.89 811.32 804.31 828.03 826.47C834.59 835.17 893.82 845.18 951.87 852.42C994.47 857.73 1036.43 861.54 1056.47 862.27C1089.39 863.46 1050.8 873.84 1067.1 884.88C1072.45 888.51 1083.72 892.2 1105.37 895.67H1105.43L1105.46 895.68L1920.28 846.63V762.93C1920.28 762.93 1197.42 754.9 1023.87 754.9L1023.88 754.89Z" fill="#8ECE45"/>
<g style="mix-blend-mode:multiply" opacity="0.5">
<path d="M1413.05 899.88C1344.42 872.25 1272.3 895.87 1144.51 884.04C1016.73 872.22 1117.05 849.5 1069.67 848.73C1022.29 847.96 837.98 841.62 826.4 826.76C826.28 828.67 826.79 830.46 828.02 832.1C839.4 847.19 1009.1 866.19 1056.45 867.9C1103.81 869.61 1003.2 890.33 1130.81 904.69C1258.42 919.05 1330.85 896.87 1399.1 925.86C1467.35 954.85 1577.28 990.35 1749.36 990.35V957.61C1585.72 958.9 1479.68 926.71 1413.04 899.88H1413.05Z" fill="#6DAE84"/>
</g>
<path d="M1779.71 738.76H1777.79V761.74H1779.71V738.76Z" fill="#139926"/>
<path d="M1790.14 734.14C1790.14 748.52 1784.4 751.09 1778.75 751.09C1773.1 751.09 1768.89 746.35 1768.89 731.97C1768.89 717.59 1773.1 699.01 1778.75 699.01C1784.4 699.01 1790.14 719.76 1790.14 734.15V734.14Z" fill="#139926"/>
<path d="M1823.41 746.83H1822.28V760.37H1823.41V746.83Z" fill="#139926"/>
<path d="M1829.55 744.11C1829.55 752.59 1826.17 754.1 1822.84 754.1C1819.51 754.1 1817.03 751.31 1817.03 742.83C1817.03 734.35 1819.51 723.41 1822.84 723.41C1826.17 723.41 1829.55 735.64 1829.55 744.11Z" fill="#139926"/>
<path d="M1757.7 749.97H1756.57V763.51H1757.7V749.97Z" fill="#139926"/>
<path d="M1763.84 747.24C1763.84 755.72 1760.46 757.23 1757.13 757.23C1753.8 757.23 1751.32 754.44 1751.32 745.96C1751.32 737.48 1753.8 726.54 1757.13 726.54C1760.46 726.54 1763.84 738.77 1763.84 747.24Z" fill="#139926"/>
<path d="M1114.67 746.24H1113.28V762.88H1114.67V746.24Z" fill="#139926"/>
<path d="M1122.22 742.89C1122.22 753.3 1118.06 755.16 1113.97 755.16C1109.88 755.16 1106.83 751.73 1106.83 741.31C1106.83 730.89 1109.88 717.44 1113.97 717.44C1118.06 717.44 1122.22 732.47 1122.22 742.88V742.89Z" fill="#139926"/>
<path d="M1088.44 747.99H1087.34V761.13H1088.44V747.99Z" fill="#139926"/>
<path d="M1094.4 745.35C1094.4 753.57 1091.12 755.04 1087.89 755.04C1084.66 755.04 1082.25 752.33 1082.25 744.11C1082.25 735.89 1084.66 725.27 1087.89 725.27C1091.12 725.27 1094.4 737.13 1094.4 745.36V745.35Z" fill="#139926"/>
<path d="M955.66 787.22L957.28 801.83H959.75L959.46 787.22H955.66Z" fill="#A0826D"/>
<path d="M965.23 787.22L963.61 801.83H961.14L961.43 787.22H965.23Z" fill="#BA9E8A"/>
<path d="M970.43 787.22L972.05 801.83H974.52L974.23 787.22H970.43Z" fill="#A0826D"/>
<path d="M979.99 787.22L978.37 801.83H975.9L976.19 787.22H979.99Z" fill="#BA9E8A"/>
<path d="M980.66 789.73C981.79 789.18 982.57 788.02 982.57 786.68C982.57 784.81 981.05 783.3 979.19 783.3C978.7 783.3 978.24 783.4 977.83 783.59C977.8 781.75 976.3 780.27 974.45 780.27C973.1 780.27 971.94 781.06 971.39 782.2C970.85 781.06 969.68 780.27 968.33 780.27C967.15 780.27 966.11 780.88 965.5 781.79C964.89 780.87 963.85 780.27 962.67 780.27C960.8 780.27 959.29 781.79 959.29 783.65C959.29 783.77 959.29 783.9 959.31 784.02C958.69 783.35 957.81 782.93 956.83 782.93C954.96 782.93 953.45 784.45 953.45 786.31C953.45 787.51 954.07 788.56 955.01 789.16C954.05 789.76 953.41 790.82 953.41 792.04C953.41 793.91 954.93 795.42 956.79 795.42C957.29 795.42 957.76 795.31 958.19 795.12C958.19 795.17 958.19 795.21 958.19 795.26C958.19 797.13 959.71 798.64 961.57 798.64C962.79 798.64 963.86 798 964.45 797.03C965.05 798 966.11 798.64 967.33 798.64C968.81 798.64 970.07 797.69 970.53 796.36C971.07 797.52 972.24 798.33 973.61 798.33C975.33 798.33 976.75 797.04 976.97 795.38C977.51 795.74 978.15 795.95 978.84 795.95C980.71 795.95 982.22 794.43 982.22 792.57C982.22 791.38 981.6 790.33 980.67 789.72L980.66 789.73Z" fill="#F9F7ED"/>
<path d="M960.63 781.78C960.62 781.66 960.61 781.54 960.61 781.41C960.61 781.25 960.62 781.09 960.64 780.93C960.47 781.06 960.31 781.21 960.16 781.36C960.33 781.48 960.48 781.62 960.62 781.78H960.63Z" fill="#E0DBC6"/>
<path d="M955.52 778.91L949.78 780.12C950.74 783 955.25 782.81 955.52 778.91Z" fill="#8E6E59"/>
<path d="M957.53 778.76H956.84C955.98 778.76 955.14 779.03 954.45 779.54L950.89 782.15C949.89 782.88 949.66 784.28 950.37 785.29C950.86 785.99 951.71 786.35 952.55 786.23L958 785.45C959.66 785.21 960.89 783.79 960.89 782.12C960.89 780.26 959.38 778.75 957.52 778.75L957.53 778.76Z" fill="#A0826D"/>
<path d="M951.6 783.79L955.16 781.18C955.85 780.67 956.69 780.4 957.55 780.4H958.24C959.3 780.4 960.25 780.89 960.87 781.66C960.64 780.02 959.24 778.76 957.54 778.76H956.85C955.99 778.76 955.15 779.03 954.46 779.54L950.9 782.15C949.9 782.88 949.67 784.28 950.38 785.29C950.47 785.41 950.57 785.53 950.67 785.63C950.67 784.92 950.99 784.23 951.6 783.78V783.79Z" fill="#A0826D"/>
<path d="M958.24 778.91L963.98 780.12C963.02 783 958.51 782.81 958.24 778.91Z" fill="#BA9E8A"/>
<path d="M1051.05 803.98L1052.67 818.59H1055.14L1054.85 803.98H1051.05Z" fill="#A0826D"/>
<path d="M1060.62 803.98L1059 818.59H1056.53L1056.82 803.98H1060.62Z" fill="#BA9E8A"/>
<path d="M1065.82 803.98L1067.44 818.59H1069.91L1069.62 803.98H1065.82Z" fill="#A0826D"/>
<path d="M1075.38 803.98L1073.76 818.59H1071.29L1071.58 803.98H1075.38Z" fill="#BA9E8A"/>
<path d="M1076.04 806.49C1077.17 805.94 1077.95 804.78 1077.95 803.44C1077.95 801.57 1076.43 800.06 1074.57 800.06C1074.08 800.06 1073.62 800.16 1073.21 800.35C1073.18 798.51 1071.68 797.03 1069.83 797.03C1068.48 797.03 1067.32 797.82 1066.77 798.96C1066.23 797.82 1065.06 797.03 1063.71 797.03C1062.53 797.03 1061.49 797.64 1060.88 798.55C1060.27 797.63 1059.23 797.03 1058.05 797.03C1056.18 797.03 1054.67 798.55 1054.67 800.41C1054.67 800.53 1054.67 800.66 1054.69 800.78C1054.07 800.11 1053.19 799.69 1052.21 799.69C1050.34 799.69 1048.83 801.21 1048.83 803.07C1048.83 804.27 1049.45 805.32 1050.39 805.92C1049.43 806.52 1048.79 807.58 1048.79 808.8C1048.79 810.67 1050.31 812.18 1052.17 812.18C1052.67 812.18 1053.14 812.07 1053.57 811.88C1053.57 811.93 1053.57 811.97 1053.57 812.02C1053.57 813.89 1055.09 815.4 1056.95 815.4C1058.17 815.4 1059.24 814.76 1059.83 813.79C1060.43 814.76 1061.49 815.4 1062.71 815.4C1064.19 815.4 1065.45 814.45 1065.91 813.12C1066.45 814.28 1067.62 815.09 1068.99 815.09C1070.71 815.09 1072.13 813.8 1072.35 812.14C1072.89 812.5 1073.53 812.71 1074.22 812.71C1076.09 812.71 1077.6 811.19 1077.6 809.33C1077.6 808.14 1076.98 807.09 1076.05 806.48L1076.04 806.49Z" fill="#F9F7ED"/>
<path d="M1056.01 798.54C1056 798.42 1055.99 798.3 1055.99 798.17C1055.99 798.01 1056 797.85 1056.02 797.69C1055.85 797.82 1055.69 797.97 1055.54 798.12C1055.71 798.24 1055.86 798.38 1056 798.54H1056.01Z" fill="#E0DBC6"/>
<path d="M1050.91 795.67L1045.17 796.88C1046.13 799.76 1050.64 799.57 1050.91 795.67Z" fill="#8E6E59"/>
<path d="M1052.92 795.52H1052.23C1051.37 795.52 1050.53 795.79 1049.84 796.3L1046.28 798.91C1045.28 799.64 1045.05 801.04 1045.76 802.05C1046.25 802.75 1047.1 803.11 1047.94 802.99L1053.39 802.21C1055.05 801.97 1056.28 800.55 1056.28 798.88C1056.28 797.02 1054.77 795.51 1052.91 795.51L1052.92 795.52Z" fill="#A0826D"/>
<path d="M1046.98 800.55L1050.54 797.94C1051.23 797.43 1052.07 797.16 1052.93 797.16H1053.62C1054.68 797.16 1055.63 797.65 1056.25 798.42C1056.02 796.78 1054.62 795.52 1052.92 795.52H1052.23C1051.37 795.52 1050.53 795.79 1049.84 796.3L1046.28 798.91C1045.28 799.64 1045.05 801.04 1045.76 802.05C1045.85 802.17 1045.95 802.29 1046.05 802.39C1046.05 801.68 1046.37 800.99 1046.98 800.54V800.55Z" fill="#A0826D"/>
<path d="M1053.63 795.67L1059.37 796.88C1058.41 799.76 1053.9 799.57 1053.63 795.67Z" fill="#BA9E8A"/>
<path d="M891.41 816.58L893.26 833.33H896.09L895.76 816.58H891.41Z" fill="#A0826D"/>
<path d="M902.38 816.58L900.53 833.33H897.7L898.03 816.58H902.38Z" fill="#BA9E8A"/>
<path d="M908.35 816.58L910.2 833.33H913.03L912.7 816.58H908.35Z" fill="#A0826D"/>
<path d="M919.31 816.58L917.46 833.33H914.63L914.96 816.58H919.31Z" fill="#BA9E8A"/>
<path d="M920.07 819.45C921.37 818.82 922.26 817.49 922.26 815.96C922.26 813.82 920.52 812.08 918.38 812.08C917.82 812.08 917.3 812.2 916.82 812.41C916.78 810.3 915.06 808.6 912.94 808.6C911.39 808.6 910.06 809.5 909.44 810.81C908.82 809.5 907.48 808.6 905.94 808.6C904.59 808.6 903.39 809.29 902.7 810.35C902.01 809.3 900.81 808.6 899.46 808.6C897.32 808.6 895.58 810.34 895.58 812.48C895.58 812.62 895.58 812.76 895.6 812.9C894.89 812.13 893.88 811.66 892.75 811.66C890.61 811.66 888.87 813.4 888.87 815.54C888.87 816.91 889.58 818.12 890.66 818.81C889.56 819.49 888.82 820.72 888.82 822.11C888.82 823.5 890.56 825.99 892.7 825.99C893.27 825.99 893.81 825.87 894.3 825.64C894.3 825.69 894.3 825.75 894.3 825.8C894.3 827.94 896.04 829.68 898.18 829.68C899.58 829.68 900.8 828.94 901.49 827.83C902.17 828.94 903.4 829.68 904.8 829.68C906.5 829.68 907.94 828.59 908.47 827.07C909.08 828.4 910.43 829.33 912 829.33C913.97 829.33 915.6 827.86 915.85 825.95C916.47 826.36 917.2 826.6 918 826.6C920.14 826.6 921.88 824.86 921.88 822.72C921.88 821.35 921.17 820.15 920.1 819.46L920.07 819.45Z" fill="#F9F7ED"/>
<path d="M897.1 810.34C897.08 810.2 897.08 810.06 897.08 809.92C897.08 809.73 897.09 809.55 897.12 809.37C896.92 809.52 896.74 809.69 896.57 809.87C896.76 810.01 896.94 810.17 897.1 810.35V810.34Z" fill="#E0DBC6"/>
<path d="M887.79 817.29L882.17 820.99C884.4 823.66 889.13 821.57 887.79 817.29Z" fill="#8E6E59"/>
<path d="M889.87 816.3L889.14 816.59C888.22 816.95 887.44 817.59 886.91 818.43L884.2 822.71C883.44 823.91 883.78 825.5 884.97 826.28C885.79 826.82 886.84 826.86 887.7 826.37L893.19 823.25C894.86 822.3 895.58 820.27 894.88 818.48C894.1 816.5 891.86 815.52 889.88 816.3H889.87Z" fill="#A0826D"/>
<path d="M890.69 816.16L897.33 815.05C897.51 818.53 892.62 820.21 890.69 816.16Z" fill="#BA9E8A"/>
<g style="mix-blend-mode:multiply" opacity="0.3">
<path d="M513.02 835.3C401.9 930.65 180.41 870.1 0 921.35V760.61H734.51C739.63 772.54 551.29 802.46 513.02 835.3Z" fill="#99C2B4"/>
</g>
<path d="M728.77 760.61C724.36 762.28 716.97 764.23 707.71 766.36H707.7C674.9 773.92 618.64 783.77 588.36 791.36C535.54 804.6 240.9 867.09 121.01 869.72C76.27 870.7 34.63 872.38 0 874.11V745.02C185.05 746.48 635.96 750.45 721.55 755.16C735.21 755.91 735.98 757.88 728.77 760.61Z" fill="#8ECE45"/>
<g style="mix-blend-mode:multiply" opacity="0.5">
<path d="M711.39 764.73C710.52 765.24 709.28 765.78 707.71 766.36H707.7C687 773.99 609.61 787.21 572.49 796.8C521.31 810.04 235.84 872.53 119.69 875.16C75.28 876.17 34.03 877.92 0 879.68V869.21C29.74 867.92 63.75 866.76 99.84 866.09C216 863.93 501.73 802.62 552.96 789.59C591.07 779.9 685.83 770.28 711.39 764.73Z" fill="#6DAE84"/>
</g>
<path d="M427.265 740.595H425.357V763.479H427.265V740.595Z" fill="#139926"/>
<path d="M437.65 735.987C437.65 750.309 431.933 752.862 426.311 752.862C420.689 752.862 416.494 748.143 416.494 733.821C416.494 719.499 420.689 701 426.311 701C431.933 701 437.65 721.666 437.65 735.987Z" fill="#139926"/>
<path d="M442.996 754.882H441.87V768.37H442.996V754.882Z" fill="#139926"/>
<path d="M449.117 752.166C449.117 760.607 445.747 762.112 442.438 762.112C439.128 762.112 436.652 759.326 436.652 750.893C436.652 742.46 439.128 731.552 442.438 731.552C445.747 731.552 449.117 743.733 449.117 752.166Z" fill="#139926"/>
<path d="M405.353 751.753H404.227V765.241H405.353V751.753Z" fill="#139926"/>
<path d="M411.465 749.045C411.465 757.487 408.095 758.991 404.785 758.991C401.476 758.991 399 756.206 399 747.773C399 739.34 401.476 728.431 404.785 728.431C408.095 728.431 411.465 740.612 411.465 749.045Z" fill="#139926"/>
<path d="M1920 761C1920 855 1920 1080.3 1920 1080.3H0V929.462C121.15 952.772 252.51 957.172 377.79 956.552C618.47 955.372 860.28 943.192 1088.84 891.852C1203.52 866.092 1312.95 831.672 1428.83 807.892C1677.8 756.792 1811 755.5 1920 761Z" fill="#5695A8"/>
<path d="M1920 790.36V1214.49H0V1067.75C130.01 1037.33 360.06 1050.29 691.33 1068.78C875.51 1079.06 1303.56 966.59 1443.41 907.86C1682.79 807.32 1830.67 785.5 1920 790.36Z" fill="#C1DD4B"/>
<path d="M1216.2 1002.79C1209.6 1004.31 1203.36 1005.7 1197.68 1006.94C1195.85 1007.34 1194.08 1007.72 1192.37 1008.09C1192.08 1008.16 1191.78 1008.22 1191.48 1008.3C1181.99 1010.31 1174.62 1011.74 1170.63 1012.27C1161.87 1013.43 1148.25 1015.92 1134.3 1018C1127.91 1018.95 1121.42 1019.81 1115.3 1020.42C1115.22 1020.25 1115.17 1020.08 1115.12 1019.91C1114.63 1017.99 1115.7 1016.04 1116.99 1014.53C1119.24 1011.91 1122.31 1009.96 1125.62 1008.99C1121.64 1009.19 1117.53 1006.55 1115.92 1002.79C1113.97 998.211 1115.32 992.681 1118.48 988.861C1121.64 985.021 1126.36 982.751 1131.2 981.631C1134.83 980.791 1138.76 980.561 1142.15 982.101C1143.1 982.531 1143.99 983.151 1144.76 983.871C1144.55 982.931 1144.4 981.971 1144.34 980.991C1144.14 977.471 1145.57 973.631 1148.66 971.971C1150.87 970.781 1153.52 970.841 1156.02 971.071C1161.51 971.601 1166.96 972.741 1172.19 974.481C1175.82 975.701 1180.04 978.381 1179.3 982.131C1180.12 975.991 1182.21 970.001 1185.41 964.691C1187.26 961.621 1190.24 958.451 1193.76 959.081C1195.76 959.441 1197.34 960.991 1198.59 962.591C1205.75 971.691 1206.46 985.341 1200.29 995.141C1202.73 991.511 1206.32 988.651 1210.42 987.111C1221.11 983.081 1219.75 995.691 1216.16 1002.8L1216.2 1002.79Z" fill="#C1DD4B"/>
<path d="M1556.73 847.61C1556.32 847.83 1555.94 848.07 1555.57 848.33L1553.5 845.68H1553.47C1549.67 841.29 1543.5 839.47 1539.37 841.64C1535.6 843.63 1534.8 848.28 1537.18 852.63C1534.14 850.17 1530.55 849.18 1528.2 850.42C1527.55 850.76 1527.06 851.26 1526.7 851.85C1523.45 850.19 1519.81 849.87 1517.08 851.31C1513.31 853.3 1512.51 857.95 1514.89 862.3C1511.85 859.84 1508.26 858.85 1505.91 860.09C1502.87 861.69 1503.08 866.43 1506.38 870.67L1508.57 873.48C1506.05 873.21 1503.48 873.6 1501.26 874.77C1495.88 877.61 1494.62 883.87 1498.43 888.76C1499.27 889.83 1500.29 890.74 1501.41 891.49C1501.41 891.49 1523.14 881.44 1523.7 881.82L1538.72 873.9L1549.22 868.37L1564.77 860.17L1575.12 854.71C1574.76 853.55 1574.18 852.41 1573.35 851.34C1569.54 846.45 1562.08 844.78 1556.71 847.61H1556.73Z" fill="#C1DD4B"/>
<path d="M1618.76 829.575C1618.32 829.726 1617.91 829.909 1617.53 830.104L1615.64 827.32L1615.61 827.318C1612.11 822.652 1605.99 820.134 1601.64 821.664C1597.66 823.069 1596.48 827.379 1598.54 831.819C1595.66 829.088 1592.09 827.685 1589.61 828.56C1588.92 828.804 1588.38 829.209 1587.98 829.722C1584.82 827.725 1581.15 826.956 1578.25 827.974C1574.27 829.378 1573.09 833.688 1575.15 838.128C1572.27 835.397 1568.71 833.994 1566.22 834.869C1563.01 836.005 1562.84 840.524 1565.85 844.977L1567.85 847.928C1565.31 847.346 1562.67 847.388 1560.33 848.212C1554.64 850.214 1552.86 855.997 1556.33 861.132C1557.1 862.256 1558.05 863.253 1559.14 864.108C1559.14 864.108 1581.98 857.371 1582.52 857.799L1598.41 852.216L1609.5 848.315L1625.94 842.529L1636.88 838.676C1636.6 837.535 1636.11 836.369 1635.34 835.245C1631.87 830.11 1624.45 827.564 1618.76 829.565L1618.76 829.575Z" fill="#C1DD4B"/>
<path d="M1716.96 949.77C1712.89 943.09 1710.24 935.54 1709.24 927.78C1708.64 923.14 1708.89 917.8 1712.38 914.7C1713.17 914 1714.28 913.43 1715.26 913.81C1716.38 914.24 1716.75 915.61 1716.95 916.79C1718.62 926.66 1719 936.74 1718.06 946.7C1717.95 940.09 1718.11 933.39 1719.98 927.05C1721.85 920.71 1725.61 914.71 1731.32 911.37C1731.65 911.17 1732.02 910.98 1732.41 911.02C1733.21 911.1 1733.57 912.07 1733.67 912.87C1734.12 916.53 1733 920.18 1731.81 923.66C1729.46 930.5 1726.75 937.23 1723.7 943.79C1726.77 935.26 1733.11 927.95 1741.13 923.72C1742.73 922.88 1745.02 922.3 1746.08 923.76C1746.45 924.27 1746.55 924.92 1746.57 925.55C1746.63 928.52 1744.87 931.19 1743.02 933.52C1738.57 939.13 1733.22 944.02 1727.24 947.96C1731.13 943.44 1736.52 940.24 1742.34 938.97C1743.07 938.81 1743.87 938.7 1744.51 939.08C1745.8 939.85 1745.35 941.84 1744.56 943.11C1741.79 947.54 1736.96 950.18 1732.34 952.64C1728.22 954.83 1723.53 957.09 1719.06 955.74C1715.4 954.63 1713.8 951.58 1711.01 949.34C1708.52 947.34 1706.59 945.86 1705.12 942.82C1704.7 941.94 1704.36 940.85 1704.92 940.05C1705.38 939.4 1706.3 939.22 1707.07 939.41C1710.86 940.36 1714.49 945.46 1716.17 948.69" fill="#1D9526"/>
<path d="M118.37 325.84C124.61 325.91 131.46 325.75 136.16 321.65C145.26 313.71 138.02 297.14 126.54 293.41C115.06 289.68 102.71 294.32 91.53 298.9C106.21 271.52 101.53 235 80.3 212.32C59.07 189.64 22.82 182.58 -5.30997 195.79C-33.43 209 -51.16 241.53 -46.85 272.3C-55.55 210.11 -175.93 279.24 -104.41 314.81C-76.96 328.46 -36.14 322.88 -6.69997 323.62C34.98 324.66 76.68 325.4 118.37 325.85V325.84Z" fill="white"/>
<path d="M1953.82 486.03C1958.62 486.08 1963.88 485.96 1967.5 482.81C1974.5 476.71 1968.93 463.97 1960.11 461.1C1951.28 458.23 1941.79 461.8 1933.2 465.32C1944.49 444.27 1940.89 416.2 1924.57 398.76C1908.25 381.32 1880.38 375.9 1858.76 386.05C1837.14 396.21 1823.51 421.21 1826.82 444.87C1820.13 397.06 1727.59 450.21 1782.57 477.55C1803.67 488.04 1835.05 483.76 1857.68 484.32C1889.72 485.12 1921.78 485.69 1953.83 486.04L1953.82 486.03Z" fill="white"/>
<path d="M1830.64 212.79C1834.04 212.83 1837.76 212.74 1840.32 210.51C1845.27 206.19 1841.33 197.17 1835.08 195.14C1828.83 193.11 1822.11 195.63 1816.03 198.13C1824.02 183.23 1821.47 163.35 1809.92 151C1798.36 138.65 1778.63 134.81 1763.33 142C1748.02 149.19 1738.38 166.9 1740.72 183.64C1735.98 149.79 1670.47 187.42 1709.39 206.77C1724.33 214.2 1746.54 211.16 1762.57 211.56C1785.26 212.12 1807.95 212.53 1830.64 212.77V212.79Z" fill="white"/>
<path d="M566.45 1099.55C566.29 1099.57 566.13 1099.59 565.96 1099.61C501.06 1107.39 424.59 1103.89 352.27 1100.85H352.26C303.93 1098.82 257.46 1097 217.54 1098.89C201.65 1099.64 186.38 1100.68 171.63 1101.89C171.59 1101.89 171.56 1101.89 171.55 1101.89H171.54C109.24 1107.04 56.19 1115.61 4.28998 1121.29C-37.2 1125.84 -77.97 1128.54 -122.14 1126.19C-173.42 1123.46 -221.58 1119.72 -266.05 1115.22C-312.62 1110.51 -355.15 1104.96 -393 1098.88C-393 1098.88 -337.13 1040.15 -311.37 1017.65C-294.8 1003.19 -192.21 1001.43 -178.53 997.637C-164.85 993.837 -118.16 959.147 -85.93 938.617C-78.81 934.087 -67.38 931.187 -53.65 929.437C-53.18 929.377 -52.71 929.317 -52.24 929.267C-51.44 929.167 -50.64 929.077 -49.83 928.987C-48.8 928.867 -47.75 928.757 -46.69 928.667C-46.06 928.597 -45.43 928.537 -44.79 928.487C-43.91 928.407 -43.01 928.327 -42.11 928.257C-40.58 928.137 -39.03 928.027 -37.47 927.927C-37 927.897 -36.53 927.867 -36.05 927.837C-34.6 927.747 -33.14 927.667 -31.67 927.597C-28.24 927.427 -24.75 927.307 -21.22 927.227C-20.28 927.197 -19.34 927.177 -18.4 927.167C-16.88 927.137 -15.36 927.117 -13.83 927.097C29.25 926.657 76.16 931.107 89.09 930.877C89.59 930.867 90.1 930.847 90.6 930.797C91.05 930.767 91.49 930.727 91.94 930.667C92.39 930.617 92.84 930.547 93.3 930.467C93.77 930.397 94.24 930.307 94.72 930.197C94.86 930.177 95 930.137 95.13 930.107C116.33 925.347 143.4 899.837 175.93 890.547C246.56 870.377 345.54 891.017 365.49 900.317C386.45 910.087 401.04 926.207 414.87 943.717C415.02 943.897 415.17 944.087 415.31 944.267C416.47 945.747 417.63 947.227 418.79 948.717C419.38 949.467 419.96 950.217 420.53 950.967C421.55 952.287 422.56 953.607 423.59 954.927C423.73 955.107 423.87 955.287 424 955.467C425.17 956.977 426.33 958.477 427.5 959.987C427.69 960.227 427.88 960.467 428.07 960.717C428.76 961.597 429.46 962.487 430.15 963.377C431.67 965.297 433.19 967.207 434.74 969.107C435.5 970.047 436.26 970.977 437.05 971.907C437.77 972.787 438.51 973.667 439.25 974.537C439.57 974.907 439.88 975.267 440.2 975.637C440.72 976.247 441.25 976.847 441.78 977.457C442.52 978.307 443.28 979.147 444.04 979.987C444.15 980.107 444.25 980.227 444.36 980.337C444.9 980.937 445.46 981.537 446.01 982.137C446.34 982.497 446.67 982.847 447 983.197C447.65 983.877 448.3 984.557 448.96 985.237C451.2 987.537 453.5 989.777 455.89 991.957C456.33 992.367 456.77 992.757 457.21 993.157C460.64 996.217 464.24 999.137 468.06 1001.91C468.81 1002.45 469.57 1002.98 470.33 1003.51C472.56 1005.05 474.87 1006.54 477.26 1007.95C477.82 1008.29 478.39 1008.63 478.97 1008.95C479.54 1009.28 480.12 1009.61 480.71 1009.93C481.29 1010.25 481.88 1010.57 482.48 1010.88C483.75 1011.56 485.04 1012.21 486.36 1012.85C486.89 1013.1 487.43 1013.36 487.97 1013.61C488.59 1013.9 489.22 1014.19 489.86 1014.47C489.89 1014.48 489.92 1014.5 489.96 1014.52C490.56 1014.78 491.17 1015.04 491.78 1015.3C492.43 1015.58 493.08 1015.85 493.74 1016.11C494.4 1016.38 495.06 1016.64 495.73 1016.89C496.39 1017.15 497.07 1017.4 497.75 1017.65C500.47 1018.64 503.28 1019.55 506.19 1020.39C507.39 1020.74 508.64 1021.23 509.93 1021.86C510.19 1021.98 510.44 1022.1 510.69 1022.24C511.29 1022.55 511.91 1022.89 512.53 1023.27C512.77 1023.41 513.01 1023.55 513.25 1023.7C514.38 1024.4 515.53 1025.19 516.71 1026.06C517.06 1026.32 517.41 1026.59 517.76 1026.86C518.89 1027.72 520.03 1028.66 521.19 1029.67C521.58 1030 521.96 1030.34 522.35 1030.69C522.74 1031.04 523.13 1031.39 523.52 1031.75C525.08 1033.18 526.67 1034.73 528.25 1036.36C528.85 1036.97 529.45 1037.59 530.04 1038.22C530.64 1038.85 531.24 1039.5 531.84 1040.15C532.24 1040.58 532.63 1041.02 533.03 1041.47C534.23 1042.8 535.43 1044.17 536.61 1045.58C537.01 1046.05 537.41 1046.52 537.8 1046.99C538.66 1048.01 539.51 1049.05 540.35 1050.1C541.08 1051 541.8 1051.91 542.51 1052.83C542.53 1052.85 542.54 1052.86 542.55 1052.88C543.28 1053.82 544.01 1054.76 544.73 1055.71C546.3 1057.77 547.83 1059.85 549.33 1061.95C549.7 1062.47 550.06 1062.98 550.43 1063.5C551.16 1064.53 551.88 1065.56 552.58 1066.59C552.93 1067.1 553.28 1067.62 553.63 1068.13C554.34 1069.16 555.02 1070.19 555.69 1071.22C556.03 1071.73 556.36 1072.24 556.69 1072.75C558.68 1075.81 560.56 1078.84 562.28 1081.77C562.57 1082.26 562.86 1082.74 563.14 1083.23C563.98 1084.68 564.79 1086.09 565.54 1087.48C565.79 1087.94 566.04 1088.4 566.29 1088.86C567.03 1090.22 567.72 1091.55 568.36 1092.84C568.52 1093.16 568.67 1093.47 568.82 1093.78C568.96 1094.07 569.1 1094.36 569.24 1094.65C570.15 1096.79 568.79 1099.23 566.46 1099.54L566.45 1099.55Z" fill="#2B454E"/>
<path opacity="0.5" d="M4.28995 1121.3C-37.2001 1125.85 -77.97 1128.55 -122.14 1126.2C-173.42 1123.47 -221.58 1119.73 -266.05 1115.23C-227.14 1093.51 -147.52 1048.03 -133.12 1031.67C-113.89 1009.85 -136.14 1000.69 -128.87 985.067C-121.6 969.447 -79.35 939.797 -53.67 929.467L-53.6501 929.447C-53.1801 929.387 -52.7101 929.327 -52.2401 929.277C-51.44 929.177 -50.64 929.087 -49.83 928.997C-48.8 928.877 -47.75 928.767 -46.69 928.677C-46.06 928.607 -45.43 928.547 -44.79 928.497C-43.91 928.417 -43.01 928.337 -42.11 928.267C-40.58 928.147 -39.03 928.037 -37.47 927.937C-37 927.907 -36.53 927.877 -36.05 927.847C-34.6001 927.757 -33.14 927.677 -31.67 927.607C-28.2401 927.437 -24.75 927.317 -21.22 927.237C-20.28 927.207 -19.3401 927.187 -18.4001 927.177C-16.8801 927.147 -15.36 927.127 -13.83 927.107C29.2499 926.667 76.16 931.117 89.09 930.887C89.59 930.877 90.0999 930.857 90.5999 930.807C91.05 930.777 91.49 930.737 91.94 930.677C92.39 930.627 92.84 930.557 93.3 930.477C93.77 930.407 94.24 930.317 94.72 930.207C95 930.157 95.27 930.087 95.55 930.027C67.43 944.727 5.48996 975.687 12.45 984.617C17.33 990.877 48.21 1010.33 86.38 1007.97C107.76 1006.65 103.16 1032.3 104.38 1043.55C107.06 1068.33 4.29996 1121.3 4.29996 1121.3H4.28995Z" fill="#1A2E35"/>
<path opacity="0.5" d="M566.45 1099.55C566.29 1099.57 566.13 1099.59 565.96 1099.61L352.27 1100.85H352.26C303.93 1098.82 257.46 1097 217.54 1098.89C201.65 1099.64 186.38 1100.68 171.63 1101.89C174.02 1101.56 225.52 1094.55 322.45 1085.63C347.78 1083.3 455.52 1052.71 451.68 1045.86C447.85 1039.04 420.23 1042.43 372.54 1049.91C324.86 1057.36 279.54 1050.07 289.43 1042.15C296.41 1036.56 358.43 1034.73 372.54 1028.89C386.64 1023.01 418.98 1021.45 431.8 1012.98C444.62 1004.52 428.32 966.997 414.86 943.727C414.85 943.707 414.84 943.687 414.83 943.667C414.99 943.867 415.15 944.077 415.3 944.277C416.46 945.757 417.62 947.237 418.78 948.727C419.37 949.477 419.95 950.227 420.52 950.977C421.54 952.297 422.55 953.617 423.58 954.937C423.72 955.117 423.86 955.297 423.99 955.477C425.16 956.987 426.32 958.487 427.49 959.997C427.68 960.237 427.87 960.477 428.06 960.727C428.75 961.607 429.45 962.497 430.14 963.387C431.66 965.307 433.18 967.217 434.73 969.117C435.49 970.057 436.26 970.987 437.04 971.917C437.77 972.797 438.5 973.677 439.24 974.547C439.56 974.917 439.87 975.277 440.19 975.647C440.71 976.257 441.24 976.856 441.77 977.466C442.51 978.316 443.27 979.157 444.03 979.997C444.14 980.117 444.24 980.236 444.35 980.346C444.89 980.946 445.45 981.547 446 982.147C446.33 982.507 446.66 982.857 446.99 983.207C447.64 983.887 448.29 984.567 448.95 985.247C451.19 987.547 453.49 989.786 455.88 991.966C456.32 992.376 456.76 992.767 457.2 993.167C460.63 996.227 464.23 999.147 468.05 1001.92C468.8 1002.46 469.56 1002.99 470.32 1003.52C472.55 1005.06 474.86 1006.55 477.25 1007.96C477.81 1008.3 478.38 1008.63 478.96 1008.96C479.53 1009.29 480.11 1009.62 480.7 1009.94C481.28 1010.26 481.87 1010.58 482.47 1010.89C483.74 1011.57 485.03 1012.22 486.35 1012.86C486.88 1013.11 487.42 1013.37 487.96 1013.62C488.58 1013.91 489.21 1014.2 489.85 1014.48C489.88 1014.49 489.91 1014.51 489.95 1014.53C490.55 1014.79 491.16 1015.05 491.77 1015.31C492.42 1015.59 493.07 1015.86 493.73 1016.12C494.38 1016.39 495.05 1016.65 495.72 1016.9C496.38 1017.16 497.06 1017.41 497.74 1017.66C500.46 1018.65 503.27 1019.56 506.18 1020.4C507.38 1020.75 508.63 1021.24 509.92 1021.87C510.18 1021.99 510.43 1022.11 510.68 1022.25C511.28 1022.56 511.9 1022.9 512.52 1023.28C512.76 1023.42 513 1023.56 513.24 1023.71C514.37 1024.41 515.52 1025.2 516.7 1026.07C517.05 1026.33 517.4 1026.6 517.75 1026.87C518.88 1027.73 520.02 1028.67 521.18 1029.68C521.57 1030.01 521.95 1030.35 522.34 1030.7C522.73 1031.05 523.12 1031.4 523.51 1031.76C525.07 1033.19 526.66 1034.74 528.24 1036.37C528.84 1036.98 529.44 1037.6 530.03 1038.23C530.63 1038.86 531.23 1039.51 531.83 1040.16C532.23 1040.59 532.62 1041.03 533.02 1041.48C534.22 1042.81 535.42 1044.18 536.6 1045.59C537 1046.06 537.4 1046.53 537.79 1047C538.65 1048.02 539.5 1049.06 540.34 1050.11C541.07 1051.01 541.79 1051.92 542.5 1052.84C542.52 1052.86 542.53 1052.87 542.54 1052.89C543.27 1053.83 544 1054.77 544.72 1055.72C546.29 1057.78 547.82 1059.86 549.32 1061.96C549.69 1062.48 550.05 1062.99 550.42 1063.51C551.15 1064.54 551.87 1065.57 552.57 1066.6C552.92 1067.11 553.27 1067.63 553.62 1068.14C554.33 1069.17 555.01 1070.2 555.68 1071.23C556.02 1071.74 556.35 1072.25 556.68 1072.76C558.67 1075.82 560.55 1078.85 562.27 1081.78C562.56 1082.27 562.85 1082.75 563.13 1083.24C563.97 1084.69 564.78 1086.1 565.53 1087.49C565.78 1087.95 566.03 1088.41 566.28 1088.87C567.02 1090.23 567.71 1091.56 568.35 1092.85C568.51 1093.17 568.66 1093.48 568.81 1093.79C568.93 1094.02 569.05 1094.26 569.16 1094.49C569.19 1094.55 569.21 1094.6 569.23 1094.66C570.14 1096.8 568.78 1099.24 566.45 1099.55Z" fill="#1A2E35"/>
<path d="M382.64 1094.62C376.77 1084.96 372.94 1074.07 371.49 1062.86C370.63 1056.16 370.98 1048.44 376.03 1043.96C377.17 1042.94 378.77 1042.12 380.2 1042.67C381.81 1043.29 382.35 1045.27 382.63 1046.97C385.04 1061.22 385.59 1075.78 384.24 1090.17C384.08 1080.63 384.31 1070.95 387.01 1061.79C389.71 1052.64 395.15 1043.96 403.38 1039.14C403.86 1038.86 404.39 1038.58 404.95 1038.64C406.11 1038.76 406.63 1040.15 406.77 1041.31C407.42 1046.59 405.81 1051.87 404.08 1056.9C400.68 1066.79 396.77 1076.49 392.36 1085.97C396.79 1073.65 405.96 1063.09 417.54 1056.98C419.85 1055.76 423.16 1054.92 424.69 1057.04C425.22 1057.78 425.38 1058.72 425.39 1059.62C425.48 1063.91 422.93 1067.77 420.27 1071.13C413.84 1079.23 406.12 1086.3 397.49 1091.98C403.11 1085.46 410.89 1080.83 419.3 1079C420.35 1078.77 421.51 1078.6 422.43 1079.16C424.29 1080.27 423.65 1083.14 422.5 1084.98C418.49 1091.38 411.52 1095.2 404.86 1098.74C398.9 1101.9 392.14 1105.16 385.68 1103.22C380.39 1101.62 378.08 1097.21 374.06 1093.98C370.46 1091.08 367.68 1088.96 365.56 1084.56C364.95 1083.29 364.46 1081.71 365.27 1080.56C365.93 1079.62 367.27 1079.36 368.38 1079.64C373.85 1081.02 379.1 1088.38 381.53 1093.05" fill="#1D9526"/>
<path d="M127.38 526.576L165.534 523.607L162.248 498.492L124.623 505.438L127.38 526.576Z" fill="#1A2E35"/>
<path d="M144.444 529.391L200.517 525.029L195.694 488.115L140.38 498.328L144.444 529.391Z" fill="#2B454E"/>
<path d="M183.463 528.171L253.323 522.733L247.308 476.749L178.399 489.47L183.463 528.171Z" fill="#375A64"/>
<path d="M258.55 498.665C260.212 511.366 257.877 522.137 253.323 522.733C248.778 523.329 243.743 513.519 242.081 500.817C240.419 488.115 242.754 477.344 247.308 476.749C251.853 476.153 256.887 485.963 258.55 498.665Z" fill="#375A64"/>
<path d="M239.132 478.257C242.927 477.758 246.405 490.248 247.692 500.087C248.98 509.916 248.192 522.973 245.031 523.386" stroke="#0D0D0D" stroke-width="1.81" stroke-miterlimit="10"/>
<path d="M139.304 531.735L177.544 530.313L175.277 505.092L137.402 510.502L139.304 531.735Z" fill="#1A2E35"/>
<path d="M156.234 535.242L212.441 533.158L209.116 496.08L153.438 504.036L156.234 535.242Z" fill="#2B454E"/>
<path d="M195.271 535.608L265.294 533.004L261.144 486.818L191.774 496.724L195.271 535.608Z" fill="#375A64"/>
<path d="M271.492 509.166C272.635 521.926 269.858 532.591 265.295 533.004C260.731 533.417 256.1 523.405 254.947 510.646C253.803 497.886 256.58 487.212 261.144 486.808C265.708 486.395 270.339 496.407 271.492 509.166Z" fill="#375A64"/>
<path d="M252.91 487.99C256.724 487.644 259.693 500.269 260.577 510.146C261.461 520.023 260.145 533.033 256.974 533.311" stroke="#0D0D0D" stroke-width="1.81" stroke-miterlimit="10"/>
<path d="M258.425 487.327C243.158 490.036 223.999 492.957 208.559 495.206C203.005 496.013 197.452 496.801 191.899 497.56L192.619 496.647C192.667 497.194 192.802 498.722 192.85 499.251L192.062 499.356C185.644 500.25 179.216 501.124 172.788 501.941C166.351 502.738 159.933 503.613 153.486 504.333L153.755 503.997L154.014 508.128V508.33C151.833 508.59 149.642 508.83 147.452 509.06C149.565 508.676 151.67 508.301 153.783 507.946L153.61 508.167L153.13 504.055L153.101 503.766L153.399 503.718C159.788 502.604 166.197 501.653 172.596 500.615C178.995 499.596 185.413 498.636 191.822 497.694L191.101 498.597C191.053 498.059 190.909 496.512 190.861 495.993C196.674 495.138 202.496 494.331 208.319 493.534C223.797 491.43 242.965 488.941 258.425 487.317V487.327Z" fill="#0D0D0D"/>
<path d="M109.567 552.245L74.4524 547.422L70.3527 577.273L105.467 582.096L109.567 552.245Z" fill="#D97086"/>
<path d="M93.0797 561.77C121.4 561.77 144.358 538.812 144.358 510.492C144.358 482.172 121.4 459.214 93.0797 459.214C64.7596 459.214 41.8016 482.172 41.8016 510.492C41.8016 538.812 64.7596 561.77 93.0797 561.77Z" fill="#FDA6BA"/>
<mask id="mask3_287_9" style="mask-type:luminance" maskUnits="userSpaceOnUse" x="41" y="459" width="104" height="103">
<path d="M93.0797 561.77C121.4 561.77 144.358 538.812 144.358 510.492C144.358 482.172 121.4 459.214 93.0797 459.214C64.7596 459.214 41.8016 482.172 41.8016 510.492C41.8016 538.812 64.7596 561.77 93.0797 561.77Z" fill="white"/>
</mask>
<g mask="url(#mask3_287_9)">
<path d="M129.206 529.324C135.234 529.324 140.121 524.437 140.121 518.409C140.121 512.381 135.234 507.495 129.206 507.495C123.178 507.495 118.291 512.381 118.291 518.409C118.291 524.437 123.178 529.324 129.206 529.324Z" fill="#F76583"/>
</g>
<path d="M125.103 492.314C125.103 492.314 124.94 502.796 117.878 505.285C117.311 505.487 100.612 561.271 64.5149 553.488C63.0352 553.652 19.4627 524.049 40.0047 484.041C48.6808 467.131 59.6052 462.318 59.6052 462.318C59.6052 462.318 87.8432 441.91 116.581 456.437C145.319 470.965 136.431 492.151 125.103 492.314Z" fill="#0D0D0D"/>
<path d="M118.54 514.208C118.727 507.041 115.246 501.136 110.763 501.019C106.281 500.902 102.495 506.616 102.307 513.783C102.12 520.949 105.601 526.854 110.084 526.971C114.566 527.088 118.352 521.374 118.54 514.208Z" fill="#0D0D0D"/>
<path d="M20.3755 528.171C49.1228 538.442 116.052 525.788 159.817 490.661C160.98 489.729 160.893 487.933 159.635 487.135L134.855 471.378L31.2326 497.589L18.1368 522.377C16.9742 524.587 18.0119 527.326 20.3659 528.162L20.3755 528.171Z" fill="#FB1024"/>
<path d="M58.3465 436.818C65.6775 434.022 73.287 432.042 81.2233 431.034C81.2233 431.034 125.632 419.802 134.865 471.387C99.1903 496.839 64.659 505.4 31.2422 497.598C31.2422 497.598 9.51842 455.102 58.3465 436.827V436.818Z" fill="#FB1024"/>
<path d="M130.628 474.328C99.2671 495.581 68.8 503.738 39.188 499.145L130.628 474.328Z" fill="#FB1024"/>
<path d="M130.628 474.328C105.147 494.053 71.4134 506.303 39.188 499.145C47.2684 499.837 55.3295 499.837 63.3042 499.02C87.4492 496.695 109.903 486.539 130.628 474.328Z" fill="#0D0D0D"/>
<path d="M222.125 676.154C232.06 663.337 233.29 630.66 234.039 563.077C234.145 553.729 180.234 546.897 179.706 556.909C179.033 569.515 178.678 618.458 179.024 622.013C181.954 652.009 215.4 684.85 222.135 676.154H222.125Z" fill="#FDA6BA"/>
<path d="M177.544 494.524C180.743 492.823 184.25 494.178 186.748 496.388C187.392 495.456 188.142 494.601 188.978 493.851C190.159 492.785 192.292 491.958 193.878 492.131C197.951 492.583 200.181 494.082 202.419 497.147C204.802 494.841 208.213 492.823 211.633 493.188C215.054 493.553 218.176 496.099 220.319 498.809C220.357 498.857 221.76 498.473 221.875 498.453C223.288 498.223 224.739 498.194 226.151 498.396C238.065 500.106 234.866 516.2 235.73 524.568C236.576 532.793 234.741 556.842 234.193 561.54L181.426 567.401C177.621 558.513 174.114 549.443 171.27 540.2C169.694 535.108 168.445 530.131 168.56 524.751C168.676 519.313 169.723 513.951 170.866 508.648C171.827 504.189 172.769 499.501 175.815 495.917C176.324 495.321 176.91 494.85 177.554 494.514L177.544 494.524Z" fill="#FDA6BA"/>
<path d="M186.566 496.522C186.566 496.522 183.088 516.276 184.433 523.156L186.566 496.522Z" fill="#FB1024"/>
<path d="M186.566 496.522C186.566 496.522 183.088 516.276 184.433 523.156" stroke="#0D0D0D" stroke-width="1.81" stroke-miterlimit="10"/>
<path d="M202.246 497.166C202.246 497.166 202.044 516.613 203.563 522.973L202.246 497.166Z" fill="#FB1024"/>
<path d="M202.246 497.166C202.246 497.166 202.044 516.613 203.563 522.973" stroke="#0D0D0D" stroke-width="1.81" stroke-miterlimit="10"/>
<path d="M220.319 498.991C220.319 498.991 221.357 518.765 221.712 522.474L220.319 498.991Z" fill="#FB1024"/>
<path d="M220.319 498.991C220.319 498.991 221.357 518.765 221.712 522.474" stroke="#0D0D0D" stroke-width="1.81" stroke-miterlimit="10"/>
<path d="M89.0634 606.217C127.745 661.454 162.373 685.676 202.544 688.27C242.216 690.835 224.306 659.484 222.029 656.266C213.478 644.188 150.372 597.762 106.3 578.094C62.5452 558.571 79.4938 592.555 89.0634 606.208V606.217Z" fill="#FDA6BA"/>
<path d="M154.216 604.565C172.135 615.018 189.804 626.509 205.35 640.307C206.358 641.267 207.358 642.228 208.347 643.199C207.262 642.324 206.185 641.45 205.129 640.566C189.141 628.095 170.857 616.19 154.225 604.555L154.216 604.565Z" fill="#1A2E35"/>
<path d="M74.6034 725.251L190.429 718.507C245.55 715.298 287.998 756.449 295.656 806.901L299.989 848.311L219.051 853.029L215.304 829.393C214.497 815.481 202.304 796.188 188.075 797.024L79.1577 803.365C57.0976 804.652 38.1889 788.203 36.9303 766.633C35.6716 745.063 52.5434 726.539 74.6034 725.251Z" fill="#0D0D0D"/>
<path d="M34.5186 953.99L93.0797 716.316L11.1518 706.669L-50.6183 963.358L34.5186 953.99Z" fill="#0D0D0D"/>
<path d="M147.029 594.899L143.195 671.014L140.476 724.886C140.255 729.354 136.768 732.976 132.309 733.37L-14.2614 746.341L7.89475 615.72C13.5539 582.36 45.5679 560.204 78.7829 566.661L97.1343 570.225L116.591 574.011L147.029 594.909V594.899Z" fill="#FFF227"/>
<path d="M92.8684 584.734C91.677 583.955 82.9721 583.417 83.587 582.178C83.9521 581.429 86.8825 573.608 92.1477 569.716C95.6355 567.141 101.122 567.555 104.043 568.323C111.373 570.264 134.202 621.609 136.374 638.375C138.545 655.151 129.187 704.7 125.065 712.108C120.943 719.515 105.705 742.556 102.63 740.49C99.5556 738.424 95.5106 728.316 95.7604 726.472C96.0102 724.627 111.028 703.422 113.9 698.781C116.773 694.141 123.508 646.946 123.845 639C124.191 631.054 101.91 574.213 101.16 573.329C100.411 572.445 93.3103 585.022 92.8491 584.724L92.8684 584.734Z" fill="#1A2E35"/>
<path d="M232.118 653.316L238.478 565.46C238.632 563.384 237.066 561.578 234.991 561.424L177.765 557.283C175.69 557.13 173.883 558.696 173.73 560.771L170.117 610.743L147.029 594.889L116.581 573.992L97.1343 570.206L64.8609 617.238L143.195 670.995L164.689 685.753L189.497 702.778C199.537 709.667 213.257 707.111 220.146 697.081L226.257 688.184C228.707 684.619 230.158 680.468 230.475 676.154L232.127 653.306L232.118 653.316Z" fill="#FFF227"/>
<path d="M170.117 610.752L207.339 636.31" stroke="#0D0D0D" stroke-width="1.81" stroke-miterlimit="10"/>
<path d="M114.419 652.019L151.65 677.576" stroke="#0D0D0D" stroke-width="1.81" stroke-miterlimit="10"/>
<path d="M340.526 899.839L224.787 910.475C222.577 910.677 220.627 909.053 220.425 906.853L216.149 860.331L292.86 853.279C317.168 851.04 336.346 863.78 349.375 886.542C351.094 889.549 351.219 895.045 351.546 898.629L340.516 899.839H340.526Z" fill="#FB1024"/>
<mask id="mask4_287_9" style="mask-type:luminance" maskUnits="userSpaceOnUse" x="216" y="853" width="136" height="58">
<path d="M340.526 899.839L224.787 910.475C222.577 910.677 220.627 909.053 220.425 906.853L216.149 860.331L292.86 853.279C317.168 851.04 336.346 863.78 349.375 886.542C351.094 889.549 351.219 895.045 351.546 898.629L340.516 899.839H340.526Z" fill="white"/>
</mask>
<g mask="url(#mask4_287_9)">
<path d="M355.871 923.973C371.876 921.641 382.888 906.282 380.467 889.668C378.046 873.054 363.11 861.476 347.105 863.808C331.1 866.14 320.088 881.499 322.509 898.113C324.929 914.727 339.866 926.305 355.871 923.973Z" fill="white"/>
<path d="M232.596 834.093L176.317 838.315L184.078 941.772L240.357 937.55L232.596 834.093Z" fill="#D6162D"/>
<path d="M244.81 890.635C250.758 890.635 255.58 885.813 255.58 879.864C255.58 873.916 250.758 869.094 244.81 869.094C238.861 869.094 234.039 873.916 234.039 879.864C234.039 885.813 238.861 890.635 244.81 890.635Z" fill="white"/>
</g>
<path d="M71.6633 1015.28H-56.3255C-57.6322 1015.28 -58.6122 1014.09 -58.3528 1012.8L-48.5814 964.55H28.4463C52.8604 964.55 70.789 978.991 81.6845 1002.85C83.1257 1006 82.7414 1011.48 82.7414 1015.09L71.6537 1015.28H71.6633Z" fill="#FB1024"/>
<mask id="mask5_287_9" style="mask-type:luminance" maskUnits="userSpaceOnUse" x="-59" y="964" width="142" height="52">
<path d="M71.6633 1015.28H-56.3255C-57.6322 1015.28 -58.6122 1014.09 -58.3528 1012.8L-48.5814 964.55H28.4463C52.8604 964.55 70.789 978.991 81.6845 1002.85C83.1257 1006 82.7414 1011.48 82.7414 1015.09L71.6537 1015.28H71.6633Z" fill="white"/>
</mask>
<g mask="url(#mask5_287_9)">
<path d="M76.9959 1038.59C93.435 1038.59 106.762 1025.76 106.762 1009.94C106.762 994.114 93.435 981.287 76.9959 981.287C60.5567 981.287 47.2301 994.114 47.2301 1009.94C47.2301 1025.76 60.5567 1038.59 76.9959 1038.59Z" fill="white"/>
</g>
<path d="M220.319 839.847L212.441 851.146V860.456L216.38 863.771L234.039 867.758L254.687 864.376L304.889 856.132H308.877L306.186 851.866L295.589 835.014L235.942 830.104L220.319 839.847Z" fill="#0D0D0D"/>
<path d="M33.3081 945.295L41.792 952.828V965.453L-53.3085 977.415L-50.6183 963.358L-20.0839 926.905L33.3081 945.295Z" fill="#0D0D0D"/>
<path d="M41.3884 746.332C41.3884 746.332 23.5558 802.76 79.1576 803.355" stroke="white" stroke-width="1.81" stroke-miterlimit="10"/>
<path d="M98.758 780.767L183.587 776.799C207.194 775.694 227.804 792.633 231.291 815.999L234.049 834.457" stroke="white" stroke-width="1.81" stroke-miterlimit="10"/>
<path d="M-18.6524 780.479L90.0915 795.4L114.333 597.436C115.159 590.72 110.432 584.58 103.725 583.667L-9.92828 568.064C-20.7854 566.575 -30.8258 574.078 -32.4784 584.907L-54.8555 732.016C-58.4201 755.44 -42.1249 777.241 -18.6524 780.459V780.479Z" fill="#1A2E35"/>
<path d="M-53.6929 725.367C-57.8916 752.433 -39.0887 777.673 -11.9555 781.401L88.4006 795.179C92.8683 795.794 96.9421 792.537 97.3264 788.04L111.537 620.303L-34.4288 601.365L-53.6737 725.376L-53.6929 725.367Z" fill="#2B454E"/>
<path d="M56.2136 790.759L78.216 615.729C78.216 615.729 80.6949 595.639 86.9882 587.904C90.6969 583.35 110.48 584.782 112.411 592.949C114.342 601.087 112.229 614.461 112.229 614.461L114.477 596.263C115.217 590.21 110.97 584.676 104.926 583.85L-11.7345 567.833C-21.9575 566.43 -31.4022 573.511 -32.9203 583.715L-43.0376 651.692C-43.0376 651.692 -47.6014 656.439 -48.0338 658.504C-52.1076 678.239 -57.4689 710.474 -61.5235 735.849C-64.8478 756.651 -50.4165 776.116 -29.5383 778.98L56.2232 790.75L56.2136 790.759Z" fill="#375A64"/>
<path d="M74.171 649.751C73.3832 655.516 73.3351 659.648 60.3931 657.87C47.451 656.093 -32.488 645.12 -37.0518 644.496C-41.6156 643.871 -41.2985 639.048 -40.3473 632.149" stroke="#0D0D0D" stroke-width="1.81" stroke-miterlimit="10"/>
<path d="M0.949925 657.198L23.7853 660.334L25.3919 648.636L2.55658 645.499L0.949925 657.198Z" fill="#FDFFFB"/>
<path d="M86.4216 703.021L95.1888 704.072L96.3965 693.988L87.6294 692.938L86.4216 703.021Z" fill="#DCDCDC"/>
<path d="M82.6524 710.936L96.9432 712.647L98.3223 701.133L84.0316 699.421L82.6524 710.936Z" fill="#C8C8C8"/>
<path d="M71.0869 724.012C69.8379 734.437 64.7744 776.693 64.7744 776.693L98.7485 780.757C98.7485 780.757 103.812 738.501 105.061 728.076C106.31 717.651 100.718 708.812 90.2934 707.563C79.8494 706.314 72.336 713.578 71.0869 724.002V724.012Z" fill="#FFC800"/>
<path d="M71.0869 724.012C69.8379 734.437 64.7744 776.693 64.7744 776.693L98.7485 780.757C98.7485 780.757 103.812 738.501 105.061 728.076C106.31 717.651 100.718 708.812 90.2934 707.563C79.8494 706.314 72.336 713.578 71.0869 724.002V724.012Z" fill="#FDFFFB"/>
<path d="M101.477 783.255C92.4648 792.758 61.5749 786.724 60.1625 782.333C59.5668 780.488 66.4366 737.511 66.4366 737.511C66.4366 737.511 92.9644 743.689 108.107 740.384C108.107 740.384 104.292 780.286 101.477 783.255Z" fill="#375A64"/>
<path d="M-9.87059 570.408L95.5489 584.878C105.022 586.175 113.756 579.555 115.053 570.081L115.524 566.68C116.821 557.207 110.201 548.473 100.728 547.176L-4.18263 532.773C-12.6665 531.611 -20.7373 536.828 -23.1489 545.043L-24.129 548.377C-27.1171 558.533 -20.3626 568.976 -9.87059 570.418V570.408Z" fill="#EFEFEF"/>
<path opacity="0.1" d="M111.978 567.732C113.025 560.11 109.063 553.269 103.127 552.454C97.1922 551.639 91.5321 557.158 90.4852 564.78C89.4383 572.403 93.4011 579.243 99.3362 580.058C105.271 580.874 110.932 575.355 111.978 567.732Z" fill="black"/>
<path d="M197.884 799.57L178.399 791.297" stroke="white" stroke-width="1.81" stroke-miterlimit="10"/>
<path d="M225.142 844.564L239.766 846.015L288.94 840.192" stroke="white" stroke-width="1.81" stroke-miterlimit="10"/>
<path d="M28.6289 949.503L-43.7966 955.211" stroke="white" stroke-width="1.81" stroke-miterlimit="10"/>
<path d="M55.4738 798.119L18.2618 940.116" stroke="white" stroke-width="1.81" stroke-miterlimit="10"/>
<path d="M225.142 899.772L343.148 887.916" stroke="#0D0D0D" stroke-width="1.81" stroke-miterlimit="10"/>
<path d="M225.142 903.846L343.148 891.99" stroke="#0D0D0D" stroke-width="1.81" stroke-miterlimit="10"/>
<path d="M-50.6183 1003.02L74.171 1004.51" stroke="#0D0D0D" stroke-width="1.81" stroke-miterlimit="10"/>
<path d="M-50.6183 1007.52L74.171 1009" stroke="#0D0D0D" stroke-width="1.81" stroke-miterlimit="10"/>
<path d="M294.676 867.105L306.186 851.866" stroke="#0D0D0D" stroke-width="1.81" stroke-miterlimit="10"/>
<path d="M306.186 871.63L317.706 856.392" stroke="#0D0D0D" stroke-width="1.81" stroke-miterlimit="10"/>
<path d="M316.217 875.377L327.727 860.139" stroke="#0D0D0D" stroke-width="1.81" stroke-miterlimit="10"/>
<path d="M31.9244 979.98L45.3949 966.442" stroke="#0D0D0D" stroke-width="1.81" stroke-miterlimit="10"/>
<path d="M41.2155 983.247L54.6859 969.719" stroke="#0D0D0D" stroke-width="1.81" stroke-miterlimit="10"/>
<path d="M48.7289 988.3L62.209 974.763" stroke="#0D0D0D" stroke-width="1.81" stroke-miterlimit="10"/>
</svg>
