<svg width="169" height="168" viewBox="0 0 169 168" fill="none" xmlns="http://www.w3.org/2000/svg">
<path d="M143.149 143.029C175.688 110.49 175.688 57.7351 143.149 25.1966C110.611 -7.3419 57.8554 -7.34189 25.317 25.1966C-7.22151 57.7351 -7.22149 110.49 25.317 143.029C57.8555 175.567 110.611 175.567 143.149 143.029Z" fill="white"/>
<path d="M84.67 167.43C130.924 167.43 168.42 130.126 168.42 84.11C168.42 38.0937 130.924 0.790039 84.67 0.790039C38.4161 0.790039 0.919952 38.0937 0.919952 84.11C0.919952 130.126 38.4161 167.43 84.67 167.43Z" fill="#F7F8F8"/>
<path d="M15.4799 101.38C14.3599 96.9302 13.6599 92.3202 13.4099 87.5702C11.3699 48.1002 41.7099 14.4601 81.1799 12.4201C120.65 10.3801 154.29 40.7201 156.33 80.1901C158.37 119.66 128.03 153.3 88.5599 155.34C72.8699 156.15 58.0899 151.84 45.8599 143.88" stroke="url(#paint0_linear_263_2065)" stroke-width="2.03" stroke-miterlimit="10"/>
<path d="M24.1099 121.66C25.3199 121.54 26.44 121.29 27.45 120.89C28.46 120.49 29.3299 119.99 30.0599 119.38C30.7799 118.77 31.3399 118.06 31.7399 117.25C32.1399 116.44 32.3399 115.55 32.3399 114.58C32.3399 113.96 32.2399 113.39 32.0299 112.85C31.8199 112.31 31.5199 111.84 31.1299 111.44C30.7399 111.04 30.2799 110.72 29.7399 110.49C29.2099 110.26 28.6199 110.14 27.9699 110.14C27.4999 110.14 26.9899 110.26 26.4399 110.49C25.8799 110.72 25.3299 111.04 24.7799 111.45C24.2299 111.86 23.7 112.33 23.2 112.87C22.69 113.41 22.26 113.99 21.89 114.6L18.92 113.25C19.32 112.17 19.8399 111.16 20.4899 110.22C21.1399 109.28 21.9199 108.46 22.8199 107.76C23.7299 107.06 24.7599 106.51 25.9099 106.1C27.0699 105.69 28.3599 105.49 29.7899 105.49C31.2199 105.49 32.4299 105.68 33.6199 106.05C34.8099 106.43 35.8499 106.94 36.7399 107.6C37.6299 108.26 38.3299 109.03 38.8399 109.93C39.3499 110.83 39.5999 111.81 39.5999 112.87C39.5999 113.34 39.4899 113.86 39.2599 114.43C39.0299 115 38.7199 115.6 38.3099 116.2C37.8999 116.81 37.4199 117.41 36.8599 118.01C36.2999 118.61 35.6899 119.17 35.0299 119.68C35.9299 120.08 36.7699 120.59 37.5499 121.23C38.3299 121.86 38.9999 122.56 39.5699 123.33C40.1299 124.1 40.5799 124.9 40.8999 125.75C41.2199 126.6 41.39 127.45 41.39 128.29C41.39 130.29 40.98 132.03 40.17 133.52C39.35 135.01 38.2399 136.25 36.8099 137.24C35.3899 138.23 33.7099 138.97 31.7799 139.46C29.8499 139.95 27.7599 140.2 25.5199 140.2C23.2799 140.2 21.5799 139.9 20.3299 139.3C19.0799 138.7 18.4599 137.91 18.4599 136.93C18.4599 136.46 18.5899 136.08 18.8599 135.77C19.1299 135.46 19.4599 135.21 19.8499 135.02C20.2399 134.83 20.6699 134.69 21.1299 134.61C21.5999 134.53 22.0299 134.49 22.4299 134.49C23.2799 134.49 24.0199 134.61 24.6499 134.85C25.2799 135.09 25.8599 135.36 26.3699 135.65C26.8899 135.94 27.3599 136.21 27.7999 136.45C28.2399 136.69 28.6899 136.81 29.1299 136.81C30.0299 136.81 30.8199 136.64 31.5099 136.31C32.1999 135.98 32.7799 135.53 33.2599 134.98C33.7299 134.42 34.0899 133.78 34.3299 133.06C34.5699 132.34 34.6899 131.58 34.6899 130.8C34.6899 129.79 34.4799 128.85 34.0499 127.98C33.6199 127.12 32.9799 126.37 32.0999 125.73C31.2299 125.1 30.1199 124.6 28.7899 124.23C27.4599 123.86 25.8899 123.68 24.0799 123.68V121.66H24.1099Z" fill="white"/>
<path d="M24.1099 121.66C25.3199 121.54 26.44 121.29 27.45 120.89C28.46 120.49 29.3299 119.99 30.0599 119.38C30.7799 118.77 31.3399 118.06 31.7399 117.25C32.1399 116.44 32.3399 115.55 32.3399 114.58C32.3399 113.96 32.2399 113.39 32.0299 112.85C31.8199 112.31 31.5199 111.84 31.1299 111.44C30.7399 111.04 30.2799 110.72 29.7399 110.49C29.2099 110.26 28.6199 110.14 27.9699 110.14C27.4999 110.14 26.9899 110.26 26.4399 110.49C25.8799 110.72 25.3299 111.04 24.7799 111.45C24.2299 111.86 23.7 112.33 23.2 112.87C22.69 113.41 22.26 113.99 21.89 114.6L18.92 113.25C19.32 112.17 19.8399 111.16 20.4899 110.22C21.1399 109.28 21.9199 108.46 22.8199 107.76C23.7299 107.06 24.7599 106.51 25.9099 106.1C27.0699 105.69 28.3599 105.49 29.7899 105.49C31.2199 105.49 32.4299 105.68 33.6199 106.05C34.8099 106.43 35.8499 106.94 36.7399 107.6C37.6299 108.26 38.3299 109.03 38.8399 109.93C39.3499 110.83 39.5999 111.81 39.5999 112.87C39.5999 113.34 39.4899 113.86 39.2599 114.43C39.0299 115 38.7199 115.6 38.3099 116.2C37.8999 116.81 37.4199 117.41 36.8599 118.01C36.2999 118.61 35.6899 119.17 35.0299 119.68C35.9299 120.08 36.7699 120.59 37.5499 121.23C38.3299 121.86 38.9999 122.56 39.5699 123.33C40.1299 124.1 40.5799 124.9 40.8999 125.75C41.2199 126.6 41.39 127.45 41.39 128.29C41.39 130.29 40.98 132.03 40.17 133.52C39.35 135.01 38.2399 136.25 36.8099 137.24C35.3899 138.23 33.7099 138.97 31.7799 139.46C29.8499 139.95 27.7599 140.2 25.5199 140.2C23.2799 140.2 21.5799 139.9 20.3299 139.3C19.0799 138.7 18.4599 137.91 18.4599 136.93C18.4599 136.46 18.5899 136.08 18.8599 135.77C19.1299 135.46 19.4599 135.21 19.8499 135.02C20.2399 134.83 20.6699 134.69 21.1299 134.61C21.5999 134.53 22.0299 134.49 22.4299 134.49C23.2799 134.49 24.0199 134.61 24.6499 134.85C25.2799 135.09 25.8599 135.36 26.3699 135.65C26.8899 135.94 27.3599 136.21 27.7999 136.45C28.2399 136.69 28.6899 136.81 29.1299 136.81C30.0299 136.81 30.8199 136.64 31.5099 136.31C32.1999 135.98 32.7799 135.53 33.2599 134.98C33.7299 134.42 34.0899 133.78 34.3299 133.06C34.5699 132.34 34.6899 131.58 34.6899 130.8C34.6899 129.79 34.4799 128.85 34.0499 127.98C33.6199 127.12 32.9799 126.37 32.0999 125.73C31.2299 125.1 30.1199 124.6 28.7899 124.23C27.4599 123.86 25.8899 123.68 24.0799 123.68V121.66H24.1099Z" fill="url(#paint1_linear_263_2065)"/>
<path d="M49.92 42.92L49.4699 42.6C50.1499 41.04 50.7499 39.18 51.2799 37.04C51.8299 34.81 52.2399 32.62 52.4899 30.44L58.1899 32.15C60.7599 30.83 62.8799 29.45 64.5699 28.02L69.5899 32.67C69.0599 33.15 68.2199 33.17 67.0599 32.75C64.3199 33.39 61.1099 33.74 57.4299 33.82C55.4399 37.82 52.94 40.85 49.92 42.92ZM56.5999 65.93C56.4699 64.15 56.1899 62.96 55.7299 62.35C55.05 61.5 53.9899 60.95 52.5599 60.68V60.2C54.0699 60.28 55.5799 60.36 57.0899 60.44C57.5199 60.44 57.7299 60.25 57.7299 59.88V54.99C56.9999 55.28 55.8399 55.73 54.2599 56.34C53.8099 56.5 53.4699 56.62 53.2399 56.7C53.0099 57.23 52.6399 57.56 52.1099 57.69L49.9599 51.65C51.1199 51.57 53.7099 51.29 57.7399 50.82V46.85L61.14 47.13C61.87 46.34 62.5999 45.36 63.3299 44.19H51.3199L50.9799 43.08H63.5499L65.89 40.58C65.76 40.53 65.5899 40.41 65.3599 40.22C65.3099 39.11 65.0399 37.93 64.5699 36.68C64.1399 35.54 63.61 34.52 62.9799 33.62L63.2799 33.42C65.5699 33.79 67.3099 34.48 68.4899 35.49C69.4699 36.34 69.9599 37.29 69.9599 38.35C69.9599 39.3 69.5999 40.05 68.8699 40.58C68.1099 41.14 67.2699 41.22 66.3399 40.82L70.2299 44.36C70 44.63 69.4999 44.8 68.7199 44.88C66.8299 45.86 64.9299 46.67 63.0199 47.3L64.2699 47.42C64.1999 48 63.7799 48.35 63.0199 48.45V50.16C64.5299 49.97 66.8699 49.67 70.0399 49.25L70.0799 49.73C67.9399 50.82 65.5899 51.88 63.0199 52.91V60.02C63.0199 61.98 62.6599 63.36 61.9299 64.15C61.0199 65.13 59.2499 65.73 56.6099 65.94L56.5999 65.93ZM57.5799 40.34C57.9599 38.41 57.9199 36.54 57.4699 34.74L57.8499 34.58C59.7899 35.4 61.0999 36.4 61.7799 37.56C62.3599 38.51 62.4199 39.41 61.9699 40.26C61.5699 41.08 60.9299 41.53 60.0399 41.61C59.1099 41.69 58.2899 41.27 57.5899 40.34H57.5799ZM76.2699 64.98C74.3299 64.98 73.0299 64.62 72.3599 63.91C71.6899 63.19 71.3599 61.84 71.3599 59.86V29.3L78.4599 30.06C78.4099 30.7 77.97 31.08 77.14 31.21V57.99C77.14 58.65 77.4399 58.98 78.0499 58.98H79.5199C80.0699 58.98 80.4599 58.97 80.6899 58.94C81.0699 58.94 81.3799 58.74 81.6299 58.34C82.0599 57.57 82.74 55.45 83.67 51.98H84.0099L84.2 58.77C85.31 59.43 85.8599 60.27 85.8599 61.27C85.8599 62.54 85.3299 63.47 84.2699 64.05C83.1399 64.66 81.3099 64.96 78.7899 64.96H76.2599L76.2699 64.98Z" fill="white"/>
<path d="M90.0799 43.95C89.9499 42.92 89.6299 41.83 89.0999 40.69C88.6199 39.66 88.0499 38.74 87.3999 37.95L87.6599 37.75C90.1799 37.86 92.0699 38.4 93.3199 39.38C94.3499 40.2 94.7999 41.17 94.6799 42.28C94.5799 43.29 94.0599 44 93.1299 44.43C92.1499 44.88 91.1299 44.72 90.0699 43.95H90.0799ZM92.8699 65.96C91.5599 65.96 90.7299 65.27 90.3799 63.89C90.7799 61.85 90.95 59.98 90.89 58.27C90.83 56.56 90.5699 55.54 90.1199 55.19C89.5399 54.79 88.8699 54.58 88.1199 54.55V53.83H89.8599C90.1899 53.83 90.4099 53.79 90.5399 53.71C90.7199 53.63 90.8999 53.41 91.1099 53.03C91.5599 52.26 92.1199 51.16 92.7699 49.73C93.4199 48.3 95.46 43.69 98.89 35.9L99.4599 36.06C97.3699 43.45 96.02 48.58 95.42 51.44C95.04 53.16 94.87 54.46 94.89 55.33C94.92 55.99 95.1699 56.85 95.6499 57.91C96.3799 59.5 96.72 60.98 96.67 62.36C96.62 63.42 96.2499 64.28 95.5599 64.94C94.8699 65.6 93.9799 65.93 92.8999 65.93L92.8699 65.96ZM93.7 35.48C93.42 34.42 92.9299 33.31 92.2299 32.14C91.5799 31.08 90.8799 30.15 90.1499 29.36L90.4099 29.12C93.0499 29.09 95.06 29.53 96.45 30.43C97.58 31.2 98.1499 32.15 98.1499 33.29C98.1499 34.35 97.7099 35.13 96.8299 35.63C95.8699 36.19 94.83 36.13 93.7 35.47V35.48ZM98.2999 43.11L97.9999 42H107.21V38.3H100.26L99.9599 37.19H107.21V33.93H99.3999L99.0999 32.82H107.22V28.49L113.94 29.05C113.86 29.66 113.41 30.04 112.58 30.2V32.82H115.41L117.9 29.6C118.43 30.02 118.97 30.45 119.52 30.87C120.73 31.85 121.7 32.66 122.43 33.29C122.33 33.71 121.98 33.93 121.37 33.93H112.57V37.19H115.4L117.82 33.93C119.28 35.18 120.73 36.42 122.16 37.67C122.06 38.09 121.71 38.31 121.1 38.31H112.57V42.01H116.27L118.88 38.63C119.46 39.08 120.03 39.52 120.58 39.94C121.86 40.97 122.88 41.82 123.64 42.48C123.54 42.9 123.17 43.12 122.55 43.12H98.3099L98.2999 43.11ZM113.66 66.08C113.51 64.15 113.17 62.85 112.64 62.19C111.86 61.29 110.63 60.68 108.94 60.36V59.84C110.73 59.92 112.5 60.01 114.26 60.12C114.79 60.12 115.05 59.85 115.05 59.32V54.27H105.42V64.2C105.42 64.52 104.97 64.89 104.06 65.31C103.05 65.79 102.03 66.03 101 66.03H100.25V43.82L105.65 46.05H114.67L116.9 43.43L121.62 47.17C121.37 47.54 120.93 47.79 120.3 47.92V59.96C120.3 61.92 119.92 63.32 119.17 64.17C118.21 65.2 116.38 65.84 113.66 66.08ZM105.43 53.17H107.81V47.13H105.43V53.17ZM112.72 53.17H115.06V47.13H112.72V53.17Z" fill="white"/>
<path d="M50.3699 87.2601L50.14 86.8601C53.97 83.7101 55.9999 79.1401 56.2499 73.1501L63.3099 74.4601C63.1799 75.1001 62.6899 75.4301 61.8399 75.4501C61.5599 76.4801 61.2099 77.4501 60.7799 78.3501C61.9099 79.1701 63.2699 79.7401 64.8599 80.0601V71.8701H51.42L51.0799 70.7601H77.92L80.45 68.1001L84.8299 72.4301C84.5999 72.7001 84.1099 72.8701 83.3599 72.9501C81.9299 73.7201 80.3399 74.3701 78.5999 74.9001C79.5099 75.5601 80.2399 76.1201 80.7899 76.5701C80.7099 76.9901 80.3599 77.2101 79.7299 77.2101H70.4099V80.6701C71.0899 80.7001 72.18 80.7101 73.7 80.7101C79.64 80.7101 83.5499 80.6801 85.4399 80.6301V81.1101C84.6299 81.3201 84.0199 81.8601 83.5899 82.7401C83.1899 83.5301 82.9899 84.4901 82.9899 85.6001H73.5499C69.8999 85.6001 67.0999 85.2201 65.1299 84.4501C62.9399 83.6001 61.2199 82.0901 59.9599 79.9201C57.9499 83.2101 54.7499 85.6601 50.3699 87.2701V87.2601ZM79.9999 105.82C79.2499 104.44 78.06 102.91 76.45 101.21C72.88 102.11 65.7999 103.47 55.2399 105.3C54.9399 105.75 54.5499 106.03 54.0699 106.13L51.0099 100.01C53.5499 100.09 58.1399 100.1 64.7899 100.05V95.9601H60.4099V96.9101C60.4099 97.2001 59.8899 97.5601 58.8599 97.9801C57.7499 98.4301 56.6799 98.6601 55.6499 98.6601H54.89V86.8201L60.7399 89.1201H64.7799V85.3101L71.6899 85.9101C71.6099 86.4401 71.1999 86.7701 70.4399 86.9001V89.1201H74.4799L76.8599 86.4601L81.7699 90.2701C81.5199 90.6401 81.08 90.8901 80.45 91.0201V96.1101C80.43 96.2701 79.8699 96.5101 78.7899 96.8301C77.6299 97.1701 76.6499 97.3501 75.8499 97.3501H74.8699V95.9601H70.45V100.01L75.2099 99.9301C74.0499 98.9201 73.1799 98.2102 72.5999 97.7802L72.8599 97.5001C76.1799 97.4201 78.8399 97.9001 80.8299 98.9301C82.4899 99.8001 83.51 100.93 83.89 102.31C84.24 103.55 84.0199 104.56 83.2099 105.33C82.3999 106.15 81.3299 106.31 79.9999 105.81V105.82ZM60.4099 94.8501H64.7899V90.2401H60.4099V94.8501ZM70.4099 76.1001H73.5399L76.0699 73.0801C76.6699 73.5001 77.2799 73.9401 77.8799 74.3901C78.0099 73.7001 78.1199 72.8701 78.2199 71.8901H70.4099V76.1001ZM70.45 94.8501H74.8699V90.2401H70.45V94.8501Z" fill="white"/>
<path d="M91.2899 105.9V74.3899L97.5599 76.9299H100.69C101.22 74.1999 101.6 71.2599 101.82 68.1099L109.67 70.0599C109.52 70.6199 109.04 70.8899 108.24 70.8899C108.04 71.0999 107.71 71.4299 107.26 71.8799C105.04 74.2399 103.3 75.9199 102.01 76.9299H113.37L116.13 73.7099L121.45 78.1999C121.02 78.6999 120.44 79.0299 119.71 79.1899V103.63C119.69 103.92 119.13 104.32 118.05 104.82C116.87 105.38 115.77 105.65 114.76 105.65H113.82V101.95H97.1299V103.7C97.1299 104.1 96.6299 104.55 95.6199 105.05C94.5099 105.61 93.3799 105.88 92.2199 105.88H91.2799L91.2899 105.9ZM97.14 88.7699H113.83V78.0399H97.14V88.7699ZM97.14 100.85H113.83V89.8799H97.14V100.85Z" fill="white"/>
<path d="M49.92 42.92L49.4699 42.6C50.1499 41.04 50.7499 39.18 51.2799 37.04C51.8299 34.81 52.2399 32.62 52.4899 30.44L58.1899 32.15C60.7599 30.83 62.8799 29.45 64.5699 28.02L69.5899 32.67C69.0599 33.15 68.2199 33.17 67.0599 32.75C64.3199 33.39 61.1099 33.74 57.4299 33.82C55.4399 37.82 52.94 40.85 49.92 42.92ZM56.5999 65.93C56.4699 64.15 56.1899 62.96 55.7299 62.35C55.05 61.5 53.9899 60.95 52.5599 60.68V60.2C54.0699 60.28 55.5799 60.36 57.0899 60.44C57.5199 60.44 57.7299 60.25 57.7299 59.88V54.99C56.9999 55.28 55.8399 55.73 54.2599 56.34C53.8099 56.5 53.4699 56.62 53.2399 56.7C53.0099 57.23 52.6399 57.56 52.1099 57.69L49.9599 51.65C51.1199 51.57 53.7099 51.29 57.7399 50.82V46.85L61.14 47.13C61.87 46.34 62.5999 45.36 63.3299 44.19H51.3199L50.9799 43.08H63.5499L65.89 40.58C65.76 40.53 65.5899 40.41 65.3599 40.22C65.3099 39.11 65.0399 37.93 64.5699 36.68C64.1399 35.54 63.61 34.52 62.9799 33.62L63.2799 33.42C65.5699 33.79 67.3099 34.48 68.4899 35.49C69.4699 36.34 69.9599 37.29 69.9599 38.35C69.9599 39.3 69.5999 40.05 68.8699 40.58C68.1099 41.14 67.2699 41.22 66.3399 40.82L70.2299 44.36C70 44.63 69.4999 44.8 68.7199 44.88C66.8299 45.86 64.9299 46.67 63.0199 47.3L64.2699 47.42C64.1999 48 63.7799 48.35 63.0199 48.45V50.16C64.5299 49.97 66.8699 49.67 70.0399 49.25L70.0799 49.73C67.9399 50.82 65.5899 51.88 63.0199 52.91V60.02C63.0199 61.98 62.6599 63.36 61.9299 64.15C61.0199 65.13 59.2499 65.73 56.6099 65.94L56.5999 65.93ZM57.5799 40.34C57.9599 38.41 57.9199 36.54 57.4699 34.74L57.8499 34.58C59.7899 35.4 61.0999 36.4 61.7799 37.56C62.3599 38.51 62.4199 39.41 61.9699 40.26C61.5699 41.08 60.9299 41.53 60.0399 41.61C59.1099 41.69 58.2899 41.27 57.5899 40.34H57.5799ZM76.2699 64.98C74.3299 64.98 73.0299 64.62 72.3599 63.91C71.6899 63.19 71.3599 61.84 71.3599 59.86V29.3L78.4599 30.06C78.4099 30.7 77.97 31.08 77.14 31.21V57.99C77.14 58.65 77.4399 58.98 78.0499 58.98H79.5199C80.0699 58.98 80.4599 58.97 80.6899 58.94C81.0699 58.94 81.3799 58.74 81.6299 58.34C82.0599 57.57 82.74 55.45 83.67 51.98H84.0099L84.2 58.77C85.31 59.43 85.8599 60.27 85.8599 61.27C85.8599 62.54 85.3299 63.47 84.2699 64.05C83.1399 64.66 81.3099 64.96 78.7899 64.96H76.2599L76.2699 64.98Z" fill="url(#paint2_linear_263_2065)"/>
<path d="M90.0799 43.95C89.9499 42.92 89.6299 41.83 89.0999 40.69C88.6199 39.66 88.0499 38.74 87.3999 37.95L87.6599 37.75C90.1799 37.86 92.0699 38.4 93.3199 39.38C94.3499 40.2 94.7999 41.17 94.6799 42.28C94.5799 43.29 94.0599 44 93.1299 44.43C92.1499 44.88 91.1299 44.72 90.0699 43.95H90.0799ZM92.8699 65.96C91.5599 65.96 90.7299 65.27 90.3799 63.89C90.7799 61.85 90.95 59.98 90.89 58.27C90.83 56.56 90.5699 55.54 90.1199 55.19C89.5399 54.79 88.8699 54.58 88.1199 54.55V53.83H89.8599C90.1899 53.83 90.4099 53.79 90.5399 53.71C90.7199 53.63 90.8999 53.41 91.1099 53.03C91.5599 52.26 92.1199 51.16 92.7699 49.73C93.4199 48.3 95.46 43.69 98.89 35.9L99.4599 36.06C97.3699 43.45 96.02 48.58 95.42 51.44C95.04 53.16 94.87 54.46 94.89 55.33C94.92 55.99 95.1699 56.85 95.6499 57.91C96.3799 59.5 96.72 60.98 96.67 62.36C96.62 63.42 96.2499 64.28 95.5599 64.94C94.8699 65.6 93.9799 65.93 92.8999 65.93L92.8699 65.96ZM93.7 35.48C93.42 34.42 92.9299 33.31 92.2299 32.14C91.5799 31.08 90.8799 30.15 90.1499 29.36L90.4099 29.12C93.0499 29.09 95.06 29.53 96.45 30.43C97.58 31.2 98.1499 32.15 98.1499 33.29C98.1499 34.35 97.7099 35.13 96.8299 35.63C95.8699 36.19 94.83 36.13 93.7 35.47V35.48ZM98.2999 43.11L97.9999 42H107.21V38.3H100.26L99.9599 37.19H107.21V33.93H99.3999L99.0999 32.82H107.22V28.49L113.94 29.05C113.86 29.66 113.41 30.04 112.58 30.2V32.82H115.41L117.9 29.6C118.43 30.02 118.97 30.45 119.52 30.87C120.73 31.85 121.7 32.66 122.43 33.29C122.33 33.71 121.98 33.93 121.37 33.93H112.57V37.19H115.4L117.82 33.93C119.28 35.18 120.73 36.42 122.16 37.67C122.06 38.09 121.71 38.31 121.1 38.31H112.57V42.01H116.27L118.88 38.63C119.46 39.08 120.03 39.52 120.58 39.94C121.86 40.97 122.88 41.82 123.64 42.48C123.54 42.9 123.17 43.12 122.55 43.12H98.3099L98.2999 43.11ZM113.66 66.08C113.51 64.15 113.17 62.85 112.64 62.19C111.86 61.29 110.63 60.68 108.94 60.36V59.84C110.73 59.92 112.5 60.01 114.26 60.12C114.79 60.12 115.05 59.85 115.05 59.32V54.27H105.42V64.2C105.42 64.52 104.97 64.89 104.06 65.31C103.05 65.79 102.03 66.03 101 66.03H100.25V43.82L105.65 46.05H114.67L116.9 43.43L121.62 47.17C121.37 47.54 120.93 47.79 120.3 47.92V59.96C120.3 61.92 119.92 63.32 119.17 64.17C118.21 65.2 116.38 65.84 113.66 66.08ZM105.43 53.17H107.81V47.13H105.43V53.17ZM112.72 53.17H115.06V47.13H112.72V53.17Z" fill="url(#paint3_linear_263_2065)"/>
<path d="M50.3699 87.2601L50.14 86.8601C53.97 83.7101 55.9999 79.1401 56.2499 73.1501L63.3099 74.4601C63.1799 75.1001 62.6899 75.4301 61.8399 75.4501C61.5599 76.4801 61.2099 77.4501 60.7799 78.3501C61.9099 79.1701 63.2699 79.7401 64.8599 80.0601V71.8701H51.42L51.0799 70.7601H77.92L80.45 68.1001L84.8299 72.4301C84.5999 72.7001 84.1099 72.8701 83.3599 72.9501C81.9299 73.7201 80.3399 74.3701 78.5999 74.9001C79.5099 75.5601 80.2399 76.1201 80.7899 76.5701C80.7099 76.9901 80.3599 77.2101 79.7299 77.2101H70.4099V80.6701C71.0899 80.7001 72.18 80.7101 73.7 80.7101C79.64 80.7101 83.5499 80.6801 85.4399 80.6301V81.1101C84.6299 81.3201 84.0199 81.8601 83.5899 82.7401C83.1899 83.5301 82.9899 84.4901 82.9899 85.6001H73.5499C69.8999 85.6001 67.0999 85.2201 65.1299 84.4501C62.9399 83.6001 61.2199 82.0901 59.9599 79.9201C57.9499 83.2101 54.7499 85.6601 50.3699 87.2701V87.2601ZM79.9999 105.82C79.2499 104.44 78.06 102.91 76.45 101.21C72.88 102.11 65.7999 103.47 55.2399 105.3C54.9399 105.75 54.5499 106.03 54.0699 106.13L51.0099 100.01C53.5499 100.09 58.1399 100.1 64.7899 100.05V95.9601H60.4099V96.9101C60.4099 97.2001 59.8899 97.5601 58.8599 97.9801C57.7499 98.4301 56.6799 98.6601 55.6499 98.6601H54.89V86.8201L60.7399 89.1201H64.7799V85.3101L71.6899 85.9101C71.6099 86.4401 71.1999 86.7701 70.4399 86.9001V89.1201H74.4799L76.8599 86.4601L81.7699 90.2701C81.5199 90.6401 81.08 90.8901 80.45 91.0201V96.1101C80.43 96.2701 79.8699 96.5101 78.7899 96.8301C77.6299 97.1701 76.6499 97.3501 75.8499 97.3501H74.8699V95.9601H70.45V100.01L75.2099 99.9301C74.0499 98.9201 73.1799 98.2102 72.5999 97.7802L72.8599 97.5001C76.1799 97.4201 78.8399 97.9001 80.8299 98.9301C82.4899 99.8001 83.51 100.93 83.89 102.31C84.24 103.55 84.0199 104.56 83.2099 105.33C82.3999 106.15 81.3299 106.31 79.9999 105.81V105.82ZM60.4099 94.8501H64.7899V90.2401H60.4099V94.8501ZM70.4099 76.1001H73.5399L76.0699 73.0801C76.6699 73.5001 77.2799 73.9401 77.8799 74.3901C78.0099 73.7001 78.1199 72.8701 78.2199 71.8901H70.4099V76.1001ZM70.45 94.8501H74.8699V90.2401H70.45V94.8501Z" fill="url(#paint4_linear_263_2065)"/>
<path d="M91.2899 105.9V74.3899L97.5599 76.9299H100.69C101.22 74.1999 101.6 71.2599 101.82 68.1099L109.67 70.0599C109.52 70.6199 109.04 70.8899 108.24 70.8899C108.04 71.0999 107.71 71.4299 107.26 71.8799C105.04 74.2399 103.3 75.9199 102.01 76.9299H113.37L116.13 73.7099L121.45 78.1999C121.02 78.6999 120.44 79.0299 119.71 79.1899V103.63C119.69 103.92 119.13 104.32 118.05 104.82C116.87 105.38 115.77 105.65 114.76 105.65H113.82V101.95H97.1299V103.7C97.1299 104.1 96.6299 104.55 95.6199 105.05C94.5099 105.61 93.3799 105.88 92.2199 105.88H91.2799L91.2899 105.9ZM97.14 88.7699H113.83V78.0399H97.14V88.7699ZM97.14 100.85H113.83V89.8799H97.14V100.85Z" fill="url(#paint5_linear_263_2065)"/>
<path d="M46.3599 135.68V122.69C45.5099 123.67 44.6299 124.5 43.7299 125.19L43.4799 125.02C44.4099 123.36 45.2599 121.38 46.0199 119.1C46.8399 116.69 47.4399 114.3 47.8199 111.93L52.1299 113.35C51.9999 113.72 51.6899 113.89 51.2099 113.87C50.5699 115.75 49.8 117.47 48.92 119.02L50.3099 119.59C50.2299 119.84 49.9999 120.01 49.6099 120.09V134.65C49.5799 134.82 49.2999 135.02 48.7599 135.27C48.1399 135.54 47.5499 135.67 46.9599 135.67H46.3499L46.3599 135.68ZM50.3799 123.62L50.2 122.92H58.2299C58.78 120.59 59.1399 118.52 59.3099 116.7H50.8099L50.6299 116H55.7799V112.18L59.7599 112.5C59.7199 112.85 59.4799 113.07 59.0399 113.15V116H60.5699L62.2299 113.55C63.25 114.47 64.2599 115.38 65.2599 116.3C65.1999 116.57 64.9799 116.7 64.6099 116.7H59.7799L63.6499 118.2C63.5299 118.58 63.2299 118.74 62.7499 118.67C61.6299 120.2 60.3099 121.62 58.8199 122.92H60.7799L62.4699 120.45C62.8299 120.77 63.1999 121.09 63.5699 121.42C64.3899 122.15 65.0499 122.75 65.5299 123.22C65.4699 123.49 65.2499 123.62 64.8799 123.62H50.3999H50.3799ZM52.0899 135.68V124.89L55.42 126.26H59.9399L61.42 124.39L64.1599 126.71C64.0099 126.96 63.7199 127.13 63.2799 127.21V134.73C63.2799 134.85 63.0499 134.99 62.5799 135.15C61.9999 135.35 61.3399 135.45 60.5999 135.45H60.0099V133.65H55.1799V134.9C55.1799 135.05 54.9499 135.21 54.5099 135.37C53.9899 135.57 53.36 135.67 52.64 135.67H52.0799L52.0899 135.68ZM53.5099 122.04C53.5699 120.36 53.2099 118.66 52.4299 116.94L52.6299 116.82C54.1599 117.34 55.2699 118.05 55.9599 118.97C56.5099 119.74 56.7099 120.51 56.5499 121.29C56.3999 122.04 56.0199 122.51 55.3999 122.71C54.7599 122.93 54.1299 122.71 53.5099 122.04ZM55.2 132.96H60.0299V126.96H55.2V132.96Z" fill="white"/>
<path d="M78.7699 135.73C78.6899 134.43 78.5299 133.57 78.2699 133.16C77.9099 132.58 77.2899 132.19 76.4099 131.99V131.69C77.2799 131.74 78.1399 131.79 78.9999 131.84C79.2699 131.84 79.3999 131.72 79.3999 131.47V123.98H75.2L75.1799 123.93C74.8599 125.53 74.4399 126.94 73.8999 128.15C74.8299 128.77 75.5 129.49 75.92 130.32C76.28 131.04 76.3899 131.72 76.2599 132.37C76.1399 132.99 75.8499 133.41 75.3799 133.64C74.8799 133.86 74.3299 133.77 73.7199 133.39C73.4699 132.54 73.0499 131.64 72.4599 130.69C71.0199 132.69 69.0099 134.23 66.4299 135.31L66.2499 135.06C68.3599 133.53 69.9499 131.4 71.0199 128.67C70.5599 128.12 70.1399 127.68 69.7799 127.35C69.6899 127.75 69.5999 128.12 69.5099 128.47C69.2299 128.69 68.8199 128.81 68.2999 128.85C67.7499 128.88 67.1599 128.8 66.5499 128.6C67.2099 126.25 67.91 123.05 68.64 119.01H66.5099L66.3099 118.31H68.7799C69.2799 115.5 69.5899 113.39 69.7199 111.99L73.4099 112.86C73.3099 113.24 72.9999 113.43 72.4899 113.43C72.2199 115.08 71.9399 116.7 71.6299 118.3H72.5099L73.9899 116.55L76.6599 119.1C76.5299 119.35 76.2299 119.51 75.7799 119.57C75.6599 120.85 75.4999 122.08 75.3099 123.27H79.3999V118.85L81.3999 119.02C82.0399 117.92 82.6999 116.61 83.3599 115.1H75.3599L75.1599 114.4H83.39L85.0099 112.65L87.7299 115.3C87.58 115.5 87.2699 115.61 86.8099 115.62C85.0599 117.15 83.5499 118.32 82.2899 119.12L83.4399 119.22C83.4099 119.6 83.1599 119.83 82.6799 119.89V123.26H83.92L85.4299 120.91C86.3299 121.79 87.2199 122.68 88.0999 123.56C88.0399 123.83 87.8299 123.96 87.4699 123.96H82.6799V131.65C82.6799 132.98 82.4599 133.92 82.0299 134.47C81.4799 135.14 80.3999 135.55 78.7899 135.72L78.7699 135.73ZM71.5499 127.04C72.1599 124.93 72.5599 122.24 72.7399 119H71.4799C70.9399 121.88 70.4199 124.42 69.9299 126.62C70.4699 126.72 71.0099 126.86 71.5499 127.04Z" fill="white"/>
<path d="M89.67 131.01V113.83L92.5199 115.13H93.5099L94.8099 113.53L97.4399 115.8C97.2899 116.03 96.9899 116.22 96.5399 116.35V128.19C96.5299 128.34 96.2599 128.54 95.7499 128.79C95.1799 129.07 94.66 129.21 94.2 129.21H93.7299V126.99H92.4299V129.94C92.4299 130.14 92.1999 130.37 91.7299 130.61C91.2099 130.88 90.6599 131.01 90.0899 131.01H89.6599H89.67ZM92.4299 126.29H93.7299V115.82H92.4299V126.29ZM107.65 135.66C105.99 134.51 104.7 133.25 103.81 131.86C101.74 133.62 99.0799 134.88 95.8299 135.63L95.7 135.33C98.68 134.06 101.03 132.24 102.76 129.86C101.94 127.96 101.36 125.44 101.03 122.29C100.7 125.19 100.02 127.61 98.9799 129.56C97.7699 131.91 95.9399 133.88 93.4999 135.48L93.2499 135.13C94.8399 133.37 96.0299 131.36 96.8199 129.11C97.4899 127.25 97.9399 125.04 98.1499 122.49C98.2699 120.96 98.3299 118.56 98.3299 115.3V114.83H96.5499L96.3499 114.13H103.63L104.82 112.58L107.7 114.93C107.52 115.13 107.24 115.26 106.85 115.33L106.4 120.72L107.46 119.57L110.11 122.22C109.98 122.45 109.66 122.6 109.17 122.67C108.4 125.57 107.3 127.93 105.84 129.76C107.05 130.73 108.66 131.57 110.67 132.28L110.63 132.58C109.21 132.86 108.22 133.89 107.66 135.65L107.65 135.66ZM101.11 121.32H103.18L103.79 114.83H101.38C101.32 117.76 101.23 119.93 101.11 121.32ZM103.96 127.94C104.87 126.28 105.56 124.3 106.01 122.02H101.36C101.84 124.42 102.71 126.39 103.97 127.94H103.96Z" fill="white"/>
<path d="M116.81 135.6V128.23C115.82 129.21 114.67 130.28 113.35 131.43C113.23 131.81 113.02 132.05 112.72 132.13L111.19 128.18C111.46 128.15 111.96 128.06 112.7 127.91V114.85L116.18 115.18C116.14 115.5 115.92 115.69 115.53 115.75V127.34L116.81 127.04V112.35L120.7 112.77C120.62 113.15 120.35 113.39 119.87 113.47V134.43C119.87 134.63 119.6 134.87 119.06 135.15C118.49 135.45 117.93 135.6 117.4 135.6H116.82H116.81ZM119.71 135.67L119.55 135.45C121.84 133.7 123.66 131.47 125.01 128.76C124.28 126.63 123.75 123.84 123.44 120.39C122.54 121.79 121.47 123 120.22 124.01L119.97 123.83C120.63 122.3 121.21 120.49 121.7 118.41C122.21 116.25 122.55 114.11 122.71 111.99L127.16 113.14C127.07 113.52 126.77 113.72 126.26 113.74C125.79 115.34 125.31 116.7 124.8 117.84H128.49L130.06 115.52C131 116.39 131.94 117.26 132.87 118.14C132.81 118.41 132.59 118.54 132.22 118.54H131.03C130.53 122.7 129.44 126.14 127.75 128.86C129.17 130.31 130.98 131.42 133.17 132.18L133.1 132.46C131.6 132.88 130.67 133.94 130.31 135.66C128.53 134.63 127.1 133.14 126.04 131.19C124.36 133.09 122.25 134.59 119.7 135.69L119.71 135.67ZM125.96 126.5C126.83 124.14 127.35 121.48 127.51 118.53H124.47C124.26 118.95 124.02 119.39 123.75 119.85C124.17 122.48 124.9 124.7 125.95 126.49L125.96 126.5Z" fill="white"/>
<path d="M46.3599 135.68V122.69C45.5099 123.67 44.6299 124.5 43.7299 125.19L43.4799 125.02C44.4099 123.36 45.2599 121.38 46.0199 119.1C46.8399 116.69 47.4399 114.3 47.8199 111.93L52.1299 113.35C51.9999 113.72 51.6899 113.89 51.2099 113.87C50.5699 115.75 49.8 117.47 48.92 119.02L50.3099 119.59C50.2299 119.84 49.9999 120.01 49.6099 120.09V134.65C49.5799 134.82 49.2999 135.02 48.7599 135.27C48.1399 135.54 47.5499 135.67 46.9599 135.67H46.3499L46.3599 135.68ZM50.3799 123.62L50.2 122.92H58.2299C58.78 120.59 59.1399 118.52 59.3099 116.7H50.8099L50.6299 116H55.7799V112.18L59.7599 112.5C59.7199 112.85 59.4799 113.07 59.0399 113.15V116H60.5699L62.2299 113.55C63.25 114.47 64.2599 115.38 65.2599 116.3C65.1999 116.57 64.9799 116.7 64.6099 116.7H59.7799L63.6499 118.2C63.5299 118.58 63.2299 118.74 62.7499 118.67C61.6299 120.2 60.3099 121.62 58.8199 122.92H60.7799L62.4699 120.45C62.8299 120.77 63.1999 121.09 63.5699 121.42C64.3899 122.15 65.0499 122.75 65.5299 123.22C65.4699 123.49 65.2499 123.62 64.8799 123.62H50.3999H50.3799ZM52.0899 135.68V124.89L55.42 126.26H59.9399L61.42 124.39L64.1599 126.71C64.0099 126.96 63.7199 127.13 63.2799 127.21V134.73C63.2799 134.85 63.0499 134.99 62.5799 135.15C61.9999 135.35 61.3399 135.45 60.5999 135.45H60.0099V133.65H55.1799V134.9C55.1799 135.05 54.9499 135.21 54.5099 135.37C53.9899 135.57 53.36 135.67 52.64 135.67H52.0799L52.0899 135.68ZM53.5099 122.04C53.5699 120.36 53.2099 118.66 52.4299 116.94L52.6299 116.82C54.1599 117.34 55.2699 118.05 55.9599 118.97C56.5099 119.74 56.7099 120.51 56.5499 121.29C56.3999 122.04 56.0199 122.51 55.3999 122.71C54.7599 122.93 54.1299 122.71 53.5099 122.04ZM55.2 132.96H60.0299V126.96H55.2V132.96Z" fill="url(#paint6_linear_263_2065)"/>
<path d="M78.7699 135.73C78.6899 134.43 78.5299 133.57 78.2699 133.16C77.9099 132.58 77.2899 132.19 76.4099 131.99V131.69C77.2799 131.74 78.1399 131.79 78.9999 131.84C79.2699 131.84 79.3999 131.72 79.3999 131.47V123.98H75.2L75.1799 123.93C74.8599 125.53 74.4399 126.94 73.8999 128.15C74.8299 128.77 75.5 129.49 75.92 130.32C76.28 131.04 76.3899 131.72 76.2599 132.37C76.1399 132.99 75.8499 133.41 75.3799 133.64C74.8799 133.86 74.3299 133.77 73.7199 133.39C73.4699 132.54 73.0499 131.64 72.4599 130.69C71.0199 132.69 69.0099 134.23 66.4299 135.31L66.2499 135.06C68.3599 133.53 69.9499 131.4 71.0199 128.67C70.5599 128.12 70.1399 127.68 69.7799 127.35C69.6899 127.75 69.5999 128.12 69.5099 128.47C69.2299 128.69 68.8199 128.81 68.2999 128.85C67.7499 128.88 67.1599 128.8 66.5499 128.6C67.2099 126.25 67.91 123.05 68.64 119.01H66.5099L66.3099 118.31H68.7799C69.2799 115.5 69.5899 113.39 69.7199 111.99L73.4099 112.86C73.3099 113.24 72.9999 113.43 72.4899 113.43C72.2199 115.08 71.9399 116.7 71.6299 118.3H72.5099L73.9899 116.55L76.6599 119.1C76.5299 119.35 76.2299 119.51 75.7799 119.57C75.6599 120.85 75.4999 122.08 75.3099 123.27H79.3999V118.85L81.3999 119.02C82.0399 117.92 82.6999 116.61 83.3599 115.1H75.3599L75.1599 114.4H83.39L85.0099 112.65L87.7299 115.3C87.58 115.5 87.2699 115.61 86.8099 115.62C85.0599 117.15 83.5499 118.32 82.2899 119.12L83.4399 119.22C83.4099 119.6 83.1599 119.83 82.6799 119.89V123.26H83.92L85.4299 120.91C86.3299 121.79 87.2199 122.68 88.0999 123.56C88.0399 123.83 87.8299 123.96 87.4699 123.96H82.6799V131.65C82.6799 132.98 82.4599 133.92 82.0299 134.47C81.4799 135.14 80.3999 135.55 78.7899 135.72L78.7699 135.73ZM71.5499 127.04C72.1599 124.93 72.5599 122.24 72.7399 119H71.4799C70.9399 121.88 70.4199 124.42 69.9299 126.62C70.4699 126.72 71.0099 126.86 71.5499 127.04Z" fill="url(#paint7_linear_263_2065)"/>
<path d="M89.67 131.01V113.83L92.5199 115.13H93.5099L94.8099 113.53L97.4399 115.8C97.2899 116.03 96.9899 116.22 96.5399 116.35V128.19C96.5299 128.34 96.2599 128.54 95.7499 128.79C95.1799 129.07 94.66 129.21 94.2 129.21H93.7299V126.99H92.4299V129.94C92.4299 130.14 92.1999 130.37 91.7299 130.61C91.2099 130.88 90.6599 131.01 90.0899 131.01H89.6599H89.67ZM92.4299 126.29H93.7299V115.82H92.4299V126.29ZM107.65 135.66C105.99 134.51 104.7 133.25 103.81 131.86C101.74 133.62 99.0799 134.88 95.8299 135.63L95.7 135.33C98.68 134.06 101.03 132.24 102.76 129.86C101.94 127.96 101.36 125.44 101.03 122.29C100.7 125.19 100.02 127.61 98.9799 129.56C97.7699 131.91 95.9399 133.88 93.4999 135.48L93.2499 135.13C94.8399 133.37 96.0299 131.36 96.8199 129.11C97.4899 127.25 97.9399 125.04 98.1499 122.49C98.2699 120.96 98.3299 118.56 98.3299 115.3V114.83H96.5499L96.3499 114.13H103.63L104.82 112.58L107.7 114.93C107.52 115.13 107.24 115.26 106.85 115.33L106.4 120.72L107.46 119.57L110.11 122.22C109.98 122.45 109.66 122.6 109.17 122.67C108.4 125.57 107.3 127.93 105.84 129.76C107.05 130.73 108.66 131.57 110.67 132.28L110.63 132.58C109.21 132.86 108.22 133.89 107.66 135.65L107.65 135.66ZM101.11 121.32H103.18L103.79 114.83H101.38C101.32 117.76 101.23 119.93 101.11 121.32ZM103.96 127.94C104.87 126.28 105.56 124.3 106.01 122.02H101.36C101.84 124.42 102.71 126.39 103.97 127.94H103.96Z" fill="url(#paint8_linear_263_2065)"/>
<path d="M116.81 135.6V128.23C115.82 129.21 114.67 130.28 113.35 131.43C113.23 131.81 113.02 132.05 112.72 132.13L111.19 128.18C111.46 128.15 111.96 128.06 112.7 127.91V114.85L116.18 115.18C116.14 115.5 115.92 115.69 115.53 115.75V127.34L116.81 127.04V112.35L120.7 112.77C120.62 113.15 120.35 113.39 119.87 113.47V134.43C119.87 134.63 119.6 134.87 119.06 135.15C118.49 135.45 117.93 135.6 117.4 135.6H116.82H116.81ZM119.71 135.67L119.55 135.45C121.84 133.7 123.66 131.47 125.01 128.76C124.28 126.63 123.75 123.84 123.44 120.39C122.54 121.79 121.47 123 120.22 124.01L119.97 123.83C120.63 122.3 121.21 120.49 121.7 118.41C122.21 116.25 122.55 114.11 122.71 111.99L127.16 113.14C127.07 113.52 126.77 113.72 126.26 113.74C125.79 115.34 125.31 116.7 124.8 117.84H128.49L130.06 115.52C131 116.39 131.94 117.26 132.87 118.14C132.81 118.41 132.59 118.54 132.22 118.54H131.03C130.53 122.7 129.44 126.14 127.75 128.86C129.17 130.31 130.98 131.42 133.17 132.18L133.1 132.46C131.6 132.88 130.67 133.94 130.31 135.66C128.53 134.63 127.1 133.14 126.04 131.19C124.36 133.09 122.25 134.59 119.7 135.69L119.71 135.67ZM125.96 126.5C126.83 124.14 127.35 121.48 127.51 118.53H124.47C124.26 118.95 124.02 119.39 123.75 119.85C124.17 122.48 124.9 124.7 125.95 126.49L125.96 126.5Z" fill="url(#paint9_linear_263_2065)"/>
<path d="M133.48 104.18V106.65L135.9 105.81L136.34 107.04L133.92 107.83L135.42 109.92L134.32 110.71L132.87 108.53L131.4 110.71L130.27 109.92L131.79 107.83L129.35 107.04L129.8 105.81L132.2 106.68V104.18H133.49H133.48Z" fill="#888888"/>
<path d="M141.78 104.18V106.65L144.2 105.81L144.64 107.04L142.22 107.83L143.72 109.92L142.62 110.71L141.17 108.53L139.7 110.71L138.57 109.92L140.09 107.83L137.65 107.04L138.1 105.81L140.5 106.68V104.18H141.79H141.78Z" fill="#888888"/>
<path d="M133.48 104.18V106.65L135.9 105.81L136.34 107.04L133.92 107.83L135.42 109.92L134.32 110.71L132.87 108.53L131.4 110.71L130.27 109.92L131.79 107.83L129.35 107.04L129.8 105.81L132.2 106.68V104.18H133.49H133.48Z" fill="url(#paint10_linear_263_2065)"/>
<path d="M141.78 104.18V106.65L144.2 105.81L144.64 107.04L142.22 107.83L143.72 109.92L142.62 110.71L141.17 108.53L139.7 110.71L138.57 109.92L140.09 107.83L137.65 107.04L138.1 105.81L140.5 106.68V104.18H141.79H141.78Z" fill="url(#paint11_linear_263_2065)"/>
<defs>
<linearGradient id="paint0_linear_263_2065" x1="12.2748" y1="85.4026" x2="157.383" y2="82.3631" gradientUnits="userSpaceOnUse">
<stop stop-color="#182987"/>
<stop offset="0.5" stop-color="#0087D1"/>
<stop offset="1" stop-color="#182987"/>
</linearGradient>
<linearGradient id="paint1_linear_263_2065" x1="12.9599" y1="122.84" x2="81.49" y2="122.84" gradientUnits="userSpaceOnUse">
<stop stop-color="#182987"/>
<stop offset="0.5" stop-color="#0087D1"/>
<stop offset="1" stop-color="#182987"/>
</linearGradient>
<linearGradient id="paint2_linear_263_2065" x1="9.59995" y1="67.08" x2="147.21" y2="67.08" gradientUnits="userSpaceOnUse">
<stop stop-color="#182987"/>
<stop offset="0.5" stop-color="#0087D1"/>
<stop offset="1" stop-color="#182987"/>
</linearGradient>
<linearGradient id="paint3_linear_263_2065" x1="9.59989" y1="67.08" x2="147.21" y2="67.08" gradientUnits="userSpaceOnUse">
<stop stop-color="#182987"/>
<stop offset="0.5" stop-color="#0087D1"/>
<stop offset="1" stop-color="#182987"/>
</linearGradient>
<linearGradient id="paint4_linear_263_2065" x1="9.59997" y1="67.0801" x2="147.21" y2="67.0801" gradientUnits="userSpaceOnUse">
<stop stop-color="#182987"/>
<stop offset="0.5" stop-color="#0087D1"/>
<stop offset="1" stop-color="#182987"/>
</linearGradient>
<linearGradient id="paint5_linear_263_2065" x1="9.5999" y1="67.0799" x2="147.21" y2="67.0799" gradientUnits="userSpaceOnUse">
<stop stop-color="#182987"/>
<stop offset="0.5" stop-color="#0087D1"/>
<stop offset="1" stop-color="#182987"/>
</linearGradient>
<linearGradient id="paint6_linear_263_2065" x1="5.88997" y1="123.83" x2="149.05" y2="123.83" gradientUnits="userSpaceOnUse">
<stop stop-color="#182987"/>
<stop offset="0.5" stop-color="#0087D1"/>
<stop offset="1" stop-color="#182987"/>
</linearGradient>
<linearGradient id="paint7_linear_263_2065" x1="5.88992" y1="123.83" x2="149.05" y2="123.83" gradientUnits="userSpaceOnUse">
<stop stop-color="#182987"/>
<stop offset="0.5" stop-color="#0087D1"/>
<stop offset="1" stop-color="#182987"/>
</linearGradient>
<linearGradient id="paint8_linear_263_2065" x1="5.8899" y1="123.83" x2="149.05" y2="123.83" gradientUnits="userSpaceOnUse">
<stop stop-color="#182987"/>
<stop offset="0.5" stop-color="#0087D1"/>
<stop offset="1" stop-color="#182987"/>
</linearGradient>
<linearGradient id="paint9_linear_263_2065" x1="5.88989" y1="123.83" x2="149.05" y2="123.83" gradientUnits="userSpaceOnUse">
<stop stop-color="#182987"/>
<stop offset="0.5" stop-color="#0087D1"/>
<stop offset="1" stop-color="#182987"/>
</linearGradient>
<linearGradient id="paint10_linear_263_2065" x1="129.35" y1="107.45" x2="144.64" y2="107.45" gradientUnits="userSpaceOnUse">
<stop stop-color="#182987"/>
<stop offset="0.5" stop-color="#0087D1"/>
<stop offset="1" stop-color="#182987"/>
</linearGradient>
<linearGradient id="paint11_linear_263_2065" x1="129.35" y1="107.45" x2="144.64" y2="107.45" gradientUnits="userSpaceOnUse">
<stop stop-color="#182987"/>
<stop offset="0.5" stop-color="#0087D1"/>
<stop offset="1" stop-color="#182987"/>
</linearGradient>
</defs>
</svg>
