<svg width="167" height="167" viewBox="0 0 167 167" fill="none" xmlns="http://www.w3.org/2000/svg">
<path d="M164.844 101.336C174.745 56.4543 146.387 12.044 101.505 2.14316C56.6228 -7.75765 12.2124 20.6002 2.31162 65.4823C-7.5892 110.364 20.7687 154.775 65.6508 164.675C110.533 174.576 154.943 146.218 164.844 101.336Z" fill="#F7F7F7"/>
<path d="M33.3199 62.73L33.1099 62.3401C36.6899 59.2201 38.6099 54.7001 38.8399 48.7801L45.4499 50.0801C45.3299 50.7101 44.8699 51.0401 44.0699 51.0601C43.8099 52.0801 43.4799 53.0401 43.0799 53.9301C44.1399 54.7401 45.4099 55.3101 46.8999 55.6201V47.5201H34.3099L33.9899 46.42H59.1399L61.5099 43.79L65.6099 48.0701C65.3999 48.3301 64.9399 48.5001 64.2299 48.5801C62.8899 49.3401 61.3999 49.9801 59.7699 50.5101C60.6199 51.1701 61.2999 51.72 61.8199 52.16C61.7499 52.58 61.4199 52.79 60.8299 52.79H52.0899V56.2101C52.7299 56.2401 53.7499 56.2501 55.1699 56.2501C60.7299 56.2501 64.3999 56.22 66.1699 56.17V56.6401C65.4199 56.8501 64.8399 57.3901 64.4399 58.2501C64.0599 59.0401 63.8699 59.9801 63.8699 61.0801H55.0299C51.6099 61.0801 48.9799 60.7001 47.1399 59.9401C45.0899 59.1001 43.4699 57.6101 42.2899 55.4601C40.3999 58.7101 37.4099 61.13 33.3099 62.73H33.3199ZM61.0899 81.0801C60.3799 79.7201 59.2699 78.2001 57.7699 76.5201C54.4199 77.4101 47.7999 78.7601 37.8899 80.5701C37.6099 81.0201 37.2399 81.2901 36.7899 81.4001L33.9299 75.35C36.3099 75.43 40.6099 75.4401 46.8399 75.3901V71.3401H42.7399V72.2801C42.7399 72.5701 42.2599 72.9201 41.2899 73.3401C40.2499 73.7901 39.2499 74.0101 38.2799 74.0101H37.5699V62.3L43.0499 64.5801H46.8299V60.8101L53.2999 61.4001C53.2299 61.9201 52.8399 62.2501 52.1299 62.3801V64.5801H55.9099L58.1399 61.9501L62.7399 65.72C62.4999 66.09 62.0899 66.34 61.4999 66.47V71.5001C61.4799 71.6601 60.9599 71.8901 59.9399 72.2101C58.8499 72.5501 57.9399 72.72 57.1799 72.72H56.2599V71.3401H52.1199V75.35L56.5799 75.2701C55.4999 74.2701 54.6799 73.5701 54.1399 73.1501L54.3899 72.8801C57.4999 72.8001 59.9899 73.27 61.8499 74.29C63.4099 75.15 64.3599 76.2701 64.7099 77.6301C65.0399 78.8601 64.8299 79.8601 64.0699 80.6201C63.3199 81.4301 62.3099 81.5901 61.0599 81.0901L61.0899 81.0801ZM42.7299 70.23H46.8299V65.67H42.7299V70.23ZM52.0999 51.6801H55.0399L57.4099 48.6901C57.9799 49.1101 58.5399 49.5401 59.1099 49.9901C59.2299 49.3101 59.3299 48.4801 59.4299 47.5101H52.1099V51.6801H52.0999ZM52.1399 70.23H56.2799V65.67H52.1399V70.23Z" fill="white"/>
<path d="M71.6599 81.16V50.0001L77.5299 52.5201H80.4599C80.9599 49.8201 81.3099 46.91 81.5199 43.8L88.8799 45.73C88.7399 46.28 88.2899 46.5601 87.5399 46.5601C87.3499 46.7701 87.0399 47.1 86.6199 47.54C84.5399 49.87 82.9099 51.5401 81.6999 52.5301H92.3499L94.9299 49.35L99.9199 53.79C99.5199 54.29 98.9799 54.6201 98.2899 54.7701V78.9401C98.2699 79.2301 97.7499 79.6201 96.7299 80.1201C95.6199 80.6701 94.5999 80.9501 93.6499 80.9501H92.7699V77.29H77.1399V79.0201C77.1399 79.4101 76.6699 79.86 75.7299 80.36C74.6899 80.91 73.6299 81.1901 72.5499 81.1901H71.6699L71.6599 81.16ZM77.1399 64.22H92.7699V53.61H77.1399V64.22ZM77.1399 76.17H92.7699V65.3201H77.1399V76.17Z" fill="white"/>
<path d="M109.93 75.8099V57.14L115.24 59.3799H125.99L127.33 57.8099H127.26V51.9899H125.53C124.99 55.3199 122.53 57.6 118.17 58.83L117.96 58.3599C119.87 56.8099 120.94 54.6699 121.18 51.9199C120.94 51.9699 120.77 51.9999 120.65 51.9999H117.43V56.95C117.41 57.11 117.08 57.2999 116.44 57.5399C115.64 57.8299 114.73 57.9699 113.72 57.9699H112.91V51.9999H111C110.65 55.7999 108.32 58.4199 104.03 59.8599L103.78 59.39C104.96 58.24 105.77 56.8099 106.22 55.1099C106.5 53.9599 106.64 52.4999 106.64 50.7499V45.8799L111.17 47.2199C113.41 46.0699 115.26 44.98 116.72 43.96L120.4 48.1299C119.93 48.5199 119.2 48.4799 118.21 48.0099C116.02 48.3499 113.64 48.5699 111.07 48.6799V50.9199H115.95L117.97 48.1699C119.06 49.1099 120.14 50.0599 121.22 50.9999V45.8499L125.39 47.0699C127.82 45.9699 129.78 44.93 131.26 43.96L134.98 48.1699C134.63 48.4799 134.11 48.54 133.42 48.33C134.53 49.22 135.68 50.24 136.89 51.4C136.82 51.82 136.5 52.03 135.93 52.03H131.97V56.8199C131.95 56.9199 131.71 57.0699 131.26 57.2499C130.72 57.4899 130.09 57.6599 129.39 57.7599L132.71 60.5499C132.43 60.9199 132.01 61.1699 131.47 61.2999V73.4799C131.45 73.6599 130.94 73.9099 129.95 74.2299C128.91 74.5999 128.01 74.78 127.23 74.78H126.35V73.1299H114.96V74.0699C114.96 74.3599 114.51 74.7099 113.62 75.1299C112.63 75.5999 111.65 75.84 110.68 75.84H109.94L109.93 75.8099ZM104.66 81.3499L104.55 80.8799C106.79 80.0899 109.05 78.99 111.34 77.58C113.53 76.22 115.24 74.8899 116.47 73.6099L121.53 77.7C121.13 78.17 120.37 78.2499 119.27 77.9399C117.55 78.8299 115.36 79.5899 112.69 80.2199C110.07 80.8199 107.4 81.1999 104.66 81.3599V81.3499ZM114.95 63.5099H126.34V60.4799H114.95V63.5099ZM114.95 67.7199H126.34V64.6099H114.95V67.7199ZM114.95 71.9999H126.34V68.8199H114.95V71.9999ZM129.7 80.4099C127.55 78.1799 124.77 76.5099 121.35 75.3799L121.46 74.95C125.45 74.9 128.63 75.1599 131.01 75.7399C132.99 76.2399 134.3 76.9299 134.94 77.8199C135.46 78.5499 135.44 79.2699 134.87 79.9799C134.35 80.6899 133.59 81.1099 132.57 81.2399C131.49 81.3999 130.53 81.1199 129.71 80.4099H129.7ZM125.67 50.9H130.98L132.96 48.15L132.75 48.03C130.28 48.34 127.92 48.5499 125.68 48.6599V50.9H125.67Z" fill="white"/>
<path d="M33.3199 62.73L33.1099 62.3401C36.6899 59.2201 38.6099 54.7001 38.8399 48.7801L45.4499 50.0801C45.3299 50.7101 44.8699 51.0401 44.0699 51.0601C43.8099 52.0801 43.4799 53.0401 43.0799 53.9301C44.1399 54.7401 45.4099 55.3101 46.8999 55.6201V47.5201H34.3099L33.9899 46.42H59.1399L61.5099 43.79L65.6099 48.0701C65.3999 48.3301 64.9399 48.5001 64.2299 48.5801C62.8899 49.3401 61.3999 49.9801 59.7699 50.5101C60.6199 51.1701 61.2999 51.72 61.8199 52.16C61.7499 52.58 61.4199 52.79 60.8299 52.79H52.0899V56.2101C52.7299 56.2401 53.7499 56.2501 55.1699 56.2501C60.7299 56.2501 64.3999 56.22 66.1699 56.17V56.6401C65.4199 56.8501 64.8399 57.3901 64.4399 58.2501C64.0599 59.0401 63.8699 59.9801 63.8699 61.0801H55.0299C51.6099 61.0801 48.9799 60.7001 47.1399 59.9401C45.0899 59.1001 43.4699 57.6101 42.2899 55.4601C40.3999 58.7101 37.4099 61.13 33.3099 62.73H33.3199ZM61.0899 81.0801C60.3799 79.7201 59.2699 78.2001 57.7699 76.5201C54.4199 77.4101 47.7999 78.7601 37.8899 80.5701C37.6099 81.0201 37.2399 81.2901 36.7899 81.4001L33.9299 75.35C36.3099 75.43 40.6099 75.4401 46.8399 75.3901V71.3401H42.7399V72.2801C42.7399 72.5701 42.2599 72.9201 41.2899 73.3401C40.2499 73.7901 39.2499 74.0101 38.2799 74.0101H37.5699V62.3L43.0499 64.5801H46.8299V60.8101L53.2999 61.4001C53.2299 61.9201 52.8399 62.2501 52.1299 62.3801V64.5801H55.9099L58.1399 61.9501L62.7399 65.72C62.4999 66.09 62.0899 66.34 61.4999 66.47V71.5001C61.4799 71.6601 60.9599 71.8901 59.9399 72.2101C58.8499 72.5501 57.9399 72.72 57.1799 72.72H56.2599V71.3401H52.1199V75.35L56.5799 75.2701C55.4999 74.2701 54.6799 73.5701 54.1399 73.1501L54.3899 72.8801C57.4999 72.8001 59.9899 73.27 61.8499 74.29C63.4099 75.15 64.3599 76.2701 64.7099 77.6301C65.0399 78.8601 64.8299 79.8601 64.0699 80.6201C63.3199 81.4301 62.3099 81.5901 61.0599 81.0901L61.0899 81.0801ZM42.7299 70.23H46.8299V65.67H42.7299V70.23ZM52.0999 51.6801H55.0399L57.4099 48.6901C57.9799 49.1101 58.5399 49.5401 59.1099 49.9901C59.2299 49.3101 59.3299 48.4801 59.4299 47.5101H52.1099V51.6801H52.0999ZM52.1399 70.23H56.2799V65.67H52.1399V70.23Z" fill="url(#paint0_linear_263_2102)"/>
<path d="M71.6599 81.16V50.0001L77.5299 52.5201H80.4599C80.9599 49.8201 81.3099 46.91 81.5199 43.8L88.8799 45.73C88.7399 46.28 88.2899 46.5601 87.5399 46.5601C87.3499 46.7701 87.0399 47.1 86.6199 47.54C84.5399 49.87 82.9099 51.5401 81.6999 52.5301H92.3499L94.9299 49.35L99.9199 53.79C99.5199 54.29 98.9799 54.6201 98.2899 54.7701V78.9401C98.2699 79.2301 97.7499 79.6201 96.7299 80.1201C95.6199 80.6701 94.5999 80.9501 93.6499 80.9501H92.7699V77.29H77.1399V79.0201C77.1399 79.4101 76.6699 79.86 75.7299 80.36C74.6899 80.91 73.6299 81.1901 72.5499 81.1901H71.6699L71.6599 81.16ZM77.1399 64.22H92.7699V53.61H77.1399V64.22ZM77.1399 76.17H92.7699V65.3201H77.1399V76.17Z" fill="url(#paint1_linear_263_2102)"/>
<path d="M109.93 75.8099V57.14L115.24 59.3799H125.99L127.33 57.8099H127.26V51.9899H125.53C124.99 55.3199 122.53 57.6 118.17 58.83L117.96 58.3599C119.87 56.8099 120.94 54.6699 121.18 51.9199C120.94 51.9699 120.77 51.9999 120.65 51.9999H117.43V56.95C117.41 57.11 117.08 57.2999 116.44 57.5399C115.64 57.8299 114.73 57.9699 113.72 57.9699H112.91V51.9999H111C110.65 55.7999 108.32 58.4199 104.03 59.8599L103.78 59.39C104.96 58.24 105.77 56.8099 106.22 55.1099C106.5 53.9599 106.64 52.4999 106.64 50.7499V45.8799L111.17 47.2199C113.41 46.0699 115.26 44.98 116.72 43.96L120.4 48.1299C119.93 48.5199 119.2 48.4799 118.21 48.0099C116.02 48.3499 113.64 48.5699 111.07 48.6799V50.9199H115.95L117.97 48.1699C119.06 49.1099 120.14 50.0599 121.22 50.9999V45.8499L125.39 47.0699C127.82 45.9699 129.78 44.93 131.26 43.96L134.98 48.1699C134.63 48.4799 134.11 48.54 133.42 48.33C134.53 49.22 135.68 50.24 136.89 51.4C136.82 51.82 136.5 52.03 135.93 52.03H131.97V56.8199C131.95 56.9199 131.71 57.0699 131.26 57.2499C130.72 57.4899 130.09 57.6599 129.39 57.7599L132.71 60.5499C132.43 60.9199 132.01 61.1699 131.47 61.2999V73.4799C131.45 73.6599 130.94 73.9099 129.95 74.2299C128.91 74.5999 128.01 74.78 127.23 74.78H126.35V73.1299H114.96V74.0699C114.96 74.3599 114.51 74.7099 113.62 75.1299C112.63 75.5999 111.65 75.84 110.68 75.84H109.94L109.93 75.8099ZM104.66 81.3499L104.55 80.8799C106.79 80.0899 109.05 78.99 111.34 77.58C113.53 76.22 115.24 74.8899 116.47 73.6099L121.53 77.7C121.13 78.17 120.37 78.2499 119.27 77.9399C117.55 78.8299 115.36 79.5899 112.69 80.2199C110.07 80.8199 107.4 81.1999 104.66 81.3599V81.3499ZM114.95 63.5099H126.34V60.4799H114.95V63.5099ZM114.95 67.7199H126.34V64.6099H114.95V67.7199ZM114.95 71.9999H126.34V68.8199H114.95V71.9999ZM129.7 80.4099C127.55 78.1799 124.77 76.5099 121.35 75.3799L121.46 74.95C125.45 74.9 128.63 75.1599 131.01 75.7399C132.99 76.2399 134.3 76.9299 134.94 77.8199C135.46 78.5499 135.44 79.2699 134.87 79.9799C134.35 80.6899 133.59 81.1099 132.57 81.2399C131.49 81.3999 130.53 81.1199 129.71 80.4099H129.7ZM125.67 50.9H130.98L132.96 48.15L132.75 48.03C130.28 48.34 127.92 48.5499 125.68 48.6599V50.9H125.67Z" fill="url(#paint2_linear_263_2102)"/>
<path d="M46.0299 145.91C13 124.97 3.19995 81.2301 24.1399 48.2001C45.08 15.1701 88.82 5.37008 121.85 26.3101C154.88 47.2501 164.68 90.9901 143.74 124.02C129.35 146.73 104.17 158.45 79.1099 156.76" stroke="url(#paint3_linear_263_2102)" stroke-width="1.91" stroke-miterlimit="10"/>
<path d="M31.9399 122.72V97.48H23.9999V95.85C25.6399 95.72 27.0299 95.48 28.1699 95.15C29.2999 94.81 30.2599 94.37 31.0299 93.83C31.7999 93.29 32.4399 92.63 32.9299 91.87C33.4199 91.11 33.8699 90.24 34.2599 89.27H39.1899V122.72H31.9399Z" fill="white"/>
<path d="M47.5199 123.32V113.44C46.5899 114.89 45.4399 116.21 44.0799 117.39L43.8099 117.14C45.4399 114.54 46.6099 111.02 47.3199 106.59H44.5599L44.3799 105.9H47.5099V99.8999L51.4499 100.32C51.3999 100.71 51.1299 100.95 50.6299 101.04V105.91H50.6699L51.9799 103.79C52.2599 104.07 52.5399 104.35 52.8199 104.63C53.4599 105.29 53.9499 105.82 54.3099 106.21C54.2699 106.47 54.0699 106.6 53.7099 106.6H50.6199V107.61C51.9399 107.99 52.8699 108.54 53.4199 109.26C53.8999 109.85 54.0399 110.46 53.8699 111.09C53.7199 111.68 53.3799 112.05 52.8499 112.2C52.2699 112.36 51.7299 112.18 51.2299 111.63C51.2899 110.54 51.0899 109.4 50.6299 108.2V122.35C50.6299 122.5 50.3599 122.7 49.8299 122.94C49.2499 123.19 48.6899 123.31 48.1399 123.31H47.5199V123.32ZM56.8599 123.22V111.29C55.2999 113.02 53.4099 114.49 51.1699 115.71L50.9699 115.46C52.5699 113.99 53.9699 112.13 55.1699 109.88C56.2799 107.77 57.1199 105.53 57.6799 103.16H51.9899L51.8099 102.47H61.0199L62.5999 100.05C62.9399 100.36 63.2799 100.68 63.6199 100.99C64.3899 101.71 64.9899 102.31 65.4199 102.77C65.3599 103.03 65.1499 103.17 64.7799 103.17H61.2899C60.8399 104.73 60.2499 106.2 59.5099 107.57L60.7099 108.06C60.6499 108.29 60.4199 108.46 60.0199 108.55V108.95C61.8299 109.38 63.2199 110.07 64.1999 111.02C64.9999 111.81 65.4199 112.66 65.4699 113.56C65.4999 114.38 65.2399 114.98 64.6899 115.34C64.1099 115.72 63.4699 115.64 62.7499 115.09C62.3399 113.39 61.4299 111.52 60.0199 109.48V122.3C59.9899 122.45 59.7099 122.63 59.1799 122.84C58.5899 123.09 58.0199 123.21 57.4699 123.21H56.8699L56.8599 123.22Z" fill="white"/>
<path d="M70.7099 123.32C70.6699 122.15 70.5199 121.36 70.2899 120.95C70.0099 120.42 69.4799 120.07 68.6899 119.89V119.57C69.4199 119.6 70.1399 119.64 70.8499 119.69C71.1199 119.69 71.2499 119.57 71.2499 119.32V114.13C70.7699 114.46 70.4099 114.71 70.1599 114.87C70.0599 115.23 69.8399 115.47 69.5099 115.59L68.3499 111.49C68.7199 111.42 69.5799 111.25 70.9299 110.97C71.0599 110.94 71.1699 110.91 71.2399 110.9V106.23H68.8199L68.6399 105.54H71.2399V99.8298L75.0599 100.23C75.0199 100.62 74.7399 100.86 74.2399 100.95V105.1L75.2199 103.3C75.7799 103.93 76.3399 104.56 76.8899 105.2V101.94L80.0899 103.1C82.6199 101.95 84.5899 100.89 85.9799 99.9098L88.9999 103C88.6699 103.3 88.1499 103.3 87.4199 103C86.4399 103.21 85.6399 103.36 85.0199 103.44C84.9199 105.53 84.9399 107.4 85.0899 109.05H85.9099L87.3599 106.53C87.6699 106.86 87.9799 107.19 88.2899 107.52C88.9899 108.28 89.5199 108.89 89.8899 109.35C89.8499 109.61 89.6399 109.75 89.2699 109.75H85.1599C85.4999 113.21 86.3499 115.7 87.7199 117.21C87.9599 117.49 88.1699 117.47 88.3699 117.14C88.6799 116.58 89.0699 115.68 89.5299 114.45L89.7699 114.5L89.3499 118.35C89.6799 119.14 89.8599 119.73 89.9099 120.13C89.9899 120.64 89.8699 121.04 89.5799 121.32C89.0299 121.81 88.3599 121.92 87.5799 121.64C86.9299 121.41 86.3599 121.01 85.8699 120.43C83.9299 117.99 82.7399 114.44 82.3099 109.76H79.9099V116.5C80.4899 116.4 81.3799 116.25 82.5999 116.03C82.8699 115.98 83.0799 115.95 83.2199 115.93L83.2399 116.18C81.5599 117.45 79.3999 118.85 76.7499 120.38C76.6199 120.73 76.3999 120.94 76.0999 121.02L74.6799 117.24C75.2899 117.17 76.0299 117.08 76.8999 116.94V106.24H74.2499V110.22C74.9799 110.06 75.8399 109.84 76.8499 109.58L76.8899 109.8C76.1799 110.46 75.2999 111.18 74.2399 111.97V119.55C74.2399 120.8 74.0399 121.68 73.6399 122.19C73.1399 122.82 72.1599 123.19 70.6999 123.33L70.7099 123.32ZM75.6899 122.33L75.5099 121.64H81.6899L83.2699 119.22C83.6099 119.53 83.9499 119.85 84.2899 120.16C85.0399 120.9 85.6399 121.49 86.0699 121.94C86.0099 122.2 85.7999 122.34 85.4499 122.34H75.6899V122.33ZM79.8899 109.04H82.2299C82.1099 107.52 82.0499 105.8 82.0499 103.85C81.1299 103.95 80.4099 104.01 79.8899 104.05V109.04Z" fill="white"/>
<path d="M99.4799 105.13C100.68 105.01 101.78 104.76 102.78 104.37C103.78 103.98 104.64 103.48 105.36 102.88C106.08 102.28 106.63 101.58 107.02 100.77C107.41 99.9599 107.61 99.0799 107.61 98.1299C107.61 97.5199 107.51 96.9499 107.3 96.4099C107.09 95.8799 106.8 95.4099 106.41 95.0199C106.02 94.6299 105.57 94.3099 105.04 94.0799C104.51 93.8499 103.93 93.7299 103.29 93.7299C102.83 93.7299 102.32 93.8499 101.77 94.0799C101.22 94.3099 100.67 94.6299 100.13 95.0299C99.5899 95.4299 99.0599 95.8999 98.5599 96.4399C98.0599 96.9699 97.6299 97.5499 97.2599 98.1499L94.3199 96.8199C94.7099 95.7499 95.2299 94.7499 95.8699 93.8199C96.5099 92.8899 97.2799 92.0799 98.1799 91.3899C99.0799 90.6999 100.1 90.1499 101.24 89.7499C102.38 89.3499 103.66 89.1499 105.08 89.1499C106.5 89.1499 107.69 89.3399 108.87 89.6999C110.05 90.0699 111.07 90.5799 111.95 91.2299C112.83 91.8799 113.52 92.6499 114.02 93.5399C114.52 94.4299 114.77 95.3999 114.77 96.4499C114.77 96.9099 114.66 97.4199 114.44 97.9899C114.22 98.5599 113.9 99.1399 113.5 99.7399C113.1 100.34 112.62 100.94 112.07 101.53C111.52 102.12 110.91 102.67 110.26 103.18C111.15 103.57 111.98 104.08 112.75 104.71C113.52 105.34 114.19 106.03 114.75 106.78C115.31 107.54 115.75 108.33 116.07 109.17C116.39 110.01 116.55 110.85 116.55 111.69C116.55 113.66 116.15 115.39 115.34 116.86C114.53 118.33 113.43 119.56 112.02 120.54C110.61 121.52 108.96 122.25 107.05 122.74C105.14 123.22 103.08 123.47 100.86 123.47C98.6399 123.47 96.9599 123.17 95.7299 122.58C94.4999 121.99 93.8799 121.21 93.8799 120.24C93.8799 119.78 94.0099 119.4 94.2699 119.09C94.5299 118.78 94.8599 118.54 95.2499 118.35C95.6399 118.16 96.0599 118.02 96.5199 117.94C96.9799 117.86 97.4099 117.82 97.7999 117.82C98.6399 117.82 99.3699 117.94 99.9899 118.18C100.62 118.42 101.18 118.68 101.69 118.97C102.2 119.26 102.67 119.52 103.11 119.76C103.55 120 103.99 120.12 104.43 120.12C105.32 120.12 106.1 119.96 106.79 119.63C107.47 119.3 108.05 118.86 108.52 118.31C108.99 117.76 109.34 117.13 109.58 116.41C109.82 115.7 109.94 114.95 109.94 114.18C109.94 113.18 109.73 112.25 109.31 111.39C108.89 110.53 108.25 109.79 107.39 109.17C106.53 108.54 105.44 108.05 104.12 107.69C102.8 107.33 101.25 107.15 99.4599 107.15V105.15L99.4799 105.13Z" fill="white"/>
<path d="M123.49 123.32V113.44C122.56 114.89 121.41 116.21 120.05 117.39L119.78 117.14C121.41 114.54 122.58 111.02 123.29 106.59H120.53L120.35 105.9H123.48V99.8999L127.42 100.32C127.37 100.71 127.1 100.95 126.6 101.04V105.91H126.64L127.95 103.79C128.23 104.07 128.51 104.35 128.79 104.63C129.43 105.29 129.92 105.82 130.28 106.21C130.24 106.47 130.04 106.6 129.68 106.6H126.59V107.61C127.91 107.99 128.84 108.54 129.39 109.26C129.87 109.85 130.01 110.46 129.84 111.09C129.69 111.68 129.35 112.05 128.82 112.2C128.24 112.36 127.7 112.18 127.2 111.63C127.26 110.54 127.06 109.4 126.6 108.2V122.35C126.6 122.5 126.33 122.7 125.8 122.94C125.22 123.19 124.66 123.31 124.11 123.31H123.49V123.32ZM132.83 123.22V111.29C131.27 113.02 129.38 114.49 127.14 115.71L126.94 115.46C128.54 113.99 129.94 112.13 131.14 109.88C132.25 107.77 133.09 105.53 133.65 103.16H127.96L127.78 102.47H136.99L138.57 100.05C138.91 100.36 139.25 100.68 139.59 100.99C140.36 101.71 140.96 102.31 141.39 102.77C141.33 103.03 141.12 103.17 140.75 103.17H137.26C136.81 104.73 136.22 106.2 135.48 107.57L136.68 108.06C136.62 108.29 136.39 108.46 135.99 108.55V108.95C137.8 109.38 139.19 110.07 140.17 111.02C140.97 111.81 141.39 112.66 141.44 113.56C141.47 114.38 141.21 114.98 140.66 115.34C140.08 115.72 139.44 115.64 138.72 115.09C138.31 113.39 137.4 111.52 135.99 109.48V122.3C135.96 122.45 135.68 122.63 135.15 122.84C134.56 123.09 133.99 123.21 133.44 123.21H132.84L132.83 123.22Z" fill="white"/>
<path d="M31.9399 122.72V97.48H23.9999V95.85C25.6399 95.72 27.0299 95.48 28.1699 95.15C29.2999 94.81 30.2599 94.37 31.0299 93.83C31.7999 93.29 32.4399 92.63 32.9299 91.87C33.4199 91.11 33.8699 90.24 34.2599 89.27H39.1899V122.72H31.9399Z" fill="url(#paint4_linear_263_2102)"/>
<path d="M47.5199 123.32V113.44C46.5899 114.89 45.4399 116.21 44.0799 117.39L43.8099 117.14C45.4399 114.54 46.6099 111.02 47.3199 106.59H44.5599L44.3799 105.9H47.5099V99.8999L51.4499 100.32C51.3999 100.71 51.1299 100.95 50.6299 101.04V105.91H50.6699L51.9799 103.79C52.2599 104.07 52.5399 104.35 52.8199 104.63C53.4599 105.29 53.9499 105.82 54.3099 106.21C54.2699 106.47 54.0699 106.6 53.7099 106.6H50.6199V107.61C51.9399 107.99 52.8699 108.54 53.4199 109.26C53.8999 109.85 54.0399 110.46 53.8699 111.09C53.7199 111.68 53.3799 112.05 52.8499 112.2C52.2699 112.36 51.7299 112.18 51.2299 111.63C51.2899 110.54 51.0899 109.4 50.6299 108.2V122.35C50.6299 122.5 50.3599 122.7 49.8299 122.94C49.2499 123.19 48.6899 123.31 48.1399 123.31H47.5199V123.32ZM56.8599 123.22V111.29C55.2999 113.02 53.4099 114.49 51.1699 115.71L50.9699 115.46C52.5699 113.99 53.9699 112.13 55.1699 109.88C56.2799 107.77 57.1199 105.53 57.6799 103.16H51.9899L51.8099 102.47H61.0199L62.5999 100.05C62.9399 100.36 63.2799 100.68 63.6199 100.99C64.3899 101.71 64.9899 102.31 65.4199 102.77C65.3599 103.03 65.1499 103.17 64.7799 103.17H61.2899C60.8399 104.73 60.2499 106.2 59.5099 107.57L60.7099 108.06C60.6499 108.29 60.4199 108.46 60.0199 108.55V108.95C61.8299 109.38 63.2199 110.07 64.1999 111.02C64.9999 111.81 65.4199 112.66 65.4699 113.56C65.4999 114.38 65.2399 114.98 64.6899 115.34C64.1099 115.72 63.4699 115.64 62.7499 115.09C62.3399 113.39 61.4299 111.52 60.0199 109.48V122.3C59.9899 122.45 59.7099 122.63 59.1799 122.84C58.5899 123.09 58.0199 123.21 57.4699 123.21H56.8699L56.8599 123.22Z" fill="url(#paint5_linear_263_2102)"/>
<path d="M70.7099 123.32C70.6699 122.15 70.5199 121.36 70.2899 120.95C70.0099 120.42 69.4799 120.07 68.6899 119.89V119.57C69.4199 119.6 70.1399 119.64 70.8499 119.69C71.1199 119.69 71.2499 119.57 71.2499 119.32V114.13C70.7699 114.46 70.4099 114.71 70.1599 114.87C70.0599 115.23 69.8399 115.47 69.5099 115.59L68.3499 111.49C68.7199 111.42 69.5799 111.25 70.9299 110.97C71.0599 110.94 71.1699 110.91 71.2399 110.9V106.23H68.8199L68.6399 105.54H71.2399V99.8298L75.0599 100.23C75.0199 100.62 74.7399 100.86 74.2399 100.95V105.1L75.2199 103.3C75.7799 103.93 76.3399 104.56 76.8899 105.2V101.94L80.0899 103.1C82.6199 101.95 84.5899 100.89 85.9799 99.9098L88.9999 103C88.6699 103.3 88.1499 103.3 87.4199 103C86.4399 103.21 85.6399 103.36 85.0199 103.44C84.9199 105.53 84.9399 107.4 85.0899 109.05H85.9099L87.3599 106.53C87.6699 106.86 87.9799 107.19 88.2899 107.52C88.9899 108.28 89.5199 108.89 89.8899 109.35C89.8499 109.61 89.6399 109.75 89.2699 109.75H85.1599C85.4999 113.21 86.3499 115.7 87.7199 117.21C87.9599 117.49 88.1699 117.47 88.3699 117.14C88.6799 116.58 89.0699 115.68 89.5299 114.45L89.7699 114.5L89.3499 118.35C89.6799 119.14 89.8599 119.73 89.9099 120.13C89.9899 120.64 89.8699 121.04 89.5799 121.32C89.0299 121.81 88.3599 121.92 87.5799 121.64C86.9299 121.41 86.3599 121.01 85.8699 120.43C83.9299 117.99 82.7399 114.44 82.3099 109.76H79.9099V116.5C80.4899 116.4 81.3799 116.25 82.5999 116.03C82.8699 115.98 83.0799 115.95 83.2199 115.93L83.2399 116.18C81.5599 117.45 79.3999 118.85 76.7499 120.38C76.6199 120.73 76.3999 120.94 76.0999 121.02L74.6799 117.24C75.2899 117.17 76.0299 117.08 76.8999 116.94V106.24H74.2499V110.22C74.9799 110.06 75.8399 109.84 76.8499 109.58L76.8899 109.8C76.1799 110.46 75.2999 111.18 74.2399 111.97V119.55C74.2399 120.8 74.0399 121.68 73.6399 122.19C73.1399 122.82 72.1599 123.19 70.6999 123.33L70.7099 123.32ZM75.6899 122.33L75.5099 121.64H81.6899L83.2699 119.22C83.6099 119.53 83.9499 119.85 84.2899 120.16C85.0399 120.9 85.6399 121.49 86.0699 121.94C86.0099 122.2 85.7999 122.34 85.4499 122.34H75.6899V122.33ZM79.8899 109.04H82.2299C82.1099 107.52 82.0499 105.8 82.0499 103.85C81.1299 103.95 80.4099 104.01 79.8899 104.05V109.04Z" fill="url(#paint6_linear_263_2102)"/>
<path d="M99.4799 105.13C100.68 105.01 101.78 104.76 102.78 104.37C103.78 103.98 104.64 103.48 105.36 102.88C106.08 102.28 106.63 101.58 107.02 100.77C107.41 99.9599 107.61 99.0799 107.61 98.1299C107.61 97.5199 107.51 96.9499 107.3 96.4099C107.09 95.8799 106.8 95.4099 106.41 95.0199C106.02 94.6299 105.57 94.3099 105.04 94.0799C104.51 93.8499 103.93 93.7299 103.29 93.7299C102.83 93.7299 102.32 93.8499 101.77 94.0799C101.22 94.3099 100.67 94.6299 100.13 95.0299C99.5899 95.4299 99.0599 95.8999 98.5599 96.4399C98.0599 96.9699 97.6299 97.5499 97.2599 98.1499L94.3199 96.8199C94.7099 95.7499 95.2299 94.7499 95.8699 93.8199C96.5099 92.8899 97.2799 92.0799 98.1799 91.3899C99.0799 90.6999 100.1 90.1499 101.24 89.7499C102.38 89.3499 103.66 89.1499 105.08 89.1499C106.5 89.1499 107.69 89.3399 108.87 89.6999C110.05 90.0699 111.07 90.5799 111.95 91.2299C112.83 91.8799 113.52 92.6499 114.02 93.5399C114.52 94.4299 114.77 95.3999 114.77 96.4499C114.77 96.9099 114.66 97.4199 114.44 97.9899C114.22 98.5599 113.9 99.1399 113.5 99.7399C113.1 100.34 112.62 100.94 112.07 101.53C111.52 102.12 110.91 102.67 110.26 103.18C111.15 103.57 111.98 104.08 112.75 104.71C113.52 105.34 114.19 106.03 114.75 106.78C115.31 107.54 115.75 108.33 116.07 109.17C116.39 110.01 116.55 110.85 116.55 111.69C116.55 113.66 116.15 115.39 115.34 116.86C114.53 118.33 113.43 119.56 112.02 120.54C110.61 121.52 108.96 122.25 107.05 122.74C105.14 123.22 103.08 123.47 100.86 123.47C98.6399 123.47 96.9599 123.17 95.7299 122.58C94.4999 121.99 93.8799 121.21 93.8799 120.24C93.8799 119.78 94.0099 119.4 94.2699 119.09C94.5299 118.78 94.8599 118.54 95.2499 118.35C95.6399 118.16 96.0599 118.02 96.5199 117.94C96.9799 117.86 97.4099 117.82 97.7999 117.82C98.6399 117.82 99.3699 117.94 99.9899 118.18C100.62 118.42 101.18 118.68 101.69 118.97C102.2 119.26 102.67 119.52 103.11 119.76C103.55 120 103.99 120.12 104.43 120.12C105.32 120.12 106.1 119.96 106.79 119.63C107.47 119.3 108.05 118.86 108.52 118.31C108.99 117.76 109.34 117.13 109.58 116.41C109.82 115.7 109.94 114.95 109.94 114.18C109.94 113.18 109.73 112.25 109.31 111.39C108.89 110.53 108.25 109.79 107.39 109.17C106.53 108.54 105.44 108.05 104.12 107.69C102.8 107.33 101.25 107.15 99.4599 107.15V105.15L99.4799 105.13Z" fill="url(#paint7_linear_263_2102)"/>
<path d="M123.49 123.32V113.44C122.56 114.89 121.41 116.21 120.05 117.39L119.78 117.14C121.41 114.54 122.58 111.02 123.29 106.59H120.53L120.35 105.9H123.48V99.8999L127.42 100.32C127.37 100.71 127.1 100.95 126.6 101.04V105.91H126.64L127.95 103.79C128.23 104.07 128.51 104.35 128.79 104.63C129.43 105.29 129.92 105.82 130.28 106.21C130.24 106.47 130.04 106.6 129.68 106.6H126.59V107.61C127.91 107.99 128.84 108.54 129.39 109.26C129.87 109.85 130.01 110.46 129.84 111.09C129.69 111.68 129.35 112.05 128.82 112.2C128.24 112.36 127.7 112.18 127.2 111.63C127.26 110.54 127.06 109.4 126.6 108.2V122.35C126.6 122.5 126.33 122.7 125.8 122.94C125.22 123.19 124.66 123.31 124.11 123.31H123.49V123.32ZM132.83 123.22V111.29C131.27 113.02 129.38 114.49 127.14 115.71L126.94 115.46C128.54 113.99 129.94 112.13 131.14 109.88C132.25 107.77 133.09 105.53 133.65 103.16H127.96L127.78 102.47H136.99L138.57 100.05C138.91 100.36 139.25 100.68 139.59 100.99C140.36 101.71 140.96 102.31 141.39 102.77C141.33 103.03 141.12 103.17 140.75 103.17H137.26C136.81 104.73 136.22 106.2 135.48 107.57L136.68 108.06C136.62 108.29 136.39 108.46 135.99 108.55V108.95C137.8 109.38 139.19 110.07 140.17 111.02C140.97 111.81 141.39 112.66 141.44 113.56C141.47 114.38 141.21 114.98 140.66 115.34C140.08 115.72 139.44 115.64 138.72 115.09C138.31 113.39 137.4 111.52 135.99 109.48V122.3C135.96 122.45 135.68 122.63 135.15 122.84C134.56 123.09 133.99 123.21 133.44 123.21H132.84L132.83 123.22Z" fill="url(#paint8_linear_263_2102)"/>
<path d="M145.33 90.9399V94.34L148.67 93.1899L149.28 94.8799L145.95 95.96L148.01 98.84L146.5 99.9299L144.51 96.9299L142.48 99.9299L140.92 98.84L143.01 95.96L139.65 94.8799L140.26 93.1799L143.56 94.3699V90.9399H145.33Z" fill="white"/>
<path d="M145.33 90.9399V94.34L148.67 93.1899L149.28 94.8799L145.95 95.96L148.01 98.84L146.5 99.9299L144.51 96.9299L142.48 99.9299L140.92 98.84L143.01 95.96L139.65 94.8799L140.26 93.1799L143.56 94.3699V90.9399H145.33Z" fill="url(#paint9_linear_263_2102)"/>
<defs>
<linearGradient id="paint0_linear_263_2102" x1="33.1099" y1="62.5901" x2="136.89" y2="62.5901" gradientUnits="userSpaceOnUse">
<stop stop-color="#A97A21"/>
<stop offset="0.01" stop-color="#AC7F23"/>
<stop offset="0.09" stop-color="#BF9730"/>
<stop offset="0.16" stop-color="#CAA638"/>
<stop offset="0.22" stop-color="#CEAC3B"/>
<stop offset="0.48" stop-color="#A97A21"/>
<stop offset="0.73" stop-color="#CEAC3B"/>
<stop offset="0.79" stop-color="#C7A338"/>
<stop offset="0.89" stop-color="#B68E30"/>
<stop offset="1" stop-color="#9E6E26"/>
</linearGradient>
<linearGradient id="paint1_linear_263_2102" x1="33.1099" y1="62.5901" x2="136.89" y2="62.5901" gradientUnits="userSpaceOnUse">
<stop stop-color="#A97A21"/>
<stop offset="0.01" stop-color="#AC7F23"/>
<stop offset="0.09" stop-color="#BF9730"/>
<stop offset="0.16" stop-color="#CAA638"/>
<stop offset="0.22" stop-color="#CEAC3B"/>
<stop offset="0.48" stop-color="#A97A21"/>
<stop offset="0.73" stop-color="#CEAC3B"/>
<stop offset="0.79" stop-color="#C7A338"/>
<stop offset="0.89" stop-color="#B68E30"/>
<stop offset="1" stop-color="#9E6E26"/>
</linearGradient>
<linearGradient id="paint2_linear_263_2102" x1="33.1099" y1="62.5899" x2="136.89" y2="62.5899" gradientUnits="userSpaceOnUse">
<stop stop-color="#A97A21"/>
<stop offset="0.01" stop-color="#AC7F23"/>
<stop offset="0.09" stop-color="#BF9730"/>
<stop offset="0.16" stop-color="#CAA638"/>
<stop offset="0.22" stop-color="#CEAC3B"/>
<stop offset="0.48" stop-color="#A97A21"/>
<stop offset="0.73" stop-color="#CEAC3B"/>
<stop offset="0.79" stop-color="#C7A338"/>
<stop offset="0.89" stop-color="#B68E30"/>
<stop offset="1" stop-color="#9E6E26"/>
</linearGradient>
<linearGradient id="paint3_linear_263_2102" x1="12.192" y1="86.0989" x2="155.728" y2="86.0954" gradientUnits="userSpaceOnUse">
<stop stop-color="#A97A21"/>
<stop offset="0.13" stop-color="#CFAE3D"/>
<stop offset="0.19" stop-color="#E7CC5C"/>
<stop offset="0.24" stop-color="#F5DF70"/>
<stop offset="0.27" stop-color="#FBE677"/>
<stop offset="0.48" stop-color="#A97A21"/>
<stop offset="0.65" stop-color="#CFAE3D"/>
<stop offset="0.73" stop-color="#E7CC5C"/>
<stop offset="0.8" stop-color="#F5DF70"/>
<stop offset="0.84" stop-color="#FBE677"/>
<stop offset="1" stop-color="#9E6E26"/>
</linearGradient>
<linearGradient id="paint4_linear_263_2102" x1="-1.36006" y1="106.3" x2="176.89" y2="106.3" gradientUnits="userSpaceOnUse">
<stop stop-color="#A97A21"/>
<stop offset="0.01" stop-color="#AC7F23"/>
<stop offset="0.09" stop-color="#BF9730"/>
<stop offset="0.16" stop-color="#CAA638"/>
<stop offset="0.22" stop-color="#CEAC3B"/>
<stop offset="0.48" stop-color="#A97A21"/>
<stop offset="0.73" stop-color="#CEAC3B"/>
<stop offset="0.79" stop-color="#C7A338"/>
<stop offset="0.89" stop-color="#B68E30"/>
<stop offset="1" stop-color="#9E6E26"/>
</linearGradient>
<linearGradient id="paint5_linear_263_2102" x1="-1.36007" y1="106.3" x2="176.89" y2="106.3" gradientUnits="userSpaceOnUse">
<stop stop-color="#A97A21"/>
<stop offset="0.01" stop-color="#AC7F23"/>
<stop offset="0.09" stop-color="#BF9730"/>
<stop offset="0.16" stop-color="#CAA638"/>
<stop offset="0.22" stop-color="#CEAC3B"/>
<stop offset="0.48" stop-color="#A97A21"/>
<stop offset="0.73" stop-color="#CEAC3B"/>
<stop offset="0.79" stop-color="#C7A338"/>
<stop offset="0.89" stop-color="#B68E30"/>
<stop offset="1" stop-color="#9E6E26"/>
</linearGradient>
<linearGradient id="paint6_linear_263_2102" x1="-1.36005" y1="106.3" x2="176.89" y2="106.3" gradientUnits="userSpaceOnUse">
<stop stop-color="#A97A21"/>
<stop offset="0.01" stop-color="#AC7F23"/>
<stop offset="0.09" stop-color="#BF9730"/>
<stop offset="0.16" stop-color="#CAA638"/>
<stop offset="0.22" stop-color="#CEAC3B"/>
<stop offset="0.48" stop-color="#A97A21"/>
<stop offset="0.73" stop-color="#CEAC3B"/>
<stop offset="0.79" stop-color="#C7A338"/>
<stop offset="0.89" stop-color="#B68E30"/>
<stop offset="1" stop-color="#9E6E26"/>
</linearGradient>
<linearGradient id="paint7_linear_263_2102" x1="-1.36005" y1="106.3" x2="176.89" y2="106.3" gradientUnits="userSpaceOnUse">
<stop stop-color="#A97A21"/>
<stop offset="0.01" stop-color="#AC7F23"/>
<stop offset="0.09" stop-color="#BF9730"/>
<stop offset="0.16" stop-color="#CAA638"/>
<stop offset="0.22" stop-color="#CEAC3B"/>
<stop offset="0.48" stop-color="#A97A21"/>
<stop offset="0.73" stop-color="#CEAC3B"/>
<stop offset="0.79" stop-color="#C7A338"/>
<stop offset="0.89" stop-color="#B68E30"/>
<stop offset="1" stop-color="#9E6E26"/>
</linearGradient>
<linearGradient id="paint8_linear_263_2102" x1="-1.36008" y1="106.3" x2="176.89" y2="106.3" gradientUnits="userSpaceOnUse">
<stop stop-color="#A97A21"/>
<stop offset="0.01" stop-color="#AC7F23"/>
<stop offset="0.09" stop-color="#BF9730"/>
<stop offset="0.16" stop-color="#CAA638"/>
<stop offset="0.22" stop-color="#CEAC3B"/>
<stop offset="0.48" stop-color="#A97A21"/>
<stop offset="0.73" stop-color="#CEAC3B"/>
<stop offset="0.79" stop-color="#C7A338"/>
<stop offset="0.89" stop-color="#B68E30"/>
<stop offset="1" stop-color="#9E6E26"/>
</linearGradient>
<linearGradient id="paint9_linear_263_2102" x1="139.65" y1="95.4299" x2="149.28" y2="95.4299" gradientUnits="userSpaceOnUse">
<stop stop-color="#CEAC3B"/>
<stop offset="0.78" stop-color="#A97C2A"/>
<stop offset="1" stop-color="#9E6E26"/>
</linearGradient>
</defs>
</svg>
