<svg width="597" height="456" viewBox="0 0 597 456" fill="none" xmlns="http://www.w3.org/2000/svg">
<path d="M424.093 73.1946L422.543 61.9798L417.139 63.0451L416.316 57.0794L404.288 55.7914L405.595 65.292L398.119 66.7543C398.274 59.365 398.119 52.1209 397.818 45.332L385.393 46.5136C385.945 53.593 386.148 61.2535 386.139 68.9528C383.011 69.4854 379.989 70.0084 377.277 70.4926L376.57 85.1841L385.877 80.9423C385.597 89.7359 384.919 97.9484 384.105 104.456C389.393 108.001 395.649 112.262 401.673 116.446C398.496 123.613 393.305 127.37 384.793 132.958C387.892 134.556 394.245 142.352 396.492 144.706C403.474 137.975 408.278 131.012 411.764 123.806C416.655 127.515 420.984 131.079 424.073 134.062C424.073 134.062 428.344 119.748 416.384 111.642C420.112 98.4132 419.783 85.2228 418.602 74.3858L424.102 73.1946H424.093ZM405.576 104.582C402.641 102.645 399.591 100.709 396.676 98.8781C397.218 92.709 397.528 85.7361 397.828 78.647L407.077 76.7198C407.881 84.9323 407.948 94.6459 405.576 104.582Z" fill="black"/>
<path d="M481.241 90.8882L460.139 92.3893L462.25 122.034C462.705 128.474 461.562 131.728 457.272 134.052C453.176 136.144 443.675 137.82 435.433 138.304C434.552 134.866 433.225 125.152 432.518 120.552C440.731 124.116 445.283 125.036 446.968 124.92C448.759 124.794 449.263 124.329 449.147 122.751L447.055 93.3191L424.897 94.8976L424.044 82.9759L446.203 81.3974L445.486 71.2673C449.738 66.9382 453.96 60.7014 457.262 54.9487L429.807 56.905L421.013 44.3054L465.339 41.1482L467.596 42.1167L476.467 47.6369C472.06 55.6945 465.727 65.0498 458.725 72.5456L459.287 80.458L480.389 78.9568L481.241 90.8785V90.8882Z" fill="black"/>
<path d="M595.045 57.7378L596.12 74.4824L580.16 75.4993L582.775 116.407C583.249 123.854 582.097 127.796 577.099 130.217C572.344 132.629 552.53 135.951 552.53 135.951L549.431 120.174C549.431 120.174 563.793 119.603 565.875 119.361C567.977 119.225 568.761 118.712 568.655 116.949L566.059 76.4L531.679 78.5984L530.836 65.4371L595.045 57.7378Z" fill="black"/>
<path d="M589.631 21.2561L591.5 41.8552L534.981 46.9784L533.809 33.9816L589.631 21.2561Z" fill="black"/>
<path d="M530.768 58.5804C527.65 64.7495 523.728 71.0736 519.437 77.1942L529.403 137.626L509.453 138.904L506.538 93.3481C503.477 96.699 500.514 99.8174 497.531 102.578C495.381 99.9046 488.582 90.7527 485.59 88.0119C496.95 79.1021 512.503 68.5556 519.118 54.9197L530.759 58.5804H530.768Z" fill="black"/>
<path d="M524.638 33.1391C516.949 44.625 505.133 57.4377 494.548 65.8342C492.611 62.9095 489.725 60.9242 487.101 58.3965C496.378 51.5979 505.821 37.0323 510.876 28.5195L524.628 33.1391H524.638Z" fill="black"/>
<path d="M185.291 223.548C184.748 215.287 183.896 206.842 180.361 199.356C174.357 186.669 161.554 178.64 148.673 173.043C131.561 165.605 112.685 161.189 94.1878 163.629C75.6902 166.07 57.6575 176.064 48.3506 192.238C40.9226 205.166 39.557 220.701 40.109 235.595C40.7482 252.795 43.6827 270.944 52.0889 286.178C54.7909 291.078 58.1902 295.766 62.9066 298.768C70.7317 303.746 80.4066 303.242 89.2874 303.804C99.3593 304.443 109.247 304.734 119.31 303.465C136.015 301.354 152.625 294.855 165.708 284.096C173.204 277.927 179.16 269.821 182.288 260.591C186.288 248.786 186.094 236.002 185.281 223.557L185.291 223.548Z" fill="#ACF8FC"/>
<path d="M261.441 281.558C283.599 266.944 289.168 238.375 284.325 213.747C281.991 201.874 277.992 188.654 266.941 182.166C256.308 175.929 243.011 176.113 231.089 175.522C215.981 174.766 199.149 175.861 185.92 184.47C170.851 194.281 164.043 212.381 161.505 229.484C159.026 246.229 157.631 272.561 175.451 281.704C198.404 293.49 239.524 296.008 261.45 281.549L261.441 281.558Z" fill="#ACF8FC"/>
<path d="M119.794 194.455C118.012 199.714 116.143 204.682 114.303 209.389L153.031 213.476L147.676 301.925L125.072 299.543L129.217 291.814L75.7193 286.168L74.8671 294.245L60.224 292.696L66.4899 243.43L67.7101 206.445L99.0495 207.781C100.405 203.026 101.684 197.855 102.846 192.664L55.372 191.405L61.2699 166.844L164.837 181.333L165.428 199.278L119.794 194.465V194.455ZM137.139 225.581L84.9293 222.153L83.283 239.818L134.592 243.188L137.129 225.581H137.139ZM132.442 276.009L133.643 257.773L82.3339 254.403L78.7699 272.484L132.452 276.009H132.442Z" fill="black"/>
<path d="M270.099 287.311L257.063 291.495L256.559 283.699L182.531 288.415L173.843 258.751C189.804 260.301 192.719 265.211 199.14 274.857L214.761 273.859L213.453 248.476L233.336 247.217L231.786 272.784L255.775 271.254L254.38 249.444L270.099 249.686V287.321V287.311Z" fill="black"/>
<path d="M269.333 228.187L249.955 229.426L249.035 215.035L267.997 213.825L269.333 199.23L198.113 206.232L197.619 198.581C218.916 196.082 241.5 192.334 258.894 188.015L248.434 173.072C231.738 177.469 206.926 186.282 183.48 189.158L186.308 233.484L170.667 231.112L171.664 246.684L216.339 243.837L230.169 242.965L274.602 240.128L269.333 228.187ZM200.04 232.622L199.14 218.396L235.399 216.081L236.309 230.308L200.04 232.622Z" fill="black"/>
<path d="M421.042 162.903C418.621 159.397 415.464 156.589 411.338 154.952C391.504 147.088 360.32 151.669 342.181 161.876C325.019 171.542 312.807 189.545 310.192 209.069C308.623 220.778 310.541 233.31 317.465 242.878C329.746 259.855 352.911 262.906 372.116 265.908C385.732 268.039 401.247 269.724 412.239 259.603C416.481 255.701 419.357 250.529 421.691 245.261C428.364 230.182 431.017 213.418 429.671 197.002C428.838 186.824 427.579 172.345 421.052 162.903H421.042Z" fill="#ACF8FC"/>
<path d="M506.567 266.441C506.799 266.392 507.032 266.344 507.254 266.295C525.82 262.344 542.516 247.149 545.896 228.099C549.692 206.745 536.289 186.988 519.36 175.318C501.25 162.835 478.578 159.242 457.03 158.012C443.52 157.247 430.039 159.581 420.635 169.885C411.648 179.744 406.835 193.671 406.728 206.929C406.428 246.781 444.014 264.136 478.365 267.225C487.759 268.068 497.318 268.3 506.557 266.441H506.567Z" fill="#ACF8FC"/>
<path d="M373.462 236.244L362.605 241.784C360.262 236.564 355.245 230.802 351.516 224.303L361.743 216.333C365.472 222.618 371.012 231.024 373.462 236.244Z" fill="black"/>
<path d="M421.817 252.97C421.817 252.97 419.851 268.271 419.125 275.079C405.072 271.67 388.647 256.882 385.81 243.178C381.025 252.97 369.472 259.574 352.001 264.049C350.829 260.746 350.132 255.846 347.585 253.192C376.551 246.8 378.149 235.082 378.895 209.534H391.465C391.243 214.958 391.039 220.071 390.507 224.758C391.785 229.233 393.489 233.271 395.717 236.787C399.126 231.247 403.281 223.054 405.401 216.875L419.173 224.632C415.028 231.77 410.883 237.503 407.154 242.297L396.143 237.416C400.588 250.568 421.807 252.97 421.807 252.97H421.817Z" fill="black"/>
<path d="M417.449 174.689C413.081 181.4 408.181 188.431 404.462 192.906L394.661 189.284C398.07 184.17 400.307 176.297 402.545 170.544L417.449 174.689Z" fill="black"/>
<path d="M417.13 206.106L409.363 215.907C404.143 211.326 394.022 204.934 384.647 199.927C379.64 207.278 371.331 212.604 357.172 216.12C356.107 213.04 352.911 208.139 350.461 205.689C371.283 201.108 376.803 193.4 378.517 178.747C379.001 174.66 379.185 170.04 379.321 164.791H391.882C391.572 174.592 391.039 182.795 389.112 189.719C399.019 194.62 410.835 201.225 417.12 206.115L417.13 206.106Z" fill="black"/>
<path d="M372.987 187.018L362.131 193.303C360.107 188.509 355.526 180.209 352.001 174.244L362.228 168.811C365.743 174.563 370.644 182.437 372.978 187.027L372.987 187.018Z" fill="black"/>
<path d="M347.584 188.122L340.902 194.349C336.728 190.775 327.663 185.913 321.175 182.805L331.537 172.568C338.006 175.241 343.217 184.771 347.584 188.131V188.122Z" fill="black"/>
<path d="M343.895 210.367L338.181 216.895C337.522 217.64 336.399 217.766 335.605 217.166C331.644 214.125 325.3 210.241 319.906 207.191C318.831 206.59 318.608 205.147 319.441 204.246L324.719 198.542C325.291 197.922 326.201 197.748 326.966 198.126C332.283 200.76 339.12 204.518 343.546 207.549C344.485 208.198 344.65 209.515 343.904 210.377L343.895 210.367Z" fill="black"/>
<path d="M351.526 234.298C342.122 257.134 318.085 256.882 318.085 256.882C324.235 249.783 334.811 241.764 340.35 226.647L351.526 234.298Z" fill="black"/>
<path d="M521.587 190.61L480.767 189.458L480.099 213.272L473.319 213.079L473.988 189.264L436.896 188.218L432.431 261.153L446.048 262.799L447.442 213.35L472.167 214.047L472.08 217.185L452.323 216.633L452.149 222.812L470.588 223.335C471.315 223.354 471.886 223.964 471.867 224.69C471.847 225.417 471.237 225.988 470.511 225.969L454.405 225.514L453.844 245.377L464.991 245.687C460.439 248.699 454.812 249.192 449.195 250.558C451.171 252.34 453.398 257.637 454.764 259.594C460.294 257.725 466.376 254.035 471.15 250.025L470.821 261.773L480.147 262.034L480.496 249.677C484.757 253.037 490.616 257.86 492.969 260.262L497.279 254.809C498.422 257.482 499.633 261.163 499.971 263.7C505.637 263.855 509.908 263.777 512.9 262.141C516.087 260.504 518.062 258.189 518.208 253.124L521.597 226.627V190.601L521.587 190.61ZM462.725 207.103L447.626 206.677L447.713 203.733L462.812 204.159L462.725 207.103ZM462.967 198.59L447.868 198.164L447.946 195.433L463.044 195.859L462.967 198.59ZM472.458 239.837L466.782 239.672L471.189 237.968C470.424 236.418 468.874 233.949 467.702 232.293L463.296 233.794C464.458 235.644 465.814 238.016 466.579 239.663L461.717 239.527L461.94 231.731L472.68 232.031L472.458 239.827V239.837ZM484.834 232.477C484.079 234.084 482.384 236.767 481.116 238.559L484.728 240.186L479.76 240.05L479.982 232.254L490.82 232.564L490.597 240.36L485.028 240.205C486.277 238.714 487.653 236.932 489.338 234.646L484.834 232.496V232.477ZM505.763 252.64C505.724 253.86 505.414 254.248 504.194 254.219C503.293 254.19 500.659 254.122 497.918 253.948C496.233 252.572 490.655 248.97 486.161 246.316L498.422 246.665L498.984 226.802L482.462 226.337C481.735 226.317 481.164 225.707 481.183 224.981C481.203 224.255 481.813 223.683 482.539 223.703L501.996 224.255L502.17 218.076L481.396 217.495L481.484 214.551L509.453 216.371V226.676L505.763 252.659V252.64ZM507.002 208.459L491.1 208.014L491.178 205.176L507.08 205.621L507.002 208.459ZM507.245 199.946L491.342 199.501L491.42 196.663L507.322 197.109L507.245 199.946Z" fill="black"/>
<path d="M524.561 171.338L523.786 182.621L506.286 181.41L505.986 185.758L494.054 184.935L494.354 180.587L480.593 179.638C484.215 175.047 488.834 171.793 495.032 170.68L494.267 162.583L508.862 164.811L506.973 171.503L524.57 171.348L524.561 171.338Z" fill="black"/>
<path d="M476.264 170.379L476.612 180.306L463.635 180.771L464.139 186.204C458.754 186.291 454.502 183.696 451.684 181.197L433.351 181.846L431.075 170.612L451.335 171.261L451.103 164.695L463.131 166.273L463.296 170.825L476.273 170.36L476.264 170.379Z" fill="black"/>
<path d="M376.369 357.427L359.208 356.043L358.191 363.306C357.523 368.09 356.158 370.211 352.429 371.538C348.623 372.777 343.916 372.865 337.186 372.865C336.943 370.211 337.244 369.378 336.914 364.371C341.214 364.633 344.478 364.458 345.805 364.458C347.219 364.458 347.713 364.1 347.877 362.957L348.846 356.052H322.455C325.322 358.357 328.043 361.011 329.515 363.132L321.08 369.601C319.124 366.502 314.446 361.989 310.534 358.977L314.398 356.052L296.723 357.398L295.232 346.358L350.037 347.549L350.599 343.569H338.909L341.65 324.083H376.718L373.977 343.569H360.961L360.4 347.549H377.754L376.369 357.427ZM360.671 310.97L301.052 309.392L301.982 302.748L361.6 304.327L362.075 300.957L313.536 296.172L314.495 289.354L374.607 294.139L372.079 303.523L384.272 302.768L383.139 310.825L370.946 311.581L369.6 321.139H311.599L312.567 314.234H360.206L360.671 310.961V310.97ZM300.161 337.622C303.803 337.535 308.258 337.361 313.168 337.09L313.981 331.337H302.466L303.009 322.737L337.137 324.074L336.12 331.337H323.898L323.153 336.654L336.788 336.034L335.665 343.385C322.785 344.266 309.304 345.07 299.58 345.603L300.171 337.632L300.161 337.622ZM349.601 336.828H364.477L365.319 330.805H350.444L349.601 336.828Z" fill="black"/>
<path d="M443.948 361.098C450.844 363.045 457.633 365.175 462.107 366.763L450.582 373.804C445.081 371.325 437.101 367.035 427.465 364.371L431.736 361.098H415.708L419.776 364.284C411.912 367.916 399.322 371.189 389.105 372.7C387.875 370.753 385.482 367.567 383.71 365.708C390.916 364.827 399.225 363.054 405.607 361.108H395.952L400.067 331.792H458.156L454.04 361.108H443.948V361.098ZM398.615 308.762H393.395L395.312 295.127H427.543C427.291 293.8 425.025 291.233 424.657 290.081L438.438 288.25C439.164 290.023 438.806 293.093 439.319 295.136H471.375L469.458 308.772H462.465L461.991 312.142H452.248L451.899 314.622L467.83 312.985L467.094 318.205L451.163 319.842L450.544 324.267H455.415L455.928 320.636H463.637L462.388 329.487H429.179L430.429 320.636H437.692L437.179 324.267H441.876L442.496 319.842H428.066L428.802 314.622H431.726C430.535 313.644 429.247 312.762 428.075 312.23C431.901 309.576 434.845 306.293 436.685 303.281H403.651L403.225 306.293H428.376L427.543 312.23H417.8L417.422 314.883H426.545L425.809 320.103H416.686L416.338 322.582L427.039 322.05L425.945 328.606C414.052 329.4 401.646 330.107 392.727 330.553V321.943C392.727 321.943 402.159 323.289 407.602 323.028L408.009 320.103H398.266L399.002 314.883H408.745L409.123 312.23H398.14L398.624 308.772L398.615 308.762ZM409.026 339.937H446.311L446.689 337.284H409.403L409.026 339.937ZM407.931 347.733H445.217L445.604 344.993H408.319L407.931 347.733ZM406.827 355.616H444.113L444.5 352.876H407.215L406.827 355.616ZM443.58 312.133H438.002C437.256 313.014 436.443 313.818 435.532 314.612H443.232L443.58 312.133ZM460.412 303.281H438.448L443.89 304.259C443.319 305.14 442.757 306.031 442.205 306.826H459.918L460.412 303.281Z" fill="black"/>
<path d="M500.533 357.292C505.588 359.771 512.494 360.391 521.084 360.391C527.456 360.391 549.944 360.478 557.604 360.13C555.764 362.522 553.217 370.618 552.065 373.814L519.573 370.492C502.393 370.492 491.749 368.1 485.977 356.856C484.021 362.609 481.387 368.1 477.774 372.971C475.518 369.543 471.257 363.897 469.446 362.928C476.457 352.75 481.348 342.513 482.694 330.466L491.294 330.998C490.936 334.184 490.461 337.555 489.929 340.741C490.519 344.102 491.362 346.939 492.543 349.244L495.991 324.713H480.496L481.803 315.416H494.732L495.739 308.239L483.217 307.668L485.483 295.223L497.018 299.126L498.286 290.091H507.671L506.402 299.126H514.634L513.356 308.249H505.124L504.116 315.425H513.946L512.639 324.723H505.114L503.855 333.671H511.293L510.014 342.794H502.577L500.533 357.321V357.292ZM519.002 302.119H515.196L516.445 293.267H545.76L544.83 299.911H557.401L558.941 299.649L564.2 301.334C561.42 312.937 557.876 323.648 553.837 332.858C556.016 340.034 562.447 347.055 562.447 347.055L554.35 355.616C551.755 352.343 551.387 350.532 547.939 344.634C544.792 350.038 541.383 354.726 537.877 358.27C537.141 356.585 535.427 354.29 533.906 352.517L533.006 358.89H524.774L526.275 348.179C520.474 349.777 514.76 351.365 509.792 352.692L509.056 344.102L513.249 343.22L519.021 302.129L519.002 302.119ZM532.725 302.119H527.146L526.129 309.382H531.708L532.725 302.119ZM523.95 324.878H529.529L530.584 317.353H525.006L523.95 324.878ZM527.418 339.927L528.415 332.848H522.837L521.655 341.264L527.418 339.937V339.927ZM546.574 312.656C547.716 315.222 548.733 318.06 549.828 320.984C551.29 316.907 552.694 312.568 553.837 308.23H542.148L543.01 302.119H540.976L539.175 314.961L546.583 312.656H546.574ZM534.371 349.05C538.245 344.799 541.683 339.221 544.792 332.848C543.058 326.911 541.16 320.897 539.068 315.58L534.361 349.05H534.371Z" fill="black"/>
<path d="M238.121 377.148C215.932 377.148 215.932 379.766 193.742 379.766C171.552 379.766 171.552 379.854 149.363 379.854C127.173 379.854 127.173 377.353 104.973 377.353C82.7835 377.353 82.7835 380 60.5837 380C59.6747 380 60.1898 377.703 60.1898 376.817C60.1898 353.039 60.0989 353.039 60.0989 329.251C60.0989 328.375 59.6747 326 60.5837 326C82.7734 326 82.7734 326.457 104.963 326.457C127.153 326.457 127.153 329.047 149.342 329.047C171.532 329.047 171.532 327.071 193.732 327.071C215.932 327.071 215.922 327.859 238.121 327.859C239.03 327.859 241 328.365 241 329.241C241 353.019 238.818 353.019 238.818 376.807C238.818 377.683 239.03 377.138 238.121 377.138V377.148Z" fill="#0459FF"/>
<path d="M97.1279 360.936C96.1013 363.076 94.3678 365.371 92.7892 366.804C92.1403 366.185 90.7941 365.187 90 364.722C91.5302 363.579 93.0506 361.73 93.8738 359.967L97.1279 360.936ZM104.643 359.764H90.2325V356.713H92.8763V345.828H90.5908V342.777H92.8763V339.668H96.0141V342.777H99.6555V339.668H102.851V342.777H104.846V345.828H102.851V356.713H104.643V359.764ZM96.0141 345.828V347.532H99.6555V345.828H96.0141ZM96.0141 352.045H99.6555V350.195H96.0141V352.045ZM96.0141 356.713H99.6555V354.718H96.0141V356.713ZM116.7 362.843C116.7 364.577 116.381 365.487 115.354 366.039C114.328 366.601 112.827 366.688 110.657 366.659C110.541 365.749 110.096 364.219 109.66 363.347C110.919 363.434 112.333 363.405 112.739 363.405C113.175 363.405 113.33 363.26 113.33 362.785V357.004H108.866C108.546 360.471 107.81 364.131 106.222 366.775C105.66 366.156 104.227 365.1 103.462 364.809C103.549 364.635 103.665 364.49 103.752 364.306L101.312 365.681C100.721 364.538 99.3166 362.601 98.1738 361.245L100.818 359.802C101.873 360.974 103.258 362.592 103.985 363.793C105.689 360.122 105.834 355.164 105.834 351.348V340.579H116.691V362.824L116.7 362.843ZM113.33 353.895V350.283H109.108V351.367C109.108 352.132 109.108 352.985 109.079 353.895H113.33ZM109.108 343.765V347.203H113.33V343.765H109.108Z" fill="#EFEFEF"/>
<path d="M125.93 351.009V366.708H122.463V340.414H133.707V351.009H125.93ZM125.93 342.942V344.501H130.453V342.942H125.93ZM130.453 348.52V346.845H125.93V348.52H130.453ZM147.236 362.582C147.236 364.461 146.858 365.487 145.677 366.049C144.534 366.64 142.829 366.727 140.302 366.727C140.215 365.991 139.895 364.906 139.537 363.996H132.254V365.487H129.087V352.81H130.52V352.781L140.379 352.81V363.202C141.522 363.231 142.607 363.231 142.994 363.202C143.527 363.202 143.701 363.028 143.701 362.553V351.077H135.721V340.424H147.226V362.582H147.236ZM137.106 355.367H132.264V357.13H137.106V355.367ZM137.106 361.439V359.619H132.264V361.439H137.106ZM139.043 342.951V344.511H143.711V342.951H139.043ZM143.711 348.588V346.854H139.043V348.588H143.711Z" fill="#EFEFEF"/>
<path d="M162.973 341.625C162.208 344.094 161.24 347.058 160.446 349.314C162.208 351.6 162.557 353.692 162.557 355.415C162.557 357.294 162.179 358.553 161.24 359.26C160.804 359.609 160.242 359.783 159.593 359.909C159.061 359.996 158.363 359.996 157.686 359.967C157.686 359.115 157.395 357.827 156.92 356.975C157.424 357.004 157.86 357.033 158.179 357.004C158.47 357.004 158.77 356.946 158.974 356.771C159.322 356.51 159.506 355.861 159.506 355.038C159.506 353.604 159.129 351.726 157.453 349.672C158.015 347.881 158.654 345.508 159.129 343.571H156.281V366.669H153.231V340.462H160.213L160.717 340.317L162.973 341.634V341.625ZM178.788 356.713C177.529 357.711 175.999 358.824 174.682 359.677C175.912 361.352 177.5 362.727 179.437 363.609C178.672 364.287 177.616 365.662 177.123 366.63C172.745 364.219 170.401 359.706 169.026 353.953H167.264V362.204L171.341 361.294C171.312 362.291 171.37 363.734 171.486 364.461C165.763 365.933 164.678 366.369 163.971 366.805C163.709 366.039 162.973 364.664 162.47 364.073C163.09 363.696 163.816 362.902 163.816 361.517V340.472H177.084V353.943H172.009C172.329 355.086 172.716 356.142 173.181 357.139C174.382 356.229 175.68 355.144 176.532 354.234L178.788 356.704V356.713ZM167.254 343.474V345.76H173.714V343.474H167.254ZM167.254 350.931H173.714V348.588H167.254V350.931Z" fill="#EFEFEF"/>
<path d="M198.225 362.601C199.31 362.747 200.453 362.805 201.692 362.805C203.252 362.805 208.094 362.805 210.089 362.747C209.556 363.57 209.004 365.245 208.83 366.301H201.518C196.027 366.301 192.008 365.39 189.335 361.139C188.366 363.425 187.078 365.332 185.403 366.775C184.841 366.156 183.35 364.926 182.556 364.461C185.722 362.088 187.195 358.001 187.717 353.014L191.272 353.333C191.126 354.563 190.894 355.774 190.652 356.887C191.533 359.299 192.879 360.703 194.584 361.584V351.638H188.337V348.288H204.481V351.638H198.235V355.105H206.273V358.389H198.235V362.611L198.225 362.601ZM187.311 349.75H183.873V342.409H194.758C194.468 341.586 194.109 340.734 193.732 339.968L197.257 339C197.848 340.027 198.458 341.344 198.787 342.409H208.975V349.75H205.363V345.702H187.311V349.75Z" fill="#EFEFEF"/>
<path d="M176.349 417.017C183.486 410.208 188.193 405.55 188.193 401.589C188.193 398.887 186.711 397.26 184.087 397.26C182.092 397.26 180.465 398.597 179.051 400.107L176.087 397.144C178.605 394.442 181.046 392.96 184.784 392.96C189.965 392.96 193.403 396.253 193.403 401.289C193.403 405.947 189.113 410.76 184.222 415.864C185.588 415.719 187.408 415.564 188.696 415.564H194.691V420.155H176.339V417.007L176.349 417.017Z" fill="#0459FF"/>
<path d="M198.187 406.693C198.187 397.667 201.848 392.97 207.475 392.97C213.102 392.97 216.724 397.706 216.724 406.693C216.724 415.68 213.102 420.677 207.475 420.677C201.848 420.677 198.187 415.758 198.187 406.693ZM211.581 406.693C211.581 399.294 209.838 397.221 207.475 397.221C205.112 397.221 203.33 399.294 203.33 406.693C203.33 414.092 205.102 416.426 207.475 416.426C209.848 416.426 211.581 414.131 211.581 406.693Z" fill="#0459FF"/>
<path d="M219.949 417.016C227.086 410.208 231.793 405.55 231.793 401.589C231.793 398.887 230.311 397.26 227.687 397.26C225.692 397.26 224.065 398.596 222.651 400.107L219.687 397.144C222.205 394.442 224.646 392.96 228.384 392.96C233.565 392.96 237.003 396.253 237.003 401.289C237.003 405.947 232.713 410.76 227.822 415.864C229.188 415.719 231.008 415.564 232.296 415.564H238.291V420.154H219.939V417.007L219.949 417.016Z" fill="#0459FF"/>
<path d="M241.119 416.939L243.637 413.462C245.187 414.983 247.114 416.242 249.671 416.242C252.518 416.242 254.523 414.576 254.523 411.583C254.523 408.591 252.673 406.954 249.893 406.954C248.266 406.954 247.375 407.361 245.787 408.397L243.308 406.809L244.044 393.493H258.697V398.044H248.741L248.218 403.855C249.332 403.371 250.252 403.119 251.511 403.119C256.101 403.119 259.946 405.705 259.946 411.409C259.946 417.113 255.433 420.697 250.358 420.697C246.029 420.697 243.143 418.992 241.109 416.958L241.119 416.939Z" fill="#0459FF"/>
<path d="M264.575 417.123C264.575 415.089 266.018 413.569 267.945 413.569C269.873 413.569 271.354 415.089 271.354 417.123C271.354 419.157 269.911 420.677 267.945 420.677C265.979 420.677 264.575 419.118 264.575 417.123Z" fill="#0459FF"/>
<path d="M275.606 406.693C275.606 397.667 279.267 392.97 284.893 392.97C290.52 392.97 294.142 397.706 294.142 406.693C294.142 415.68 290.52 420.677 284.893 420.677C279.267 420.677 275.606 415.758 275.606 406.693ZM289 406.693C289 399.294 287.256 397.221 284.893 397.221C282.53 397.221 280.748 399.294 280.748 406.693C280.748 414.092 282.521 416.426 284.893 416.426C287.266 416.426 289 414.131 289 406.693Z" fill="#0459FF"/>
<path d="M296.738 416.871L299.294 413.433C300.921 415.022 302.916 416.242 305.396 416.242C308.175 416.242 310.054 414.905 310.054 412.61C310.054 410.024 308.466 408.426 302.51 408.426V404.504C307.546 404.504 309.173 402.838 309.173 400.543C309.173 398.471 307.836 397.25 305.512 397.25C303.556 397.25 301.958 398.18 300.331 399.691L297.551 396.359C299.924 394.287 302.548 392.95 305.764 392.95C311.051 392.95 314.644 395.536 314.644 400.127C314.644 403.013 312.94 405.008 310.093 406.16V406.344C313.163 407.158 315.535 409.414 315.535 412.93C315.535 417.811 311.129 420.668 305.919 420.668C301.59 420.668 298.665 419.041 296.738 416.852V416.871Z" fill="#0459FF"/>
<path d="M320.203 417.123C320.203 415.089 321.646 413.569 323.574 413.569C325.501 413.569 326.973 415.089 326.973 417.123C326.973 419.157 325.53 420.677 323.574 420.677C321.617 420.677 320.203 419.118 320.203 417.123Z" fill="#0459FF"/>
<path d="M330.566 416.871L333.123 413.433C334.75 415.022 336.745 416.242 339.224 416.242C342.003 416.242 343.882 414.905 343.882 412.61C343.882 410.024 342.294 408.426 336.338 408.426V404.504C341.374 404.504 343.001 402.838 343.001 400.543C343.001 398.471 341.664 397.25 339.34 397.25C337.374 397.25 335.786 398.18 334.159 399.691L331.379 396.359C333.752 394.287 336.377 392.95 339.592 392.95C344.88 392.95 348.473 395.536 348.473 400.127C348.473 403.013 346.768 405.008 343.921 406.16V406.344C346.991 407.158 349.364 409.414 349.364 412.93C349.364 417.811 344.957 420.668 339.747 420.668C335.418 420.668 332.493 419.041 330.566 416.852V416.871Z" fill="#0459FF"/>
<path d="M354.438 415.758H360.327V399.139H355.368V395.769C358.109 395.246 359.997 394.548 361.731 393.473H365.76V415.748H370.902V420.154H354.438V415.748V415.758Z" fill="#0459FF"/>
<path d="M74.273 438.478H66.477V436.802H74.273V438.478ZM73.6435 441.373H67.0193V439.746H73.6435V441.373ZM67.0483 442.797H73.6726V444.424H67.0483V442.797ZM73.6242 452.559H68.8787V453.508H67.0968V445.915H73.6242V452.559ZM68.8787 447.591V450.864H71.8132V447.591H68.8787ZM70.099 436.744C69.915 435.931 69.4211 434.643 69.0143 433.674L70.7769 433.151C71.2321 434.081 71.7454 435.32 71.9778 436.115L70.099 436.744ZM85.8945 451.794C85.8945 452.724 85.6912 453.218 85.0326 453.489C84.4031 453.779 83.3863 453.808 81.982 453.779C81.8948 453.285 81.643 452.559 81.3912 452.085C82.3403 452.133 83.27 452.133 83.5412 452.104C83.8317 452.104 83.9286 452.017 83.9286 451.765V450.274H77.3043C77.0816 451.649 76.578 453.005 75.6773 454.05C75.3868 453.663 74.612 452.917 74.2053 452.695C75.5417 451.068 75.6773 448.85 75.6773 447.087V443.02H85.8945V451.784V451.794ZM87.0955 440.289V441.867H74.4861V440.289H79.6383V439.02H75.319V437.529H79.6383V436.376H74.7767V434.836H79.6383V433.093H81.6721V434.836H86.8436V436.376H81.6721V437.529H86.4175V439.02H81.6721V440.289H87.0955ZM83.9286 448.85V447.446H77.5755C77.5755 447.872 77.5561 448.375 77.5077 448.85H83.9286ZM77.5755 444.627V446.003H83.9286V444.627H77.5755Z" fill="#2779FC"/>
<path d="M110.3 436.376V438.39H98.1456C97.3805 439.998 96.4992 441.528 95.4532 442.932V453.779H93.3517V445.373C92.6254 446.07 91.8409 446.748 90.9984 447.339C90.7756 446.777 90.3011 445.867 89.9621 445.373C92.451 443.678 94.3686 441.151 95.7728 438.39H90.5722V436.376H96.6735C97.1481 435.272 97.487 434.158 97.7776 433.054L99.9663 433.597C99.6757 434.526 99.3561 435.446 98.9978 436.376H110.3ZM104.605 451.31H110.28V453.276H96.7897V451.31H102.484V445.48H97.6517V443.533H102.484V439.465H104.605V443.533H109.418V445.48H104.605V451.31Z" fill="#2779FC"/>
<path d="M117.999 443.465C117.069 442.836 115.2 441.751 113.844 441.044L114.997 439.485C116.285 440.114 118.202 441.112 119.151 441.722L117.999 443.465ZM114.29 452.123C115.491 450.428 117.224 447.533 118.541 444.986L120.052 446.39C118.9 448.714 117.389 451.426 116.052 453.527L114.29 452.123ZM119.055 437.364C118.125 436.705 116.256 435.621 114.919 434.875L116.091 433.383C117.399 434.013 119.326 435.03 120.294 435.669L119.055 437.364ZM128.458 441.635V444.976H133.117V453.673H131.131V452.84H123.655V453.789H121.737V444.976H126.483V441.635H120.197V439.62H126.483V436.415C124.904 436.666 123.277 436.841 121.786 436.957C121.698 436.463 121.427 435.669 121.176 435.194C125.04 434.788 129.427 434.061 131.906 433.141L133.552 434.768C132.109 435.311 130.347 435.737 128.468 436.076V439.62H134.453V441.635H128.468H128.458ZM131.122 446.874H123.645V450.942H131.122V446.874Z" fill="#2779FC"/>
<path d="M157.764 438.226C157.764 438.226 157.745 438.952 157.745 439.194C157.493 448.53 157.289 451.736 156.573 452.704C156.147 453.382 155.672 453.566 154.965 453.673C154.287 453.76 153.251 453.76 152.186 453.692C152.137 453.13 151.914 452.268 151.595 451.707C152.631 451.794 153.561 451.794 153.968 451.794C154.355 451.794 154.558 451.726 154.781 451.435C155.275 450.806 155.507 447.93 155.682 440.163H153.018C152.728 446.177 151.711 450.961 147.818 453.944C147.498 453.469 146.801 452.724 146.307 452.385C146.443 452.297 146.578 452.181 146.714 452.065C143.46 452.452 140.206 452.791 137.785 453.014L137.513 451.232C138.821 451.145 140.448 451.009 142.24 450.845V449.13H138.124V447.591H142.24V446.438H138.191V439.64H142.24V438.468H137.581V436.909H142.24V435.64C140.864 435.756 139.479 435.824 138.22 435.863C138.153 435.437 137.93 434.759 137.726 434.352C141.068 434.168 145.067 433.761 147.421 433.248L148.418 434.826C147.217 435.078 145.726 435.301 144.167 435.456V436.899H148.728V438.206H151.101C151.12 436.666 151.12 435.069 151.12 433.374H153.135C153.135 435.049 153.115 436.676 153.086 438.206H157.764V438.226ZM139.915 442.409H142.24V441.034H139.915V442.409ZM142.24 445.073V443.697H139.915V445.073H142.24ZM144.157 450.68C145.561 450.544 147.004 450.409 148.428 450.254C150.278 447.697 150.849 444.288 151.023 440.172H148.631V438.477H144.157V439.649H148.36V446.448H144.157V447.6H148.409V449.14H144.157V450.68ZM146.578 442.409V441.034H144.157V442.409H146.578ZM144.157 443.697V445.073H146.578V443.697H144.157Z" fill="#2779FC"/>
<path d="M166.16 449.295C165.347 450.99 164.04 452.733 162.819 453.837C162.461 453.479 161.647 452.888 161.144 452.598C162.364 451.629 163.517 450.177 164.175 448.753L166.16 449.295ZM172.213 448.395H161.212V446.564H163.313V437.751H161.483V435.921H163.313V433.325H165.211V435.921H168.737V433.325H170.683V435.921H172.31V437.751H170.683V446.564H172.223V448.395H172.213ZM165.211 437.751V439.446H168.737V437.751H165.211ZM165.211 442.971H168.737V441.092H165.211V442.971ZM165.211 446.564H168.737V444.618H165.211V446.564ZM169.027 448.685C169.908 449.702 170.993 451.077 171.468 451.988L169.773 453.004C169.318 452.104 168.281 450.632 167.419 449.566L169.027 448.685ZM181.23 451.329C181.23 452.433 180.978 453.043 180.281 453.363C179.603 453.721 178.518 453.77 176.843 453.75C176.775 453.208 176.504 452.278 176.232 451.765C177.298 451.813 178.421 451.784 178.721 451.784C179.06 451.765 179.196 451.668 179.196 451.31V446.293H175.041C174.789 448.985 174.247 451.852 172.959 453.905C172.62 453.518 171.739 452.908 171.284 452.685C173.066 449.75 173.23 445.518 173.23 442.293V434.158H181.23V451.329ZM179.196 444.395V441.092H175.216V442.293C175.216 442.952 175.216 443.669 175.167 444.395H179.186H179.196ZM175.216 436.056V439.243H179.196V436.056H175.216Z" fill="#2779FC"/>
<path d="M188.115 441.838V453.818H186.033V433.984H194.372V441.848H188.115V441.838ZM188.115 435.553V437.112H192.386V435.553H188.115ZM192.386 440.279V438.603H188.115V440.279H192.386ZM204.705 451.193C204.705 452.394 204.453 453.072 203.64 453.431C202.846 453.77 201.606 453.789 199.708 453.789C199.621 453.227 199.32 452.317 199.049 451.736H192.948V452.869H191.03V443.397H199.504V451.668C200.608 451.716 201.693 451.687 202.061 451.687C202.468 451.668 202.584 451.552 202.584 451.164V441.877H196.163V433.965H204.705V451.184V451.193ZM192.958 444.976V446.739H197.548V444.976H192.958ZM197.548 450.148V448.269H192.958V450.148H197.548ZM198.178 435.553V437.112H202.584V435.553H198.178ZM202.584 440.318V438.603H198.178V440.318H202.584Z" fill="#2779FC"/>
<path d="M227.987 451.242C227.987 452.443 227.735 453.092 226.902 453.431C226.069 453.77 224.713 453.789 222.815 453.789C222.728 453.179 222.389 452.23 222.07 451.639C223.445 451.707 224.917 451.687 225.324 451.687C225.73 451.668 225.866 451.552 225.866 451.213V446.739C225.391 447.145 224.713 447.978 224.374 448.55C221.711 447.107 220.055 444.773 219.087 441.79C218.118 444.928 216.375 447.232 213.596 448.685C213.344 448.23 212.763 447.513 212.307 447.078V453.808H210.187V438.061H218.273C218.186 437.364 218.118 436.618 218.05 435.872H214.138V434.023H219.881C219.949 435.466 220.065 436.822 220.288 438.071H227.996V451.242H227.987ZM212.307 446.952C215.039 445.576 216.733 443.31 217.527 440.124H212.307V446.952ZM220.733 440.124C221.595 443.194 223.154 445.46 225.866 446.719V440.124H220.733Z" fill="#2779FC"/>
<path d="M250.126 451.552C250.891 451.552 251.026 451.164 251.123 448.685C251.598 449.043 252.479 449.382 253.021 449.518C252.799 452.685 252.227 453.469 250.31 453.469H247.143C244.838 453.469 244.296 452.859 244.296 450.777V445.712H240.751C240.431 450.235 239.308 452.646 233.584 453.828C233.4 453.285 232.858 452.472 232.48 452.046C237.516 451.145 238.359 449.402 238.601 445.722H232.771V443.756H252.673V445.722H246.417V450.787C246.417 451.465 246.552 451.552 247.414 451.552H250.126ZM235.396 440.773H233.294V435.533H241.768C241.516 434.856 241.158 434.09 240.819 433.48L242.94 432.851C243.434 433.664 243.957 434.701 244.276 435.543H252.121V440.783H249.951V437.548H235.405V440.783L235.396 440.773ZM236.732 441.538V439.62H248.663V441.538H236.732Z" fill="#2779FC"/>
<path d="M275.335 440.782C274.386 443.698 273.049 446.254 271.403 448.424C272.168 450.341 273.049 451.523 273.998 451.523C274.589 451.523 274.86 450.37 274.996 447.455C275.49 447.949 276.235 448.424 276.807 448.627C276.468 452.607 275.703 453.663 273.843 453.663C272.197 453.663 270.88 452.394 269.863 450.273C268.575 451.629 267.151 452.782 265.592 453.731C265.272 453.276 264.527 452.394 264.052 452.017C265.931 450.98 267.597 449.663 268.982 448.065C268.168 445.509 267.645 442.284 267.374 438.758H260.14V441.489H265.815V442.303C265.699 447.203 265.592 449.15 265.117 449.779C264.711 450.254 264.285 450.438 263.674 450.506C263.113 450.593 262.096 450.593 261.011 450.554C260.963 449.944 260.759 449.131 260.45 448.588C261.379 448.675 262.261 448.704 262.619 448.704C262.938 448.704 263.161 448.637 263.316 448.433C263.568 448.114 263.704 446.826 263.771 443.417H260.159C260.14 446.622 259.752 451.145 257.767 454.06C257.409 453.634 256.479 452.888 256.004 452.617C257.815 449.905 257.97 446.022 257.97 443.107V436.715H267.258C267.19 435.543 267.142 434.323 267.142 433.122H269.359C269.34 434.342 269.359 435.543 269.427 436.715H273.785C272.904 435.969 271.432 435.001 270.241 434.342L271.509 433.054C272.846 433.751 274.541 434.797 275.422 435.563L274.337 436.715H276.642V438.768H269.543C269.766 441.46 270.134 443.901 270.647 445.906C271.732 444.23 272.565 442.361 273.224 440.279L275.344 440.802L275.335 440.782Z" fill="#2779FC"/>
<path d="M281.233 434.042H285.997V435.466H283.17V454.447H285.997V455.89H281.233V434.042Z" fill="#2779FC"/>
<path d="M309.24 437.161H296.04C296.496 437.926 297.057 438.943 297.348 439.553L295.701 440.182H301.105C301.628 439.301 302.239 438.061 302.577 437.199L304.679 437.654C304.185 438.516 303.643 439.417 303.1 440.182H308.098V451.658C308.098 452.695 307.846 453.13 307.129 453.402C306.403 453.673 305.231 453.692 303.352 453.692C303.265 453.198 302.994 452.54 302.742 452.085C304.03 452.133 305.318 452.133 305.638 452.104C306.025 452.104 306.161 451.988 306.161 451.649V441.867H302.074V442.952C302.074 443.446 302.093 443.63 302.5 443.63H304.127C304.447 443.63 305.076 443.61 305.396 443.514C305.444 444.008 305.463 444.511 305.531 444.986C305.241 445.073 304.65 445.102 304.156 445.102H302.055C300.495 445.102 300.205 444.405 300.205 442.933V441.867H298.055C297.716 444.085 296.699 445.325 293.6 446.003C293.445 445.547 293.038 444.918 292.651 444.579V453.75H290.665V440.172H295.459C295.188 439.495 294.626 438.41 294.22 437.664L295.73 437.141H289.494V435.359H298.597C298.394 434.73 298.123 434.003 297.9 433.413L299.914 432.919C300.234 433.684 300.592 434.633 300.815 435.359H309.27V437.141L309.24 437.161ZM292.631 444.569C295.091 444.114 295.905 443.349 296.176 441.877H292.631V444.569ZM296.815 450.99V451.988H295.053V445.731H303.478V451H296.815V450.99ZM296.815 447.242V449.479H301.764V447.242H296.815Z" fill="#2779FC"/>
<path d="M313.618 443.92H321.801V453.663H319.719V452.646H315.603V453.818H313.618V443.92ZM315.603 445.935V450.632H319.719V445.935H315.603ZM329.433 441.732H316.804V434.023H329.433V441.732ZM327.283 436.037H318.809V439.717H327.283V436.037ZM332.59 443.92V453.702H330.488V452.636H326.014V453.808H324V443.911H332.59V443.92ZM330.488 450.632V445.935H326.014V450.632H330.488Z" fill="#2779FC"/>
<path d="M353.838 451.6C354.652 451.6 354.806 451.261 354.903 449.005C355.358 449.344 356.211 449.663 356.782 449.799C356.53 452.733 355.969 453.479 354.003 453.479H350.545C348.153 453.479 347.562 452.888 347.562 450.854V446.041H345.751C345.228 450.041 343.805 452.665 338.071 454.021C337.887 453.479 337.345 452.646 336.919 452.21C342.023 451.174 343.137 449.179 343.563 446.041H340.667V438.971C339.766 439.649 338.837 440.26 337.887 440.753C337.5 440.327 336.648 439.514 336.106 439.146C338.933 437.877 341.616 435.756 343.107 433.316L345.296 434.061C344.26 435.737 342.788 437.248 341.229 438.536H352.976V446.041H349.654V450.835C349.654 451.494 349.809 451.6 350.787 451.6H353.838ZM342.904 444.143H350.652V440.434H342.904V444.143ZM355.262 440.908C353.819 439.078 350.671 436.299 348.095 434.381L349.858 433.316C352.385 435.127 355.601 437.79 357.179 439.64L355.262 440.908Z" fill="#2779FC"/>
<path d="M374.253 448.579C373.391 451.203 371.474 452.898 367.048 453.847C366.864 453.353 366.389 452.607 366.012 452.201C369.624 451.542 371.28 450.39 372.113 448.588H366.689V446.893H368.452V440.318C368.316 440.434 368.181 440.569 368.045 440.676C367.793 440.269 367.251 439.611 366.825 439.301V439.436H364.723V443.252L366.709 442.623L367.048 444.501L364.723 445.296V451.281C364.723 452.346 364.52 452.956 363.929 453.295C363.3 453.634 362.419 453.721 361.034 453.721C360.985 453.179 360.743 452.249 360.472 451.668C361.305 451.687 362.099 451.687 362.351 451.687C362.622 451.687 362.709 451.6 362.709 451.3V445.993C361.915 446.264 361.131 446.516 360.453 446.738L359.93 444.724C360.724 444.501 361.673 444.23 362.709 443.911V439.436H360.201V437.49H362.709V433.083H364.723V437.49H366.825V439.233C369.014 437.47 370.418 435.049 371.144 433.112L373.11 433.403C372.926 433.877 372.704 434.352 372.481 434.826H375.648L375.967 434.759L377.207 435.553C376.781 436.483 376.103 437.567 375.493 438.487H379.444V446.893H380.848V448.588H374.272L374.253 448.579ZM371.541 436.492C371.135 437.17 370.679 437.829 370.166 438.478H373.469C373.875 437.887 374.302 437.189 374.64 436.492H371.541ZM372.626 446.884C372.762 446.274 372.829 445.576 372.897 444.831H374.931C374.863 445.557 374.776 446.254 374.66 446.884H377.643V443.833L376.81 444.831C376.151 444.172 374.931 443.291 373.827 442.593C373.149 443.494 372.336 444.308 371.57 444.918C371.28 444.647 370.602 444.153 370.215 443.949C371.551 443.049 372.742 441.664 373.42 440.172H370.186V446.884H372.626ZM377.643 440.172H374.64L375.163 440.308C375.009 440.695 374.805 441.054 374.573 441.441C375.677 442.07 376.926 442.913 377.643 443.543V440.172ZM375.832 448.598C377.507 449.799 379.831 451.532 381.003 452.578L379.647 453.915C378.543 452.83 376.258 451.019 374.563 449.731L375.832 448.598Z" fill="#2779FC"/>
<path d="M383.802 454.447H386.63V435.466H383.802V434.042H388.596V455.89H383.802V454.447Z" fill="#2779FC"/>
<path d="M76.055 411.593C77.4496 413.802 79.1057 416.746 79.8223 418.576L77.5077 419.835C77.2365 419.157 76.8782 418.256 76.4134 417.298C69.76 419.535 68.7722 419.941 68.1233 420.435C67.9587 419.67 67.5229 418.44 67.0871 417.84C67.6101 417.569 68.288 417.046 68.288 416.039V397.493H79.1153V410.509H70.8738V416.591L75.348 415.225C74.8541 414.324 74.3893 413.453 73.905 412.659L76.0647 411.593H76.055ZM70.8738 399.759V402.79H76.578V399.759H70.8738ZM76.578 408.243V405.047H70.8738V408.243H76.578ZM90.3785 413.23C90.3785 414.489 90.1558 415.225 89.3713 415.603C88.5287 416.039 87.2988 416.068 85.4394 416.068C85.3619 415.39 85.0617 414.324 84.7034 413.666C85.9042 413.724 87.0761 413.724 87.4053 413.695C87.783 413.666 87.8993 413.559 87.8993 413.201V400.001H83.6962V421.142H81.1588V397.686H90.3785V413.24V413.23Z" fill="#0459FF"/>
<path d="M115.491 397.851V420.736H112.789V419.07H99.9372V420.842H97.3417V397.841H115.481L115.491 397.851ZM99.9372 400.417V407.071H112.789V400.417H99.9372ZM112.789 416.513V409.589H99.9372V416.513H112.789Z" fill="#0459FF"/>
<path d="M129.262 417.356C130.763 417.879 132.642 418.014 134.966 418.014C136.632 418.043 144.409 418.043 146.394 417.956C146.016 418.528 145.581 419.67 145.416 420.464H134.995C129.562 420.464 126.347 419.67 124.304 416.29C123.974 418.256 123.51 420 122.832 421.423C122.367 421.094 121.272 420.552 120.701 420.28C122.173 417.549 122.444 413.162 122.531 408.417L124.904 408.611C124.875 409.86 124.827 411.061 124.739 412.242C125.282 413.937 125.998 415.157 126.918 416.039V406.519H121.35V404.282H126.337V401.25H122.057V399.013H126.337V396.176H128.768V399.013H132.971V401.25H128.768V404.282H133.678V406.519H129.262V410.092H133.407V412.3H129.262V417.375V417.356ZM138.211 416.048C135.509 416.048 134.666 415.341 134.666 412.397V397.725H144.728V407.468H137.116V412.407C137.116 413.579 137.339 413.772 138.511 413.772H142.549C143.557 413.772 143.721 413.23 143.857 410.664C144.428 411.07 145.387 411.458 146.094 411.622C145.823 415.002 145.087 416.068 142.743 416.068H138.211V416.048ZM137.116 399.953V405.192H142.269V399.953H137.116Z" fill="#0459FF"/>
<path d="M158.422 408.756C157.551 408.756 156.786 409.327 156.108 410.586L154.413 409.356C155.643 407.284 157.086 406.46 158.481 406.46C160.931 406.46 162.161 408.969 163.885 408.969C164.756 408.969 165.492 408.397 166.18 407.109L167.894 408.388C166.635 410.402 165.192 411.254 163.826 411.254C161.367 411.254 160.146 408.746 158.422 408.746V408.756Z" fill="#0459FF"/>
<path d="M378.737 410.47H380.771L382.34 414.78C382.543 415.351 382.717 415.961 382.901 416.542H382.96C383.163 415.961 383.318 415.351 383.521 414.78L385.051 410.47H387.085V419.68H385.41V415.845C385.41 414.973 385.545 413.695 385.642 412.823H385.584L384.838 414.983L383.424 418.847H382.369L380.935 414.983L380.199 412.823H380.151C380.238 413.695 380.383 414.973 380.383 415.845V419.68H378.727V410.47H378.737Z" fill="#0459FF"/>
<path d="M388.887 415.051C388.887 412.058 390.562 410.315 393.002 410.315C395.443 410.315 397.118 412.068 397.118 415.051C397.118 418.034 395.443 419.864 393.002 419.864C390.562 419.864 388.887 418.034 388.887 415.051ZM395.24 415.051C395.24 413.075 394.368 411.894 393.002 411.894C391.637 411.894 390.765 413.075 390.765 415.051C390.765 417.026 391.637 418.266 393.002 418.266C394.368 418.266 395.24 417.007 395.24 415.051Z" fill="#0459FF"/>
<path d="M398.92 410.47H400.799L403.472 415.38L404.392 417.365H404.45C404.362 416.407 404.217 415.186 404.217 414.15V410.47H405.96V419.68H404.101L401.438 414.76L400.508 412.785H400.45C400.537 413.782 400.673 414.935 400.673 415.99V419.68H398.929V410.47H398.92Z" fill="#0459FF"/>
<path d="M407.975 418.663C407.975 417.976 408.459 417.472 409.108 417.472C409.757 417.472 410.251 417.985 410.251 418.663C410.251 419.341 409.766 419.854 409.108 419.854C408.449 419.854 407.975 419.331 407.975 418.663Z" fill="#0459FF"/>
<path d="M164.514 20.6377V34.2349H238.097L237.69 17.2288L164.514 20.6377Z" fill="black"/>
<path d="M168.252 80.1497L165.86 141.86L180.677 142.431L180.89 136.988L222.747 138.616L222.544 143.923L238.175 144.533L240.557 82.9582L168.242 80.1594L168.252 80.1497ZM194.846 124.602L181.394 124.079L181.762 114.704L195.214 115.227L194.846 124.602ZM195.679 103.131L182.227 102.608L182.575 93.6403L196.027 94.1633L195.679 103.131ZM223.251 125.706L209.256 125.164L209.625 115.789L223.619 116.331L223.251 125.706ZM224.084 104.235L210.089 103.693L210.438 94.7249L224.432 95.2673L224.084 104.235Z" fill="black"/>
<path d="M149.086 74.4551C152.757 77.3121 161.521 84.5562 165.327 87.9554L162.412 92.9624L156.03 101.524C153.715 98.2599 149.638 93.5047 145.687 89.0111V141.899L126.182 140.717L129.339 94.6959C124.855 98.9087 100.305 101.94 98 98.9475C111.462 90.7834 135.082 71.7434 143.111 56.1028L111.607 58.4078L113.457 38.3704L151.265 41.5372L153.987 40.8593L162.964 46.6991C159.429 56.3546 154.674 65.8843 149.096 74.4454L149.086 74.4551Z" fill="black"/>
<path d="M170.828 43.6582L173.336 77.5639L232.877 73.1575L230.369 39.2517L170.828 43.6582ZM217.072 62.1945L186.682 64.4413L185.955 54.6792L216.346 52.4324L217.072 62.1945Z" fill="black"/>
<path d="M137.581 33.7314C146.695 33.7314 154.083 26.343 154.083 17.2289C154.083 8.11476 146.695 0.726318 137.581 0.726318C128.467 0.726318 121.078 8.11476 121.078 17.2289C121.078 26.343 128.467 33.7314 137.581 33.7314Z" fill="black"/>
<path d="M299.104 119.643C281.168 137.162 262.999 134.586 255 127.207C267.406 124.747 280.354 119.169 287.172 112.583L299.104 119.643Z" fill="black"/>
<path d="M362.683 127.081L350.015 137.85C343.498 132.834 338.549 127.459 328.235 122.723L331.528 111.198C341.571 115.401 355.613 122.229 362.683 127.091V127.081Z" fill="black"/>
<path d="M360.078 93.6594V107.324H316.875V139.032H303.578V107.324H259.358V96.3807H303.578V91.0251H316.875V96.3807L360.078 93.6594Z" fill="black"/>
<path d="M314.851 42.3698L318.25 33.8086L304.033 31.8232C303.868 34.8351 303.171 38.7574 302.358 42.3504L293.428 42.5344L294.348 86.299L325.717 85.6405L324.797 41.8758L314.86 42.3504L314.851 42.3698ZM313.785 76.1883L305.408 76.3626L305.244 68.5472L313.621 68.3729L313.785 76.1883ZM313.437 59.3372L305.06 59.5115L304.905 52.0253L313.282 51.851L313.437 59.3372Z" fill="black"/>
<path d="M293.806 62.233L259.697 64.412C259.552 64.412 259.445 64.2667 259.513 64.1311L273.904 35.3098C273.972 35.1839 274.146 35.1646 274.234 35.2808L293.961 61.9328C294.048 62.0587 293.971 62.233 293.816 62.2427L293.806 62.233Z" fill="black"/>
<path d="M298.271 83.6745L261.218 86.0375C261.072 86.0375 260.966 85.8923 261.034 85.7567L277.517 52.4901C277.584 52.3545 277.768 52.3449 277.856 52.4708L298.426 83.3743C298.513 83.5002 298.426 83.6648 298.28 83.6745H298.271Z" fill="black"/>
<path d="M359.748 59.9667L321.979 62.6687C321.824 62.6784 321.717 62.5137 321.795 62.3781L340.118 30.0994C340.186 29.9735 340.37 29.9638 340.447 30.0897L359.894 59.6665C359.971 59.7924 359.894 59.957 359.748 59.9667Z" fill="black"/>
<path d="M359.274 82.7352L322.143 83.0064C321.998 83.0064 321.901 82.8514 321.969 82.7158L340.302 50.4274C340.379 50.3015 340.563 50.2919 340.641 50.4274L359.439 82.4447C359.516 82.5706 359.419 82.7352 359.274 82.7352Z" fill="black"/>
<path d="M128.39 1.69485L125.611 8.72587L119.48 13.0064L121.175 27.3009L127.906 30.1966L132.477 36.2107L139.624 35.3682L138.975 17.9456L135.537 0.852295L128.39 1.69485Z" fill="#FB448B"/>
<path d="M149.638 27.3686L155.681 23.2043L153.987 8.90983L147.052 6.26593L142.675 0L135.528 0.842554L139.615 35.3584L146.762 34.5159L149.629 27.3686H149.638Z" fill="#FB448B"/>
<path d="M146.772 34.5158L155.681 23.2139L146.626 20.6668L137.571 18.1101L142.171 26.313L146.772 34.5158Z" fill="#FB72A4"/>
<path d="M137.581 18.1005L132.981 9.89767L128.381 1.69482L119.471 12.9967L128.526 15.5438L137.581 18.1005Z" fill="#FB72A4"/>
<path d="M153.987 8.90983L142.685 0L140.138 9.05509L137.581 18.1102L145.784 13.51L153.987 8.90983Z" fill="#FB72A4"/>
<path d="M137.581 18.1006L129.378 22.7008L121.175 27.3009L132.477 36.2108L135.024 27.1557L137.581 18.1006Z" fill="#FB72A4"/>
<path d="M133.639 11.0694L129.824 15.9117L130.55 22.0421L135.392 25.8578L138.452 25.4995L138.975 17.9358L136.7 10.7014L133.639 11.0597V11.0694Z" fill="#D32577"/>
<path d="M145.338 20.2891L144.612 14.1587L139.77 10.343L136.709 10.7014L138.462 25.4897L141.523 25.1314L145.338 20.2891Z" fill="#D32577"/>
<path d="M522.072 292.899C518.421 289.248 517.636 285.006 517.442 283.641C517.249 285.006 516.464 289.248 512.813 292.899C509.162 296.55 504.92 297.335 503.555 297.528C504.92 297.722 509.162 298.507 512.813 302.158C516.464 305.809 517.249 310.051 517.442 311.416C517.636 310.051 518.421 305.809 522.072 302.158C525.723 298.507 529.965 297.722 531.33 297.528C529.965 297.335 525.723 296.55 522.072 292.899Z" fill="#FFF227"/>
<path d="M558.161 258.821C552.835 253.495 551.692 247.316 551.411 245.321C551.13 247.316 549.987 253.495 544.661 258.821C539.334 264.148 533.156 265.291 531.161 265.572C533.156 265.852 539.334 266.995 544.661 272.322C549.987 277.648 551.13 283.827 551.411 285.822C551.692 283.827 552.835 277.648 558.161 272.322C563.488 266.995 569.667 265.852 571.662 265.572C569.667 265.291 563.488 264.148 558.161 258.821Z" fill="#FFF227"/>
<path d="M302.723 233.663C307.457 233.663 311.294 229.826 311.294 225.093C311.294 220.359 307.457 216.522 302.723 216.522C297.989 216.522 294.152 220.359 294.152 225.093C294.152 229.826 297.989 233.663 302.723 233.663Z" fill="black"/>
<path d="M3.42527 81.5167C16.4502 71.0543 25.9253 63.3383 26.1032 56.8167C26.2189 52.4138 23.6299 50.4957 19.4217 49.9638C15.2313 49.4407 9.11921 54.1488 9.00355 57.1742L0 48.3247C5.97865 42.5878 14.3149 39.8414 21.8149 40.0071C32.0018 40.225 38.4608 47.3656 38.2117 56.4331C37.9982 64.1578 29.7865 72.2313 21.6637 79.4678C24.2883 79.2063 27.9004 78.9622 30.3114 79.0145L40 79.215L39.7064 90L3.24733 88.0209L3.42527 81.508V81.5167Z" fill="black"/>
<path d="M45.1103 61.2488C46.1732 45.1483 54.0878 37.7153 65.1208 38.0083C78.5871 38.3724 82.909 47.2974 81.8461 63.3357C80.7832 79.4362 72.8246 87.5886 61.8794 86.9669C50.864 86.3364 44.0386 77.3493 45.1103 61.2399V61.2488ZM70.1367 62.4743C70.5319 49.7307 67.677 47.0488 63.9789 46.9511C60.2807 46.8534 57.1974 49.3755 56.8021 62.1191C56.4068 74.8627 59.3232 77.9354 63.0214 78.0331C66.7196 78.1308 69.7501 75.2179 70.1367 62.4654V62.4743Z" fill="black"/>
<path d="M9.65336 136.727C21.8547 125.483 31.0852 118.948 30.82 112.422C30.6343 108.011 27.9465 105.809 23.7291 105.975C20.1483 106.115 17.5046 108.526 15.0644 110.928L8 105.058C12.9247 99.9294 17.6019 97.3085 25.0465 97.0202C35.1612 96.6184 42.4289 102.227 42.8091 111.304C43.1274 119.044 27.973 135.329 27.973 135.329L47 131.948L46.5314 143.567L10.2811 145L9.65336 136.718V136.727Z" fill="black"/>
<path d="M51.009 139.888L58.0038 131.449C61.0775 133.941 64.8543 135.82 69.0728 135.659C74.2287 135.464 77.3836 132.989 77.2664 128.422C77.1492 123.918 73.8592 121.568 69.2801 121.737C66.3416 121.853 64.9264 122.494 61.8257 124.435L56.1559 121.319L54.8039 97.4271L86.4245 94L88.723 106.293L68.0903 106.498L67.5134 114.75C69.4243 113.957 70.9927 113.637 73.0028 113.557C82.0257 113.21 89.7326 117.554 89.994 127.595C90.2644 138.098 81.4038 144.57 71.173 144.962C62.6549 145.291 55.3267 143.493 51 139.87L51.009 139.888Z" fill="black"/>
</svg>
