<?xml version="1.0" encoding="UTF-8"?>
<svg id="_圖層_2" data-name="圖層 2" xmlns="http://www.w3.org/2000/svg" viewBox="0 0 486.06 122.17">
  <defs>
    <style>
      .cls-1 {
        fill: #ceccc8;
      }

      .cls-2 {
        fill: #fff;
      }

      .cls-3 {
        fill: #1f4c48;
      }

      .cls-3, .cls-4 {
        opacity: .2;
      }

      .cls-5 {
        fill: #f9f3e2;
      }

      .cls-6 {
        fill: #fc8b8b;
      }

      .cls-7 {
        fill: #8ece45;
      }

      .cls-8 {
        fill: #f5e4aa;
      }

      .cls-9 {
        fill: #eadac5;
      }

      .cls-10 {
        fill: #f8e9b2;
      }

      .cls-11 {
        fill: #ede5d1;
      }

      .cls-12 {
        fill: #fcda4c;
      }

      .cls-13 {
        fill: #5695a8;
      }

      .cls-14 {
        fill: #e2dac7;
      }
    </style>
  </defs>
  <g id="_圖層_23" data-name="圖層 23">
    <g>
      <path class="cls-3" d="M486.06,122.17H15.05l-.43-44.41c.01-11.68,9.5-21.13,21.17-21.12l428.79,6.37c11.68,.02,21.13,9.5,21.11,21.18l.37,37.98Z"/>
      <path class="cls-14" d="M468.32,122.17H8.6l-.65-63.31c.01-11.63,9.52-21.06,21.24-21.05l417.3,.88c11.71,.02,21.2,9.46,21.19,21.1l.64,62.38Z"/>
      <path class="cls-11" d="M462.13,122.17H5.65l-.69-67.33c.02-11.64,9.49-21.06,21.16-21.05l414.22,.88c11.67,.01,21.12,9.45,21.11,21.09l.68,66.41Z"/>
      <g>
        <path class="cls-12" d="M252.68,30.92l.05-9.48c.01-2.91-2.08-5.28-5-5.29l-42.67-.22c-2.91-.01-5.32,2.33-5.33,5.24l-.05,9.48,53,.27Z"/>
        <path class="cls-6" d="M297.31,31.15l.05-9.48c.02-2.92-2.29-5.28-5.2-5.3l-42.67-.22c-2.92-.01-5.51,2.33-5.53,5.24l-.05,9.48,53.4,.27Z"/>
        <path class="cls-13" d="M341.94,31.38l.05-9.48c.01-2.92-2.49-5.28-5.4-5.3l-42.67-.22c-2.92-.01-5.31,2.33-5.33,5.24l-.05,9.48,53.4,.27Z"/>
        <path class="cls-7" d="M386.57,31.6l.05-9.48c.01-2.92-2.69-5.28-5.61-5.3l-42.67-.22c-2.92-.01-5.11,2.33-5.12,5.24l-.05,9.48,53.4,.27Z"/>
        <g>
          <path class="cls-10" d="M305.3,23.86c0,1.12,2.47,2.05,5.52,2.07,3.06,.02,5.54-.88,5.54-2.01,0-1.13-2.47-2.05-5.52-2.07-3.06-.02-5.54,.88-5.54,2.01Zm10.16,.05c0,.94-2.08,1.7-4.64,1.68-2.56-.01-4.63-.79-4.62-1.73,0-.94,2.08-1.7,4.64-1.68,2.56,.01,4.63,.79,4.62,1.73Z"/>
          <path class="cls-10" d="M310.86,18.36c-1.13,0-2.05,2.47-2.07,5.52-.02,3.06,.88,5.54,2.01,5.54,1.13,0,2.05-2.47,2.07-5.52,.02-3.06-.88-5.54-2.01-5.54Zm-.05,10.17c-.94,0-1.7-2.08-1.68-4.64,.01-2.56,.79-4.63,1.73-4.62,.94,0,1.7,2.08,1.68,4.64-.01,2.56-.79,4.63-1.73,4.62Z"/>
          <path class="cls-10" d="M306.94,19.96c-.8,.79,.29,3.19,2.44,5.37,2.15,2.17,4.54,3.29,5.34,2.5,.8-.79-.29-3.19-2.44-5.37-2.15-2.17-4.54-3.29-5.34-2.5Zm7.15,7.22c-.67,.66-2.67-.27-4.47-2.09-1.8-1.82-2.72-3.83-2.05-4.49,.67-.66,2.67,.27,4.47,2.09,1.8,1.82,2.72,3.83,2.05,4.49Z"/>
          <path class="cls-10" d="M314.77,20c-.79-.8-3.19,.29-5.37,2.44-2.17,2.15-3.29,4.54-2.5,5.34,.79,.8,3.19-.29,5.36-2.44,2.17-2.15,3.29-4.54,2.5-5.34Zm-7.22,7.15c-.66-.67,.27-2.67,2.09-4.47,1.82-1.8,3.83-2.72,4.49-2.05,.66,.67-.27,2.67-2.09,4.47-1.82,1.8-3.83,2.72-4.49,2.05Z"/>
          <path class="cls-10" d="M310.84,23.03c-.47,0-.86,.38-.86,.85,0,.47,.38,.86,.85,.86,.47,0,.86-.38,.86-.85,0-.47-.38-.86-.85-.86Z"/>
        </g>
        <g>
          <g>
            <g>
              <path class="cls-10" d="M360.45,19.35c.9,.67,1.48,1.74,1.48,2.95-.01,2.02-1.65,3.65-3.67,3.64-1.19,0-2.24-.58-2.9-1.46l-.38,.3c.75,.99,1.94,1.64,3.28,1.64,2.28,.01,4.14-1.83,4.15-4.11,0-1.37-.65-2.58-1.67-3.34l-.29,.38Z"/>
              <path class="cls-10" d="M358.34,19.09c-1.81,0-3.28,1.45-3.29,3.26,0,1.81,1.45,3.28,3.26,3.29,1.81,0,3.28-1.45,3.29-3.26,0-1.81-1.45-3.28-3.26-3.29Zm-.03,6.4c-1.73,0-3.12-1.41-3.11-3.14,0-1.73,1.42-3.12,3.14-3.11,1.73,0,3.12,1.42,3.11,3.14,0,1.73-1.42,3.12-3.14,3.11Z"/>
              <path class="cls-10" d="M357.87,19.23s-1.1,.14-1.86,1c0,0,.58-.6,.93-.6l.08,.03s-.01,.03-.02,.04c-.01,.01-.06,.07-.06,.09,0,.02,0,.06,0,.06l-.03,.04s-.03,.01-.03,.02c0,.01-.02,.02-.02,.04,0,.03,0,.06,0,.06v.06s-.02,.04-.02,.04l-.05,.03s-.06,.01-.08,0c-.02-.01-.03-.06-.03-.06l.06-.04s0-.01-.01-.02c-.02-.01-.01-.05-.05-.04-.03,0-.09,.05-.09,.05l-.06,.04s-.03,.07-.02,.07c.01,0,.04,.02,.04,.02,0,0,0,.02,0,.04,0,.02-.02,.06-.02,.06,0,0-.01,.02-.05,.01-.04,0-.07-.02-.09-.02-.02,0-.05-.02-.07-.01-.02,0-.03,.01-.03,.03,0,.01-.08,.06-.08,.06,0,0-.03,.01-.03,.03,0,.01-.02,.07-.02,.07,0,0-.03,.03-.08,.04-.05,.01-.06,.03-.06,.03l-.03,.06s-.04,.03-.06,.06c-.03,.03-.11,.09-.12,.09-.01,0-.04,.04-.05,.07-.01,.03,0,.07-.02,.09-.01,.02-.03,.06-.03,.09,0,.03-.02,.07-.04,.08-.02,.01-.04,.03-.05,.04-.01,0-.08,.03-.1,.04-.02,.02-.03,.05-.03,.06,0,.01,.03,.04,.04,.04,.01,0,.04,.01,.04,.01,0,0,0,.06,0,.07,0,.01-.02,.07,0,.07,.02,0,.06,0,.06,0l.06,.02,.05,.03,.03,.02s0,.03-.02,.04c0,.01-.02,.04-.03,.03-.01,0,0,0-.02-.03-.01-.03,0-.04-.03-.05-.03,0-.05,.02-.06,.01-.01,0-.03,0-.05-.03-.02-.02-.02,.01-.02-.02,0-.03,.02-.05,.01-.06,0-.02-.03-.05-.04-.05-.02,0,0,.03-.02,0-.02-.03-.04-.04-.05-.04-.01,0-.03,0-.03-.01,0-.02,.01-.06,.01-.07,0-.02,.01-.05,.01-.06,0-.01,.02-.11,.02-.11,0,0-.1,.2-.14,.35,0,0,.04,0,.04,.02,0,.03,.01,.05,0,.08,0,.03,0,.02,0,.1,0,.08,.02,.1,0,.13-.01,.03-.03,.06-.03,.09,0,.03,.02,.11,.03,.12,.01,.02,0,.02,.02,.03,.01,.02-.03,.08,.01,.02s.06-.09,.06-.09l.03-.03s0-.04,.05-.03c.05,.01,.06,0,.07,.02,.01,.02-.02,.07,0,.08,.02,0,.1-.03,.12-.02,.02,0,.05,.01,.05,.05,0,.03,.02,.08,.04,.1,.02,0,.02,.05,.02,.09,.01,.03,.08,.05,.1,.05,.02,0,.09,.01,.11,.02,.02,0,0,.04,.04,.06,.04,.01,.05,.09,.05,.09,0,0,.01,.07,0,.09-.01,.02,0,.05,.02,.06,.02,0,.09,.02,.09,.02,0,0-.04,.05,.02,.07,.05,.02,.11,.04,.12,.05,.02,.01-.03,.05,.03,.05,.07,0,.13-.01,.16,.01,.03,.03,0,.06,.08,.11,.08,.04,.1,.06,.12,.07,.02,0,.06,0,.05,.07-.01,.06-.02,.1-.05,.12-.03,.03-.07,.11-.09,.13-.02,.03-.04,.07-.02,.11,.02,.04,.04,.09,.04,.11,0,.02,.01,.1,0,.13-.02,.03-.05,.08-.05,.08,0,0,.05,.05,.01,.09-.04,.04-.1,.08-.13,.09-.03,.01-.09,.06-.09,.06,0,0,0,.12,0,.15,0,.03-.12,.22-.08,.27,.04,.05,.04,.1,.03,.13,0,.03-.02,.02-.03,.05-.01,.03-.09,0-.04,.08,.04,.07,.07,.09,.09,.13,.02,.04,.02,.06,.04,.1,.03,.04,.04,.08,.08,.11,.03,.03,.08,.05,.08,.09,0,.03,.07,.12-.02,.06-.09-.06-.01,0-.12-.1-.12-.1-.15-.06-.2-.12-.05-.06,.02,.15-.07-.1-.09-.25-.12-.22-.14-.28-.02-.06,0,0-.07-.12-.07-.13-.01-.04-.07-.13-.06-.08-.07,.03-.09-.12-.03-.14-.03-.05-.07-.22-.04-.17,.03-.17-.06-.25-.09-.08-.08-.04-.11-.1-.03-.05,.01,0-.07-.15-.08-.14-.19-.2-.18-.44,0-.24,0-.28,0-.28,0,0-.12-.09-.08-.24,.04-.14,.06-.09,.04-.14-.01-.04-.03-.03-.07-.09-.04-.05-.04-.05-.05-.08-.01-.04-.03-.11-.03-.11l-.03,.03s-.34,3.16,2.81,3.64c0,0-.73-.16-.79-.3,0,0-.01-.14,.02-.13,.03,0,.07,.02,.12-.01,.05-.04,.1-.08,.1-.08v.06s-.04,0,.11-.01c.14-.02,.14,0,.2-.03,.05-.02,.11-.13,.14-.07,.03,.07-.04,.04,.03,.07,.07,.03,.2-.01,.2-.01,0,0,.22,.02,.24,0,.02-.02,.02-.06,.06-.05,.04,0,.06,.07,.06,.07l-.12,.07-.11,.08s-.05,.01,0,.04c.05,.02,.07,.02,.12,.02,.05,0,.18,.11,.21,.05,.03-.06,.04-.07,.06-.11,.02-.04,.02-.08,.07-.08,.05,0,.1,.02,.1,.02l-.05,.1s.09,0,.13,0c.04,0,.04,.06,.1,0,.05-.05,.06-.05,.11-.06,.05,0,.13-.03,.15-.02,.02,0,.07,.02,.09,.02,.02,0,.13,.08,.16,.07,.02-.01,.16,0,.16,0,0,0-.37,.34-1.15,.35,0,0,1.75,.09,2.74-1.61,.99-1.7,.32-3.88-1.92-4.65,0,0,1.67,.63,2.11,2.24v.03c-.06-.04-.06-.02-.1-.1-.04-.08,0-.06-.04-.11-.03-.05-.02-.02-.06-.07-.04-.05-.05-.05-.08-.08-.03-.03-.06-.13-.08-.16-.02-.03-.09-.04-.12-.05-.03,0-.01-.05-.03,0-.01,.04,.04,.1,.04,.1v.12s.04,.11,.04,.14c0,.03-.04,.11-.04,.11,0,0-.01,.09-.05,.11-.03,.01-.2,.04-.2,.04,0,0-.05-.06-.08-.11-.03-.05-.13-.07-.14-.09-.01-.02,.02-.07-.02-.13-.04-.06,0-.05-.06-.1l-.06-.05s-.13-.05-.09,.03c.04,.07,0,.16,.03,.16,.04,0,.06-.02,.09,.05,.03,.07,.04,.1,.06,.12,.02,.02,.03,.12,.06,.13,.03,0,.11,0,.11,.04,0,.04-.05,.09,0,.1,.05,.02,.06,.04,.09,.03,.03,0,.01,0,.07-.02,.05-.02,.11-.02,.11-.02,0,0,.07,.05,.07,.07,0,.02-.02,.15-.02,.15l-.07,.13s0,.22-.03,.22c-.04,0-.08,.1-.11,.11-.02,.01-.03,.16-.03,.16l-.07,.08s0,.11,0,.14c0,.03,.02,.15,0,.21-.02,.06-.1,.12-.1,.12,0,0,.11,.11,.05,.12-.06,.01-.12,.1-.14,.13-.01,.02,0,.07-.05,.07-.04,0-.1,.01-.1,.04,0,.02,0,.11,0,.11l-.12,.17-.14,.12s.02,.08-.03,.09c-.05,0-.19,.07-.22,.09-.02,.02-.14,.07-.17,.07-.04,0,.02,.11-.04,0-.06-.1-.01-.04-.07-.16-.05-.12-.05-.03-.05-.12,0-.09,0,0,0-.09,0-.08,.02-.02-.02-.12-.04-.1-.04-.07-.1-.13-.06-.06-.1,0-.07-.1,.04-.1,.01,0,.04-.1,.02-.1,0-.11,.05-.16,.06-.04,.11-.05,.1-.11,0-.06,0-.08-.02-.12-.02-.04-.07-.1-.08-.12,0-.02,0,0-.05-.07-.04-.07-.07-.11-.07-.11,0,0-.01-.16-.01-.22,0-.06-.02,.04,0-.06,.02-.1,.03-.16,.03-.16,0,0-.11-.08-.16-.07-.05,0-.04,.08-.11,.02-.07-.05-.05-.09-.07-.1-.02-.02-.07-.02-.1,0-.04,.03-.12,.03-.19,.06-.07,.03-.09,.02-.18,.02-.09,0-.2,.03-.26,0-.07-.04-.08,.02-.1-.06-.03-.07,0-.07-.07-.11-.07-.04-.08,0-.09-.08,0-.07,.03-.05-.02-.11-.05-.06,.03,.03-.05-.06-.08-.09-.11-.01-.08-.09,.03-.07,.05-.03,.05-.12,0-.09,.13,.04,.05-.14-.08-.18-.1-.14-.02-.28,.08-.13,.17-.18,.19-.21,.02-.03,.05-.1,.08-.13,.03-.02,0-.04,.08-.04,.07,0,.14-.02,.19-.07,.05-.04,.11-.11,.14-.12,.03,0,.01,0,.08,0,.07-.01,.08-.02,.13-.02,.04,0-.05,.02,.08,0,.13-.02,.1-.02,.13-.02,.03,0,.01,0,.07,.01,.05,0,.05-.1,.05,0,0,.11-.05,.17,.04,.17,.09,0,0,0,.09,0,.09,0,.07,.02,.11,.04,.04,.02,.07,.05,.14,.05,.07,0-.03,.1,.07,0,.1-.1-.07-.11,.1-.1,.17,.02,.2,.05,.23,.04,.03-.02,.04,.01,.11-.02,.07-.04,.08-.04,.11-.02,.03,.01,.03,.08,.06,.01,.03-.07,.09-.04,0-.09-.09-.05-.12,0-.14-.05-.01-.06,.08-.04-.01-.06-.09-.02-.08-.02-.14-.04-.07-.02-.14,.07-.16,0-.02-.07-.15,.04-.02-.07,.13-.11,.08-.16,.16-.13,.08,.02,.06,.1,.11,.05,.05-.04,.15-.07,.05-.14-.1-.07-.03-.04-.13-.08-.1-.05-.19,.17-.23,.14-.04-.03-.07-.05-.1-.04-.03,.01-.03,.1-.04,.16,0,.06,.05,.08-.04,.03-.1-.05,.11-.02-.11-.11-.22-.08-.29-.06-.32-.03-.03,.03-.08,.02-.1,.04-.02,.02,.07,.08-.02,.02-.09-.05-.18,.03-.18,.03,0,0-.03-.02-.07,.02-.04,.03-.11,.05-.16,.04-.05-.02-.14,.02-.06-.09,.08-.11,.02-.05,.15-.1,.13-.05,.32-.06,.15-.1-.16-.04,.09-.04-.13-.14-.22-.11-.23,.04-.22-.11,0-.14-.01-.15-.06-.14-.05,0-.18,.04-.23,.04-.05,0,0,.05-.09,0-.1-.06-.14,.03-.1-.06,.04-.09,.05-.11,.11-.16,.06-.05,.05-.25,.2-.17,.15,.08,.09,.05,.21,.06,.12,0,.17-.01,.17-.04,0-.02-.13-.09-.13-.09,0,0-.05,.01-.03,0,.02-.02,.05-.07,.05-.07l-.04-.04s-.42,0-.53,.02Z"/>
            </g>
            <g>
              <path class="cls-10" d="M357.86,26.32v.76s-.11,.38-.54,.53c-.44,.15-.78,.38-.75,.61,.04,.23,.71,.43,2.13,.44v-2.48s-.84,.15-.84,.15Z"/>
              <path class="cls-10" d="M359,26.32v.76s.11,.38,.55,.53c.43,.15,.91,.39,.87,.62-.04,.23-1.15,.42-2,.42v-2.48s.58,.15,.58,.15Z"/>
            </g>
          </g>
          <g>
            <path class="cls-10" d="M360.45,19.35c.9,.67,1.48,1.74,1.48,2.95-.01,2.02-1.65,3.65-3.67,3.64-1.19,0-2.24-.58-2.9-1.46l-.38,.3c.75,.99,1.94,1.64,3.28,1.64,2.28,.01,4.14-1.83,4.15-4.11,0-1.37-.65-2.58-1.67-3.34l-.29,.38Z"/>
            <path class="cls-10" d="M358.34,19.09c-1.81,0-3.28,1.45-3.29,3.26,0,1.81,1.45,3.28,3.26,3.29,1.81,0,3.28-1.45,3.29-3.26,0-1.81-1.45-3.28-3.26-3.29Zm-.03,6.4c-1.73,0-3.12-1.41-3.11-3.14,0-1.73,1.42-3.12,3.14-3.11,1.73,0,3.12,1.42,3.11,3.14,0,1.73-1.42,3.12-3.14,3.11Z"/>
            <path class="cls-10" d="M357.87,19.23s-1.1,.14-1.86,1c0,0,.58-.6,.93-.6l.08,.03s-.01,.03-.02,.04c-.01,.01-.06,.07-.06,.09,0,.02,0,.06,0,.06l-.03,.04s-.03,.01-.03,.02c0,.01-.02,.02-.02,.04,0,.03,0,.06,0,.06v.06s-.02,.04-.02,.04l-.05,.03s-.06,.01-.08,0c-.02-.01-.03-.06-.03-.06l.06-.04s0-.01-.01-.02c-.02-.01-.01-.05-.05-.04-.03,0-.09,.05-.09,.05l-.06,.04s-.03,.07-.02,.07c.01,0,.04,.02,.04,.02,0,0,0,.02,0,.04,0,.02-.02,.06-.02,.06,0,0-.01,.02-.05,.01-.04,0-.07-.02-.09-.02-.02,0-.05-.02-.07-.01-.02,0-.03,.01-.03,.03,0,.01-.08,.06-.08,.06,0,0-.03,.01-.03,.03,0,.01-.02,.07-.02,.07,0,0-.03,.03-.08,.04-.05,.01-.06,.03-.06,.03l-.03,.06s-.04,.03-.06,.06c-.03,.03-.11,.09-.12,.09-.01,0-.04,.04-.05,.07-.01,.03,0,.07-.02,.09-.01,.02-.03,.06-.03,.09,0,.03-.02,.07-.04,.08-.02,.01-.04,.03-.05,.04-.01,0-.08,.03-.1,.04-.02,.02-.03,.05-.03,.06,0,.01,.03,.04,.04,.04,.01,0,.04,.01,.04,.01,0,0,0,.06,0,.07,0,.01-.02,.07,0,.07,.02,0,.06,0,.06,0l.06,.02,.05,.03,.03,.02s0,.03-.02,.04c0,.01-.02,.04-.03,.03-.01,0,0,0-.02-.03-.01-.03,0-.04-.03-.05-.03,0-.05,.02-.06,.01-.01,0-.03,0-.05-.03-.02-.02-.02,.01-.02-.02,0-.03,.02-.05,.01-.06,0-.02-.03-.05-.04-.05-.02,0,0,.03-.02,0-.02-.03-.04-.04-.05-.04-.01,0-.03,0-.03-.01,0-.02,.01-.06,.01-.07,0-.02,.01-.05,.01-.06,0-.01,.02-.11,.02-.11,0,0-.1,.2-.14,.35,0,0,.04,0,.04,.02,0,.03,.01,.05,0,.08,0,.03,0,.02,0,.1,0,.08,.02,.1,0,.13-.01,.03-.03,.06-.03,.09,0,.03,.02,.11,.03,.12,.01,.02,0,.02,.02,.03,.01,.02-.03,.08,.01,.02s.06-.09,.06-.09l.03-.03s0-.04,.05-.03c.05,.01,.06,0,.07,.02,.01,.02-.02,.07,0,.08,.02,0,.1-.03,.12-.02,.02,0,.05,.01,.05,.05,0,.03,.02,.08,.04,.1,.02,0,.02,.05,.02,.09,.01,.03,.08,.05,.1,.05,.02,0,.09,.01,.11,.02,.02,0,0,.04,.04,.06,.04,.01,.05,.09,.05,.09,0,0,.01,.07,0,.09-.01,.02,0,.05,.02,.06,.02,0,.09,.02,.09,.02,0,0-.04,.05,.02,.07,.05,.02,.11,.04,.12,.05,.02,.01-.03,.05,.03,.05,.07,0,.13-.01,.16,.01,.03,.03,0,.06,.08,.11,.08,.04,.1,.06,.12,.07,.02,0,.06,0,.05,.07-.01,.06-.02,.1-.05,.12-.03,.03-.07,.11-.09,.13-.02,.03-.04,.07-.02,.11,.02,.04,.04,.09,.04,.11,0,.02,.01,.1,0,.13-.02,.03-.05,.08-.05,.08,0,0,.05,.05,.01,.09-.04,.04-.1,.08-.13,.09-.03,.01-.09,.06-.09,.06,0,0,0,.12,0,.15,0,.03-.12,.22-.08,.27,.04,.05,.04,.1,.03,.13,0,.03-.02,.02-.03,.05-.01,.03-.09,0-.04,.08,.04,.07,.07,.09,.09,.13,.02,.04,.02,.06,.04,.1,.03,.04,.04,.08,.08,.11,.03,.03,.08,.05,.08,.09,0,.03,.07,.12-.02,.06-.09-.06-.01,0-.12-.1-.12-.1-.15-.06-.2-.12-.05-.06,.02,.15-.07-.1-.09-.25-.12-.22-.14-.28-.02-.06,0,0-.07-.12-.07-.13-.01-.04-.07-.13-.06-.08-.07,.03-.09-.12-.03-.14-.03-.05-.07-.22-.04-.17,.03-.17-.06-.25-.09-.08-.08-.04-.11-.1-.03-.05,.01,0-.07-.15-.08-.14-.19-.2-.18-.44,0-.24,0-.28,0-.28,0,0-.12-.09-.08-.24,.04-.14,.06-.09,.04-.14-.01-.04-.03-.03-.07-.09-.04-.05-.04-.05-.05-.08-.01-.04-.03-.11-.03-.11l-.03,.03s-.34,3.16,2.81,3.64c0,0-.73-.16-.79-.3,0,0-.01-.14,.02-.13,.03,0,.07,.02,.12-.01,.05-.04,.1-.08,.1-.08v.06s-.04,0,.11-.01c.14-.02,.14,0,.2-.03,.05-.02,.11-.13,.14-.07,.03,.07-.04,.04,.03,.07,.07,.03,.2-.01,.2-.01,0,0,.22,.02,.24,0,.02-.02,.02-.06,.06-.05,.04,0,.06,.07,.06,.07l-.12,.07-.11,.08s-.05,.01,0,.04c.05,.02,.07,.02,.12,.02,.05,0,.18,.11,.21,.05,.03-.06,.04-.07,.06-.11,.02-.04,.02-.08,.07-.08,.05,0,.1,.02,.1,.02l-.05,.1s.09,0,.13,0c.04,0,.04,.06,.1,0,.05-.05,.06-.05,.11-.06,.05,0,.13-.03,.15-.02,.02,0,.07,.02,.09,.02,.02,0,.13,.08,.16,.07,.02-.01,.16,0,.16,0,0,0-.37,.34-1.15,.35,0,0,1.75,.09,2.74-1.61,.99-1.7,.32-3.88-1.92-4.65,0,0,1.67,.63,2.11,2.24v.03c-.06-.04-.06-.02-.1-.1-.04-.08,0-.06-.04-.11-.03-.05-.02-.02-.06-.07-.04-.05-.05-.05-.08-.08-.03-.03-.06-.13-.08-.16-.02-.03-.09-.04-.12-.05-.03,0-.01-.05-.03,0-.01,.04,.04,.1,.04,.1v.12s.04,.11,.04,.14c0,.03-.04,.11-.04,.11,0,0-.01,.09-.05,.11-.03,.01-.2,.04-.2,.04,0,0-.05-.06-.08-.11-.03-.05-.13-.07-.14-.09-.01-.02,.02-.07-.02-.13-.04-.06,0-.05-.06-.1l-.06-.05s-.13-.05-.09,.03c.04,.07,0,.16,.03,.16,.04,0,.06-.02,.09,.05,.03,.07,.04,.1,.06,.12,.02,.02,.03,.12,.06,.13,.03,0,.11,0,.11,.04,0,.04-.05,.09,0,.1,.05,.02,.06,.04,.09,.03,.03,0,.01,0,.07-.02,.05-.02,.11-.02,.11-.02,0,0,.07,.05,.07,.07,0,.02-.02,.15-.02,.15l-.07,.13s0,.22-.03,.22c-.04,0-.08,.1-.11,.11-.02,.01-.03,.16-.03,.16l-.07,.08s0,.11,0,.14c0,.03,.02,.15,0,.21-.02,.06-.1,.12-.1,.12,0,0,.11,.11,.05,.12-.06,.01-.12,.1-.14,.13-.01,.02,0,.07-.05,.07-.04,0-.1,.01-.1,.04,0,.02,0,.11,0,.11l-.12,.17-.14,.12s.02,.08-.03,.09c-.05,0-.19,.07-.22,.09-.02,.02-.14,.07-.17,.07-.04,0,.02,.11-.04,0-.06-.1-.01-.04-.07-.16-.05-.12-.05-.03-.05-.12,0-.09,0,0,0-.09,0-.08,.02-.02-.02-.12-.04-.1-.04-.07-.1-.13-.06-.06-.1,0-.07-.1,.04-.1,.01,0,.04-.1,.02-.1,0-.11,.05-.16,.06-.04,.11-.05,.1-.11,0-.06,0-.08-.02-.12-.02-.04-.07-.1-.08-.12,0-.02,0,0-.05-.07-.04-.07-.07-.11-.07-.11,0,0-.01-.16-.01-.22,0-.06-.02,.04,0-.06,.02-.1,.03-.16,.03-.16,0,0-.11-.08-.16-.07-.05,0-.04,.08-.11,.02-.07-.05-.05-.09-.07-.1-.02-.02-.07-.02-.1,0-.04,.03-.12,.03-.19,.06-.07,.03-.09,.02-.18,.02-.09,0-.2,.03-.26,0-.07-.04-.08,.02-.1-.06-.03-.07,0-.07-.07-.11-.07-.04-.08,0-.09-.08,0-.07,.03-.05-.02-.11-.05-.06,.03,.03-.05-.06-.08-.09-.11-.01-.08-.09,.03-.07,.05-.03,.05-.12,0-.09,.13,.04,.05-.14-.08-.18-.1-.14-.02-.28,.08-.13,.17-.18,.19-.21,.02-.03,.05-.1,.08-.13,.03-.02,0-.04,.08-.04,.07,0,.14-.02,.19-.07,.05-.04,.11-.11,.14-.12,.03,0,.01,0,.08,0,.07-.01,.08-.02,.13-.02,.04,0-.05,.02,.08,0,.13-.02,.1-.02,.13-.02,.03,0,.01,0,.07,.01,.05,0,.05-.1,.05,0,0,.11-.05,.17,.04,.17,.09,0,0,0,.09,0,.09,0,.07,.02,.11,.04,.04,.02,.07,.05,.14,.05,.07,0-.03,.1,.07,0,.1-.1-.07-.11,.1-.1,.17,.02,.2,.05,.23,.04,.03-.02,.04,.01,.11-.02,.07-.04,.08-.04,.11-.02,.03,.01,.03,.08,.06,.01,.03-.07,.09-.04,0-.09-.09-.05-.12,0-.14-.05-.01-.06,.08-.04-.01-.06-.09-.02-.08-.02-.14-.04-.07-.02-.14,.07-.16,0-.02-.07-.15,.04-.02-.07,.13-.11,.08-.16,.16-.13,.08,.02,.06,.1,.11,.05,.05-.04,.15-.07,.05-.14-.1-.07-.03-.04-.13-.08-.1-.05-.19,.17-.23,.14-.04-.03-.07-.05-.1-.04-.03,.01-.03,.1-.04,.16,0,.06,.05,.08-.04,.03-.1-.05,.11-.02-.11-.11-.22-.08-.29-.06-.32-.03-.03,.03-.08,.02-.1,.04-.02,.02,.07,.08-.02,.02-.09-.05-.18,.03-.18,.03,0,0-.03-.02-.07,.02-.04,.03-.11,.05-.16,.04-.05-.02-.14,.02-.06-.09,.08-.11,.02-.05,.15-.1,.13-.05,.32-.06,.15-.1-.16-.04,.09-.04-.13-.14-.22-.11-.23,.04-.22-.11,0-.14-.01-.15-.06-.14-.05,0-.18,.04-.23,.04-.05,0,0,.05-.09,0-.1-.06-.14,.03-.1-.06,.04-.09,.05-.11,.11-.16,.06-.05,.05-.25,.2-.17,.15,.08,.09,.05,.21,.06,.12,0,.17-.01,.17-.04,0-.02-.13-.09-.13-.09,0,0-.05,.01-.03,0,.02-.02,.05-.07,.05-.07l-.04-.04s-.42,0-.53,.02Z"/>
          </g>
        </g>
        <path class="cls-10" d="M220.35,26.69s-1.43-1.46-4.08-.08l.03-6.1s2.71-1.52,4.17,.02l4.17,.02-.03,6.12h-4.27Z"/>
        <path class="cls-10" d="M266.69,29.39c1.78,.66,3.43-.94,3.43-.94,6.53-7.96-2.65-10.38-4.52-8.48-1.87,1.9,.82,3.65,.24,5.38-.58,1.72-.93,3.38,.85,4.04Zm5.26-5.61c-.21,.25-.59,.28-.85,.07-.26-.22-.29-.6-.08-.85,.21-.25,.59-.28,.85-.07,.26,.22,.29,.6,.08,.85Zm-.93-2.61c.34,.29,.39,.79,.1,1.13-.28,.34-.79,.38-1.13,.09-.34-.29-.39-.79-.1-1.13,.28-.34,.79-.38,1.13-.09Zm-3.09-.83c.32-.38,.9-.43,1.29-.1,.39,.33,.44,.9,.12,1.29-.32,.38-.9,.43-1.29,.1-.39-.33-.44-.9-.12-1.29Zm-2.25,.24c.35-.41,.97-.46,1.39-.11,.42,.35,.48,.98,.13,1.39-.35,.41-.97,.46-1.39,.11-.42-.35-.47-.98-.13-1.39Zm.9,6.05c.43-.5,1.18-.57,1.68-.14,.5,.42,.57,1.18,.14,1.68-.43,.5-1.18,.57-1.68,.14-.5-.43-.57-1.18-.14-1.68Z"/>
      </g>
      <path class="cls-5" d="M453.65,122.17H.73L0,51.15c0-11.63,9.45-21.06,21.09-21.04l410.79,.87c11.64,.01,21.06,9.45,21.05,21.09l.72,70.1Z"/>
      <g class="cls-4">
        <polygon class="cls-1" points="86.89 58.12 138.11 47.44 149.04 101.21 98.08 112.1 86.89 58.12"/>
      </g>
      <polygon class="cls-9" points="88.5 55.39 139.71 44.7 150.65 98.47 99.69 109.36 88.5 55.39"/>
      <g>
        <path class="cls-2" d="M97.63,70.19c-.06-.01,.04,.29,.04,.35,.07-.09-.06-.43-.04-.35Z"/>
        <polygon class="cls-2" points="98.35 69.26 98.36 69.39 98.42 69.05 98.35 69.26"/>
        <path class="cls-2" d="M99.18,69.06c-.21-.51-.28,.16-.48,0l-.05-.11,.04,.44c.16-.11,.33-.45,.49-.34Z"/>
        <path class="cls-2" d="M99.91,70.09c-.08-.2,.05-.2-.12-.04,.01,.02,.02,.03,.03,.05,.02,0,.04-.01,.09,0Z"/>
        <path class="cls-2" d="M99.82,70.1c-.08,.04,.1,.16,0,0h0Z"/>
        <path class="cls-2" d="M100.2,69.88l-.07,.21c.05,.12,.16,.12,.15,.21,.09-.13,.04-.24-.08-.43Z"/>
        <path class="cls-2" d="M100.22,69.47l-.04,.09s.04,.06,.04-.09Z"/>
        <path class="cls-2" d="M100.09,69.76l.09-.19c-.04-.08-.08-.25-.04,.07-.03-.16-.02,0-.04,.12Z"/>
        <path class="cls-2" d="M99.99,69.69c-.09-.1-.19-.15-.12-.36-.2,.13-.08,.49,.12,.36Z"/>
        <path class="cls-2" d="M99.09,68.51l-.13-.13-.03,.19c.02-.1,.2,.1,.16-.06Z"/>
        <path class="cls-2" d="M100.99,69.98c-.02-.11-.11-.29-.15-.43l-.05,.15c.06,.07,.16,.12,.21,.28Z"/>
        <path class="cls-2" d="M100.83,69.55l.08-.22c-.12,0-.12,.1-.08,.22Z"/>
        <polygon class="cls-2" points="100.09 68.88 99.98 69.34 100.13 68.87 100.09 68.88"/>
        <polygon class="cls-2" points="101.48 69.88 101.47 70.15 101.5 69.73 101.48 69.88"/>
        <path class="cls-2" d="M101.79,69.75c0,.23,.16,.35,.14,.49,.08-.06,.11-.26,.14-.44-.05,.11-.13,.1-.27-.05Z"/>
        <path class="cls-2" d="M102.12,69.53c-.02,.06-.04,.16-.06,.27,.03-.06,.05-.14,.06-.27Z"/>
        <path class="cls-2" d="M101.15,69.33c.03,.07,.09,.24,.18,.3l-.13-.3h-.05Z"/>
        <path class="cls-2" d="M101.19,69.31h0c.06,0,.1,0,.11,0-.01,0-.05,0-.12,0Z"/>
        <path class="cls-2" d="M101.13,69.33h.01s-.02-.04-.01,0Z"/>
        <path class="cls-2" d="M100.5,69.09c.03-.19,.14-.42-.07-.65,0,.23,.12,.36,.07,.65Z"/>
        <path class="cls-2" d="M100.98,68.95l-.15-.04c.02,.08,.08,.2,.06,.29l.09-.26Z"/>
        <polygon class="cls-2" points="101.02 68.84 100.98 68.95 101.03 68.97 101.02 68.84"/>
        <path class="cls-2" d="M101.82,69.29c.03-.15,.09-.18,.16-.22-.09-.04-.18-.06-.26-.04,.01,.1,.02,.29,.1,.26Z"/>
        <path class="cls-2" d="M101.51,69.27v-.02s-.01-.03,0,.02Z"/>
        <polygon class="cls-2" points="102.69 68.91 102.67 68.85 102.68 68.91 102.69 68.91"/>
        <path class="cls-2" d="M101.69,68.98c-.07-.05-.09,.04-.1,.14,.04-.04,.08-.07,.13-.09,0-.05-.01-.08-.03-.06Z"/>
        <path class="cls-2" d="M102.29,69.34c-.05-.06-.09-.11-.14-.15,.05,.09,.15,.23,.14,.15Z"/>
        <path class="cls-2" d="M101.56,69.34s0,.02,0,.02c.04,.06,.02,.03,0-.02Z"/>
        <path class="cls-2" d="M101.56,69.34c.02-.05,.02-.14,.03-.21-.03,.03-.05,.08-.07,.13,.01,.02,.03,.05,.04,.08Z"/>
        <path class="cls-2" d="M102.43,66.83c.06,.29-.03,.6-.24,.32-.08,.25,.23,1.19,.48,1.7-.03-.13-.05-.25,.04-.45-.08-.15-.39-.3-.34-.59,.14-.19,.17,.07,.29,.2-.16-.35,.1-.58-.06-1.11l-.11,.23c-.02-.08,0-.23-.06-.29Z"/>
        <path class="cls-2" d="M102.4,68.88l-.05,.05c.08,.04,.15,.14,.29,.35,.06-.16,.05-.28,.04-.38l-.28,.02v-.05Z"/>
        <path class="cls-2" d="M102.11,68.99c-.03-.33,.07-.5-.1-.82-.16,.06-.05,.29-.12,.45,.24-.14-.03,.2,.2,.33-.04,.07-.08,.09-.12,.12,.06,.03,.11,.06,.17,.11v-.02s-.01,0-.01,0h0s-.03-.07-.01-.05h0c0-.05-.01-.09-.02-.13,.09,.05,.03,.08,.02,.12v.05s0,0,0,0l.22-.24c-.07-.03-.13,0-.25,.06Z"/>
        <path class="cls-2" d="M100.4,67.71s.02,.05,.03,.07c0-.04,0-.07-.03-.07Z"/>
        <path class="cls-2" d="M100.56,67.88s0,.18-.06,.16c-.08-.08-.04-.15-.06-.26-.02,.09-.08,.26,.08,.39v-.05c.14,.08,.37,.45,.36,.5-.1-.28-.18-.48-.31-.74Z"/>
        <path class="cls-2" d="M101.32,68.35l.18-.21-.18-.25,.05,.16c-.14-.03-.06,.16-.05,.29Z"/>
        <polygon class="cls-2" points="102.76 69.06 102.81 69.4 102.82 68.9 102.76 69.06"/>
        <polygon class="cls-2" points="103.03 68.95 103.09 69.25 103.12 69.05 103.03 68.95"/>
        <path class="cls-2" d="M118.38,61.66l.05-.1s-.04,.06-.05,.1Z"/>
        <path class="cls-2" d="M117.9,61.75l.02,.15c0-.08,0-.15-.02-.15Z"/>
        <path class="cls-2" d="M110.04,67.31c.16,.25,.36,.65,.27,.33l-.1-.31c-.05,.07-.11,.05-.17-.01Z"/>
        <path class="cls-2" d="M114.44,64.31l-.05-.09c0,.12,0,.22,0,.32,.01-.07,.03-.15,.04-.23Z"/>
        <path class="cls-2" d="M114.21,62.97l.17,.18c-.04-.07-.1-.13-.17-.18Z"/>
        <path class="cls-2" d="M120.86,60.74v-.34c-.12,.03-.03,.18,0,.34Z"/>
        <path class="cls-2" d="M105.93,68.15c.11,.11,.19,.14,.25,.15-.14-.16-.28-.42-.25-.15Z"/>
        <path class="cls-2" d="M118.96,65.12c.03-.07,.03-.14,.01-.21-.03,.06-.04,.13-.01,.21Z"/>
        <path class="cls-2" d="M106.41,68.24s-.04-.04-.06-.07c-.05,.07-.1,.12-.17,.12,.1,.12,.21,.19,.23-.05Z"/>
        <path class="cls-2" d="M130.15,58.82s.02,.02,.03,.03c0-.04-.02-.04-.03-.03Z"/>
        <path class="cls-2" d="M133.67,61.35s-.06,.04-.1,.05c.03,.02,.06,0,.1-.05Z"/>
        <path class="cls-2" d="M104.21,68.82c-.06,.04,0,.04,0,0h0Z"/>
        <path class="cls-2" d="M103.62,67.62s0-.09-.01-.16c.01,.08,.02,.13,.01,.16Z"/>
        <path class="cls-2" d="M106.55,66.11h0c-.03-.06-.03-.05,0,0Z"/>
        <path class="cls-2" d="M104.09,68.7s.07,.06,.1,.08c-.02-.02-.05-.05-.1-.08Z"/>
        <path class="cls-2" d="M104.13,68.85s-.04-.01-.06-.02c0,.06,.02,.09,.06,.02Z"/>
        <path class="cls-2" d="M104.29,68.78s-.07,0-.11-.01c.02,.02,.03,.04,.03,.05,.02,0,.04-.02,.08-.04Z"/>
        <path class="cls-2" d="M125.42,60.87s.01,.01,.02,.03c.03-.15,0-.12-.02-.03Z"/>
        <polygon class="cls-2" points="110.88 63.61 110.87 63.63 110.88 63.64 110.88 63.61"/>
        <path class="cls-2" d="M111.04,63.33c0,.42-.07,.38-.16,.31l.28,.91-.12-1.23Z"/>
        <path class="cls-2" d="M119.48,61.32l-.22-.25c.08-.52,.25-.38,.01-.76,.21,1.01-.57,.24-.37,1.25l-.15-.19s.02-.06,.05-.05c-.3-.44,.02,.76-.27,.67-.11-.06-.2-.19-.17-.32l-.14,.29c-.06,0-.09-.18-.03-.18l-.28,.15v-.03c-.01,.17-.05,.43-.08,.55-.11-.13,.01-.11-.03-.24l-.11,.28c-.13-.25-.04-.53,.08-.52-.38-.97-.08,.28-.55-.23l.13-.16c-.23-.55-.3-.31-.56-.63,.08,.18,.56,.82,.43,1.11-.07-.06-.14-.09-.19,.14-.08-.36-.16-.25-.27-.2l-.1-.48c-.1,.17-.03,.4-.06,.63-.15-.01-.27-.38-.37-.68-.25-.02,.29,.55,.04,.7-.23-.14-.32,.08-.49,.42-.17-.13-.04-.3-.12-.42l-.03,.4s-.05-.12-.06-.18c-.07,.17,.1,.48-.03,.64,.07,.53-.49-.69-.55-.06-.08-.12-.04-.3-.1-.48-.18,.45-.17,.33-.27,.91l-.26-.27c.22,.33,.13,.79,.06,1.17,.09,.16,.16,.3,.21,.37l-.19,.31c-.05-.07-.06-.24-.06-.45,0,.04-.01,.08-.02,.12-.13-.16-.14-.44-.14-.72,.05,.09,.1,.18,.15,.27,0-.3-.02-.63-.09-.91,0,.06-.02,.11-.05,.15,0-.08,0-.15-.02-.2-.02-.05-.02,.06-.03,.19l-.17-.52,.03,.21-.39-.26c-.11,.58-.14,1.41-.45,1.71,0-.41-.12-.64-.22-1.1,.21,.46,.24-.27,.45-.21-.11-.03-.14-.25-.13-.33l-.24,.52c-.08-.38-.13-.27-.26-.4,.23,.73-.14,.55-.23,.81-.06-.25-.09-.51,.09-.49-.31-.52-.04,.92-.33,.49,.04-.01,.07,.02,.06-.11-.05,.24-.32,.12-.31-.11h.04c-.29-.04-.82,.16-.72,.8-.02-.08-.13-.77-.15-.9v2.23c-.09-.55-.54-1.8-.38-2.16-.08-.06-.18-.13-.27,.09,.06,.07,.28,.76,.24,.82-.3-.57-.19-.3-.5-.77,.09,.1,.21,.97,.1,.96-.01-.13-.2-.84-.18-.93l-.07,.89c.03-.16-.15-.71-.26-.93,.06,.16-.23,.03-.28,.13l.15,.17c-.32-.06-.03,1.24-.33,1.26,0-.18-.15-1.08-.32-1.15,.03,.44,.16,2.12-.02,2.51l-.1-.23-.13,.32c-.02-.67,.02-2.1,.09-2.67-.15-.17-.1-.28-.25-.22-.11-.22,.01-.37,.06-.39l-.41-.06c.13,.49-.18,.57-.07,.98l.3-.61c.13,.49,.08,1.47-.21,1.44-.11-.18-.15-.9-.19-1.06,0,.18-.18,.39-.24,.27l.05-.29c-.19-.15-.1,.72-.38,.28-.07-.02-.33-.6-.28-.3,.23,.55,.65,2.3,.68,2.74-.03-.03-.45-.47-.59-.73-.2-.42-.09-1.1-.26-1.46,.03,.14,0,.32,0,.38-.09-.1-.07-.43-.2-.33,.09,.51-.3,.02,.03,.44-.11,.18-.17-.07-.33-.01,.13,.31,.11,1.14,0,1.32-.02-.13-.09-.29-.12-.36-.3,.02-.5-.17-.77-.12-.05-.12-.21-.23-.21-.46-.02,.1-.01,.28-.09,.31-.26-.4,.17-.11-.07-.61,.06,.3-.12,.45-.19,.66,.14,.44,.29,.02,.36-.19,.14,.62,.09,1.33-.12,1.68-.18,.21-.19-.38-.21-.28-.44-.01-.1,1.17-.55,.8-.23-.37-.19-.79-.29-1.07,.14-.19,.33,.19,.45,.14l-.19-.15c.03-.14,.12-.27,.22-.17-.2-.33-.72,.09-1.11-.16-.03,.15-.09,.31,0,.46l.09-.08c.17,.3-.09,.49,.08,.61-.08,.26-.15,.65-.38,.51l-.14-.44c.04,.13,.19,.24,.21,.09-.03,.22-.44-.54-.38,.07l.21,.28c-.08,.26-.14,.78-.34,.68,.18,.43,.03-.06,.27,.44-.26-.63,.44-.07,.11-.72,.27,.58,.27,.21,.56,.69-.04-.15-.12-.27,.03-.23,0-.05,0-.1,0-.14h.01s-.01,0-.01,0c0-.02,0-.03,0,0-.05-.06-.09-.13-.13-.21,0-.36,.22-.4,.25-.6,.1,.05,0,.18,.09,.33l.05-.29c.09,.33,.35,.5,.2,.74l.18-.03c.15,.16,.31,.2,.37,.04,.1,.05,.13-.42,.11-.14l.23-.27,.02,.08c.29-.02,.44-.68,.89-.15,.07-.11,.15-.23,.32-.17l.1,.28c.1-.13,.42,.21,.41-.11,.31,.74,.62,.04,.86,.13l-.08-.38c.15-.01,.26-.15,.41-.34l-.09-.33c.09-.31,.45,.15,.69,.06,.01,.13-.06,.11-.12,.05,.46,.68,.49-.69,.88-.2,.04-.14,.1-.11,.16-.03,0,0-.01,0-.01,.02,0,0,.02,0,.03,0,.04,.05,.09,.11,.13,.16-.05-.07-.09-.14-.12-.16,.05-.02,.12-.08,.17-.18l.11,.35s.01,0,.02-.01c.1,.12,.02-.18-.08-.44,.03-.07,.04-.15,.05-.24,.19,.56,.16-.24,.38,.36-.02-.31,.33-.31,.23-.95,.02,.08,.05,.12,.01,.13,.1,.05,.2,.11,.24-.09l.14,.45,.05-.65c.17,.25,.26,.4,.22,.78,.15-.6,.17-.25,.28-.83l.05,.3c.08-.03,.12-.45,.23-.22,.31,.52,.92-.12,1.51,.29-.28-.84,.3,.34,.17-.34,.07,.2,.16,.3,.13,.49,.2-.25,.43,.24,.47-.36,.07,.2,.02,.31,.07,.43,0-.05,.04-.2,.09-.08,.05,.12,0,.18-.02,.28,.24-.09,.12-.72,0-1.32,.19,.25,.24,.2,.24-.21,.09,.18,.2,.37,.07,.47,.09,0,.59,.17,.49-.31,.05,.11,.13,0,.14-.05,.2-.01,.23,.02,.4-.06l-.07-.07c-.05-.59,.13-.16,.27-.27v.06c.45,.33,.12-.23,.57,.16l-.1-.35c-.14-.77,.41,.38,.54,.05l-.12-.19c.05-.29,.54,.97,.67,1.04,.04,.06-.01,.12-.04,.17,.39,.39-.07-.47,.12-.63,.1,.24,.09,.65,.25,.66,.12,.19,.24-.91,.54-.47-.09-.18-.17-.37-.11-.54,.14-.1,.58,.64,.58,0,.03,.05,.05,.1,.06,.14,.08-.18,.32-.35,.32-.69,.38,1.2,.59-.76,.84,.37l.34-.14,.02,.12c.25,.02,.27-.27,.28-.56,.07,.07,.06,.18,.06,.24,.39,.15,.41,.1,.56-.53l.11,.36c.03-.23,.62,.46,.85-.04,0,.04,.02,.12,0,.17,.27-.51,1.12,.82,.95-.55l.17-.39c-.34-.03-.09-.59-.27-.78,.11-.11,.41,.33,.28,.43l-.04-.06c.1,.71,.45,.16,.55,.63,.61-.18,1.31,.07,1.9-.04l-.19-.52,.21-.02c.08,.11,.17,.41,.02,.42,.15,.29,.18-.31,.16-.43,.34,.15,.04,.66,.13,.65l.11-.07-.04-.06c.04-.24,0-.48,.18-.49,.14,.08,.14,.32,.18,.33,0,.04,.03,.05,.07,0h.27s-.2-.42-.2-.42c.06-.24,.25-.03,.01-.49,.35,.7,1.02,.04,1.18,.25,.08-.35,.24-.38,.44-.39-.07-.08-.21-.55-.03-.53,.18,1,.41,.35,.72,1.03-.24-.44,.45-.23,.09-.86,.16,.05,.1,.37,.26,.57,.24-.46,.79,.07,1.17-.16-.03-.13-.14-.31-.1-.53l.38,.59c.07-.08-.11-.77,.15-.35-.05-.1-.12-.26-.08-.32,.96,.43,1.5-.93,2.62,.04-.18-.22-.11-.27-.03-.3-.07-.05-.08-.32-.14-.49l.47,.4c-.07-.5,.36-.13,.27-.6l-.09,.11c0-.59-.52-1.17-.68-1.88,0,.67-.66-.81-.69,.15-.09-.13,0-.24-.08-.39,.01,.32-.05,.4-.23,.31v-.08c-.4,.18-.65-.07-1.17-.15l.12,.34c-.11-.02-.16-.13-.23-.2,.02,.56,.29-.04,.33,.57-.31-.68-.71,.17-1.01-.62-.16,.03,.15,.39,0,.43l-.1-.21,.03,.29c-.11-.02-.23-.28-.28-.46,.03,.02,.06-.07,.08-.09-.2-.22-.35,.18-.41,.11l.18,.1c-.37,.31-.96,.15-1.26,.7l.07,.16c-.24,.38-.29-.12-.6,.1v-.04c-.03,.18-.1,.29-.2,.29,.04-.21-.25-.34-.19-.58-.26,.41-.1,.3-.18,.97l-.12-.26c-.02,.27,0,.4-.15,.51,.08-.27-.21-.39-.13-.74-.5-.51-.39,.73-.76-.1,.02,.8,.41,.35,.36,.53,.14,.23,0,.6-.13,.55-.12,.01-.43-.92-.71-.84,.03,0,.02-.06,.05-.06-.15-.17-.15,.31-.36,.03,.03,.48-.18,.01-.06,.6l.23-.2c-.11,.19-.09,.91-.42,.63,0-.12,.03-.3,.06-.39-.11-.16-.11,.15-.23-.01-.12-.59,.29-.2,.35-.69-.14-.23-.2,.5-.27-.16,.07,.83-.31-.03-.36,.63l-.07-.35c-.02,.06-.04,.24-.1,.25v-.48c-.07,.43-.39-.27-.49-.02,.32-.08,.17,.41,.37,.63-.28,.56-.44-.87-.84-.59,.05-.06,.27,.16,.22,.34-.1-.05-.24-.16-.34-.33-.27,.14,.13,.35,.05,.59-.2-.4-.1,.21-.2,.37l-.08-.36c-.39-.15,.08,.76-.28,.56v-.52s-.11,.16-.11,.16l-.06-.41c-.1,.34-.17,.28-.36,.2,.1,.24,.13,.65-.02,.7-.15-.19-.02-.35-.22-.25,0-.23-.02-.53,.15-.22-.02-.12,0-.23-.02-.35-.16-.22-.28,0-.36,.03,.03,0,.07,.02,.1,.07l-.19,.56c-.08-.12-.07-.24-.05-.35-.05,.05-.06,.23-.14,.28-.04-.3-.12-.59-.02-.76l-.22,.39c-.05-.12-.23-.31-.21-.43-.2-.13-.26,.65-.53,.48,0,.06,0,.12-.04,.17-.21-.02-.47-.34-.62,.12l-.25-.49c-.16,.16,.33,.61,.07,.88-.18,.22-.18-.43-.29-.55-.05,.29-.12,.86-.41,.48,.04-.11,.11-.05,.17-.1Zm-2.24,.74c.03-.08,.06-.34,.14-.13,.04,.42-.04,.23-.14,.13Zm-3.29,1.64c0-.13,.07-.08,.16,.04-.04,.04-.09,.04-.16-.04Zm-9.14,4.68s0-.01,0-.02c.13,.12,.08,.07,0,.02Zm-.24-.11c0,.05,0,.1,.02,.15,0-.09,.04-.11,.1-.1-.04-.09-.08-.15-.12-.05Zm22.07-5.15l-.06-.08c.07-.12,.06-.03,.06,.08Z"/>
        <path class="cls-2" d="M114.23,63.12c.03,.06,.04,.12,.06,.19,0-.06-.01-.13-.06-.19Z"/>
        <polygon class="cls-2" points="120.86 60.81 120.87 60.81 120.86 60.74 120.86 60.81"/>
        <path class="cls-2" d="M107.05,64.51c.05,.04,.09,.1,.12,.17-.02-.09-.05-.16-.12-.17Z"/>
        <path class="cls-2" d="M103.62,69.13l.11-.12c-.06,.03-.1-.04-.15-.09,.02,.08,.08,.2,.04,.21Z"/>
        <path class="cls-2" d="M101.96,67.19s-.04,.01-.05,.06l.04,.16c.08-.03,.1-.18,0-.23Z"/>
        <path class="cls-2" d="M103.22,67.97c-.08-.3-.14-.18-.22-.1,0,0,0,0,.02,0,.07,.43,.14,.26,.2,.1Z"/>
        <path class="cls-2" d="M102.99,67.89s-.05,.04-.08,.03c.03,.17,.04,.03,.08-.03Z"/>
        <path class="cls-2" d="M104.35,68.53c-.06-.07,.06,.39,0,.27,.04,.39,.18-.53,0-.27Z"/>
        <polygon class="cls-2" points="102.92 67 103.04 67.37 103.02 67.05 102.92 67"/>
        <path class="cls-2" d="M103.71,67.1l-.17-.07c.02,.06,0,.1,0,.14,.09,0,.21,.04,.18-.07Z"/>
        <path class="cls-2" d="M103.53,67.17s-.09,.02-.1,.09c.02,0,.08-.04,.1-.09Z"/>
        <polygon class="cls-2" points="103.09 66.84 103.15 66.91 103.26 66.91 103.09 66.84"/>
        <path class="cls-2" d="M105.31,66.81l.14-.14c-.01-.13-.07-.2-.12-.13-.02,.1-.07,.16-.01,.28Z"/>
        <path class="cls-2" d="M104.59,65.91c.06,.07,.08,.15,.14,.26l-.1-.46-.03,.2Z"/>
        <path class="cls-2" d="M105.03,65.69c-.01-.13,.15-.42-.05-.34,.01,.13-.12,.27,.05,.34Z"/>
        <polygon class="cls-2" points="107.59 65.72 107.55 65.73 107.73 66.48 107.59 65.72"/>
        <path class="cls-2" d="M109.32,63.43c-.23-.14,.06,.48-.16,.29,0,.19,.18,.15,.17,.32,.07-.21,.16-.12,0-.61Z"/>
        <path class="cls-2" d="M109.33,64.03s-.02,.07-.03,.13c.02-.05,.03-.09,.03-.13Z"/>
        <polygon class="cls-2" points="134.22 61.63 134.38 61.76 134.24 61.53 134.22 61.63"/>
        <path class="cls-2" d="M134.31,61.02l.15,.47-.04-.45s-.06,.08-.11-.02Z"/>
        <path class="cls-2" d="M116.68,61.17l.02,.12c.05,.12,.08,.12,.14,.13l-.16-.25Z"/>
        <polygon class="cls-2" points="118.42 61.16 118.39 61.15 118.55 61.58 118.42 61.16"/>
        <path class="cls-2" d="M119.69,60.29c-.06,0-.11,.11-.17,.1,.11-.11,.31,.44,.17-.1Z"/>
      </g>
      <g>
        <path class="cls-2" d="M137.84,69.4c.06,.01-.05-.29-.05-.35-.07,.09,.08,.42,.05,.35Z"/>
        <polygon class="cls-2" points="137.18 70.32 137.16 70.2 137.13 70.53 137.18 70.32"/>
        <path class="cls-2" d="M136.39,70.53c.23,.5,.26-.16,.46-.01l.06,.11-.06-.44c-.15,.11-.3,.45-.46,.34Z"/>
        <path class="cls-2" d="M135.64,69.51c.09,.2-.04,.2,.12,.04-.01-.02-.02-.03-.03-.05-.02,0-.04,.01-.08,0Z"/>
        <path class="cls-2" d="M135.72,69.51c.08-.04-.1-.16,0,0h0Z"/>
        <path class="cls-2" d="M135.37,69.72l.06-.21c-.06-.11-.16-.11-.15-.21-.08,.13-.03,.24,.09,.42Z"/>
        <path class="cls-2" d="M135.37,70.13l.04-.09s-.04-.06-.04,.09Z"/>
        <path class="cls-2" d="M135.48,69.85l-.07,.19c.04,.08,.09,.25,.04-.07,.03,.16,.02,0,.04-.12Z"/>
        <path class="cls-2" d="M135.57,69.91c.09,.1,.2,.15,.14,.36,.19-.13,.05-.48-.14-.36Z"/>
        <path class="cls-2" d="M136.5,71.08l.13,.13,.02-.19c-.01,.1-.2-.1-.15,.06Z"/>
        <path class="cls-2" d="M134.6,69.63c.03,.11,.12,.29,.17,.43l.04-.15c-.06-.06-.16-.11-.22-.28Z"/>
        <path class="cls-2" d="M134.77,70.06l-.07,.22c.12,0,.11-.1,.07-.22Z"/>
        <polygon class="cls-2" points="135.52 70.71 135.61 70.26 135.48 70.73 135.52 70.71"/>
        <polygon class="cls-2" points="134.13 69.74 134.13 69.47 134.12 69.89 134.13 69.74"/>
        <path class="cls-2" d="M133.84,69.87c-.01-.23-.17-.34-.16-.49-.07,.06-.09,.26-.11,.44,.04-.11,.12-.11,.27,.04Z"/>
        <path class="cls-2" d="M133.53,70.09c.02-.06,.03-.16,.04-.27-.02,.06-.04,.14-.04,.27Z"/>
        <path class="cls-2" d="M134.48,70.28c-.03-.06-.1-.23-.19-.29l.14,.3h.05Z"/>
        <path class="cls-2" d="M134.44,70.3h0c-.05,0-.09,0-.11,0,.01,0,.05,0,.11,0Z"/>
        <path class="cls-2" d="M134.5,70.28h-.01s.02,.04,.01,0Z"/>
        <path class="cls-2" d="M135.12,70.52c-.02,.19-.12,.42,.1,.65-.01-.23-.14-.36-.1-.65Z"/>
        <path class="cls-2" d="M134.67,70.65l.15,.04c-.03-.08-.08-.2-.07-.29l-.08,.25Z"/>
        <polygon class="cls-2" points="134.63 70.77 134.67 70.65 134.61 70.64 134.63 70.77"/>
        <path class="cls-2" d="M133.84,70.33c-.02,.15-.07,.18-.14,.22,.09,.04,.18,.05,.25,.03-.02-.1-.04-.29-.11-.25Z"/>
        <path class="cls-2" d="M134.14,70.34v.02s.02,.03,0-.02Z"/>
        <polygon class="cls-2" points="133.02 70.72 133.05 70.78 133.03 70.72 133.02 70.72"/>
        <path class="cls-2" d="M133.98,70.63c.07,.05,.08-.04,.09-.14-.03,.04-.07,.07-.12,.09,0,.05,.02,.08,.03,.05Z"/>
        <path class="cls-2" d="M133.39,70.29c.05,.06,.1,.1,.15,.15-.06-.09-.16-.23-.15-.15Z"/>
        <path class="cls-2" d="M134.09,70.28s0-.02,0-.02c-.04-.06-.03-.03,0,.02Z"/>
        <path class="cls-2" d="M134.09,70.28c-.02,.05-.02,.14-.02,.21,.03-.03,.05-.08,.06-.13-.01-.02-.03-.05-.04-.08Z"/>
        <path class="cls-2" d="M133.39,72.78c-.07-.29,0-.6,.21-.32,.06-.25-.29-1.18-.55-1.68,.03,.13,.07,.24-.01,.45,.09,.15,.39,.29,.36,.58-.13,.19-.17-.07-.29-.2,.17,.34-.07,.58,.12,1.1l.1-.23c.03,.08,.01,.23,.07,.29Z"/>
        <path class="cls-2" d="M133.3,70.74l.04-.05c-.07-.03-.15-.14-.29-.34-.05,.16-.03,.28-.01,.37l.27-.03v.05Z"/>
        <path class="cls-2" d="M133.58,70.63c.05,.33-.04,.49,.14,.81,.15-.06,.03-.29,.09-.45-.23,.14,.02-.19-.21-.33,.03-.07,.07-.09,.11-.12-.06-.03-.11-.06-.17-.11v.02s.01,0,.01,0h0s.03,.06,.01,.04h0c0,.05,.02,.09,.02,.13-.09-.05-.03-.08-.02-.12v-.05s-.01,0-.01,0l-.2,.24c.07,.03,.13,0,.24-.06Z"/>
        <path class="cls-2" d="M135.29,71.87s-.02-.05-.03-.07c0,.04,0,.07,.03,.07Z"/>
        <path class="cls-2" d="M135.13,71.71s-.02-.18,.05-.16c.08,.08,.04,.15,.08,.25,.01-.09,.06-.26-.1-.38v.05c-.14-.08-.38-.44-.37-.49,.11,.27,.2,.47,.34,.73Z"/>
        <path class="cls-2" d="M134.37,71.25l-.16,.21,.18,.24-.05-.16c.14,.03,.05-.16,.03-.29Z"/>
        <polygon class="cls-2" points="132.95 70.57 132.88 70.23 132.9 70.73 132.95 70.57"/>
        <polygon class="cls-2" points="132.69 70.68 132.62 70.39 132.6 70.58 132.69 70.68"/>
        <path class="cls-2" d="M118.44,78.35l-.04,.1s.03-.07,.04-.1Z"/>
        <path class="cls-2" d="M118.89,78.25l-.03-.15c0,.08,0,.14,.03,.15Z"/>
        <path class="cls-2" d="M126.07,72.47c-.16-.25-.38-.64-.28-.32l.11,.31c.05-.07,.1-.05,.16,0Z"/>
        <path class="cls-2" d="M122.04,75.57l.05,.09c0-.11-.01-.22-.02-.32,0,.07-.02,.15-.03,.23Z"/>
        <path class="cls-2" d="M122.33,76.9l-.17-.17c.05,.06,.1,.12,.17,.17Z"/>
        <path class="cls-2" d="M116.11,79.36l.02,.34c.11-.03,.02-.18-.02-.34Z"/>
        <path class="cls-2" d="M129.96,71.53c-.11-.1-.19-.14-.25-.14,.14,.16,.3,.41,.25,.14Z"/>
        <path class="cls-2" d="M117.68,74.93c-.02,.07-.02,.14,0,.21,.02-.07,.03-.13,0-.21Z"/>
        <path class="cls-2" d="M129.49,71.45s.04,.04,.06,.06c.04-.07,.09-.13,.16-.12-.11-.12-.21-.18-.22,.06Z"/>
        <path class="cls-2" d="M107.07,81.26s-.02-.02-.03-.03c0,.04,.02,.04,.03,.03Z"/>
        <path class="cls-2" d="M103.91,78.4s.06-.03,.1-.04c-.02-.02-.05-.01-.1,.04Z"/>
        <path class="cls-2" d="M131.57,70.83c.05-.04,0-.04,0,0h0Z"/>
        <path class="cls-2" d="M132.2,72.01s0,.09,.02,.16c-.02-.08-.02-.13-.02-.16Z"/>
        <path class="cls-2" d="M129.48,73.57h0c.03,.06,.03,.05,0,0Z"/>
        <path class="cls-2" d="M131.69,70.95s-.07-.06-.1-.07c.02,.02,.05,.05,.1,.07Z"/>
        <path class="cls-2" d="M131.64,70.81s.04,.01,.06,.02c0-.05-.02-.09-.06-.02Z"/>
        <path class="cls-2" d="M131.49,70.87s.07,0,.1,0c-.02-.02-.03-.04-.03-.05-.02,0-.04,.02-.07,.04Z"/>
        <path class="cls-2" d="M111.71,79.32s-.01-.01-.02-.03c-.03,.15,0,.12,.02,.03Z"/>
        <polygon class="cls-2" points="125.48 76.16 125.49 76.14 125.47 76.13 125.48 76.16"/>
        <path class="cls-2" d="M125.34,76.45c-.02-.42,.04-.38,.13-.32l-.32-.9,.19,1.22Z"/>
        <path class="cls-2" d="M117.4,78.73l.22,.24c-.04,.52-.22,.39,.03,.75-.25-1,.53-.26,.28-1.26l.15,.18s-.02,.06-.05,.06c.32,.42-.06-.76,.22-.68,.1,.05,.2,.18,.18,.31l.12-.3c.06,0,.09,.18,.04,.18l.26-.16v.03c0-.17,.03-.43,.04-.55,.11,.12,0,.11,.05,.23l.09-.28c.14,.24,.08,.53-.04,.52,.42,.95,.06-.29,.54,.21l-.11,.17c.25,.54,.31,.3,.57,.61-.09-.17-.58-.79-.48-1.09,.07,.06,.14,.08,.18-.15,.1,.35,.16,.24,.27,.19l.12,.47c.08-.17,0-.4,.02-.63,.15,0,.28,.36,.39,.66,.24,.01-.31-.54-.08-.7,.23,.13,.3-.1,.44-.44,.17,.13,.06,.29,.14,.41v-.4s.06,.12,.07,.18c.05-.17-.12-.47,0-.64-.1-.53,.51,.67,.53,.04,.08,.12,.06,.29,.12,.47,.15-.45,.14-.34,.2-.91l.26,.26c-.22-.32-.17-.78-.12-1.16-.09-.16-.17-.3-.22-.36l.16-.31c.05,.07,.07,.24,.08,.44,0-.04,0-.08,.01-.12,.13,.15,.16,.43,.17,.71-.05-.09-.11-.18-.16-.27,.02,.3,.05,.63,.14,.9,0-.06,.02-.11,.04-.15,0,.08,.02,.15,.03,.2,.02,.05,.02-.06,.02-.19l.19,.51-.04-.21,.39,.25c.07-.58,.05-1.41,.34-1.71,.02,.41,.15,.63,.27,1.09-.22-.46-.21,.27-.41,.22,.11,.03,.14,.25,.14,.33l.2-.52c.09,.37,.14,.26,.27,.39-.26-.72,.1-.55,.17-.81,.08,.24,.11,.5-.06,.49,.32,.51,0-.92,.29-.5-.04,.02-.07-.02-.05,.11,.03-.24,.3-.13,.3,.1l-.04,.02c.28,.02,.78-.2,.65-.83,.02,.08,.17,.76,.19,.89l-.12-2.22c.11,.55,.61,1.78,.48,2.14,.08,.06,.18,.13,.26-.09-.06-.07-.32-.75-.27-.81,.32,.55,.2,.29,.53,.75-.09-.1-.26-.95-.15-.95,.02,.13,.24,.83,.22,.92l.02-.89c-.02,.16,.18,.7,.3,.92-.07-.15,.22-.04,.26-.14l-.16-.16c.31,.05-.05-1.23,.24-1.26,.01,.18,.21,1.07,.38,1.13-.05-.44-.28-2.1-.13-2.49l.11,.23,.11-.32c.06,.66,.11,2.08,.07,2.65,.16,.16,.11,.28,.26,.21,.12,.21,.01,.36-.03,.39l.4,.05c-.15-.49,.14-.57,.01-.97l-.25,.61c-.15-.49-.16-1.46,.12-1.44,.12,.18,.19,.89,.25,1.05-.01-.18,.15-.39,.21-.27l-.04,.29c.19,.15,.05-.71,.35-.29,.07,.02,.35,.59,.28,.29-.25-.54-.76-2.27-.81-2.7,.03,.03,.46,.45,.6,.71,.22,.41,.15,1.09,.34,1.44-.03-.14-.03-.32-.02-.37,.09,.1,.09,.42,.21,.33-.12-.5,.29-.03-.05-.44,.09-.18,.17,.07,.32,0-.14-.31-.17-1.13-.08-1.31,.03,.13,.1,.29,.14,.36,.28-.03,.49,.16,.74,.1,.06,.11,.22,.23,.23,.46,.01-.1,0-.28,.07-.31,.27,.39-.15,.11,.11,.6-.07-.29,.09-.45,.15-.66-.16-.44-.28-.02-.34,.19-.17-.62-.16-1.31,.02-1.67,.17-.21,.2,.37,.21,.28,.42,0,.03-1.16,.48-.81,.24,.36,.23,.78,.34,1.06-.13,.19-.33-.18-.44-.13l.19,.15c-.02,.14-.1,.27-.2,.18,.21,.32,.68-.11,1.08,.14,.02-.15,.07-.31-.02-.45l-.08,.08c-.18-.29,.06-.49-.11-.6,.06-.26,.11-.64,.34-.51l.16,.44c-.04-.13-.19-.24-.21-.09,.02-.22,.45,.53,.36-.07l-.22-.28c.06-.26,.09-.78,.29-.68-.2-.42-.02,.06-.28-.43,.28,.62-.42,.08-.07,.72-.29-.57-.27-.2-.57-.67,.05,.15,.13,.27-.02,.23,0,.04,0,.1,0,.14h-.01s.01,0,.01,0c0,.02,0,.03,0,0,.05,.06,.1,.13,.13,.21,.03,.36-.19,.4-.21,.6-.1-.05-.02-.18-.1-.32l-.03,.29c-.1-.33-.37-.49-.23-.73l-.17,.03c-.15-.16-.31-.2-.35-.04-.1-.05-.1,.42-.1,.14l-.21,.27-.03-.08c-.27,.03-.38,.69-.85,.17-.06,.11-.13,.23-.3,.18l-.11-.28c-.08,.13-.42-.19-.38,.11-.34-.73-.59-.02-.83-.11l.1,.37c-.14,.01-.24,.15-.37,.35l.1,.33c-.07,.31-.44-.13-.66-.04-.02-.13,.05-.11,.11-.05-.48-.67-.43,.69-.83,.22-.03,.14-.09,.11-.15,.04,0,0,0,0,.01-.02,0,0-.02,0-.03,0-.04-.05-.09-.1-.14-.15,.05,.07,.09,.13,.12,.16-.05,.02-.11,.08-.16,.18l-.13-.34s0,0-.01,.01c-.11-.11-.01,.18,.1,.44-.02,.07-.03,.15-.04,.24-.21-.55-.13,.24-.38-.35,.03,.31-.3,.32-.17,.95-.02-.08-.06-.11-.02-.13-.1-.05-.2-.1-.22,.09l-.16-.44v.65c-.19-.25-.28-.39-.27-.77-.11,.6-.15,.25-.22,.84l-.07-.29c-.07,.03-.09,.45-.2,.23-.32-.51-.88,.15-1.46-.25,.32,.83-.31-.33-.15,.34-.08-.2-.17-.29-.15-.49-.17,.26-.43-.23-.43,.37-.08-.2-.03-.31-.09-.42,0,.05-.02,.2-.08,.08-.06-.11-.01-.18,0-.28-.22,.1-.08,.72,.06,1.31-.19-.25-.24-.19-.22,.21-.09-.18-.21-.36-.09-.47-.09,0-.57-.15-.45,.32-.06-.11-.12,0-.13,.06-.19,.02-.22-.02-.38,.08l.07,.06c.08,.58-.11,.17-.24,.27v-.06c-.45-.32-.1,.23-.55-.14l.11,.35c.18,.76-.41-.37-.52-.03l.12,.18c-.03,.29-.57-.95-.7-1.01-.04-.06,0-.12,.02-.17-.39-.37,.09,.47-.08,.63-.11-.24-.13-.64-.28-.65-.12-.18-.17,.91-.49,.49,.09,.18,.19,.36,.13,.53-.12,.11-.59-.61-.55,.02-.03-.05-.05-.09-.07-.14-.07,.19-.28,.36-.26,.7-.44-1.18-.52,.78-.82-.34l-.32,.15-.02-.12c-.24-.01-.24,.27-.24,.56-.07-.06-.06-.18-.08-.24-.38-.14-.39-.08-.5,.55l-.13-.36c-.01,.23-.61-.45-.8,.06,0-.04-.02-.11-.01-.17-.23,.52-1.1-.79-.87,.57l-.14,.39c.32,.02,.11,.59,.29,.77-.1,.11-.41-.32-.28-.43l.04,.06c-.13-.7-.43-.15-.55-.62-.57,.19-1.24-.05-1.79,.06l.2,.52-.2,.02c-.08-.11-.17-.4-.03-.42-.15-.29-.16,.31-.14,.43-.32-.15-.05-.65-.14-.65l-.1,.07,.04,.06c-.03,.24,.01,.48-.15,.49-.13-.08-.13-.32-.18-.33,0-.04-.03-.05-.07,0h-.25s.2,.41,.2,.41c-.06,.24-.23,.03,0,.49-.34-.7-.96-.06-1.11-.27-.08,.35-.23,.37-.42,.38,.07,.08,.2,.55,.03,.53-.16-1-.38-.37-.67-1.06,.22,.45-.42,.21-.1,.85-.15-.05-.09-.37-.24-.58-.23,.46-.74-.11-1.09,.1,.02,.13,.12,.32,.08,.53l-.33-.62c-.06,.08,.07,.77-.15,.34,.04,.11,.1,.27,.06,.32-.86-.5-1.47,.8-2.42-.3,.14,.24,.07,.28,0,.3,.06,.05,.04,.33,.08,.5l-.39-.46c0,.51-.34,.08-.31,.56l.09-.1c-.07,.58,.35,1.22,.43,1.95,.07-.66,.55,.89,.69-.06,.08,.14-.02,.24,.04,.4,.02-.32,.09-.4,.26-.28v.08c.4-.14,.63,.14,1.13,.26l-.09-.35c.11,.03,.15,.14,.21,.22,.02-.56-.29,.02-.28-.59,.26,.7,.7-.11,.94,.69,.16-.02-.12-.4,.03-.42l.08,.21v-.29c.09,.03,.2,.29,.24,.48-.03-.02-.06,.07-.08,.09,.18,.23,.35-.16,.41-.09l-.17-.11c.38-.29,.95-.1,1.26-.64l-.07-.16c.24-.37,.28,.13,.59-.08v.04c.03-.18,.1-.28,.19-.28-.04,.21,.24,.34,.18,.58,.26-.4,.11-.3,.18-.96l.11,.26c.02-.26,0-.4,.14-.51-.08,.27,.2,.39,.12,.74,.49,.52,.38-.73,.74,.11-.02-.8-.4-.35-.35-.53-.13-.23,0-.6,.12-.55,.11,0,.42,.92,.7,.84-.03,0-.02,.06-.05,.06,.15,.17,.14-.31,.35-.03-.04-.47,.17-.02,.05-.6l-.22,.2c.11-.19,.07-.9,.39-.63,.01,.12-.02,.29-.05,.39,.11,.15,.11-.15,.22,.01,.13,.59-.28,.21-.32,.69,.14,.23,.19-.5,.27,.16-.09-.83,.3,.03,.34-.63l.08,.35c.02-.06,.04-.24,.09-.25l.02,.48c.06-.42,.38,.26,.48,.02-.31,.09-.18-.4-.37-.62,.26-.56,.45,.86,.83,.58-.04,.06-.27-.15-.22-.34,.1,.05,.24,.16,.34,.33,.26-.15-.14-.35-.07-.59,.21,.4,.09-.21,.18-.38l.09,.35c.38,.14-.11-.76,.25-.56v.52s.12-.17,.12-.17l.08,.41c.08-.34,.15-.28,.34-.21-.1-.24-.15-.65-.01-.7,.15,.18,.04,.35,.22,.25,.01,.23,.04,.52-.13,.22,.02,.12,.02,.23,.04,.35,.17,.21,.27-.01,.35-.04-.03,0-.07-.02-.1-.06l.16-.57c.08,.12,.07,.24,.07,.35,.05-.05,.04-.23,.12-.28,.06,.29,.14,.59,.06,.76l.19-.39c.05,.12,.23,.3,.23,.42,.2,.13,.22-.66,.48-.49,0-.06,0-.12,.03-.17,.21,.01,.47,.32,.59-.14l.27,.48c.14-.17-.35-.6-.11-.88,.16-.22,.2,.42,.31,.54,.03-.29,.06-.86,.37-.5-.04,.11-.11,.05-.15,.11Zm2.09-.83c-.02,.09-.04,.34-.13,.14-.06-.42,.03-.23,.13-.14Zm3.04-1.75c0,.13-.06,.08-.15-.04,.03-.04,.08-.04,.15,.04Zm8.48-4.88s0,.01,0,.02c-.13-.11-.08-.07,0-.02Zm.24,.1c0-.05,0-.1-.03-.15,.01,.09-.03,.11-.09,.1,.04,.09,.08,.15,.12,.05Zm-20.75,5.69l.06,.08c-.06,.12-.06,.02-.06-.08Z"/>
        <path class="cls-2" d="M122.3,76.74c-.03-.06-.05-.12-.07-.19,0,.06,.02,.13,.07,.19Z"/>
        <polygon class="cls-2" points="116.11 79.29 116.1 79.29 116.11 79.36 116.11 79.29"/>
        <path class="cls-2" d="M129.09,75.17c-.05-.04-.09-.1-.13-.16,.02,.09,.06,.15,.13,.16Z"/>
        <path class="cls-2" d="M132.11,70.52l-.1,.12c.05-.03,.1,.04,.14,.09-.03-.08-.08-.19-.05-.21Z"/>
        <path class="cls-2" d="M133.82,72.41s.04-.02,.04-.06l-.05-.16c-.07,.03-.09,.18,0,.23Z"/>
        <path class="cls-2" d="M132.56,71.66c.09,.29,.14,.17,.22,.09,0,0,0,0-.02,0-.09-.42-.15-.26-.2-.1Z"/>
        <path class="cls-2" d="M132.8,71.74s.05-.04,.08-.03c-.04-.17-.04-.03-.08,.03Z"/>
        <path class="cls-2" d="M131.45,71.12c.06,.07-.08-.39-.02-.27-.06-.39-.15,.53,.02,.27Z"/>
        <polygon class="cls-2" points="132.91 72.61 132.78 72.26 132.81 72.56 132.91 72.61"/>
        <path class="cls-2" d="M132.15,72.53l.17,.06c-.02-.06-.01-.1,0-.14-.09,.01-.2-.04-.17,.07Z"/>
        <path class="cls-2" d="M132.32,72.46s.09-.02,.1-.09c-.02,.01-.07,.04-.1,.09Z"/>
        <polygon class="cls-2" points="132.75 72.77 132.69 72.71 132.59 72.71 132.75 72.77"/>
        <path class="cls-2" d="M130.63,72.85l-.12,.15c.02,.13,.08,.2,.13,.13,.01-.1,.05-.16,0-.28Z"/>
        <path class="cls-2" d="M131.38,73.73c-.06-.07-.09-.15-.15-.26l.12,.45,.02-.19Z"/>
        <path class="cls-2" d="M130.96,73.96c.02,.13-.12,.42,.07,.34-.02-.13,.1-.27-.07-.34Z"/>
        <polygon class="cls-2" points="128.51 73.99 128.55 73.97 128.33 73.23 128.51 73.99"/>
        <path class="cls-2" d="M126.98,76.3c.23,.13-.08-.47,.14-.29,0-.19-.18-.15-.18-.31-.06,.21-.14,.12,.04,.6Z"/>
        <path class="cls-2" d="M126.94,75.7s.02-.07,.02-.13c-.02,.06-.02,.09-.02,.13Z"/>
        <polygon class="cls-2" points="103.44 78.05 103.3 77.9 103.41 78.15 103.44 78.05"/>
        <path class="cls-2" d="M103.29,78.65l-.09-.49-.02,.45s.07-.07,.1,.03Z"/>
        <path class="cls-2" d="M120.08,78.77l-.02-.12c-.05-.12-.08-.12-.14-.12l.16,.24Z"/>
        <polygon class="cls-2" points="118.42 78.85 118.45 78.86 118.28 78.44 118.42 78.85"/>
        <path class="cls-2" d="M117.26,79.77c.06,0,.1-.11,.16-.11-.1,.11-.32-.42-.16,.11Z"/>
      </g>
      <g>
        <path class="cls-2" d="M105.67,93.96c-.06-.01,.06,.29,.07,.34,.06-.09-.1-.42-.07-.34Z"/>
        <polygon class="cls-2" points="106.24 93.03 106.27 93.15 106.29 92.81 106.24 93.03"/>
        <path class="cls-2" d="M106.98,92.8c-.23-.5-.24,.17-.43,.03l-.06-.11,.07,.43c.14-.12,.26-.46,.42-.35Z"/>
        <path class="cls-2" d="M107.72,93.8c-.09-.19,.03-.2-.11-.04,.01,.02,.02,.03,.03,.05,.02,0,.04-.01,.08-.01Z"/>
        <path class="cls-2" d="M107.65,93.81c-.07,.04,.1,.15,0,0h0Z"/>
        <path class="cls-2" d="M107.97,93.58l-.05,.21c.06,.11,.16,.11,.15,.21,.08-.13,.02-.24-.1-.42Z"/>
        <path class="cls-2" d="M107.95,93.17l-.03,.09s.04,.06,.03-.09Z"/>
        <path class="cls-2" d="M107.86,93.46l.06-.19c-.04-.08-.09-.25-.03,.07-.04-.16-.01,0-.03,.12Z"/>
        <path class="cls-2" d="M107.77,93.4c-.09-.1-.19-.14-.14-.35-.18,.13-.03,.49,.14,.35Z"/>
        <path class="cls-2" d="M106.86,92.25l-.12-.13v.19c0-.1,.18,.09,.12-.07Z"/>
        <path class="cls-2" d="M108.69,93.66c-.03-.11-.12-.28-.17-.42l-.04,.15c.06,.06,.16,.11,.21,.27Z"/>
        <path class="cls-2" d="M108.52,93.24l.06-.22c-.11,0-.1,.1-.06,.22Z"/>
        <polygon class="cls-2" points="107.8 92.59 107.73 93.05 107.83 92.58 107.8 92.59"/>
        <polygon class="cls-2" points="109.13 93.54 109.14 93.82 109.14 93.4 109.13 93.54"/>
        <path class="cls-2" d="M109.4,93.41c.02,.23,.17,.34,.16,.48,.07-.06,.08-.26,.09-.44-.04,.11-.11,.11-.25-.04Z"/>
        <path class="cls-2" d="M109.69,93.18c-.02,.06-.02,.16-.03,.27,.02-.06,.03-.14,.03-.27Z"/>
        <path class="cls-2" d="M108.79,93.01c.03,.06,.1,.23,.18,.29l-.14-.3h-.05Z"/>
        <path class="cls-2" d="M108.83,92.99h0c.05,0,.09,0,.1,0-.01,0-.04,0-.11,0Z"/>
        <path class="cls-2" d="M108.77,93.01h.01s-.02-.04-.01,0Z"/>
        <path class="cls-2" d="M108.18,92.78c.01-.19,.1-.42-.12-.65,.02,.23,.14,.35,.12,.65Z"/>
        <path class="cls-2" d="M108.6,92.64l-.14-.03c.03,.08,.08,.19,.08,.29l.06-.26Z"/>
        <polygon class="cls-2" points="108.63 92.52 108.6 92.64 108.65 92.65 108.63 92.52"/>
        <path class="cls-2" d="M109.39,92.95c.01-.15,.07-.18,.12-.22-.09-.04-.17-.05-.24-.03,.02,.1,.04,.29,.11,.25Z"/>
        <path class="cls-2" d="M109.11,92.94v-.02s-.02-.03,0,.02Z"/>
        <polygon class="cls-2" points="110.16 92.55 110.13 92.49 110.14 92.55 110.16 92.55"/>
        <path class="cls-2" d="M109.25,92.65c-.07-.04-.08,.04-.08,.15,.03-.04,.06-.08,.11-.09,0-.05-.02-.07-.03-.05Z"/>
        <path class="cls-2" d="M109.82,92.98c-.05-.06-.09-.1-.14-.14,.06,.09,.15,.23,.14,.14Z"/>
        <path class="cls-2" d="M109.16,93s0,.02,0,.02c.04,.06,.02,.03,0-.02Z"/>
        <path class="cls-2" d="M109.16,93c.01-.05,.01-.14,.01-.21-.02,.03-.04,.08-.06,.13,.01,.02,.03,.05,.04,.08Z"/>
        <path class="cls-2" d="M109.77,90.49c.07,.29,.01,.6-.2,.32-.05,.25,.3,1.18,.56,1.68-.03-.13-.07-.24,0-.45-.09-.15-.37-.29-.35-.58,.12-.2,.16,.06,.28,.19-.17-.34,.05-.58-.14-1.1l-.09,.23c-.03-.08-.01-.23-.07-.29Z"/>
        <path class="cls-2" d="M109.89,92.53l-.04,.05c.07,.03,.15,.14,.29,.34,.04-.16,.03-.28,0-.37l-.26,.03v-.05Z"/>
        <path class="cls-2" d="M109.63,92.65c-.05-.33,.03-.49-.15-.81-.14,.06-.02,.29-.07,.45,.21-.15-.02,.19,.21,.32-.03,.07-.07,.09-.1,.12,.05,.03,.11,.06,.16,.11v-.02s-.01,0-.01,0h0s-.03-.06-.01-.04h0c0-.05-.02-.09-.02-.13,.09,.05,.03,.08,.02,.12v.05s.01,0,.01,0l.18-.24c-.06-.03-.12,0-.22,.07Z"/>
        <path class="cls-2" d="M107.99,91.43s.02,.05,.03,.07c0-.04,0-.07-.03-.07Z"/>
        <path class="cls-2" d="M108.14,91.59s.02,.18-.05,.16c-.08-.08-.05-.15-.08-.25,0,.09-.05,.26,.1,.38v-.05c.13,.08,.37,.43,.37,.48-.11-.27-.2-.47-.34-.72Z"/>
        <path class="cls-2" d="M108.87,92.03l.15-.21-.18-.24,.05,.16c-.13-.03-.05,.16-.02,.29Z"/>
        <polygon class="cls-2" points="110.22 92.7 110.29 93.04 110.27 92.54 110.22 92.7"/>
        <polygon class="cls-2" points="110.47 92.59 110.54 92.88 110.56 92.68 110.47 92.59"/>
        <path class="cls-2" d="M124.05,85.19l.04-.1s-.03,.06-.04,.1Z"/>
        <path class="cls-2" d="M123.62,85.27l.02,.15c0-.08,0-.14-.02-.15Z"/>
        <path class="cls-2" d="M116.72,90.83c.16,.25,.36,.65,.26,.32l-.11-.31c-.04,.07-.1,.05-.15,0Z"/>
        <path class="cls-2" d="M120.56,87.82l-.05-.09c0,.11,.01,.22,.02,.32,0-.07,.02-.15,.03-.23Z"/>
        <path class="cls-2" d="M120.29,86.48l.16,.18c-.04-.07-.1-.13-.16-.18Z"/>
        <path class="cls-2" d="M126.3,84.3v-.34c-.12,.03-.03,.18,0,.34Z"/>
        <path class="cls-2" d="M113.04,91.73c.11,.1,.18,.14,.23,.14-.14-.16-.28-.41-.23-.14Z"/>
        <path class="cls-2" d="M124.7,88.63c.02-.07,.02-.14,0-.21-.02,.06-.03,.13,0,.21Z"/>
        <path class="cls-2" d="M113.48,91.81s-.04-.04-.06-.06c-.04,.07-.08,.13-.15,.12,.1,.12,.2,.18,.21-.06Z"/>
        <path class="cls-2" d="M134.78,82.61s.02,.02,.03,.03c0-.04-.02-.04-.03-.03Z"/>
        <path class="cls-2" d="M137.98,85.29s-.06,.03-.1,.05c.02,.02,.05,0,.1-.05Z"/>
        <path class="cls-2" d="M111.53,92.43s0,.04,0,0h0Z"/>
        <path class="cls-2" d="M110.91,91.25s0-.09-.02-.16c.02,.08,.02,.13,.02,.16Z"/>
        <path class="cls-2" d="M113.48,89.69h0c-.03-.06-.03-.05,0,0Z"/>
        <path class="cls-2" d="M111.4,92.31s.06,.06,.1,.07c-.02-.02-.05-.05-.1-.07Z"/>
        <path class="cls-2" d="M111.46,92.45s-.04-.01-.06-.02c0,.05,.02,.09,.06,.02Z"/>
        <path class="cls-2" d="M111.6,92.39s-.06,0-.1,0c.02,.02,.03,.04,.03,.05,.01,0,.03-.02,.07-.04Z"/>
        <path class="cls-2" d="M130.47,84.51s.01,.01,.02,.03c.02-.15,0-.12-.02-.03Z"/>
        <polygon class="cls-2" points="117.28 87.15 117.28 87.17 117.29 87.18 117.28 87.15"/>
        <path class="cls-2" d="M117.42,86.86c.02,.42-.04,.38-.13,.31l.3,.9-.17-1.22Z"/>
        <path class="cls-2" d="M125.05,84.85l-.21-.25c.06-.51,.22-.38-.01-.75,.22,1.01-.52,.23-.3,1.24l-.14-.19s.02-.06,.05-.05c-.29-.44,.04,.76-.22,.67-.1-.06-.19-.19-.16-.32l-.12,.29c-.06,0-.09-.18-.03-.18l-.25,.15v-.03c0,.17-.04,.43-.05,.54-.1-.13,0-.11-.04-.24l-.09,.28c-.12-.24-.06-.53,.05-.51-.38-.97-.06,.28-.51-.23l.11-.16c-.23-.55-.29-.31-.54-.63,.08,.18,.54,.81,.44,1.1-.06-.06-.13-.09-.17,.14-.09-.36-.15-.25-.25-.2l-.11-.47c-.08,.16-.02,.4-.03,.63-.14-.01-.26-.37-.36-.67-.23-.02,.29,.55,.06,.7-.22-.14-.29,.08-.43,.42-.16-.13-.05-.29-.13-.42v.4s-.06-.12-.07-.18c-.05,.17,.11,.47,0,.64,.09,.53-.48-.69-.51-.05-.08-.12-.05-.29-.11-.47-.15,.45-.14,.33-.21,.9l-.25-.27c.21,.32,.16,.78,.11,1.16,.09,.16,.16,.3,.2,.37l-.16,.31c-.05-.07-.06-.24-.08-.44,0,.04,0,.08-.01,.12-.12-.15-.15-.44-.16-.71,.05,.09,.1,.18,.15,.27-.02-.3-.04-.63-.12-.9,0,.06-.02,.11-.04,.15,0-.08-.01-.15-.03-.2-.02-.05-.02,.06-.02,.19l-.18-.51,.04,.21-.37-.26c-.07,.58-.06,1.4-.33,1.7-.02-.41-.14-.63-.25-1.09,.21,.46,.2-.27,.4-.21-.1-.03-.14-.25-.13-.33l-.19,.51c-.09-.37-.13-.26-.25-.4,.25,.72-.1,.55-.17,.81-.07-.25-.1-.51,.06-.48-.31-.51,0,.92-.28,.49,.04-.02,.06,.02,.05-.11-.03,.24-.28,.12-.29-.11h.04c-.27-.04-.74,.17-.62,.8-.02-.08-.16-.76-.18-.89l.11,2.22c-.1-.55-.58-1.79-.45-2.14-.08-.06-.17-.13-.25,.09,.06,.07,.3,.75,.26,.81-.3-.56-.19-.29-.5-.76,.09,.1,.24,.96,.14,.96-.02-.13-.22-.83-.21-.93l-.02,.89c.02-.16-.17-.7-.28-.92,.07,.16-.21,.04-.25,.14l.15,.17c-.3-.06,.04,1.23-.23,1.25-.01-.18-.2-1.07-.36-1.14,.05,.44,.27,2.1,.12,2.49l-.11-.23-.1,.32c-.06-.66-.1-2.08-.07-2.65-.15-.17-.1-.28-.24-.22-.11-.21,0-.36,.03-.39l-.38-.06c.15,.49-.13,.56-.01,.97l.24-.61c.14,.49,.15,1.46-.11,1.43-.11-.18-.19-.89-.24-1.05,.01,.18-.14,.39-.2,.27l.03-.29c-.19-.15-.05,.71-.34,.29-.06-.02-.34-.59-.27-.3,.24,.54,.73,2.27,.78,2.71-.03-.03-.44-.46-.58-.72-.21-.42-.14-1.09-.33-1.45,.03,.14,.03,.32,.02,.37-.09-.1-.09-.42-.2-.33,.11,.51-.27,.03,.05,.44-.09,.18-.16-.07-.3,0,.13,.31,.17,1.13,.08,1.31-.03-.13-.1-.29-.13-.36-.27,.02-.47-.17-.71-.1-.06-.11-.21-.23-.22-.46-.01,.1,0,.28-.07,.31-.26-.39,.15-.11-.11-.6,.07,.29-.08,.45-.13,.66,.16,.44,.27,.02,.32-.19,.17,.62,.17,1.32,0,1.67-.15,.21-.2-.37-.21-.28-.4,0-.01,1.17-.45,.81-.23-.36-.23-.78-.33-1.06,.12-.19,.32,.18,.42,.13l-.19-.15c.01-.14,.09-.27,.18-.18-.2-.32-.65,.11-1.03-.14-.01,.15-.06,.31,.02,.45l.07-.08c.17,.29-.05,.49,.11,.6-.06,.26-.09,.65-.31,.52l-.16-.44c.04,.13,.19,.23,.2,.08-.01,.22-.43-.53-.34,.08l.21,.28c-.06,.26-.07,.78-.26,.68,.2,.42,.02-.06,.28,.43-.28-.62,.39-.08,.05-.72,.28,.57,.26,.2,.55,.67-.05-.15-.13-.27,.02-.23,0-.04,0-.1,0-.14h.01s-.01,0-.01,0c0-.02,0-.03,0,0-.05-.06-.09-.13-.13-.21-.03-.36,.17-.41,.19-.6,.1,.05,.02,.18,.1,.32l.03-.29c.1,.33,.35,.49,.23,.73l.16-.03c.15,.16,.29,.2,.34,.04,.09,.05,.09-.42,.09-.14l.19-.27,.03,.08c.26-.03,.36-.69,.8-.17,.06-.11,.12-.23,.28-.18l.1,.28c.08-.13,.4,.2,.36-.11,.32,.74,.56,.03,.79,.11l-.09-.37c.13-.01,.23-.15,.35-.34l-.1-.33c.07-.31,.42,.14,.63,.05,.02,.13-.05,.11-.11,.05,.46,.67,.41-.69,.79-.21,.03-.14,.08-.11,.14-.03,0,0,0,0-.01,.02,0,0,.02,0,.03,0,.04,.05,.09,.11,.13,.15-.05-.07-.09-.13-.12-.16,.04-.02,.1-.08,.15-.18l.12,.35s0,0,.01-.01c.1,.11,0-.18-.1-.44,.02-.07,.03-.15,.03-.24,.2,.56,.13-.24,.36,.35-.03-.31,.28-.31,.16-.95,.02,.08,.05,.11,.02,.13,.09,.05,.19,.1,.21-.09l.15,.44v-.65c.18,.25,.26,.4,.25,.77,.1-.59,.14-.25,.21-.83l.06,.29c.07-.03,.09-.45,.19-.22,.31,.51,.83-.13,1.38,.28-.3-.84,.29,.34,.14-.33,.08,.2,.16,.3,.14,.49,.17-.25,.4,.24,.41-.36,.08,.2,.03,.31,.08,.42,0-.05,.02-.19,.08-.08,.05,.12,.01,.18,0,.28,.21-.09,.08-.72-.05-1.31,.18,.25,.23,.2,.21-.21,.09,.18,.2,.37,.08,.47,.08,0,.54,.17,.43-.31,.05,.11,.12,0,.12-.05,.18-.01,.21,.02,.36-.06l-.07-.07c-.07-.59,.11-.16,.23-.26v.06c.43,.33,.1-.23,.52,.16l-.1-.35c-.16-.77,.38,.38,.49,.05l-.11-.19c.04-.28,.53,.97,.65,1.04,.04,.06,0,.11-.03,.17,.37,.39-.08-.47,.09-.63,.1,.24,.11,.65,.25,.66,.11,.19,.18-.9,.47-.47-.09-.18-.17-.37-.12-.53,.12-.1,.55,.64,.52,0,.03,.05,.05,.1,.06,.14,.07-.18,.28-.34,.26-.69,.39,1.2,.51-.75,.78,.38l.31-.14,.02,.12c.22,.03,.23-.26,.24-.55,.07,.07,.06,.18,.07,.24,.36,.16,.37,.1,.49-.52l.11,.36c.02-.23,.57,.47,.77-.03,0,.04,.02,.12,0,.17,.23-.51,1.04,.83,.84-.53l.14-.38c-.31-.04-.09-.59-.26-.78,.09-.1,.38,.33,.26,.44l-.04-.06c.11,.71,.41,.16,.51,.64,.55-.16,1.19,.09,1.72,0l-.19-.53h.19c.08,.1,.16,.4,.03,.41,.14,.29,.16-.31,.14-.43,.31,.16,.05,.65,.13,.65l.1-.06-.04-.06c.04-.24-.01-.48,.15-.49,.12,.09,.13,.32,.17,.33,0,.04,.03,.05,.06,0h.24s-.19-.41-.19-.41c.05-.23,.22-.03,0-.49,.33,.71,.92,.07,1.07,.28,.07-.34,.21-.37,.4-.37-.06-.08-.2-.55-.04-.53,.17,1,.38,.37,.66,1.05-.22-.45,.4-.22,.08-.85,.14,.05,.09,.37,.24,.58,.21-.45,.72,.1,1.06-.12-.02-.13-.13-.32-.1-.53l.35,.61c.06-.08-.1-.77,.13-.35-.04-.11-.11-.26-.07-.32,.87,.47,1.37-.86,2.38,.16-.16-.23-.1-.27-.02-.3-.06-.05-.07-.32-.12-.5l.42,.42c-.06-.5,.32-.11,.25-.59l-.08,.11c0-.58-.46-1.19-.61-1.9,0,.66-.6-.84-.63,.11-.09-.13,0-.24-.07-.4,0,.32-.05,.4-.22,.29v-.08c-.37,.16-.6-.1-1.07-.2l.11,.34c-.1-.03-.15-.13-.21-.21,.02,.56,.27-.03,.3,.58-.29-.69-.65,.14-.92-.65-.14,.03,.13,.4,0,.42l-.09-.21,.03,.29c-.1-.03-.21-.29-.26-.47,.03,.02,.05-.07,.07-.09-.18-.23-.32,.17-.38,.09l.17,.1c-.34,.29-.88,.11-1.15,.65l.07,.16c-.22,.37-.27-.13-.55,.08v-.04c-.02,.18-.09,.28-.18,.28,.03-.21-.24-.34-.18-.58-.23,.4-.09,.29-.16,.95l-.11-.26c-.01,.26,.01,.4-.13,.5,.07-.26-.2-.39-.12-.74-.47-.52-.35,.72-.7-.12,.02,.79,.38,.36,.33,.54,.13,.23,0,.6-.11,.54-.11,0-.4-.93-.66-.85,.03,0,.02-.06,.04-.06-.14-.17-.13,.31-.33,.02,.04,.47-.16,0-.05,.6l.21-.19c-.1,.18-.07,.9-.37,.62,0-.12,.02-.29,.05-.39-.11-.16-.1,.14-.21-.02-.12-.59,.26-.2,.31-.68-.13-.23-.18,.49-.25-.16,.08,.83-.28-.04-.32,.62l-.07-.35c-.02,.06-.04,.24-.09,.24v-.48c-.07,.42-.37-.27-.46-.03,.29-.08,.16,.41,.35,.64-.25,.55-.42-.87-.78-.61,.04-.06,.25,.16,.21,.35-.09-.05-.23-.17-.32-.34-.25,.13,.12,.35,.06,.59-.19-.41-.09,.2-.17,.37l-.08-.36c-.36-.16,.09,.76-.24,.55v-.52s-.11,.16-.11,.16l-.07-.41c-.08,.34-.15,.27-.33,.19,.09,.24,.13,.65,0,.69-.14-.19-.03-.35-.21-.26,0-.23-.03-.52,.13-.22-.02-.12,0-.23-.03-.35-.16-.22-.26,0-.33,.02,.03,0,.07,.02,.09,.07l-.16,.56c-.07-.12-.07-.24-.06-.35-.05,.05-.05,.22-.12,.27-.05-.29-.12-.59-.04-.76l-.19,.38c-.05-.12-.22-.31-.21-.43-.19-.14-.23,.65-.47,.47,0,.06,0,.12-.04,.17-.2-.02-.44-.34-.56,.11l-.25-.49c-.14,.16,.32,.62,.09,.88-.16,.21-.18-.42-.28-.55-.04,.29-.08,.86-.36,.48,.04-.11,.1-.05,.15-.1Zm-2.02,.73c.02-.08,.05-.33,.13-.13,.05,.42-.03,.23-.13,.13Zm-2.94,1.63c0-.13,.06-.08,.15,.04-.03,.04-.08,.04-.15-.04Zm-8.05,4.76s0-.01,0-.02c.13,.11,.08,.07,0,.02Zm-.23-.1c0,.05,.01,.1,.03,.15-.01-.09,.03-.11,.08-.1-.04-.09-.08-.15-.11-.05Zm19.8-5.1l-.06-.08c.06-.12,.06-.02,.06,.08Z"/>
        <path class="cls-2" d="M120.32,86.64c.03,.06,.05,.12,.07,.19,0-.06-.02-.13-.07-.19Z"/>
        <polygon class="cls-2" points="126.3 84.36 126.3 84.36 126.3 84.3 126.3 84.36"/>
        <path class="cls-2" d="M113.84,88.09c.05,.04,.09,.1,.12,.16-.02-.09-.06-.16-.12-.16Z"/>
        <path class="cls-2" d="M111.01,92.75l.09-.13c-.05,.03-.09-.04-.14-.08,.03,.08,.08,.19,.05,.21Z"/>
        <path class="cls-2" d="M109.37,90.86s-.04,.02-.04,.06l.05,.16c.07-.03,.08-.18-.01-.23Z"/>
        <path class="cls-2" d="M110.57,91.61c-.09-.29-.14-.17-.21-.09,0,0,0,0,.01,0,.1,.42,.14,.26,.19,.1Z"/>
        <path class="cls-2" d="M110.35,91.53s-.04,.04-.07,.03c.04,.17,.04,.03,.07-.03Z"/>
        <path class="cls-2" d="M111.63,92.14c-.06-.07,.08,.39,.03,.27,.06,.39,.13-.53-.03-.27Z"/>
        <polygon class="cls-2" points="110.22 90.65 110.36 91.01 110.32 90.7 110.22 90.65"/>
        <path class="cls-2" d="M110.95,90.73l-.16-.06c.02,.06,.01,.1,0,.14,.08-.01,.19,.04,.16-.07Z"/>
        <path class="cls-2" d="M110.79,90.81s-.08,.02-.09,.09c.02-.01,.07-.04,.09-.09Z"/>
        <polygon class="cls-2" points="110.37 90.49 110.43 90.56 110.53 90.56 110.37 90.49"/>
        <path class="cls-2" d="M112.39,90.41l.11-.15c-.02-.13-.08-.2-.12-.13-.01,.1-.05,.16,0,.28Z"/>
        <path class="cls-2" d="M111.67,89.53c.06,.07,.09,.15,.14,.26l-.12-.46-.02,.19Z"/>
        <path class="cls-2" d="M112.06,89.3c-.02-.13,.11-.42-.07-.34,.02,.13-.1,.27,.07,.34Z"/>
        <polygon class="cls-2" points="114.4 89.28 114.36 89.3 114.57 90.04 114.4 89.28"/>
        <path class="cls-2" d="M115.85,86.98c-.22-.13,.08,.47-.13,.29,0,.19,.18,.15,.17,.31,.06-.21,.14-.12-.04-.6Z"/>
        <path class="cls-2" d="M115.89,87.59s-.02,.07-.02,.13c.02-.05,.02-.09,.02-.13Z"/>
        <polygon class="cls-2" points="138.48 85.6 138.63 85.73 138.5 85.49 138.48 85.6"/>
        <path class="cls-2" d="M138.57,84.99l.14,.47-.03-.45s-.06,.08-.1-.02Z"/>
        <path class="cls-2" d="M122.48,84.69l.02,.12c.05,.12,.08,.12,.13,.13l-.15-.25Z"/>
        <polygon class="cls-2" points="124.08 84.69 124.05 84.68 124.2 85.11 124.08 84.69"/>
        <path class="cls-2" d="M125.22,83.83c-.06,0-.09,.11-.15,.1,.09-.11,.29,.44,.15-.1Z"/>
      </g>
      <g class="cls-4">
        <path class="cls-1" d="M134.89,22.76c-1.24-12.58-12.87-21.63-25.55-19.48-10.61,1.79-18.45,11.24-18.25,22,.16,8.62,5.16,15.81,12.2,19.31l3.08,31.2c.58,5.86,6.29,10.14,12.69,9.5,6.4-.63,11.17-5.94,10.59-11.8l-3.09-31.28c5.72-4.48,9.09-11.69,8.33-19.45Zm-7.55,50.45c.47,4.72-3.37,9-8.53,9.51h0c-5.16,.51-9.76-2.94-10.22-7.66l-2.91-29.46c2.96,1.06,6.19,1.49,9.52,1.16,3.38-.33,6.5-1.42,9.22-3.07l2.91,29.51Z"/>
      </g>
      <path class="cls-1" d="M111.9,13.39c-5.86,.58-10.18,5.85-9.6,11.71l4.89,49.47c.58,5.86,5.85,10.18,11.71,9.6,5.86-.58,10.18-5.85,9.6-11.71l-4.89-49.47c-.58-5.86-5.85-10.18-11.71-9.6Zm14.47,58.77c.47,4.72-3.01,8.96-7.73,9.43h0c-4.72,.47-8.96-3.01-9.43-7.73l-4.82-48.81c-.47-4.72,3.01-8.96,7.73-9.43h0c4.72-.47,8.96,3.01,9.43,7.73l4.82,48.81Z"/>
      <circle class="cls-8" cx="112.76" cy="22.53" r="22.53" transform="translate(-1.67 11.19) rotate(-5.64)"/>
      <path class="cls-6" d="M131.71,20.66c1.03,10.47-6.61,19.79-17.08,20.83-10.47,1.03-19.79-6.61-20.83-17.08-1.03-10.47,6.61-19.79,17.08-20.83,10.47-1.03,19.79,6.61,20.83,17.08Z"/>
      <g>
        <path class="cls-2" d="M103.74,25.69c-2.03,.2-3.85-1.29-4.05-3.32-.2-2.03,1.29-3.85,3.32-4.05,2.03-.2,3.85,1.29,4.05,3.32,.2,2.03-1.29,3.85-3.32,4.05Zm-.55-5.58c-1.04,.1-1.81,1.03-1.7,2.08,.1,1.04,1.03,1.81,2.08,1.7s1.81-1.03,1.7-2.08-1.03-1.81-2.08-1.7Z"/>
        <path class="cls-2" d="M122.22,23.87c-2.03,.2-3.85-1.29-4.05-3.32s1.29-3.85,3.32-4.05,3.85,1.29,4.05,3.32-1.29,3.85-3.32,4.05Zm-.55-5.58c-1.04,.1-1.81,1.03-1.7,2.08,.1,1.04,1.03,1.81,2.08,1.7s1.81-1.03,1.7-2.08-1.03-1.81-2.08-1.7Z"/>
      </g>
      <path class="cls-2" d="M113.82,33.18c-3.15,.31-6.26-1.09-8.11-3.67-.29-.4-.2-.97,.21-1.26,.41-.29,.97-.2,1.26,.21,1.48,2.05,3.95,3.17,6.47,2.93,2.49-.25,4.7-1.81,5.75-4.09,.21-.45,.75-.65,1.2-.44,.45,.21,.65,.75,.44,1.2-1.32,2.86-4.08,4.82-7.21,5.13Z"/>
    </g>
  </g>
</svg>