<svg width="436" height="593" viewBox="0 0 436 593" fill="none" xmlns="http://www.w3.org/2000/svg">
<path d="M-62.77 137.04C-62.77 137.04 -38.06 194.23 -20 228.44C-1.94002 262.65 48.43 270.26 73.14 249.35C97.85 228.44 101.65 193.47 127.31 192.42C152.97 191.37 207.53 169.58 228.05 114.23C228.05 114.23 182.43 126.75 152.02 127.7C121.61 128.65 99.75 121.05 82.64 107.74C65.53 94.4399 45.58 88.7299 17.07 88.7299C-40.9 88.7299 -62.76 137.03 -62.76 137.03L-62.77 137.04Z" fill="url(#paint0_linear_263_196)"/>
<g style="mix-blend-mode:screen">
<g style="mix-blend-mode:screen" opacity="0.44">
<path d="M95.9 141.08C191.578 141.08 269.14 128.772 269.14 113.59C269.14 98.4076 191.578 86.0999 95.9 86.0999C0.222214 86.0999 -77.34 98.4076 -77.34 113.59C-77.34 128.772 0.222214 141.08 95.9 141.08Z" fill="#DDEEE4"/>
<path d="M95.9 141.08C191.578 141.08 269.14 128.772 269.14 113.59C269.14 98.4076 191.578 86.0999 95.9 86.0999C0.222214 86.0999 -77.34 98.4076 -77.34 113.59C-77.34 128.772 0.222214 141.08 95.9 141.08Z" stroke="#DDEEE4" stroke-width="0.75" stroke-miterlimit="10"/>
</g>
</g>
<g style="mix-blend-mode:screen" opacity="0.44">
<g style="mix-blend-mode:screen" opacity="0.44">
<path d="M11.46 179.06C77.7784 179.06 131.54 170.526 131.54 160C131.54 149.473 77.7784 140.94 11.46 140.94C-54.8583 140.94 -108.62 149.473 -108.62 160C-108.62 170.526 -54.8583 179.06 11.46 179.06Z" fill="#DDEEE4"/>
<path d="M11.46 179.06C77.7784 179.06 131.54 170.526 131.54 160C131.54 149.473 77.7784 140.94 11.46 140.94C-54.8583 140.94 -108.62 149.473 -108.62 160C-108.62 170.526 -54.8583 179.06 11.46 179.06Z" stroke="#DDEEE4" stroke-width="0.75" stroke-miterlimit="10"/>
</g>
</g>
<path d="M-62.77 137.04C-62.77 137.04 -38.06 66.7099 -20 32.4999C-1.94002 -1.71009 48.43 -9.31009 73.14 11.5899C97.85 32.4999 101.65 67.4699 127.31 68.5199C152.97 69.5699 209.99 72.4199 228.05 114.23C228.05 114.23 182.43 134.19 152.02 133.24C121.61 132.29 99.75 139.89 82.64 153.2C65.53 166.5 45.58 172.21 17.07 172.21C-40.9 172.21 -62.76 137.05 -62.76 137.05L-62.77 137.04Z" fill="#2B454E"/>
<path opacity="0.5" d="M207.52 89.0499C182.68 71.0799 146.35 69.2899 127.3 68.5199C101.64 67.4699 97.84 32.4999 73.13 11.5899C48.43 -9.31009 -1.94005 -1.71009 -20 32.4999C-32.6 56.3799 -48.44 97.8299 -56.86 120.71C-32.01 74.7899 -13.48 29.8899 5.76995 22.7599C25.0099 15.6299 51.39 16.3499 57.09 35.5899C62.7899 54.8299 74.7 65.5299 82.64 66.2399C90.59 66.9499 106.27 75.5099 121.95 79.0699C135.6 82.1699 182.59 74.0899 207.52 89.0499Z" fill="#1A2E35"/>
<path d="M217 97.3399C217.75 98.3299 218.47 99.1399 219.16 99.8099C218.46 98.9699 217.74 98.1399 217 97.3399Z" fill="#3795C8"/>
<path opacity="0.5" d="M112.21 104.73C77.82 107.48 53.23 164.22 32.27 171.59C52.98 169.8 68.75 164.01 82.64 153.2C99.75 139.89 121.61 132.29 152.02 133.24C167.49 133.72 186.89 128.8 202.22 123.84C170.11 133.44 147.85 101.88 112.21 104.73Z" fill="#1A2E35"/>
<path d="M111.06 86.4839L108.17 89.4539C112.61 93.7739 117.35 101.014 121.11 108.774C117.88 108.254 114.51 108.614 111.51 109.904C110.02 110.544 108.4 111.844 108.74 113.434C109.01 114.684 110.35 115.344 111.56 115.744C115.21 116.954 119.12 117.384 122.95 116.974C123.47 116.924 124.01 116.834 124.51 116.654C127.13 123.614 128.64 130.374 128.09 135.274L132.21 135.734C133.86 120.994 120.52 95.6939 111.08 86.4839H111.06Z" fill="#66AB5C"/>
<path d="M120.88 59.7839C118.63 60.7439 116.84 62.2239 115.41 63.8839C110.92 57.2439 104.88 61.9339 105.48 69.0639C99.4899 60.7139 86.2899 61.2439 95.3699 72.7739C84.6399 74.2739 86.0299 85.8939 96.9199 86.0139C80.9199 96.5039 91.2499 108.924 103.54 94.7739C104.9 104.784 117.52 103.854 114.45 92.6339C121.32 99.2639 134.58 97.3539 124.16 87.4739C134.72 84.7939 132.09 73.2139 121.12 74.4939C127.11 70.7739 132.79 55.3839 120.87 59.7839H120.88Z" fill="white"/>
<path d="M108.27 77.7839C113.83 77.8339 113.62 86.5639 108.07 86.3539C102.51 86.3039 102.72 77.5739 108.27 77.7839Z" fill="#FCDB6A"/>
<g style="mix-blend-mode:screen" opacity="0.44">
<path d="M136.46 587.295C136.46 590.43 72.3225 592.974 -6.78262 592.974C-85.8878 592.974 -150 590.456 -150 587.295C-150 584.134 -85.8621 581.615 -6.7569 581.615C72.3483 581.615 136.486 584.159 136.486 587.295H136.46Z" fill="#C3CFD0"/>
</g>
<g style="mix-blend-mode:screen" opacity="0.44">
<path d="M435.342 425.621C435.342 427.06 398.541 428.243 353.177 428.243C307.812 428.243 271.011 427.06 271.011 425.621C271.011 424.182 307.812 423 353.177 423C398.541 423 435.342 424.182 435.342 425.621Z" fill="#C3CFD0"/>
</g>
<defs>
<linearGradient id="paint0_linear_263_196" x1="108.253" y1="249.745" x2="43.387" y2="-42.0948" gradientUnits="userSpaceOnUse">
<stop stop-color="#2EAED5" stop-opacity="0"/>
<stop offset="0.697755" stop-color="#88D4EA"/>
</linearGradient>
</defs>
</svg>
