<svg width="228" height="548" viewBox="0 0 228 548" fill="none" xmlns="http://www.w3.org/2000/svg">
<path d="M25.0209 279.251C23.4882 275.098 26.5124 270.665 30.9457 270.558C59.7871 269.883 71.8758 266.108 94.059 266.108C118.434 266.108 171.568 244.28 203.261 245.251C234.945 246.221 266.638 245.251 287.107 245.251C307.576 245.251 288.565 359.104 287.107 380.028C285.648 400.951 273.947 546.997 273.947 546.997C273.947 546.997 208.625 550.805 203.747 543.509C198.869 536.214 202.775 533.615 192.046 528.911C181.325 524.206 173.035 522.586 169.137 506.531C165.24 490.477 166.789 455.925 144.276 442.79C130.127 434.533 109.279 436.391 95.2209 419.408C64.616 382.43 34.5633 305.052 25.0291 279.243L25.0209 279.251Z" fill="url(#paint0_linear_263_182)"/>
<g style="mix-blend-mode:screen" opacity="0.44">
<path d="M91.9824 267.128C25.0209 267.128 1.31323 270.994 1.31323 277.623C1.31323 284.252 71.7934 288.636 94.4215 288.636C117.05 288.636 181.457 316.855 221.785 316.855C262.114 316.855 317.695 310.431 317.695 291.991C317.695 273.552 114.413 267.128 91.9906 267.128H91.9824Z" fill="#DDEEE4"/>
<path d="M91.9824 267.128C25.0209 267.128 1.31323 270.994 1.31323 277.623C1.31323 284.252 71.7934 288.636 94.4215 288.636C117.05 288.636 181.457 316.855 221.785 316.855C262.114 316.855 317.695 310.431 317.695 291.991C317.695 273.552 114.413 267.128 91.9906 267.128H91.9824Z" stroke="#DDEEE4" stroke-width="0.75" stroke-miterlimit="10"/>
</g>
<path d="M25.0209 268.749C23.4882 272.902 26.5124 277.335 30.9457 277.434C59.7871 278.108 71.8758 281.883 94.059 281.883C118.434 281.883 171.568 303.711 203.261 302.741C234.945 301.77 266.638 302.741 287.107 302.741C307.576 302.741 288.565 188.887 287.107 167.964C285.648 147.04 273.947 0.99511 273.947 0.99511C273.947 0.99511 208.625 -2.8129 203.747 4.48236C198.869 11.7776 202.775 14.3766 192.046 19.0811C181.325 23.7856 173.035 25.4059 169.137 41.4604C165.24 57.5149 166.789 92.0584 144.276 105.201C130.127 113.459 109.279 111.6 95.2209 128.584C64.616 165.562 34.5633 242.94 25.0291 268.749H25.0209Z" fill="#2B454E"/>
<path style="mix-blend-mode:screen" opacity="0.25" d="M273.939 0.99511C273.939 0.99511 208.617 -2.8129 203.739 4.48236C198.86 11.7776 202.766 14.3766 192.037 19.0811C181.317 23.7856 173.027 25.4059 169.129 41.4604C165.231 57.5149 166.781 92.0584 144.268 105.201C130.119 113.459 109.271 111.6 95.2126 128.584C64.6078 165.562 34.555 242.94 25.0209 268.749C23.4882 272.902 26.5124 277.335 30.9457 277.434C32.9399 277.483 34.8517 277.541 36.6893 277.615C41.5182 266.479 55.4445 235.751 66.1487 225.857C79.3087 213.693 83.2146 193.254 97.3469 164.394C111.487 135.534 119.283 134.868 124.647 134.975C130.012 135.09 112.946 180.111 120.75 184.495C128.553 188.871 141.227 142.648 149.022 132.918C156.826 123.189 172.911 108.59 179.248 87.321C185.585 66.0521 185.099 36.0979 197.773 34.1487C210.446 32.1994 208.007 21.4992 212.399 15.1744C215.638 10.511 254.92 15.3718 275.331 18.2422C274.483 7.61595 273.947 0.978661 273.947 0.978661L273.939 0.99511Z" fill="url(#paint1_linear_263_182)"/>
<path opacity="0.5" d="M279.517 70.8388C278.702 60.6156 277.911 50.6884 277.194 41.6824C266.399 46.5761 239.552 59.826 229.778 74.7126C217.426 93.5224 204.431 108.45 200.525 138.816C196.627 169.181 173.876 176.567 160.567 184.997C149.954 191.725 130.416 259.545 122.942 286.711C143.032 291.654 167.036 298.982 187.077 301.705C182.668 284.647 177.526 261.116 179.075 249.009C181.679 228.686 200.764 202.902 207.513 194.241C221.159 176.723 222.626 152.559 228.476 117.53C232.654 92.5107 262.682 77.4267 279.509 70.8388H279.517Z" fill="#1A2E35"/>
<g style="mix-blend-mode:screen" opacity="0.44">
<path d="M64.3606 298.333C64.3606 300.2 51.4066 301.705 35.4367 301.705C19.4669 301.705 6.51294 300.191 6.51294 298.333C6.51294 296.474 19.4669 294.96 35.4367 294.96C51.4066 294.96 64.3606 296.474 64.3606 298.333Z" fill="#DDEEE4"/>
<path d="M64.3606 298.333C64.3606 300.2 51.4066 301.705 35.4367 301.705C19.4669 301.705 6.51294 300.191 6.51294 298.333C6.51294 296.474 19.4669 294.96 35.4367 294.96C51.4066 294.96 64.3606 296.474 64.3606 298.333Z" stroke="#DDEEE4" stroke-width="0.75" stroke-miterlimit="10"/>
</g>
<g style="mix-blend-mode:screen" opacity="0.44">
<path d="M57.2079 311.936C57.2079 312.767 49.9151 313.441 40.9083 313.441C31.9016 313.441 24.6088 312.767 24.6088 311.936C24.6088 311.105 31.9016 310.431 40.9083 310.431C49.9151 310.431 57.2079 311.105 57.2079 311.936Z" fill="#DDEEE4"/>
<path d="M57.2079 311.936C57.2079 312.767 49.9151 313.441 40.9083 313.441C31.9016 313.441 24.6088 312.767 24.6088 311.936C24.6088 311.105 31.9016 310.431 40.9083 310.431C49.9151 310.431 57.2079 311.105 57.2079 311.936Z" stroke="#DDEEE4" stroke-width="0.75" stroke-miterlimit="10"/>
</g>
<path d="M128.823 115.351C125.916 110.466 124.019 104.945 123.298 99.2728C122.867 95.8858 123.046 91.9764 125.546 89.7037C126.113 89.1875 126.901 88.772 127.61 89.049C128.41 89.3638 128.675 90.3647 128.817 91.2272C130.012 98.4418 130.283 105.814 129.611 113.098C129.531 108.269 129.648 103.365 130.979 98.7314C132.315 94.0979 135.007 89.7037 139.091 87.2611C139.331 87.1163 139.596 86.9778 139.867 87.003C140.44 87.0596 140.698 87.771 140.766 88.3565C141.092 91.0321 140.292 93.7013 139.436 96.251C137.754 101.256 135.814 106.173 133.633 110.97C135.826 104.731 140.372 99.3861 146.106 96.295C147.252 95.6781 148.89 95.2563 149.648 96.3265C149.913 96.6979 149.987 97.1764 149.999 97.636C150.042 99.8079 148.779 101.766 147.461 103.466C144.277 107.564 140.452 111.146 136.177 114.023C138.961 110.718 142.811 108.376 146.981 107.451C147.498 107.337 148.077 107.249 148.533 107.526C149.457 108.093 149.137 109.541 148.564 110.472C146.58 113.715 143.125 115.647 139.824 117.435C136.873 119.04 133.523 120.69 130.326 119.701C127.708 118.896 126.563 116.661 124.567 115.024C122.781 113.557 121.407 112.481 120.354 110.258C120.052 109.616 119.812 108.817 120.206 108.231C120.532 107.753 121.192 107.621 121.746 107.765C124.456 108.464 127.055 112.191 128.256 114.552" fill="#1D9526"/>
<g style="mix-blend-mode:screen" opacity="0.44">
<path d="M301 447C301 449.767 244.591 452 175 452C105.409 452 49 449.767 49 447C49 444.233 105.409 442 175 442C244.591 442 301 444.233 301 447Z" fill="#C3CFD0"/>
</g>
<defs>
<linearGradient id="paint0_linear_263_182" x1="160.576" y1="345.484" x2="160.576" y2="230.652" gradientUnits="userSpaceOnUse">
<stop stop-color="#2EAED5" stop-opacity="0"/>
<stop offset="1" stop-color="#2EAED5"/>
</linearGradient>
<linearGradient id="paint1_linear_263_182" x1="140.93" y1="216.983" x2="168.128" y2="-2.29926" gradientUnits="userSpaceOnUse">
<stop/>
<stop offset="0.03"/>
<stop offset="0.13" stop-color="#101111"/>
<stop offset="0.33" stop-color="#3C4040"/>
<stop offset="0.61" stop-color="#828B8B"/>
<stop offset="0.96" stop-color="#E2F1F2"/>
<stop offset="1" stop-color="#EDFCFD"/>
</linearGradient>
</defs>
</svg>
