<svg width="477" height="530" viewBox="0 0 477 530" fill="none" xmlns="http://www.w3.org/2000/svg">
<path d="M24.3288 366.8C32.6214 394.638 57.2973 462.025 61.157 476.025C65.0166 490.025 70.2732 489.678 73.4304 499.132C76.5875 508.586 84.6541 525.036 94.828 528.365C105.002 531.694 114.465 531.162 120.433 514.978C126.392 498.786 135.863 493.531 140.425 483.384C144.987 473.228 142.88 461.324 153.756 460.978C164.633 460.631 185.32 452.579 190.237 432.97C195.147 413.369 189.89 397.958 202.511 392.712C215.14 387.457 226.912 380.372 228.769 362.955C229.52 355.951 199.354 354.202 187.08 355.605C174.807 357.007 156.566 361.907 144.293 360.158C140.554 359.626 109.919 352.808 89.5796 352.808C42.5773 352.808 21.0101 355.645 24.3449 366.808L24.3288 366.8Z" fill="url(#paint0_linear_263_157)"/>
<g style="mix-blend-mode:screen" opacity="0.44">
<path d="M252 361.553C252 369.403 195.591 375.77 125.996 375.77C56.401 375.77 0 369.403 0 361.553C0 353.702 56.4091 347.335 125.996 347.335C195.583 347.335 252 353.702 252 361.553Z" fill="#C3CFD0"/>
</g>
<path d="M24.3288 353.203C32.6214 325.364 57.2973 257.977 61.157 243.977C65.0166 229.977 70.2732 230.324 73.4304 220.87C76.5875 211.416 84.6541 194.966 94.828 191.637C105.002 188.309 114.465 188.841 120.433 205.024C126.392 221.216 135.863 226.471 140.425 236.619C144.987 246.774 142.88 258.678 153.756 259.025C164.633 259.371 185.32 267.423 190.237 287.032C195.147 306.634 189.89 322.044 202.511 327.291C215.14 332.546 226.912 339.63 228.769 357.047C229.52 364.051 199.354 365.8 187.08 364.398C174.807 362.995 156.566 358.095 144.293 359.844C140.554 360.376 109.919 367.194 89.5796 367.194C42.5773 367.194 21.0101 364.357 24.3449 353.187L24.3288 353.203Z" fill="#2B454E"/>
<g style="mix-blend-mode:screen" opacity="0.25">
<g style="mix-blend-mode:screen" opacity="0.44">
<path d="M122.742 210.457C122.742 210.457 122.75 210.481 122.758 210.489C122.758 210.489 122.75 210.465 122.742 210.457Z" fill="#C3CFD0"/>
</g>
<g style="mix-blend-mode:screen" opacity="0.44">
<path d="M58.9203 356.983C50.5066 352.01 58.2178 342 59.2675 333.593C60.3172 325.195 51.201 318.538 54.3016 312.59C57.4023 306.642 64.8794 266.73 65.2346 262.176C65.5819 257.622 69.4415 254.124 72.5987 255.172C75.7558 256.22 71.0241 280.028 71.0241 280.028C73.6564 277.232 84.8721 255.873 88.0292 237.666C91.1864 219.459 95.3933 200.559 102.41 197.755C109.015 195.119 118.261 201.639 122.104 209.095C121.523 207.813 120.965 206.459 120.433 205.016C114.474 188.832 105.002 188.309 94.828 191.637C84.654 194.966 76.5875 211.416 73.4304 220.87C70.2732 230.324 65.0166 229.969 61.157 243.977C57.2973 257.985 32.6214 325.364 24.3288 353.203C21.002 364.374 42.5693 367.211 89.5634 367.211C95.4175 367.211 102.111 366.646 108.781 365.832C108.781 365.832 108.765 365.832 108.757 365.832C84.9528 366.203 67.326 361.964 58.9042 356.991L58.9203 356.983Z" fill="#C3CFD0"/>
</g>
</g>
<g style="mix-blend-mode:screen" opacity="0.44">
<path d="M219.266 396.338C219.266 400.554 196.083 403.971 167.499 403.971C138.915 403.971 115.733 400.554 115.733 396.338C115.733 392.123 138.915 388.706 167.499 388.706C196.083 388.706 219.266 392.123 219.266 396.338Z" fill="#CCF1FC"/>
</g>
<g style="mix-blend-mode:screen">
<g style="mix-blend-mode:screen" opacity="0.44">
<path d="M137.672 436.008C154.145 436.008 167.499 434.024 167.499 431.576C167.499 429.127 154.145 427.143 137.672 427.143C121.199 427.143 107.844 429.127 107.844 431.576C107.844 434.024 121.199 436.008 137.672 436.008Z" fill="#CCF1FC"/>
</g>
</g>
<g style="mix-blend-mode:screen">
<g style="mix-blend-mode:screen" opacity="0.44">
<path d="M229.238 417.624C234.745 417.624 239.21 417.036 239.21 416.31C239.21 415.585 234.745 414.997 229.238 414.997C223.73 414.997 219.266 415.585 219.266 416.31C219.266 417.036 223.73 417.624 229.238 417.624Z" fill="#CCF1FC"/>
</g>
</g>
<path d="M198.086 331.57L200.064 333.593C197.036 336.543 193.79 341.476 191.223 346.763C193.427 346.408 195.728 346.658 197.779 347.529C198.796 347.964 199.903 348.85 199.677 349.93C199.491 350.777 198.578 351.236 197.755 351.51C195.26 352.34 192.587 352.622 189.979 352.348C189.624 352.308 189.252 352.252 188.913 352.131C187.129 356.878 186.095 361.488 186.467 364.825L183.657 365.139C182.534 355.089 191.642 337.841 198.094 331.562L198.086 331.57Z" fill="#66AB5C"/>
<path d="M191.384 313.372C192.918 314.024 194.145 315.032 195.123 316.16C198.191 311.639 202.317 314.83 201.905 319.69C205.999 314 215.01 314.363 208.809 322.221C216.141 323.245 215.188 331.167 207.751 331.248C218.676 338.397 211.627 346.868 203.229 337.22C202.301 344.039 193.685 343.41 195.777 335.761C191.085 340.283 182.026 338.977 189.139 332.239C181.929 330.41 183.721 322.519 191.214 323.39C187.121 320.851 183.245 310.357 191.384 313.363V313.372Z" fill="white"/>
<path d="M199.991 325.638C196.196 325.671 196.334 331.627 200.129 331.482C203.924 331.449 203.787 325.493 199.991 325.638Z" fill="#FCDB6A"/>
<g style="mix-blend-mode:screen" opacity="0.44">
<path d="M476.579 5.0692C476.579 7.85229 419.364 10.1384 348.79 10.1384C278.215 10.1384 221 7.85229 221 5.0692C221 2.28611 278.215 0 348.79 0C419.364 0 476.579 2.28611 476.579 5.0692Z" fill="#C3CFD0"/>
</g>
<defs>
<linearGradient id="paint0_linear_263_157" x1="126.392" y1="492.83" x2="126.77" y2="302.837" gradientUnits="userSpaceOnUse">
<stop offset="0.41468" stop-color="#2EAED5" stop-opacity="0"/>
<stop offset="1" stop-color="#87D3EA"/>
</linearGradient>
</defs>
</svg>
