<svg width="1920" height="710" viewBox="0 0 1920 710" fill="none" xmlns="http://www.w3.org/2000/svg">
<path d="M-1 254L1920 655.692V709.5H-1L-1 254Z" fill="#CCF1FC"/>
<path d="M-132 0C66.05 182.75 365.41 239.76 625.25 249.69C755.04 254.65 781.1 224.01 910.63 234.64C1054.48 246.44 1255.85 297.31 1393.84 338.63C1609.26 403.14 1822.53 476.02 2036.96 543.93C2036.49 599.65 2050.75 648.36 2050.28 704.08C1867.14 699.87 1613.59 600.57 1435.5 565.5C873.5 454.829 807 531.458 497 474.5C219.86 423.58 208.07 431.28 -54.59 321.15C-67.04 315.93 -81.58 315.23 -91.92 306.55C-105.26 295.35 -110.09 277.16 -113.32 260.04C-123.92 203.8 -125.11 145.79 -116.81 89.17C-114.99 76.77 -112.1 63.32 -102.33 55.46C-92.56 47.6 -74.13 50.72 -72.23 63.11" fill="#5695A8"/>
<g style="mix-blend-mode:screen" opacity="0.44">
<path d="M122.525 569.467C218.912 569.467 297.05 568.243 297.05 566.733C297.05 565.224 218.912 564 122.525 564C26.1374 564 -52 565.224 -52 566.733C-52 568.243 26.1374 569.467 122.525 569.467Z" fill="#C3CFD0"/>
</g>
<g style="mix-blend-mode:screen" opacity="0.44">
<path d="M265.86 636.559C265.86 638.149 233.776 639.392 194.192 639.392C154.609 639.392 122.525 638.1 122.525 636.559C122.525 635.018 154.609 633.726 194.192 633.726C233.776 633.726 265.86 635.018 265.86 636.559Z" fill="#C3CFD0"/>
</g>
</svg>
